<svg xmlns="http://www.w3.org/2000/svg" xmlns:xlink="http://www.w3.org/1999/xlink" width="16" height="13" viewBox="0 0 16 13">
  <defs>
    <clipPath id="clip-path">
      <rect width="16" height="13" fill="none"/>
    </clipPath>
    <clipPath id="clip-path-2">
      <rect id="Rectangle_77" data-name="Rectangle 77" width="16" height="13" transform="translate(516 454)" fill="#a99964" stroke="#707070" stroke-width="1"/>
    </clipPath>
  </defs>
  <g id="Component_1_1" data-name="Component 1 – 1" clip-path="url(#clip-path)">
    <g id="Mask_Group_2" data-name="Mask Group 2" transform="translate(-516 -454)" clip-path="url(#clip-path-2)">
      <g id="calendar-4" transform="translate(517.5 454)">
        <g id="Group_102" data-name="Group 102">
          <g id="Group_101" data-name="Group 101">
            <path id="Path_1876" data-name="Path 1876" d="M11.477,1.016h-.609V0H9.852V1.016h-6.7V0H2.133V1.016H1.523A1.525,1.525,0,0,0,0,2.539v8.938A1.525,1.525,0,0,0,1.523,13h9.953A1.525,1.525,0,0,0,13,11.477V2.539A1.525,1.525,0,0,0,11.477,1.016Zm.508,10.461a.508.508,0,0,1-.508.508H1.523a.508.508,0,0,1-.508-.508v-6.7H11.984Zm0-7.719H1.016V2.539a.508.508,0,0,1,.508-.508h.609V3.047H3.148V2.031h6.7V3.047h1.016V2.031h.609a.508.508,0,0,1,.508.508Z" fill="#a99964"/>
          </g>
        </g>
        <g id="Group_104" data-name="Group 104">
          <g id="Group_103" data-name="Group 103">
            <rect id="Rectangle_63" data-name="Rectangle 63" width="1.016" height="1.016" transform="translate(1.93 5.84)" fill="#a99964"/>
          </g>
        </g>
        <g id="Group_106" data-name="Group 106">
          <g id="Group_105" data-name="Group 105">
            <rect id="Rectangle_64" data-name="Rectangle 64" width="1.016" height="1.016" transform="translate(3.961 5.84)" fill="#a99964"/>
          </g>
        </g>
        <g id="Group_108" data-name="Group 108">
          <g id="Group_107" data-name="Group 107">
            <rect id="Rectangle_65" data-name="Rectangle 65" width="1.016" height="1.016" transform="translate(5.992 5.84)" fill="#a99964"/>
          </g>
        </g>
        <g id="Group_110" data-name="Group 110">
          <g id="Group_109" data-name="Group 109">
            <rect id="Rectangle_66" data-name="Rectangle 66" width="1.016" height="1.016" transform="translate(8.023 5.84)" fill="#a99964"/>
          </g>
        </g>
        <g id="Group_112" data-name="Group 112">
          <g id="Group_111" data-name="Group 111">
            <rect id="Rectangle_67" data-name="Rectangle 67" width="1.016" height="1.016" transform="translate(10.055 5.84)" fill="#a99964"/>
          </g>
        </g>
        <g id="Group_114" data-name="Group 114">
          <g id="Group_113" data-name="Group 113">
            <rect id="Rectangle_68" data-name="Rectangle 68" width="1.016" height="1.016" transform="translate(1.93 7.871)" fill="#a99964"/>
          </g>
        </g>
        <g id="Group_116" data-name="Group 116">
          <g id="Group_115" data-name="Group 115">
            <rect id="Rectangle_69" data-name="Rectangle 69" width="1.016" height="1.016" transform="translate(3.961 7.871)" fill="#a99964"/>
          </g>
        </g>
        <g id="Group_118" data-name="Group 118">
          <g id="Group_117" data-name="Group 117">
            <rect id="Rectangle_70" data-name="Rectangle 70" width="1.016" height="1.016" transform="translate(5.992 7.871)" fill="#a99964"/>
          </g>
        </g>
        <g id="Group_120" data-name="Group 120">
          <g id="Group_119" data-name="Group 119">
            <rect id="Rectangle_71" data-name="Rectangle 71" width="1.016" height="1.016" transform="translate(8.023 7.871)" fill="#a99964"/>
          </g>
        </g>
        <g id="Group_122" data-name="Group 122">
          <g id="Group_121" data-name="Group 121">
            <rect id="Rectangle_72" data-name="Rectangle 72" width="1.016" height="1.016" transform="translate(1.93 9.902)" fill="#a99964"/>
          </g>
        </g>
        <g id="Group_124" data-name="Group 124">
          <g id="Group_123" data-name="Group 123">
            <rect id="Rectangle_73" data-name="Rectangle 73" width="1.016" height="1.016" transform="translate(3.961 9.902)" fill="#a99964"/>
          </g>
        </g>
        <g id="Group_126" data-name="Group 126">
          <g id="Group_125" data-name="Group 125">
            <rect id="Rectangle_74" data-name="Rectangle 74" width="1.016" height="1.016" transform="translate(5.992 9.902)" fill="#a99964"/>
          </g>
        </g>
        <g id="Group_128" data-name="Group 128">
          <g id="Group_127" data-name="Group 127">
            <rect id="Rectangle_75" data-name="Rectangle 75" width="1.016" height="1.016" transform="translate(8.023 9.902)" fill="#a99964"/>
          </g>
        </g>
        <g id="Group_130" data-name="Group 130">
          <g id="Group_129" data-name="Group 129">
            <rect id="Rectangle_76" data-name="Rectangle 76" width="1.016" height="1.016" transform="translate(10.055 7.871)" fill="#a99964"/>
          </g>
        </g>
      </g>
    </g>
  </g>
</svg>
