<?xml version="1.0" encoding="utf-8"?>
<!-- Generator: Adobe Illustrator 23.0.4, SVG Export Plug-In . SVG Version: 6.00 Build 0)  -->
<svg fill="#b6a658" version="1.1" id="Capa_1" xmlns="http://www.w3.org/2000/svg" xmlns:xlink="http://www.w3.org/1999/xlink" x="0px" y="0px"
	 viewBox="0 0 35 35" style="enable-background:new 0 0 35 35;" xml:space="preserve">
<style type="text/css">
	.st0{clip-path:url(#SVGID_2_);}
</style>
<path d="M33,0H2C0.9,0,0,0.9,0,2v31c0,1.1,0.9,2,2,2h31c1.1,0,2-0.9,2-2V2C35,0.9,34.1,0,33,0z M29.8,9.9h-3.3c-1,0-1.7,0.7-1.7,1.7
	v3.3h5v5h-5v11.6h-5V19.9h-3.3v-5h3.3v-4.2c0-3.2,2.7-5.8,5.8-5.8h4.2V9.9z"/>
</svg>
