<?xml version="1.0" encoding="utf-8"?>
<!-- Generator: Adobe Illustrator 23.0.4, SVG Export Plug-In . SVG Version: 6.00 Build 0)  -->
<svg fill="#b6a658" version="1.1" id="Capa_1" xmlns="http://www.w3.org/2000/svg" xmlns:xlink="http://www.w3.org/1999/xlink" x="0px" y="0px"
	 viewBox="0 0 35 35" style="enable-background:new 0 0 35 35;" xml:space="preserve">
<style type="text/css">
	.st0{clip-path:url(#SVGID_2_);}
</style>
<g>
	<defs>
		<path id="SVGID_1_" d="M33,35H2c-1.1,0-2-0.9-2-2V2c0-1.1,0.9-2,2-2h31c1.1,0,2,0.9,2,2v31C35,34.1,34.1,35,33,35z"/>
	</defs>
	<clipPath id="SVGID_2_">
		<use xlink:href="#SVGID_1_"  style="overflow:visible;"/>
	</clipPath>
	<g class="st0">
		<path d="M27.5,9.9c-0.2-0.6-0.5-1.1-1-1.5c-0.4-0.4-0.9-0.8-1.5-1C24.6,7.3,24,7.1,22.7,7c-1.4-0.1-1.8-0.1-5.2-0.1
			c-3.4,0-3.8,0-5.2,0.1C11,7.1,10.4,7.3,9.9,7.5C9.3,7.7,8.8,8,8.4,8.4C8,8.8,7.7,9.3,7.5,9.9C7.3,10.4,7.1,11,7,12.3
			c-0.1,1.4-0.1,1.8-0.1,5.2c0,3.4,0,3.8,0.1,5.2c0.1,1.3,0.3,1.9,0.4,2.4c0.2,0.6,0.5,1.1,1,1.5c0.4,0.4,0.9,0.8,1.5,1
			c0.5,0.2,1.1,0.4,2.4,0.4c1.4,0.1,1.8,0.1,5.2,0.1c3.4,0,3.8,0,5.2-0.1c1.3-0.1,1.9-0.3,2.4-0.4c1.1-0.4,2-1.3,2.4-2.4
			c0.2-0.5,0.4-1.1,0.4-2.4c0.1-1.4,0.1-1.8,0.1-5.2c0-3.4,0-3.8-0.1-5.2C27.9,11,27.7,10.4,27.5,9.9z M17.5,24.1
			c-3.7,0-6.6-3-6.6-6.6s3-6.6,6.6-6.6c3.7,0,6.6,3,6.6,6.6S21.2,24.1,17.5,24.1z M24.4,12.2c-0.9,0-1.5-0.7-1.5-1.5
			s0.7-1.5,1.5-1.5c0.9,0,1.5,0.7,1.5,1.5C25.9,11.5,25.2,12.2,24.4,12.2z"/>
		<path d="M21.8,17.5c0,2.4-1.9,4.3-4.3,4.3s-4.3-1.9-4.3-4.3s1.9-4.3,4.3-4.3S21.8,15.1,21.8,17.5z"/>
		<path d="M36.7-4.9H-1.7c-1.8,0-3.2,1.4-3.2,3.2v38.4c0,1.8,1.4,3.2,3.2,3.2h38.4c1.8,0,3.2-1.4,3.2-3.2V-1.7
			C39.9-3.5,38.5-4.9,36.7-4.9z M30.3,22.8c-0.1,1.4-0.3,2.3-0.6,3.1c-0.7,1.7-2,3.1-3.8,3.8c-0.8,0.3-1.8,0.5-3.1,0.6
			c-1.4,0.1-1.8,0.1-5.3,0.1c-3.5,0-3.9,0-5.3-0.1c-1.4-0.1-2.3-0.3-3.1-0.6c-0.9-0.3-1.6-0.8-2.3-1.5c-0.7-0.6-1.2-1.4-1.5-2.3
			c-0.3-0.8-0.5-1.8-0.6-3.1c-0.1-1.4-0.1-1.8-0.1-5.3s0-3.9,0.1-5.3C4.8,10.8,5,9.9,5.3,9.1c0.3-0.9,0.8-1.6,1.5-2.3
			c0.6-0.7,1.4-1.2,2.3-1.5c0.8-0.3,1.8-0.5,3.1-0.6c1.4-0.1,1.8-0.1,5.3-0.1s3.9,0,5.3,0.1c1.4,0.1,2.3,0.3,3.1,0.6
			c0.9,0.3,1.6,0.8,2.3,1.5c0.7,0.6,1.2,1.4,1.5,2.3c0.3,0.8,0.5,1.8,0.6,3.1c0.1,1.4,0.1,1.8,0.1,5.3S30.4,21.4,30.3,22.8z"/>
	</g>
</g>
</svg>
