<svg id="Слой_1" data-name="Слой 1" xmlns="http://www.w3.org/2000/svg" xmlns:xlink="http://www.w3.org/1999/xlink" viewBox="0 0 381.57 256.15"><defs><style>.cls-1{fill:url(#Безымянный_градиент);}.cls-2{fill:url(#Безымянный_градиент_2);}.cls-3{fill:url(#Безымянный_градиент_3);}.cls-4{fill:url(#Безымянный_градиент_4);}.cls-5{fill:url(#Безымянный_градиент_5);}.cls-6{fill:url(#Безымянный_градиент_6);}.cls-7{fill:url(#Безымянный_градиент_7);}.cls-8{fill:url(#Безымянный_градиент_8);}.cls-9{fill:url(#Безымянный_градиент_9);}.cls-10{fill:url(#Безымянный_градиент_10);}.cls-11{fill:url(#Безымянный_градиент_11);}.cls-12{fill:url(#Безымянный_градиент_12);}.cls-13{fill:url(#Безымянный_градиент_13);}.cls-14{fill:url(#Безымянный_градиент_14);}.cls-15{fill:url(#Безымянный_градиент_15);}.cls-16{fill:url(#Безымянный_градиент_16);}.cls-17{fill:url(#Безымянный_градиент_17);}.cls-18{fill:url(#Безымянный_градиент_18);}.cls-19{fill:url(#Безымянный_градиент_19);}.cls-20{fill:url(#Безымянный_градиент_20);}.cls-21{fill:url(#Безымянный_градиент_21);}.cls-22{fill:url(#Безымянный_градиент_22);}.cls-23{fill:url(#Безымянный_градиент_23);}.cls-24{fill:url(#Безымянный_градиент_24);}.cls-25{fill:url(#Безымянный_градиент_25);}.cls-26{fill:url(#Безымянный_градиент_26);}.cls-27{fill:url(#Безымянный_градиент_27);}.cls-28{fill:url(#Безымянный_градиент_28);}.cls-29{fill:url(#Безымянный_градиент_29);}.cls-30{fill:url(#Безымянный_градиент_30);}.cls-31{fill:url(#Безымянный_градиент_31);}.cls-32{fill:url(#Безымянный_градиент_32);}.cls-33{fill:url(#Безымянный_градиент_33);}.cls-34{fill:url(#Безымянный_градиент_34);}.cls-35{fill:url(#Безымянный_градиент_35);}.cls-36{fill:url(#Безымянный_градиент_36);}.cls-37{fill:url(#Безымянный_градиент_37);}.cls-38{fill:url(#Безымянный_градиент_38);}.cls-39{fill:url(#Безымянный_градиент_39);}.cls-40{fill:url(#Безымянный_градиент_40);}.cls-41{fill:url(#Безымянный_градиент_41);}</style><linearGradient id="Безымянный_градиент" x1="5.52" y1="84.96" x2="27.63" y2="62.85" gradientTransform="matrix(1, 0, 0, -1, 0, 258)" gradientUnits="userSpaceOnUse"><stop offset="0" stop-color="#ddcb7c"/><stop offset="1" stop-color="#716224"/></linearGradient><linearGradient id="Безымянный_градиент_2" x1="34.07" y1="84.57" x2="56.17" y2="62.48" xlink:href="#Безымянный_градиент"/><linearGradient id="Безымянный_градиент_3" x1="68.9" y1="76.58" x2="96.57" y2="48.91" xlink:href="#Безымянный_градиент"/><linearGradient id="Безымянный_градиент_4" x1="104.42" y1="88.08" x2="138.38" y2="54.12" xlink:href="#Безымянный_градиент"/><linearGradient id="Безымянный_градиент_5" x1="146.58" y1="76.59" x2="174.44" y2="48.73" xlink:href="#Безымянный_градиент"/><linearGradient id="Безымянный_градиент_6" x1="178.88" y1="88.45" x2="205.46" y2="61.87" xlink:href="#Безымянный_градиент"/><linearGradient id="Безымянный_градиент_7" x1="220.78" y1="85.62" x2="253.28" y2="53.12" xlink:href="#Безымянный_градиент"/><linearGradient id="Безымянный_градиент_8" x1="262.82" y1="82.96" x2="289.33" y2="56.46" xlink:href="#Безымянный_градиент"/><linearGradient id="Безымянный_градиент_9" x1="300.58" y1="83.1" x2="332.58" y2="51.1" xlink:href="#Безымянный_градиент"/><linearGradient id="Безымянный_градиент_10" x1="340.18" y1="83.11" x2="372.21" y2="51.07" xlink:href="#Безымянный_градиент"/><linearGradient id="Безымянный_градиент_11" x1="114.49" y1="27.07" x2="125.19" y2="16.38" xlink:href="#Безымянный_градиент"/><linearGradient id="Безымянный_градиент_12" x1="126.64" y1="23.19" x2="137.2" y2="12.64" xlink:href="#Безымянный_градиент"/><linearGradient id="Безымянный_градиент_13" x1="138.29" y1="24.49" x2="149.47" y2="13.29" xlink:href="#Безымянный_градиент"/><linearGradient id="Безымянный_градиент_14" x1="151.11" y1="24.57" x2="162.62" y2="13.06" xlink:href="#Безымянный_градиент"/><linearGradient id="Безымянный_градиент_15" x1="163.86" y1="23.24" x2="172.79" y2="14.33" xlink:href="#Безымянный_градиент"/><linearGradient id="Безымянный_градиент_16" x1="174.95" y1="25.77" x2="184.18" y2="16.54" xlink:href="#Безымянный_градиент"/><linearGradient id="Безымянный_градиент_17" x1="185.58" y1="24.49" x2="196.76" y2="13.29" xlink:href="#Безымянный_градиент"/><linearGradient id="Безымянный_градиент_18" x1="207.79" y1="22.38" x2="214.76" y2="15.4" xlink:href="#Безымянный_градиент"/><linearGradient id="Безымянный_градиент_19" x1="196.35" y1="22.55" x2="206.22" y2="12.69" xlink:href="#Безымянный_градиент"/><linearGradient id="Безымянный_градиент_20" x1="217.84" y1="31.47" x2="221.85" y2="27.46" xlink:href="#Безымянный_градиент"/><linearGradient id="Безымянный_градиент_21" x1="214.22" y1="24.53" x2="225.49" y2="13.25" xlink:href="#Безымянный_градиент"/><linearGradient id="Безымянный_градиент_22" x1="234" y1="23.32" x2="243.01" y2="14.3" xlink:href="#Безымянный_градиент"/><linearGradient id="Безымянный_градиент_23" x1="245.78" y1="23.2" x2="256.33" y2="12.66" xlink:href="#Безымянный_градиент"/><linearGradient id="Безымянный_градиент_24" x1="258.49" y1="23.15" x2="268.81" y2="12.83" xlink:href="#Безымянный_градиент"/><linearGradient id="Безымянный_градиент_25" x1="61.05" y1="169.63" x2="98.56" y2="132.13" xlink:href="#Безымянный_градиент"/><linearGradient id="Безымянный_градиент_26" x1="56.96" y1="176.13" x2="65.54" y2="167.55" xlink:href="#Безымянный_градиент"/><linearGradient id="Безымянный_градиент_27" x1="100.33" y1="121.59" x2="119.74" y2="102.18" xlink:href="#Безымянный_градиент"/><linearGradient id="Безымянный_градиент_28" x1="73.09" y1="146.53" x2="80.12" y2="139.52" xlink:href="#Безымянный_градиент"/><linearGradient id="Безымянный_градиент_29" x1="106.65" y1="222.01" x2="121.51" y2="207.16" xlink:href="#Безымянный_градиент"/><linearGradient id="Безымянный_градиент_30" x1="12.3" y1="127.02" x2="27.21" y2="112.11" xlink:href="#Безымянный_градиент"/><linearGradient id="Безымянный_градиент_31" x1="156.99" y1="202.31" x2="224.27" y2="135.01" xlink:href="#Безымянный_градиент"/><linearGradient id="Безымянный_градиент_32" x1="269.52" y1="183.65" x2="335.11" y2="118.06" xlink:href="#Безымянный_градиент"/><linearGradient id="Безымянный_градиент_33" x1="311.85" y1="180.88" x2="329.89" y2="162.84" xlink:href="#Безымянный_градиент"/><linearGradient id="Безымянный_градиент_34" x1="266.93" y1="117.02" x2="277.16" y2="106.78" xlink:href="#Безымянный_градиент"/><linearGradient id="Безымянный_градиент_35" x1="297.61" y1="150.92" x2="313.43" y2="135.09" xlink:href="#Безымянный_градиент"/><linearGradient id="Безымянный_градиент_36" x1="257.61" y1="225.03" x2="278.47" y2="204.17" xlink:href="#Безымянный_градиент"/><linearGradient id="Безымянный_градиент_37" x1="350.74" y1="131.26" x2="374.03" y2="107.96" xlink:href="#Безымянный_градиент"/><linearGradient id="Безымянный_градиент_38" x1="174.85" y1="244.43" x2="188.05" y2="231.23" xlink:href="#Безымянный_градиент"/><linearGradient id="Безымянный_градиент_39" x1="190.66" y1="249.96" x2="215.11" y2="225.51" xlink:href="#Безымянный_градиент"/><linearGradient id="Безымянный_градиент_40" x1="104.12" y1="125.85" x2="274.88" y2="-44.91" xlink:href="#Безымянный_градиент"/><linearGradient id="Безымянный_градиент_41" x1="99.32" y1="200.6" x2="281.21" y2="18.7" xlink:href="#Безымянный_градиент"/></defs><title>logo-granathall_gold</title><path class="cls-1" d="M27.46,175.83v2.44H32v-4.53c0-2.09-.69-3.13-3.13-3.13H8v4.18h3.48v31.69h4.88V174.79h10.1a.93.93,0,0,1,1,.85A.61.61,0,0,1,27.46,175.83Z"/><path class="cls-2" d="M45.22,206.48V193.25h7.66c6.62,0,11.5-4.53,11.5-11.5,0-6.61-4.88-11.14-11.5-11.14h-16v4.18h3.48v31.69Zm.35-31.69h6.61c4.18,0,7,2.44,7,7a6.59,6.59,0,0,1-6.15,7,6,6,0,0,1-.85,0H45.57Z"/><path class="cls-3" d="M96.77,200.91l-11.5-30.65H80.05l-11.5,30.65A1.59,1.59,0,0,1,66.81,202h-.34v4.52h2.78c2.44,0,3.48-.69,4.18-3.13L76.22,196H89.45l2.79,7.32c.7,2.44,1.74,3.13,4.18,3.13h2.79V202h-.7C97.46,202,97.12,202,96.77,200.91Zm-19.16-9,3.83-11.15c.7-2.09,1.4-5.22,1.4-5.22a39.37,39.37,0,0,0,1.39,5.22l3.83,11.15Z"/><path class="cls-4" d="M135.78,206.48V175.83a.92.92,0,0,1,.83-1,.49.49,0,0,1,.17,0h2.44v-4.18H134c-2.44,0-3.49.7-3.49,3.13v12.54H112.09V173.74c0-2.09-.69-3.13-3.13-3.13h-5.23v4.18h2.09a.93.93,0,0,1,1.05.8,1.34,1.34,0,0,1,0,.2v30.65h5.22V190.81h18.46v15.67Z"/><path class="cls-5" d="M174.79,200.91l-11.5-30.65h-5.57l-11.49,30.65a1.61,1.61,0,0,1-1.75,1.05h-.69v4.52h2.78c2.44,0,3.49-.69,4.18-3.13l3.49-7.32h13.23l2.79,7.32c.7,2.44,1.74,3.13,4.18,3.13h2.79V202h-.7C175.48,202,175.14,202,174.79,200.91Zm-19.51-9,3.83-11.15c.7-2.09,1.4-5.22,1.4-5.22a39.37,39.37,0,0,0,1.39,5.22l3.83,11.15Z"/><path class="cls-6" d="M207.53,178.27V173.4c0-2.44-.7-3.14-3.14-3.14H180c-2.44,0-3.13.7-3.13,3.14v4.87h4.52v-2.44a.93.93,0,0,1,.85-1h7.46V207h4.88V174.79H202a.93.93,0,0,1,1.05.8,1.34,1.34,0,0,1,0,.2v2.44Z"/><path class="cls-7" d="M228.12,206.48l6.56-11c.75-1.33,1.49-2.72,2.2-4.15h.1l2.26,4.1,6.6,11h5.79l-11.42-18.64L247.53,176a2.56,2.56,0,0,1,2.36-1.28h1.33v-4.41h-3a6,6,0,0,0-2.87.54,5.74,5.74,0,0,0-2,2.23L239.29,180a46.28,46.28,0,0,0-2.21,4.25H237L234.7,180l-4-6.86a5.75,5.75,0,0,0-2-2.23,6.26,6.26,0,0,0-2.92-.54h-3v4.41h1.28a3.25,3.25,0,0,1,1.41.23,2.53,2.53,0,0,1,1,1l7.27,11.83-11.37,18.64Z"/><path class="cls-8" d="M262.87,175a17.79,17.79,0,0,0-5.35,13.12,18.56,18.56,0,0,0,31.73,13.5l0,0a18.54,18.54,0,0,0,5.38-13.47A17.82,17.82,0,0,0,289.28,175,19,19,0,0,0,262.87,175Zm26.46,13.12a14.07,14.07,0,0,1-3.87,10,12.81,12.81,0,0,1-18.1.67c-.23-.22-.46-.44-.67-.67a14.15,14.15,0,0,1-3.84-10,13.45,13.45,0,0,1,3.84-9.74,13.15,13.15,0,0,1,18.6-.17l.17.17a13.35,13.35,0,0,1,3.87,9.77Z"/><path class="cls-9" d="M325.34,205.72a3.45,3.45,0,0,0,2.51.76H333v-4.4h-2.2a1,1,0,0,1-1.13-.85,1.31,1.31,0,0,1,0-.28V173.6a2.8,2.8,0,0,0-2.22-3.28,2.7,2.7,0,0,0-1.06,0H305.16v4.41h3.38v4q0,11.37-1.9,17.06t-6.35,6.3v4.66q7.17-.41,10.14-7.35t3-20.62v-4h10a1,1,0,0,1,1.13.85,1.22,1.22,0,0,1,0,.27v27.36A3.44,3.44,0,0,0,325.34,205.72Z"/><path class="cls-10" d="M369.29,201V173.6a2.8,2.8,0,0,0-2.22-3.28,2.7,2.7,0,0,0-1.06,0H344.75v4.41h3.38v4q0,11.37-1.89,17.06t-6.35,6.3v4.66q7.17-.41,10.14-7.35t3-20.62v-4h10a1,1,0,0,1,1.12.86,1.13,1.13,0,0,1,0,.26v27.36a2.79,2.79,0,0,0,2.21,3.27,2.75,2.75,0,0,0,1.07,0h5.18v-4.4H370.4a1,1,0,0,1-1.11-.87A1.13,1.13,0,0,1,369.29,201Z"/><path class="cls-11" d="M122.89,234.57a5,5,0,0,0-1.74-1.26,5.55,5.55,0,0,0-2.24-.43,5,5,0,0,0-4.52,2.78h-.07a9,9,0,0,1,1.49-4.28,4.23,4.23,0,0,1,3.17-1.52l1.8-.12a6.07,6.07,0,0,0,2.34-.5,1.94,1.94,0,0,0,1-1.51h-1.66a.87.87,0,0,1-.48.46,4.21,4.21,0,0,1-1.27.2l-1.14.07a8.13,8.13,0,0,0-2.91.67,5,5,0,0,0-2,1.86,7,7,0,0,0-.74,1.57,14.41,14.41,0,0,0-.46,1.83,17.87,17.87,0,0,0-.25,1.93c0,.65-.07,1.28-.07,1.87a15.44,15.44,0,0,0,.26,2.8,7.37,7.37,0,0,0,.9,2.39,4.86,4.86,0,0,0,1.73,1.67,5.45,5.45,0,0,0,2.77.63,5.59,5.59,0,0,0,2.32-.46,4.92,4.92,0,0,0,1.79-1.3,6.07,6.07,0,0,0,1.15-2,9.07,9.07,0,0,0,0-5.31A5.93,5.93,0,0,0,122.89,234.57Zm-.26,6.76a4.87,4.87,0,0,1-.86,1.64,3.81,3.81,0,0,1-1.33,1.06,4,4,0,0,1-3.34,0,3.87,3.87,0,0,1-1.32-1.06,5.08,5.08,0,0,1-.87-1.64,7.23,7.23,0,0,1,0-4.19,4.89,4.89,0,0,1,.87-1.6,3.74,3.74,0,0,1,1.33-1,4.1,4.1,0,0,1,1.73-.36,3.5,3.5,0,0,1,1.62.37,4,4,0,0,1,1.31,1,4.64,4.64,0,0,1,.86,1.59,7.23,7.23,0,0,1,0,4.19Z"/><path class="cls-12" d="M136,243.14v-6.61a4.45,4.45,0,0,0-.4-2,3.19,3.19,0,0,0-1-1.22,4,4,0,0,0-1.45-.6,8.69,8.69,0,0,0-1.61-.15,5.68,5.68,0,0,0-3.46,1,4,4,0,0,0-1.48,3.19H128a2.71,2.71,0,0,1,.94-2.21,3.69,3.69,0,0,1,2.32-.69,7.44,7.44,0,0,1,1.25.1,3.09,3.09,0,0,1,1,.4,2,2,0,0,1,.68.79,2.78,2.78,0,0,1,.25,1.27,2.08,2.08,0,0,1-.13.82,1.18,1.18,0,0,1-.37.49,1.47,1.47,0,0,1-.6.26c-.25,0-.52.09-.82.12-.8.09-1.6.19-2.38.3a8.43,8.43,0,0,0-2.1.54,3.68,3.68,0,0,0-1.51,1.13,3.31,3.31,0,0,0-.57,2,4,4,0,0,0,.32,1.63,3.24,3.24,0,0,0,.88,1.13,3.39,3.39,0,0,0,1.3.65,6.59,6.59,0,0,0,3.14,0,4,4,0,0,0,2.1-1.27,12,12,0,0,0,.81-1.07h.05a6.51,6.51,0,0,0,.06.88,1.69,1.69,0,0,0,.25.69,1.14,1.14,0,0,0,.53.44,2.19,2.19,0,0,0,.91.16h.51a1,1,0,0,0,.46-.08V244a1,1,0,0,1-.47.09C136.25,244.06,136,243.76,136,243.14Zm-1.49-2.64a3.67,3.67,0,0,1-1.27,2.87,4,4,0,0,1-1.36.76,5,5,0,0,1-1.63.27,3.09,3.09,0,0,1-1-.17,2.87,2.87,0,0,1-.87-.49,2.5,2.5,0,0,1-.6-.77,2.28,2.28,0,0,1-.22-1,1.83,1.83,0,0,1,.53-1.4,3.41,3.41,0,0,1,1.36-.77,10.6,10.6,0,0,1,1.84-.4q1-.12,2-.3a5.62,5.62,0,0,0,.71-.16.83.83,0,0,0,.54-.39h0Z"/><polygon class="cls-13" points="147.35 238.17 140.41 238.17 140.41 232.88 138.92 232.88 138.92 245.34 140.41 245.34 140.41 239.45 147.35 239.45 147.35 245.34 148.84 245.34 148.84 232.88 147.35 232.88 147.35 238.17"/><polygon class="cls-14" points="161.91 232.88 159.93 232.88 153.15 239.28 153.15 232.88 151.66 232.88 151.66 245.34 153.15 245.34 153.15 241.14 155.64 238.8 160.35 245.34 162.22 245.34 156.73 237.76 161.91 232.88"/><path class="cls-15" d="M173.49,237a6.63,6.63,0,0,0-.93-2.25,5.11,5.11,0,0,0-1.69-1.58,5,5,0,0,0-2.52-.6,5.26,5.26,0,0,0-2.5.56,5,5,0,0,0-1.71,1.5,6.45,6.45,0,0,0-1,2.12,8.91,8.91,0,0,0-.32,2.41,9.46,9.46,0,0,0,.32,2.54,6.3,6.3,0,0,0,1,2.09,4.71,4.71,0,0,0,1.71,1.42,5.4,5.4,0,0,0,2.5.52,5.15,5.15,0,0,0,3.59-1.16,6,6,0,0,0,1.74-3.28h-1.49a4.62,4.62,0,0,1-1.28,2.3,3.62,3.62,0,0,1-2.56.86,3.41,3.41,0,0,1-1.82-.46,4,4,0,0,1-1.25-1.15,5,5,0,0,1-.73-1.56,6.58,6.58,0,0,1-.22-1.71h9.4A10.09,10.09,0,0,0,173.49,237Zm-9.16,1.29a6.72,6.72,0,0,1,.39-1.65,4.88,4.88,0,0,1,.79-1.43,3.9,3.9,0,0,1,1.21-1,3.78,3.78,0,0,1,3.25,0,4,4,0,0,1,1.2,1,4.51,4.51,0,0,1,.77,1.41,5.93,5.93,0,0,1,.3,1.67Z"/><polygon class="cls-16" points="174.3 234.16 178.82 234.16 178.82 245.34 180.31 245.34 180.31 234.16 184.84 234.16 184.84 232.88 174.3 232.88 174.3 234.16"/><polygon class="cls-17" points="194.64 238.17 187.7 238.17 187.7 232.88 186.21 232.88 186.21 245.34 187.7 245.34 187.7 239.45 194.64 239.45 194.64 245.34 196.13 245.34 196.13 232.88 194.64 232.88 194.64 238.17"/><rect class="cls-18" x="210.53" y="232.88" width="1.49" height="12.46"/><path class="cls-19" d="M204.37,237.88h-4v-5h-1.5v12.46h5.45a3.94,3.94,0,0,0,2.82-1,3.68,3.68,0,0,0,1-2.77,3.56,3.56,0,0,0-1-2.73A4,4,0,0,0,204.37,237.88Zm1.65,5.55a3,3,0,0,1-2,.63h-3.6v-4.9H204a3.12,3.12,0,0,1,2,.59,2.19,2.19,0,0,1,.72,1.82,2.32,2.32,0,0,1-.72,1.86Z"/><path class="cls-20" d="M222.15,230.23a4,4,0,0,0,1.12-2.33h-.93a2.35,2.35,0,0,1-.84,1.46,2.58,2.58,0,0,1-1.67.52,2.46,2.46,0,0,1-1.69-.53,2.17,2.17,0,0,1-.75-1.45h-.92a3.82,3.82,0,0,0,1,2.33,3.18,3.18,0,0,0,2.32.81A3.29,3.29,0,0,0,222.15,230.23Z"/><polygon class="cls-21" points="216.3 243.55 216.3 232.88 214.81 232.88 214.81 245.34 216.66 245.34 223.41 234.67 223.41 245.34 224.9 245.34 224.9 232.88 223.05 232.88 216.3 243.55"/><path class="cls-22" d="M242.73,239.51A2.29,2.29,0,0,0,242,239a3.24,3.24,0,0,0-.85-.27h0a2,2,0,0,0,.73-.31,2.61,2.61,0,0,0,.63-.61A3,3,0,0,0,243,237a3.09,3.09,0,0,0,.17-1,3.14,3.14,0,0,0-.36-1.56,3,3,0,0,0-1-1,4.58,4.58,0,0,0-1.43-.58,8.79,8.79,0,0,0-1.77-.18,8.41,8.41,0,0,0-1.73.19,3.94,3.94,0,0,0-1.46.66,3.58,3.58,0,0,0-1.07,1.22,4.64,4.64,0,0,0-.52,1.89h1.47a3.09,3.09,0,0,1,.86-1.92,3.3,3.3,0,0,1,2.43-.76,4.74,4.74,0,0,1,1.54.21,2.24,2.24,0,0,1,.92.53,1.55,1.55,0,0,1,.44.71,2.92,2.92,0,0,1,.11.72,2,2,0,0,1-.76,1.7,3,3,0,0,1-1.82.57h-1.69v1.16h2a2.61,2.61,0,0,1,2,.66,2.28,2.28,0,0,1,.61,1.59,3.37,3.37,0,0,1-.15,1,2.17,2.17,0,0,1-.51.88,2.53,2.53,0,0,1-1,.64,4.71,4.71,0,0,1-1.66.24,5,5,0,0,1-1.53-.21,2.67,2.67,0,0,1-1-.59,2.59,2.59,0,0,1-.66-.94,4.78,4.78,0,0,1-.34-1.23H233.5a4.43,4.43,0,0,0,1.36,3.1,5.25,5.25,0,0,0,3.69,1.15,7.31,7.31,0,0,0,1.86-.25,5,5,0,0,0,1.56-.76,3.65,3.65,0,0,0,1.48-3,3.09,3.09,0,0,0-.22-1.24A2.6,2.6,0,0,0,242.73,239.51Z"/><path class="cls-23" d="M255.09,243.14v-6.61a4.45,4.45,0,0,0-.4-2,3.19,3.19,0,0,0-1-1.22,4,4,0,0,0-1.45-.6,8.69,8.69,0,0,0-1.61-.15,5.73,5.73,0,0,0-3.47,1,4.06,4.06,0,0,0-1.48,3.19h1.49a2.73,2.73,0,0,1,1-2.21,3.69,3.69,0,0,1,2.32-.69,7.44,7.44,0,0,1,1.25.1,3,3,0,0,1,1,.4,2,2,0,0,1,.69.79,2.78,2.78,0,0,1,.25,1.27,2.08,2.08,0,0,1-.13.82,1.18,1.18,0,0,1-.37.49,1.47,1.47,0,0,1-.6.26c-.25,0-.52.09-.82.12-.8.09-1.6.19-2.38.3a8.61,8.61,0,0,0-2.11.54,3.65,3.65,0,0,0-1.5,1.13,3.31,3.31,0,0,0-.57,2,4,4,0,0,0,.32,1.63,3,3,0,0,0,.88,1.13,3.32,3.32,0,0,0,1.3.65,6.59,6.59,0,0,0,3.14,0A4.13,4.13,0,0,0,252,245a3.67,3.67,0,0,0,.92-.79,9.47,9.47,0,0,0,.82-1.07h.05a6.51,6.51,0,0,0,.06.88,1.73,1.73,0,0,0,.24.69,1.16,1.16,0,0,0,.54.44,2.19,2.19,0,0,0,.91.16h.51a1,1,0,0,0,.46-.08V244a1.09,1.09,0,0,1-.47.09C255.38,244.06,255.09,243.76,255.09,243.14Zm-1.49-2.64a3.89,3.89,0,0,1-.34,1.64,3.74,3.74,0,0,1-.93,1.23,4,4,0,0,1-1.36.76,5,5,0,0,1-1.63.27,3.09,3.09,0,0,1-1-.17,2.68,2.68,0,0,1-.87-.49,2.5,2.5,0,0,1-.6-.77,2.29,2.29,0,0,1-.23-1,1.84,1.84,0,0,1,.54-1.4,3.41,3.41,0,0,1,1.36-.77,10.49,10.49,0,0,1,1.83-.4c.67-.08,1.32-.18,2-.3a5.62,5.62,0,0,0,.71-.16.83.83,0,0,0,.54-.39h0Z"/><path class="cls-24" d="M260.35,237.53c-.08,1.26-.18,2.31-.31,3.14a10.71,10.71,0,0,1-.45,1.94,3.26,3.26,0,0,1-.55,1,1.12,1.12,0,0,1-.56.4,1.81,1.81,0,0,1-.52.07,4.6,4.6,0,0,1-.64-.05,2.75,2.75,0,0,1-.57-.12v1.33l.22.06.33.06.35,0h.28a6.74,6.74,0,0,0,1-.08,2,2,0,0,0,.93-.44,3.44,3.44,0,0,0,.82-1.07,8.85,8.85,0,0,0,.66-2,25.5,25.5,0,0,0,.44-3.14q.15-1.89.15-4.59h5.23v11.18h1.49V232.88h-8.16C260.48,234.71,260.43,236.26,260.35,237.53Z"/><path class="cls-25" d="M38,130.13a1.8,1.8,0,0,0,.69-.13c8.3-3.28,15.29-9,22-14.46,1.36-1.1,2.71-2.21,4.08-3.29C72.16,106.42,81,100.37,90.93,99.5a67.65,67.65,0,0,0,8.95,9.43c2,1.76,4.34,3.68,7.31,4.13a7.43,7.43,0,0,0,5.54-1.44,5.56,5.56,0,0,0,2.2-3.79c.27-2.62-1.3-5.09-4.52-7.17a31.87,31.87,0,0,0-17.65-5A28.57,28.57,0,0,1,87.9,84.44c-1.39-8,3.11-18,11.23-19.43a1.86,1.86,0,0,0-.21-3.69,22.25,22.25,0,0,0-19.85,9.53,23.54,23.54,0,0,0-2.94,20.51c-9.31,2.8-16.51,9.77-21.82,15.66-2.28,2.52-4.23,5.11-6.11,7.61-3.39,4.5-6.58,8.75-11.29,12.13A1.86,1.86,0,0,0,38,130.13Zm70.41-26.34c.9.58,3,2.1,2.83,3.65a1.86,1.86,0,0,1-.78,1.24,3.7,3.7,0,0,1-2.71.7c-2-.29-3.73-1.76-5.39-3.23a69.57,69.57,0,0,1-6.64-6.66,28,28,0,0,1,12.68,4.3ZM51.17,116.87a94.11,94.11,0,0,1,5.9-7.36c5.33-5.92,12.65-13,21.94-15.06a1.85,1.85,0,0,0,1.4-2.22,1.42,1.42,0,0,0-.11-.35A19.72,19.72,0,0,1,82.12,73,18.44,18.44,0,0,1,89,67a23,23,0,0,0-4.78,18.1,31,31,0,0,0,4.32,11c-10,1.52-18.76,7.51-26.06,13.3q-2.07,1.63-4.12,3.32c-3.18,2.59-6.42,5.22-9.79,7.59C49.47,119.13,50.32,118,51.17,116.87Z"/><path class="cls-26" d="M56.69,92.91l1.51-.55c.51-.17,1-.32,1.52-.45s1-.27,1.51-.38a26.19,26.19,0,0,1,3.06-.43h.27a1.81,1.81,0,0,0,1.33-2.18v-.07c-.15-.63-.26-1.26-.38-1.9s-.17-1.28-.25-1.92l-.17-2V81a19,19,0,0,1,.07-2c.07-.68.1-1.35.19-2s.16-1.37.29-2.06L66,72.85a12.12,12.12,0,0,0-1.41,1.7,18.47,18.47,0,0,0-1.12,1.92,22,22,0,0,0-.86,2.07c-.23.71-.42,1.44-.59,2.17a19.5,19.5,0,0,0-.38,4.51,18.93,18.93,0,0,0,.28,2.61c-.54.14-1.07.3-1.59.49a15.72,15.72,0,0,0-6.13,3.89,12.14,12.14,0,0,0-2.08,2.89c1-.58,2-1.09,3-1.55Z"/><path class="cls-27" d="M106.41,134.83a13.29,13.29,0,0,1,1.94,2.42A32.89,32.89,0,0,1,111,143a34.25,34.25,0,0,0,2.87,6.32,15.89,15.89,0,0,0,1.62,2.19c-.71.06-1.42.12-2.13.22a61,61,0,0,0-6.85,1.1,61,61,0,0,0,6.84,1.16c1.15.16,2.29.24,3.43.35s2.28.16,3.42.23a1.66,1.66,0,0,0,.9-3.11l-.19-.11a10.79,10.79,0,0,1-3.88-4c-1.08-1.71-2-3.68-3-5.68a20.72,20.72,0,0,0-4-5.8,10.69,10.69,0,0,0-2.93-2.1,8.29,8.29,0,0,0-1.7-.57,7.25,7.25,0,0,0-1.74-.12,10.34,10.34,0,0,1,1.47.78A10,10,0,0,1,106.41,134.83Z"/><path class="cls-28" d="M73.19,112.65a16.2,16.2,0,0,0-2.06,1.19A14.24,14.24,0,0,0,68,116.66,8.81,8.81,0,0,0,67,118a5.86,5.86,0,0,0-.61,1.13c-.28.65-.41,1-.41,1s.37-.2,1-.57,1.4-.82,2.4-1.35a62.33,62.33,0,0,1,7.33-3.13c2.74-1,5.59-1.93,7.74-2.85A27.17,27.17,0,0,0,88,110.59a19.21,19.21,0,0,0-4-.36,25,25,0,0,0-8.6,1.45A19.73,19.73,0,0,0,73.19,112.65Z"/><path class="cls-29" d="M102.62,51.77a13.67,13.67,0,0,0,3.77,4.7,11.77,11.77,0,0,0,1.37.93c.32.19.5.28.5.28A16.1,16.1,0,0,1,104.6,51a13.83,13.83,0,0,1-.51-3.44,8.71,8.71,0,0,1,.73-3.52A12.9,12.9,0,0,1,107,40.75,16.12,16.12,0,0,1,110.25,38,15.79,15.79,0,0,1,118,35.23h2a12,12,0,0,1,1.8.26,14.9,14.9,0,0,1,3.3,1.17A13.88,13.88,0,0,1,129.33,40a12.16,12.16,0,0,1,1.28,1.76,1.94,1.94,0,0,0-.13-.57A8.83,8.83,0,0,0,130,39.6a12,12,0,0,0-3.76-4.73,13.32,13.32,0,0,0-3.64-2,16.07,16.07,0,0,0-2.28-.65,9,9,0,0,0-1.16-.17c-.4,0-.81-.07-1.22-.06a15.44,15.44,0,0,0-5,.71A18.38,18.38,0,0,0,108.23,35a19.65,19.65,0,0,0-3.85,3.49,13.85,13.85,0,0,0-2.55,4.48,10.15,10.15,0,0,0-.43,4.89A12.74,12.74,0,0,0,102.62,51.77Z"/><path class="cls-30" d="M10.39,152.17a8.88,8.88,0,0,0,4.74,3.44,5.41,5.41,0,0,0,1.6.21h.55l-.52-.18a6.71,6.71,0,0,1-1.33-.69,9.22,9.22,0,0,1-3.22-3.88,14.16,14.16,0,0,1-1-3.18,12.57,12.57,0,0,1-.21-1.73v-1.91a19.29,19.29,0,0,1,.62-3.92,17.46,17.46,0,0,1,1.47-3.81,16.53,16.53,0,0,1,2.24-3.38,18.87,18.87,0,0,1,2.85-2.73,20.06,20.06,0,0,1,6.4-3.25,22.09,22.09,0,0,1,2.9-.65,10,10,0,0,1,2.26-.16,2.22,2.22,0,0,1,1.31.49,1.34,1.34,0,0,1,.32.43,1.33,1.33,0,0,0-.15-.55,2.47,2.47,0,0,0-1.28-1.08,8.11,8.11,0,0,0-2.48-.55,14.9,14.9,0,0,0-3.27,0,17.76,17.76,0,0,0-7.86,2.65,17.18,17.18,0,0,0-3.69,3,19.9,19.9,0,0,0-2.86,4.07,20.85,20.85,0,0,0-1.65,4.66,18.66,18.66,0,0,0-.4,4.77l.09,1.19a5.1,5.1,0,0,0,.16,1,13.86,13.86,0,0,0,.58,2.19A13.29,13.29,0,0,0,10.39,152.17Z"/><path class="cls-31" d="M198.49,135.68l27.35-15.18a17.33,17.33,0,0,0,8.86-14.78l.53-31.29a17.31,17.31,0,0,0-8.37-15.07L200,43.25A17.28,17.28,0,0,0,182.79,43L155.44,58.16A17.33,17.33,0,0,0,146.58,73l-.53,31.28a17.29,17.29,0,0,0,8.37,15.06l26.83,16.1a17.22,17.22,0,0,0,8.87,2.45A17.41,17.41,0,0,0,198.49,135.68ZM186.28,95.82a19.7,19.7,0,0,1-4,2.62,18.91,18.91,0,0,1-3.43,1.14,17.67,17.67,0,0,1-4.28.53A18.17,18.17,0,0,1,161,94.38q-5.55-5.75-5.54-14.75a19.74,19.74,0,0,1,5.68-14.34,19,19,0,0,1,14.13-5.81A23.14,23.14,0,0,1,183,60.7a16.74,16.74,0,0,1,5,2.45l1.39,1.17-3.17,4.06c-.34-.29-.79-.65-1.37-1.06a19.6,19.6,0,0,0-3.67-1.67,16.08,16.08,0,0,0-5.7-1.05,13.37,13.37,0,0,0-10,4.26,14.9,14.9,0,0,0-4.09,10.77,15.26,15.26,0,0,0,4.06,11,13.48,13.48,0,0,0,10.19,4.26,15,15,0,0,0,3.84-.5,13.06,13.06,0,0,0,3.14-1.23,23.41,23.41,0,0,0,2.26-1.45,13.54,13.54,0,0,0,1.5-1.22l.45-.5V86a1.61,1.61,0,0,0-.07-.49,1.06,1.06,0,0,0-1.14-.66h-2.39v0h0V80h5.12a5.63,5.63,0,0,1,1.16.11,3.26,3.26,0,0,1,2.09.79,3.8,3.8,0,0,1,.83,2.73V97.4h20V83.65a3.63,3.63,0,0,1,.86-2.73,3.85,3.85,0,0,1,2.75-.83h5.57v4.79H219a1.08,1.08,0,0,0-1.23.91,1.61,1.61,0,0,0,0,.31v33.29h-5.56V102.13h-20v17.26h-5.56V95.46Z"/><path class="cls-32" d="M283,65c8.12,1.44,12.63,11.44,11.23,19.43a28.64,28.64,0,0,1-4.85,11.24,31.84,31.84,0,0,0-17.65,5c-3.23,2.07-4.79,4.55-4.52,7.17a5.51,5.51,0,0,0,2.19,3.79,7.48,7.48,0,0,0,5.54,1.44c3-.45,5.33-2.37,7.31-4.13a66.55,66.55,0,0,0,8.95-9.43c9.94.87,18.77,6.92,26.12,12.75,1.37,1.08,2.72,2.19,4.08,3.29,6.76,5.5,13.75,11.18,22.06,14.46a1.79,1.79,0,0,0,.68.13,1.86,1.86,0,0,0,1.86-1.86,1.82,1.82,0,0,0-.77-1.51c-4.71-3.38-7.91-7.63-11.29-12.12-1.88-2.51-3.83-5.1-6.11-7.62-5.32-5.89-12.52-12.86-21.82-15.66a23.61,23.61,0,0,0-3-20.52,22.31,22.31,0,0,0-19.86-9.53A1.86,1.86,0,0,0,283,65Zm-3.22,41.14c-1.65,1.47-3.43,2.94-5.39,3.23a3.7,3.7,0,0,1-2.71-.7,1.82,1.82,0,0,1-.77-1.24c-.17-1.55,1.92-3.07,2.82-3.65a28.07,28.07,0,0,1,12.7-4.3,71.28,71.28,0,0,1-6.68,6.67ZM300,73a19.75,19.75,0,0,1,1.81,18.91,1.84,1.84,0,0,0,1.25,2.59c9.3,2.09,16.61,9.14,22,15.06,2.17,2.4,4.06,4.92,5.9,7.36.84,1.12,1.7,2.26,2.58,3.38-3.38-2.37-6.62-5-9.8-7.59-1.37-1.12-2.75-2.23-4.12-3.32-7.29-5.79-16-11.78-26.05-13.3a31.21,31.21,0,0,0,4.31-11A23,23,0,0,0,293.09,67,18.6,18.6,0,0,1,300,73Z"/><path class="cls-33" d="M316.78,77c.09.68.12,1.36.18,2s.08,1.33.08,2v2l-.17,2c-.08.64-.15,1.28-.26,1.92s-.23,1.27-.38,1.9v.35a1.8,1.8,0,0,0,1.65,1.94h0a28.69,28.69,0,0,1,3.05.43c.51.11,1,.25,1.51.38s1,.28,1.52.45l1.51.55,1.51.64c1,.46,2,1,3,1.55a12.14,12.14,0,0,0-2.08-2.89,15.28,15.28,0,0,0-2.79-2.28,16.18,16.18,0,0,0-3.29-1.61c-.52-.19-1.05-.35-1.59-.49a18.93,18.93,0,0,0,.28-2.61,20.67,20.67,0,0,0-.38-4.51c-.17-.73-.37-1.46-.59-2.17a22,22,0,0,0-.86-2.07,20.44,20.44,0,0,0-1.12-1.92,15.32,15.32,0,0,0-1.41-1.7l.36,2.13C316.61,75.67,316.69,76.36,316.78,77Z"/><path class="cls-34" d="M275,133.75a10.74,10.74,0,0,0-2.94,2.1,20.72,20.72,0,0,0-4,5.8,57.82,57.82,0,0,1-3,5.68,10.94,10.94,0,0,1-3.88,4l-.2.11a1.67,1.67,0,0,0-.65,2.26,1.65,1.65,0,0,0,1.55.85c1.15-.07,2.29-.12,3.43-.23s2.28-.19,3.42-.35a61,61,0,0,0,6.84-1.16,58.84,58.84,0,0,0-6.85-1.1c-.71-.1-1.42-.16-2.13-.22a15.89,15.89,0,0,0,1.62-2.19,34,34,0,0,0,2.87-6.32,32.65,32.65,0,0,1,2.66-5.72,13.29,13.29,0,0,1,1.94-2.42,11,11,0,0,1,1.25-1,10.34,10.34,0,0,1,1.47-.78,7.25,7.25,0,0,0-1.74.12A8.14,8.14,0,0,0,275,133.75Z"/><path class="cls-35" d="M314.11,116.66a14.29,14.29,0,0,0-3.14-2.82,16.08,16.08,0,0,0-2.05-1.19,20.23,20.23,0,0,0-2.23-1,24.71,24.71,0,0,0-8.6-1.45,19.21,19.21,0,0,0-4,.36,28.08,28.08,0,0,0,3.58,1.73c2.15.92,5,1.86,7.74,2.85a60.69,60.69,0,0,1,7.33,3.13c1,.53,1.79,1,2.41,1.35l1,.57s-.14-.4-.41-1a6.83,6.83,0,0,0-.61-1.13A9.47,9.47,0,0,0,314.11,116.66Z"/><path class="cls-36" d="M257.05,36.66a15.43,15.43,0,0,1,3.3-1.17,12.33,12.33,0,0,1,1.81-.26h2a15.38,15.38,0,0,1,7.7,2.77,16.86,16.86,0,0,1,3.21,2.75A12.88,12.88,0,0,1,277.28,44a8.71,8.71,0,0,1,.73,3.52,14.29,14.29,0,0,1-.5,3.44,16.66,16.66,0,0,1-2.33,5,15.87,15.87,0,0,1-1.34,1.72l.51-.28a12.56,12.56,0,0,0,1.36-.93,13.81,13.81,0,0,0,3.78-4.7,12.88,12.88,0,0,0,1.27-4,10.15,10.15,0,0,0-.43-4.89,13.85,13.85,0,0,0-2.55-4.48,19.65,19.65,0,0,0-3.85-3.49,18.66,18.66,0,0,0-4.7-2.25,15.44,15.44,0,0,0-5-.71A8.31,8.31,0,0,0,263,32a8.86,8.86,0,0,0-1.15.17,14.85,14.85,0,0,0-2.28.65,13,13,0,0,0-3.65,2,12,12,0,0,0-3.76,4.73,8.86,8.86,0,0,0-.52,1.58c-.08.37-.13.57-.13.57A11.78,11.78,0,0,1,252.77,40,14.2,14.2,0,0,1,257.05,36.66Z"/><path class="cls-37" d="M374,139.44a20.85,20.85,0,0,0-1.65-4.66,20.25,20.25,0,0,0-2.85-4.07,17.48,17.48,0,0,0-3.7-3.05A17.7,17.7,0,0,0,358,125a14.9,14.9,0,0,0-3.27,0,8.24,8.24,0,0,0-2.49.55,2.41,2.41,0,0,0-1.27,1.08,1.34,1.34,0,0,0-.16.55,1.34,1.34,0,0,1,.32-.43,2.22,2.22,0,0,1,1.31-.49,10.17,10.17,0,0,1,2.27.16,22,22,0,0,1,2.89.65,20.06,20.06,0,0,1,6.4,3.25,18.48,18.48,0,0,1,2.86,2.73,17,17,0,0,1,2.24,3.38,18,18,0,0,1,1.46,3.81,20,20,0,0,1,.63,3.92v1.91a12.57,12.57,0,0,1-.21,1.73,14.87,14.87,0,0,1-1,3.18,9.22,9.22,0,0,1-3.22,3.88,6.79,6.79,0,0,1-1.34.69l-.52.18h.56a5.35,5.35,0,0,0,1.59-.21,8.88,8.88,0,0,0,4.74-3.44,12.71,12.71,0,0,0,1.87-3.55,15.06,15.06,0,0,0,.59-2.19c.05-.34.11-.67.16-1s0-.79.08-1.19A18.67,18.67,0,0,0,374,139.44Z"/><path class="cls-38" d="M165.58,28.48a5.56,5.56,0,0,0,2.23.59,6.09,6.09,0,0,0,2.24-.33,10.88,10.88,0,0,0,3.76-2.23c.55-.47,1-.92,1.52-1.39l1.38-1.33c1.82-1.71,3.56-2.58,5.69-2.44a8,8,0,0,1,3,.79,6.63,6.63,0,0,1,2.29,1.95l.11.15a1.75,1.75,0,0,0,2.86-2,13.43,13.43,0,0,1-.95-1.8,15.51,15.51,0,0,1-.64-2,16.17,16.17,0,0,1-.37-2.08c-.06-.71,0-1.42,0-2.14a17.58,17.58,0,0,1,.25-2.17,17.83,17.83,0,0,1,.55-2.15,20.09,20.09,0,0,1,.88-2.09l.56-1,.65-1a11.85,11.85,0,0,0-1.85,1.53l-.81.92-.71,1a16.48,16.48,0,0,0-1.16,2.2,20.36,20.36,0,0,0-.75,2.41,15.25,15.25,0,0,0-.33,2.52q0,1,0,1.95a9.88,9.88,0,0,0-8.09.27,5.93,5.93,0,0,0-.56.29l-.46.31c-.32.22-.63.46-.93.71a18.53,18.53,0,0,0-1.55,1.52c-.47.52-.91,1-1.31,1.54s-.81,1-1.21,1.45a11.22,11.22,0,0,1-2.64,2.27,5.5,5.5,0,0,1-1.57.58,4.07,4.07,0,0,1-1.63,0,3.47,3.47,0,0,1-2.69-2.23,3.24,3.24,0,0,0,.58,2A4.76,4.76,0,0,0,165.58,28.48Z"/><path class="cls-39" d="M194,7.85c.34.7.62,1.39.88,2.09a16.54,16.54,0,0,1,.55,2.15,17.58,17.58,0,0,1,.25,2.17c0,.72,0,1.43-.05,2.14a16.17,16.17,0,0,1-.37,2.08,15.51,15.51,0,0,1-.64,2,15.83,15.83,0,0,1-1,1.8,1.74,1.74,0,0,0,2.86,2l.11-.14a6.58,6.58,0,0,1,2.41-2,8,8,0,0,1,3-.79c2.13-.14,3.87.73,5.69,2.44L209,25.12c.49.47,1,.92,1.52,1.39a11.29,11.29,0,0,0,3.76,2.23,6.15,6.15,0,0,0,2.25.33,5.55,5.55,0,0,0,2.22-.59,4.73,4.73,0,0,0,1.66-1.42,3.25,3.25,0,0,0,.59-2,3.47,3.47,0,0,1-2.69,2.23,4.12,4.12,0,0,1-1.64,0,5.44,5.44,0,0,1-1.56-.58,11.22,11.22,0,0,1-2.64-2.27c-.4-.44-.81-1-1.21-1.45s-.85-1-1.32-1.54A17.48,17.48,0,0,0,208.41,20a8.15,8.15,0,0,0-.93-.71L207,19a4.14,4.14,0,0,0-.55-.29,9.88,9.88,0,0,0-8.09-.27,18.14,18.14,0,0,0,0-2,15.25,15.25,0,0,0-.33-2.52,18.22,18.22,0,0,0-.76-2.41,15.34,15.34,0,0,0-1.15-2.2l-.71-1-.81-.92a12.41,12.41,0,0,0-1.86-1.53l.66,1Z"/><path class="cls-40" d="M357.63,215.67H21.37a1.86,1.86,0,0,0,0,3.72H357.63a1.86,1.86,0,0,0,0-3.72Z"/><path class="cls-41" d="M28,133.29a7.35,7.35,0,0,0-5.5,1.36,9.16,9.16,0,0,0-2.69,3.53h0a9.59,9.59,0,0,0-.71,2.16,12.79,12.79,0,0,0-.1,1.52,10.59,10.59,0,0,0,.71,3.29,14.53,14.53,0,0,0,.93,2c3,5.38,6.32,9.59,11,11.19H21.28a1.86,1.86,0,0,0,0,3.72H178.56a1.86,1.86,0,0,0,0-3.72h-16a19.44,19.44,0,0,0,6.18-6.06,17,17,0,0,0,2-13,14.06,14.06,0,0,0-.63-2l9.67,5.8a19.91,19.91,0,0,0,19.89.33l12.65-7a16.67,16.67,0,0,0-1,2.91,17.13,17.13,0,0,0,2,13,19.44,19.44,0,0,0,6.18,6.06H204.08a1.86,1.86,0,0,0,0,3.72H357.64a1.86,1.86,0,0,0,0-3.72h-7.25c4.71-1.6,8.07-5.81,11-11.19a15.11,15.11,0,0,0,1.61-4.35,10.15,10.15,0,0,0-.77-4.65,8.79,8.79,0,0,0-2.7-3.54,7.32,7.32,0,0,0-5.49-1.36,6.25,6.25,0,0,0-4.92,5.13,5,5,0,0,0,2.35,5.35,1.86,1.86,0,0,0,1.83-3.23,1.35,1.35,0,0,1-.52-1.48,2.6,2.6,0,0,1,1.88-2.11,3.66,3.66,0,0,1,2.71.72,5,5,0,0,1,2,3.14,4.93,4.93,0,0,1,.07.66,6.78,6.78,0,0,1-1.36,3.95l-.13.17a11.31,11.31,0,0,1-7.73,4c-4.53.34-9.35-1.38-15.21-5.38-2.35-1.6-4.65-3.37-6.88-5.08a96,96,0,0,0-11.43-7.95c-3.54-2-9.68-4.77-16.45-4.78h-.36a21.35,21.35,0,0,0-15.51-7,26,26,0,0,0-16.18,5.72,14.81,14.81,0,0,0-4,3.48,1.89,1.89,0,0,0-.35.76c-.1.12-.2.24-.29.37a34.89,34.89,0,0,0-2.14-18.79,34.4,34.4,0,0,0-2.9-5.12,33.26,33.26,0,0,1-5.2-11.54h0a25.84,25.84,0,0,1-.73-5.67h0v-.46a23.35,23.35,0,0,1,.95-4.6A22.51,22.51,0,0,1,256.31,78a41,41,0,0,0,4.4,7.86,14.88,14.88,0,0,0,13,5,9.9,9.9,0,0,0,7.79-6.16A12.15,12.15,0,0,0,280.7,73c-4-5.66-12.79-7.43-19.68-3.94a20.51,20.51,0,0,0-3.13,2A26.67,26.67,0,0,1,258,56.76c4.7.83,9.12-.27,12-3,2.7-2.56,2.77-4.72,2.36-6.07-.55-1.8-2.3-3.12-4.69-3.54a9.6,9.6,0,0,0-9.17,3.53,27.78,27.78,0,0,0-2.81,4.68,25.21,25.21,0,0,1-7.24-3.62,53.68,53.68,0,0,1-5.66-5A21.61,21.61,0,0,1,239,39.21,12.5,12.5,0,0,1,237.68,36a5.28,5.28,0,0,0,3.69-.83h0a5.89,5.89,0,0,0,3-5.66c-.14-3.53-2.68-7.46-6.68-7.93-4.36-.51-8.76,2.73-10,7.4a13.85,13.85,0,0,0,1.63,10.91c4.88,8.24,17.05,13.62,25,16a30.29,30.29,0,0,0,.5,18,25.32,25.32,0,0,0-5.41,21.61c1.59,7.27,2.83,14.86,4,22.2l.82,5c1.14,6.92,1.42,16.87-3.78,24.92-2.85,4.4-5.62,7.26-8.83,8.89-.54.23-1.1.45-1.65.64l-.18.08a21.54,21.54,0,0,1-12.34.57,17.81,17.81,0,0,1-10.93-7.41A13.34,13.34,0,0,1,215,140.18a12,12,0,0,1,5.4-7.66c3-1.83,7.8-2.19,10.21.41a4.09,4.09,0,0,1,.4,4.39,3,3,0,0,1-2.81,2,1.86,1.86,0,1,0-.71,3.65,2.19,2.19,0,0,0,.51,0,6.66,6.66,0,0,0,6.37-4.1,7.76,7.76,0,0,0-1-8.5,9.4,9.4,0,0,0-5.14-2.79l3.62-2A20,20,0,0,0,242,108.54l.62-36.7A20,20,0,0,0,233,54.45L201.49,35.56a20,20,0,0,0-19.89-.33L149.5,53.05a20,20,0,0,0-10.23,17.06l-.62,36.7a20,20,0,0,0,9.66,17.4L154,127.6a9.59,9.59,0,0,0-5.17,2.8,7.78,7.78,0,0,0-1.05,8.5,6.71,6.71,0,0,0,6.37,4.1,1.86,1.86,0,1,0,0-3.72H154a3,3,0,0,1-2.82-2,4.1,4.1,0,0,1,.41-4.39c2.4-2.6,7.17-2.24,10.2-.41a12.08,12.08,0,0,1,5.41,7.66,13.4,13.4,0,0,1-1.56,10.16,17.79,17.79,0,0,1-10.91,7.4h0a21.54,21.54,0,0,1-12.34-.57h-.08c-.61-.2-1.21-.42-1.81-.68-3.2-1.63-6-4.49-8.83-8.89-5.2-8-4.92-18-3.77-24.92l.81-5c1.2-7.34,2.44-14.94,4-22.21a25.28,25.28,0,0,0-5.41-21.61,30.45,30.45,0,0,0,.51-18c7.92-2.35,20.09-7.73,25-16A13.79,13.79,0,0,0,154.42,29c-1.24-4.67-5.64-7.91-10-7.4-4,.47-6.53,4.4-6.67,7.93a5.89,5.89,0,0,0,3,5.66h0a5.32,5.32,0,0,0,3.7.83,13.18,13.18,0,0,1-1.24,3.13,21.61,21.61,0,0,1-3.84,4.53,51.75,51.75,0,0,1-5.66,5,25.21,25.21,0,0,1-7.24,3.62,27.39,27.39,0,0,0-2.81-4.68,9.6,9.6,0,0,0-9.17-3.53c-2.39.42-4.14,1.74-4.69,3.54-.41,1.35-.34,3.51,2.36,6.07,2.89,2.76,7.3,3.85,12,3a26.8,26.8,0,0,1,.1,14.3,20.51,20.51,0,0,0-3.13-2c-6.88-3.49-15.71-1.72-19.67,3.94a12.15,12.15,0,0,0-.81,11.71,9.92,9.92,0,0,0,7.79,6.16,14.88,14.88,0,0,0,13-5A41.18,41.18,0,0,0,125.79,78a21.54,21.54,0,0,1,3.75,11.83,2.08,2.08,0,0,0-.23.73c-.67,7.32-3.38,11.55-5.77,15.29a34.91,34.91,0,0,0-2.9,5.12,35,35,0,0,0-2.13,18.79l-.3-.37a1.89,1.89,0,0,0-.35-.76,14.71,14.71,0,0,0-4-3.5A26.1,26.1,0,0,0,98,119.37h-.32a21.35,21.35,0,0,0-15.51,7H81.8c-6.74,0-12.9,2.78-16.45,4.78a96,96,0,0,0-11.43,7.95c-2.23,1.71-4.53,3.48-6.87,5.08-5.87,4-10.69,5.72-15.21,5.38A11.38,11.38,0,0,1,24.46,146h0l-.21-.26-.12-.13a.66.66,0,0,1-.12-.17v-.06a7.55,7.55,0,0,1-1.32-3.87h0a2.46,2.46,0,0,1,.06-.66,5,5,0,0,1,2-3.14,3.62,3.62,0,0,1,2.72-.71,2.59,2.59,0,0,1,1.87,2.1,1.32,1.32,0,0,1-.52,1.48,1.86,1.86,0,0,0,1.83,3.23A4.94,4.94,0,0,0,33,138.42,6.23,6.23,0,0,0,28,133.29ZM277.6,75.07a8.4,8.4,0,0,1,.46,8.06,6.28,6.28,0,0,1-4.84,4h-.51a7.53,7.53,0,0,0,2.56-3.21,11.8,11.8,0,0,0-.59-9.92,9.9,9.9,0,0,0-2.05-2.51A9.45,9.45,0,0,1,277.6,75.07Zm-16.23-2a2.42,2.42,0,0,0,.45-.1,7.82,7.82,0,0,1,9.61,2.87,8.15,8.15,0,0,1,.43,6.64,3.56,3.56,0,0,1-2.47,2.18c-2.8.71-3.73.63-4,.45h0a9,9,0,0,1-1.75-1.62A33.11,33.11,0,0,1,259,74.84a17.06,17.06,0,0,1,2.37-1.78Zm.08-23.19A5.88,5.88,0,0,1,267,47.8c1,.17,1.66.61,1.77,1s-.26,1.24-1.37,2.29c-2.12,2-5.28,2.47-8,2.16a23.77,23.77,0,0,1,2.05-3.38ZM232.52,38a10.11,10.11,0,0,1-1.24-8.07c.67-2.51,3.19-5,6-4.66,1.9.23,3.32,2.49,3.39,4.39a2.24,2.24,0,0,1-1.83,2.57h-.1a2.29,2.29,0,0,0-.37.12l-.29,0a2.21,2.21,0,0,1-1.18-1.15,1.86,1.86,0,0,0-3.6.84c.33,3.26.72,6,2.36,8.94a16.65,16.65,0,0,0,1.65,2.36A20.87,20.87,0,0,1,232.52,38Zm93.4,104.12c2.27,1.75,4.61,3.55,7,5.21,4.15,2.84,10.48,6.55,17.58,6a13.9,13.9,0,0,0,2.13-.34,12.18,12.18,0,0,1-3.57,1.91c-3.85,1.26-8.7.41-13.31-2.33a55.42,55.42,0,0,1-11.64-9.44,119.42,119.42,0,0,0-9-8.57,98.55,98.55,0,0,1,10.81,7.54Zm-27.7-11.85a12,12,0,0,1,1.65,3.59,10.81,10.81,0,0,1-.18,5.86,16.23,16.23,0,0,0-3-9.22,12.17,12.17,0,0,1,1.53-.25Zm-3-3.27c-.47.1-.93.24-1.4.37a20.81,20.81,0,0,0-8-4.17,17.78,17.78,0,0,1,9.39,3.8ZM295,144.23c-.74,1.5-2.51,4.58-6.47,3.74A4.45,4.45,0,0,1,286,145.3a8.75,8.75,0,0,1,.35-7.12,14,14,0,0,1,6.57-6.5C296,135.27,296.87,140.44,295,144.23Zm-37-31.85c2.95,6.91,3,15.21.27,23.58a49.2,49.2,0,0,0-.42-13.92l-.81-5c-.49-3-1-6-1.51-9.08A29.88,29.88,0,0,1,258,112.38Zm-4.11,39.77a33.54,33.54,0,0,0,3.07-3.86,68.82,68.82,0,0,0,4.24-7.48,53.57,53.57,0,0,1,5-8.49,24.38,24.38,0,0,1,4.13-4.18,17.35,17.35,0,0,1,8.46-2.11,19.53,19.53,0,0,1,11.08,3,17.66,17.66,0,0,0-7,7.55,12.4,12.4,0,0,0-.4,10.12,8,8,0,0,0,5,4.82h.16a8.5,8.5,0,0,0,3.37.08,14.87,14.87,0,0,0,10.27-6.6,15.05,15.05,0,0,0,2.19-12.14,13.78,13.78,0,0,0-.74-2.07c4.5,1.8,11.35,7.17,18.74,14.89a59,59,0,0,0,12.43,10.06,25.24,25.24,0,0,0,6,2.62H247.32a29.54,29.54,0,0,0,6.61-6.21ZM150.23,121a16.2,16.2,0,0,1-7.86-14.14L143,70.17a16.19,16.19,0,0,1,8.32-13.87L183.4,38.48a16.23,16.23,0,0,1,16.18.27l31.47,18.88a16.25,16.25,0,0,1,7.86,14.15l-.62,36.7A16.22,16.22,0,0,1,230,122.36l-32.09,17.82a16.23,16.23,0,0,1-16.18-.28Zm-6.18-88.74-.3.06a2.29,2.29,0,0,0-.37-.12,2.24,2.24,0,0,1-1.94-2.5s0-.05,0-.08c.08-1.9,1.49-4.16,3.39-4.39,2.78-.34,5.31,2.15,6,4.66A10.08,10.08,0,0,1,149.58,38a20.79,20.79,0,0,1-4.79,5.32A14.9,14.9,0,0,0,146.44,41c1.65-3,2-5.68,2.36-8.94a1.86,1.86,0,0,0-3.58-.86,2.17,2.17,0,0,1-1.17,1.12ZM114.7,51.05c-1.1-1-1.48-1.91-1.36-2.29s.74-.79,1.76-1a5.86,5.86,0,0,1,.94-.08,5.78,5.78,0,0,1,4.62,2.15,24.37,24.37,0,0,1,2.06,3.34C120,53.52,116.83,53.08,114.7,51.05Zm-7.87,33a7.56,7.56,0,0,0,2.56,3.2h-.5a6.28,6.28,0,0,1-4.84-4,8.38,8.38,0,0,1,.45-8.06,9.55,9.55,0,0,1,5-3.55,9.66,9.66,0,0,0-2,2.5A11.82,11.82,0,0,0,106.83,84Zm11.68-.48a8.84,8.84,0,0,1-1.77,1.63h0c-.29.19-1.23.26-4-.45a3.57,3.57,0,0,1-2.46-2.18,8.11,8.11,0,0,1,.43-6.64A7.81,7.81,0,0,1,120.29,73a2.16,2.16,0,0,0,.44.1,16.88,16.88,0,0,1,2.35,1.78,33,33,0,0,1-4.57,8.59Zm5.55,28.91a29.94,29.94,0,0,1,2.48-4.37c-.53,3-1,6.09-1.52,9.09l-.81,4.94A49.5,49.5,0,0,0,123.8,136c-2.72-8.41-2.69-16.71.26-23.62ZM96.43,123.17a20.94,20.94,0,0,0-8.14,4.19c-.46-.14-.93-.28-1.4-.38A17.84,17.84,0,0,1,96.43,123.17Zm-7.24,8.51a14,14,0,0,1,6.58,6.5,8.75,8.75,0,0,1,.35,7.12,4.53,4.53,0,0,1-2.53,2.7c-3.51.56-5.73-2.24-6.48-3.74C85.24,140.44,86.12,135.27,89.19,131.68Zm-7,2.16a12,12,0,0,1,1.65-3.59c.51.05,1,.13,1.53.23a16.3,16.3,0,0,0-3,9.22,10.9,10.9,0,0,1-.14-5.86ZM80.83,145A14.89,14.89,0,0,0,91,151.7a8.5,8.5,0,0,0,3.37-.08h.16a8,8,0,0,0,5-4.83,12.36,12.36,0,0,0-.4-10.12,17.72,17.72,0,0,0-7-7.55,19.53,19.53,0,0,1,11.08-3,17.31,17.31,0,0,1,8.45,2.11,24.38,24.38,0,0,1,4.13,4.18,52.82,52.82,0,0,1,5,8.49,70.44,70.44,0,0,0,4.23,7.48,33.54,33.54,0,0,0,3.07,3.86,29.45,29.45,0,0,0,6.62,6.23H42.21a25.41,25.41,0,0,0,6-2.62A58.93,58.93,0,0,0,60.64,145.7C68,138,74.88,132.61,79.38,130.8A14.35,14.35,0,0,0,80.83,145Zm-49.27,8.31c7.1.53,13.43-3.18,17.58-6,2.43-1.66,4.78-3.46,7-5.21A97,97,0,0,1,67,134.55a119.55,119.55,0,0,0-9,8.58,55.73,55.73,0,0,1-11.65,9.44c-4.61,2.74-9.46,3.59-13.3,2.33a12.42,12.42,0,0,1-3.62-1.9,15.22,15.22,0,0,0,2.13.33Z"/></svg>