<svg xmlns="http://www.w3.org/2000/svg" xmlns:xlink="http://www.w3.org/1999/xlink" width="309.721" height="202.699" viewBox="0 0 309.721 202.699"><defs><style>.a{fill:url(#a);}.b{fill:url(#b);}.c{fill:url(#c);}.d{fill:url(#d);}.e{fill:url(#e);}.f{fill:url(#f);}.g{fill:url(#g);}.h{fill:url(#h);}.i{fill:url(#i);}.j{fill:url(#j);}.k{fill:url(#k);}.l{fill:url(#l);}.m{fill:url(#m);}.n{fill:url(#n);}.o{fill:url(#o);}.p{fill:url(#p);}.q{fill:url(#q);}.r{fill:url(#r);}.s{fill:url(#s);}.t{fill:url(#t);}.u{fill:url(#u);}.v{fill:url(#v);}.w{fill:url(#w);}.x{fill:url(#x);}.y{fill:url(#y);}.z{fill:url(#z);}.aa{fill:url(#aa);}.ab{fill:url(#ab);}.ac{fill:url(#ac);}.ad{fill:url(#ad);}.ae{fill:url(#ae);}.af{fill:url(#af);}.ag{fill:url(#ag);}.ah{fill:url(#ah);}.ai{fill:url(#ai);}.aj{fill:url(#aj);}.ak{fill:url(#ak);}.al{fill:url(#al);}.am{fill:url(#am);}.an{fill:url(#an);}.ao{fill:url(#ao);}</style><linearGradient id="a" x1="-0.104" y1="0.068" x2="0.817" y2="0.685" gradientUnits="objectBoundingBox"><stop offset="0" stop-color="#ddcb7c"/><stop offset="1" stop-color="#716224"/></linearGradient><linearGradient id="b" x1="-0.103" y1="0.078" x2="0.701" y2="0.695" xlink:href="#a"/><linearGradient id="c" x1="0.074" y1="0.308" x2="0.92" y2="1.071" xlink:href="#a"/><linearGradient id="d" x1="0.02" y1="-0.02" x2="0.977" y2="0.927" xlink:href="#a"/><linearGradient id="e" x1="0.083" y1="0.308" x2="0.917" y2="1.077" xlink:href="#a"/><linearGradient id="f" x1="0.067" y1="-0.02" x2="0.933" y2="0.703" xlink:href="#a"/><linearGradient id="g" x1="-0.055" y1="0.057" x2="1.056" y2="0.955" xlink:href="#a"/><linearGradient id="h" x1="0.143" y1="0.145" x2="0.856" y2="0.853" xlink:href="#a"/><linearGradient id="i" x1="0.009" y1="0.127" x2="0.988" y2="1.004" xlink:href="#a"/><linearGradient id="j" x1="0.009" y1="0.127" x2="0.987" y2="1.004" xlink:href="#a"/><linearGradient id="k" x1="0.117" y1="0.179" x2="1.063" y2="0.775" xlink:href="#a"/><linearGradient id="l" x1="0.06" y1="0.172" x2="0.993" y2="0.975" xlink:href="#a"/><linearGradient id="m" x1="-0.064" y1="0.051" x2="1.065" y2="0.949" xlink:href="#a"/><linearGradient id="n" x1="-0.052" y1="0.044" x2="1.038" y2="0.968" xlink:href="#a"/><linearGradient id="o" x1="0.098" y1="0.164" x2="0.916" y2="0.841" xlink:href="#a"/><linearGradient id="p" x1="0.062" y1="-0.052" x2="0.938" y2="0.689" xlink:href="#a"/><linearGradient id="q" x1="-0.065" y1="0.051" x2="1.065" y2="0.949" xlink:href="#a"/><linearGradient id="r" x1="-1.846" y1="0.22" x2="2.839" y2="0.78" xlink:href="#a"/><linearGradient id="s" x1="-0.268" y1="0.204" x2="0.795" y2="0.995" xlink:href="#a"/><linearGradient id="t" x1="0.201" y1="-0.435" x2="0.791" y2="0.839" xlink:href="#a"/><linearGradient id="u" x1="-0.058" y1="0.047" x2="1.058" y2="0.953" xlink:href="#a"/><linearGradient id="v" x1="0.057" y1="0.147" x2="0.964" y2="0.831" xlink:href="#a"/><linearGradient id="w" x1="0.051" y1="0.172" x2="0.982" y2="0.975" xlink:href="#a"/><linearGradient id="x" x1="0.145" y1="0.158" x2="1.013" y2="0.982" xlink:href="#a"/><linearGradient id="y" x1="0.316" y1="0.394" x2="0.792" y2="0.938" xlink:href="#a"/><linearGradient id="z" x1="0.349" y1="0.405" x2="0.967" y2="0.791" xlink:href="#a"/><linearGradient id="aa" x1="-0.18" y1="0.154" x2="0.879" y2="1.056" xlink:href="#a"/><linearGradient id="ab" x1="0.322" y1="0.127" x2="0.641" y2="0.835" xlink:href="#a"/><linearGradient id="ac" x1="0.183" y1="0.156" x2="0.689" y2="0.734" xlink:href="#a"/><linearGradient id="ad" x1="0.194" y1="0.194" x2="0.825" y2="0.677" xlink:href="#a"/><linearGradient id="ae" x1="0.123" y1="0.153" x2="0.877" y2="0.846" xlink:href="#a"/><linearGradient id="af" x1="0.03" y1="0.19" x2="0.862" y2="1.142" xlink:href="#a"/><linearGradient id="ag" x1="-0.312" y1="0.192" x2="0.993" y2="1.003" xlink:href="#a"/><linearGradient id="ah" x1="0.372" y1="0.368" x2="0.933" y2="0.845" xlink:href="#a"/><linearGradient id="ai" x1="0.16" y1="-0.312" x2="0.877" y2="1.272" xlink:href="#a"/><linearGradient id="aj" x1="0.208" y1="0.041" x2="0.917" y2="0.851" xlink:href="#a"/><linearGradient id="ak" x1="-0.005" y1="0.061" x2="0.978" y2="0.816" xlink:href="#a"/><linearGradient id="al" x1="0.407" y1="0.334" x2="0.874" y2="0.902" xlink:href="#a"/><linearGradient id="am" x1="-0.074" y1="0.089" x2="0.793" y2="1.144" xlink:href="#a"/><linearGradient id="an" x1="0.249" y1="-22.452" x2="0.751" y2="23.452" xlink:href="#a"/><linearGradient id="ao" x1="0.233" y1="0.255" x2="0.762" y2="1.549" xlink:href="#a"/></defs><g transform="translate(-7.71 -5.81)"><path class="a" d="M24.432,175.018v2.06h3.834v-3.825c0-1.765-.583-2.643-2.643-2.643H8v3.53h2.939V200.9h4.121V174.14h8.529a.785.785,0,0,1,.844.878Z" transform="translate(-0.045 -25.64)"/><path class="b" d="M43.922,200.9V189.728h6.468c5.59,0,9.711-3.825,9.711-9.711,0-5.582-4.121-9.407-9.711-9.407H36.88v3.53h2.939V200.9Zm.3-26.76H49.8c3.53,0,5.911,2.06,5.911,5.911a5.565,5.565,0,0,1-5.911,5.911H44.218Z" transform="translate(-4.538 -25.64)"/><path class="c" d="M92.056,196.141,82.345,170.26H77.937l-9.711,25.881a1.351,1.351,0,0,1-1.469.92H66.47v3.817h2.347c2.06,0,2.939-.583,3.53-2.643L74.7,192H85.875l2.356,6.181c.591,2.06,1.469,2.643,3.53,2.643h2.356v-3.758h-.591C92.639,197.062,92.351,197.062,92.056,196.141Zm-16.179-7.6,3.234-9.415c.591-1.765,1.182-4.408,1.182-4.408a33.558,33.558,0,0,0,1.174,4.408l3.234,9.415Z" transform="translate(-9.142 -25.585)"/><path class="d" d="M130.794,200.9V175.018a.777.777,0,0,1,.844-.844h2.06v-3.53h-4.408c-2.06,0-2.947.591-2.947,2.643v10.589H110.789V173.253c0-1.765-.583-2.643-2.643-2.643H103.73v3.53h1.765a.785.785,0,0,1,.887.844v25.881h4.408v-13.2h15.588V200.9Z" transform="translate(-14.939 -25.64)"/><path class="e" d="M169.967,196.141l-9.711-25.881h-4.7l-9.7,25.881a1.368,1.368,0,0,1-1.478.887h-.583v3.817h2.347c2.06,0,2.947-.583,3.53-2.643l2.947-6.181h11.172l2.356,6.181c.591,2.06,1.469,2.643,3.53,2.643h2.356v-3.783h-.591C170.55,197.062,170.263,197.062,169.967,196.141Zm-16.475-7.6,3.234-9.415c.591-1.765,1.182-4.408,1.182-4.408a33.554,33.554,0,0,0,1.174,4.408l3.234,9.415Z" transform="translate(-21.171 -25.585)"/><path class="f" d="M202.76,177.024v-4.112c0-2.06-.591-2.651-2.651-2.651h-20.6c-2.06,0-2.643.591-2.643,2.651v4.112h3.817v-2.06a.785.785,0,0,1,.844-.844H187.7v27.165h4.121v-27.2h6.266a.785.785,0,0,1,.887.844v2.06Z" transform="translate(-26.318 -25.585)"/><path class="g" d="M219.225,200.851l5.539-9.289q.954-1.689,1.858-3.5h.084l1.908,3.462,5.573,9.289h4.889l-9.643-15.74,6.181-9.956a2.162,2.162,0,0,1,1.993-1.081h1.123v-3.724H236.2a5.126,5.126,0,0,0-2.423.456,4.855,4.855,0,0,0-1.689,1.883l-3.428,5.843a38.658,38.658,0,0,0-1.866,3.589h-.068l-1.942-3.589-3.42-5.793a4.856,4.856,0,0,0-1.647-1.883,5.227,5.227,0,0,0-2.466-.456h-2.533v3.724H215.8a2.761,2.761,0,0,1,1.191.194,2.2,2.2,0,0,1,.844.844l6.139,9.989-9.6,15.74Z" transform="translate(-32.152 -25.591)"/><path class="h" d="M254.037,174.169a15.031,15.031,0,0,0-4.518,11.079,15.684,15.684,0,1,0,31.362,0,15.022,15.022,0,0,0-4.543-11.079A16.044,16.044,0,0,0,254.037,174.169Zm22.343,11.079a11.9,11.9,0,0,1-3.268,8.444,10.817,10.817,0,0,1-15.85,0,11.948,11.948,0,0,1-3.243-8.444,11.341,11.341,0,0,1,3.243-8.225,11.1,11.1,0,0,1,15.85,0,11.29,11.29,0,0,1,3.268,8.25Z" transform="translate(-37.62 -25.492)"/><path class="i" d="M313.443,200.2a2.922,2.922,0,0,0,2.12.642h4.349v-3.715h-1.858a.844.844,0,0,1-.954-.954V173.082a2.364,2.364,0,0,0-2.77-2.77H296.4v3.724h2.854v3.378q0,9.6-1.6,14.406t-5.362,5.32v3.935q6.055-.346,8.562-6.206t2.533-17.412v-3.378h8.444a.844.844,0,0,1,.954.946v23.1A2.93,2.93,0,0,0,313.443,200.2Z" transform="translate(-44.275 -25.587)"/><path class="j" d="M356.716,196.219V173.082a2.364,2.364,0,0,0-2.77-2.77H335.994v3.724h2.854v3.378q0,9.6-1.6,14.406t-5.362,5.32v3.935q6.054-.346,8.562-6.206t2.533-17.412v-3.378h8.444a.844.844,0,0,1,.946.946v23.1a2.356,2.356,0,0,0,2.77,2.761h4.374v-3.715h-1.866a.844.844,0,0,1-.937-.954Z" transform="translate(-50.436 -25.587)"/><path class="k" d="M121.373,233.506a4.163,4.163,0,0,0-1.469-1.064,4.72,4.72,0,0,0-1.891-.363,4.222,4.222,0,0,0-3.817,2.347h-.059a7.6,7.6,0,0,1,1.258-3.614,3.564,3.564,0,0,1,2.677-1.284l1.52-.1a5.194,5.194,0,0,0,1.976-.422,1.638,1.638,0,0,0,.844-1.275h-1.4a.735.735,0,0,1-.405.388,3.6,3.6,0,0,1-1.072.169l-.963.059a6.756,6.756,0,0,0-2.457.566,4.222,4.222,0,0,0-1.689,1.571,5.987,5.987,0,0,0-.625,1.326,12.152,12.152,0,0,0-.388,1.545,14.821,14.821,0,0,0-.211,1.63c0,.549-.059,1.081-.059,1.579a12.666,12.666,0,0,0,.22,2.364,6.113,6.113,0,0,0,.76,2.018,4.1,4.1,0,0,0,1.461,1.41,4.636,4.636,0,0,0,2.339.532,4.746,4.746,0,0,0,1.959-.388,4.222,4.222,0,0,0,1.512-1.1,5.066,5.066,0,0,0,.971-1.689,7.6,7.6,0,0,0,0-4.484,4.931,4.931,0,0,0-.988-1.723Zm-.22,5.708a4.154,4.154,0,0,1-.726,1.385,3.276,3.276,0,0,1-1.123.9,3.378,3.378,0,0,1-2.82,0,3.251,3.251,0,0,1-1.115-.9,4.332,4.332,0,0,1-.735-1.385,5.835,5.835,0,0,1-.262-1.773,5.742,5.742,0,0,1,.262-1.765,4.07,4.07,0,0,1,.735-1.351,3.2,3.2,0,0,1,1.123-.844,3.479,3.479,0,0,1,1.461-.3,2.964,2.964,0,0,1,1.368.312,3.378,3.378,0,0,1,1.106.844,3.943,3.943,0,0,1,.726,1.343,5.5,5.5,0,0,1,.262,1.748,5.59,5.59,0,0,1-.262,1.79Z" transform="translate(-16.403 -34.526)"/><path class="l" d="M134.437,241.493v-5.582a3.741,3.741,0,0,0-.338-1.689,2.66,2.66,0,0,0-.844-1.03,3.378,3.378,0,0,0-1.224-.507,7.338,7.338,0,0,0-1.36-.127,4.771,4.771,0,0,0-2.922.844,3.378,3.378,0,0,0-1.25,2.694h1.182a2.271,2.271,0,0,1,.794-1.866,3.141,3.141,0,0,1,1.959-.583,5.911,5.911,0,0,1,1.056.084,2.584,2.584,0,0,1,.844.338,1.689,1.689,0,0,1,.574.667,2.331,2.331,0,0,1,.211,1.072,1.773,1.773,0,0,1-.11.692.979.979,0,0,1-.312.414,1.216,1.216,0,0,1-.507.22c-.211,0-.439.076-.692.1-.676.076-1.351.16-2.01.253a7.17,7.17,0,0,0-1.773.456,3.048,3.048,0,0,0-1.275.954,2.753,2.753,0,0,0-.481,1.689,3.31,3.31,0,0,0,.27,1.376,2.7,2.7,0,0,0,.743.954,2.922,2.922,0,0,0,1.1.549,4.974,4.974,0,0,0,1.351.177,5.422,5.422,0,0,0,1.3-.144,3.378,3.378,0,0,0,1.773-1.072,9.287,9.287,0,0,0,.684-.9h.042a5.068,5.068,0,0,0,.051.743,1.41,1.41,0,0,0,.211.583.979.979,0,0,0,.448.372,1.79,1.79,0,0,0,.768.135h.431a.858.858,0,0,0,.388-.068v-1.072a.9.9,0,0,1-.4.076C134.649,242.27,134.437,242.017,134.437,241.493Zm-1.258-2.229a3.091,3.091,0,0,1-1.072,2.423,3.319,3.319,0,0,1-1.148.642,4.164,4.164,0,0,1-1.376.228,2.686,2.686,0,0,1-.844-.144A2.331,2.331,0,0,1,128,242a2.111,2.111,0,0,1-.507-.65,1.9,1.9,0,0,1-.186-.844,1.537,1.537,0,0,1,.448-1.182,2.922,2.922,0,0,1,1.148-.65,8.635,8.635,0,0,1,1.554-.338q.844-.1,1.647-.253a4.438,4.438,0,0,0,.6-.135.693.693,0,0,0,.456-.329h.042Z" transform="translate(-18.397 -35.277)"/><path class="m" d="M146.038,237.347h-5.86V232.88H138.92V243.4h1.258v-4.974h5.86V243.4H147.3V232.88h-1.258Z" transform="translate(-20.414 -35.328)"/><path class="n" d="M160.315,232.88h-1.672l-5.725,5.4v-5.4H151.66V243.4h1.258v-3.547l2.1-1.976L159,243.4h1.579l-4.636-6.4Z" transform="translate(-22.396 -35.328)"/><path class="o" d="M171.83,236.31a5.641,5.641,0,0,0-.785-1.9,4.323,4.323,0,0,0-1.427-1.334,4.222,4.222,0,0,0-2.128-.507,4.425,4.425,0,0,0-2.111.473,4.222,4.222,0,0,0-1.444,1.267,5.522,5.522,0,0,0-.844,1.79,7.482,7.482,0,0,0-.27,2.035,7.98,7.98,0,0,0,.27,2.145,5.311,5.311,0,0,0,.844,1.765,3.936,3.936,0,0,0,1.444,1.2,4.636,4.636,0,0,0,2.111.439,4.332,4.332,0,0,0,3.031-.98,5.067,5.067,0,0,0,1.469-2.77h-1.258a3.884,3.884,0,0,1-1.081,1.942,3.057,3.057,0,0,1-2.162.726,2.888,2.888,0,0,1-1.537-.388,3.522,3.522,0,0,1-1.056-.971,4.1,4.1,0,0,1-.616-1.317,5.742,5.742,0,0,1-.186-1.444h7.938A8.487,8.487,0,0,0,171.83,236.31ZM164.1,237.4a5.767,5.767,0,0,1,.329-1.393,4.282,4.282,0,0,1,.667-1.207,3.377,3.377,0,0,1,1.022-.844,3.167,3.167,0,0,1,2.744,0,3.243,3.243,0,0,1,1.013.844,3.867,3.867,0,0,1,.65,1.191,4.948,4.948,0,0,1,.253,1.41Z" transform="translate(-24.132 -35.279)"/><path class="p" d="M174.3,233.961h3.817V243.4h1.258v-9.441H183.2V232.88h-8.9Z" transform="translate(-25.918 -35.328)"/><path class="q" d="M193.328,237.347h-5.86V232.88H186.21V243.4h1.258v-4.974h5.86V243.4h1.258V232.88h-1.258Z" transform="translate(-27.771 -35.328)"/><rect class="r" width="1.258" height="10.521" transform="translate(178.975 197.552)"/><path class="s" d="M203.514,237.1h-3.378V232.88H198.87V243.4h4.6a3.3,3.3,0,0,0,2.381-.844,3.107,3.107,0,0,0,.844-2.339,3.015,3.015,0,0,0-.844-2.305A3.378,3.378,0,0,0,203.514,237.1Zm1.393,4.687a2.533,2.533,0,0,1-1.689.532h-3.04v-4.138H203.2a2.626,2.626,0,0,1,1.689.5,1.866,1.866,0,0,1,.608,1.537,1.976,1.976,0,0,1-.608,1.571Z" transform="translate(-29.741 -35.328)"/><path class="t" d="M221.266,229.867a3.428,3.428,0,0,0,.946-1.968h-.785a1.959,1.959,0,0,1-.709,1.233,2.17,2.17,0,0,1-1.41.439,2.111,2.111,0,0,1-1.427-.448,1.824,1.824,0,0,1-.633-1.224h-.777a3.226,3.226,0,0,0,.844,1.967,2.677,2.677,0,0,0,1.959.684A2.753,2.753,0,0,0,221.266,229.867Z" transform="translate(-32.479 -34.553)"/><path class="u" d="M216.068,241.89v-9.01H214.81V243.4h1.562l5.7-9.01v9.01h1.258V232.88h-1.562Z" transform="translate(-32.221 -35.328)"/><path class="v" d="M241.294,238.446a1.9,1.9,0,0,0-.616-.431,2.947,2.947,0,0,0-.718-.228h0a1.638,1.638,0,0,0,.616-.262,2.2,2.2,0,0,0,.532-.515,2.583,2.583,0,0,0,.372-.692,2.474,2.474,0,0,0,.144-.844,2.668,2.668,0,0,0-.3-1.317,2.474,2.474,0,0,0-.844-.844,3.775,3.775,0,0,0-1.208-.49,7,7,0,0,0-1.495-.152,6.915,6.915,0,0,0-1.461.16,3.378,3.378,0,0,0-1.233.557,2.989,2.989,0,0,0-.9,1.03,3.876,3.876,0,0,0-.439,1.6h1.241a2.618,2.618,0,0,1,.726-1.621,2.778,2.778,0,0,1,2.052-.642,3.994,3.994,0,0,1,1.3.177,1.967,1.967,0,0,1,.777.448,1.3,1.3,0,0,1,.372.6,2.364,2.364,0,0,1,.093.608,1.689,1.689,0,0,1-.642,1.436,2.533,2.533,0,0,1-1.537.481h-1.427v.98h1.689a2.2,2.2,0,0,1,1.689.557,1.9,1.9,0,0,1,.515,1.343,2.8,2.8,0,0,1-.127.844,1.807,1.807,0,0,1-.431.743,2.212,2.212,0,0,1-.844.54,4.071,4.071,0,0,1-1.4.2,4.113,4.113,0,0,1-1.292-.177,2.272,2.272,0,0,1-.887-.5,2.213,2.213,0,0,1-.557-.794,4.223,4.223,0,0,1-.287-1.039H233.5a3.741,3.741,0,0,0,1.148,2.618,4.433,4.433,0,0,0,3.116.971,6.073,6.073,0,0,0,1.571-.211,4.163,4.163,0,0,0,1.317-.642,3.082,3.082,0,0,0,1.25-2.533,2.609,2.609,0,0,0-.186-1.047,2.263,2.263,0,0,0-.422-.912Z" transform="translate(-35.128 -35.295)"/><path class="w" d="M253.551,241.493v-5.582a3.741,3.741,0,0,0-.338-1.689,2.66,2.66,0,0,0-.844-1.03,3.378,3.378,0,0,0-1.224-.507,7.4,7.4,0,0,0-1.36-.127,4.8,4.8,0,0,0-2.93.844,3.437,3.437,0,0,0-1.25,2.694h1.258a2.305,2.305,0,0,1,.844-1.866,3.124,3.124,0,0,1,1.959-.583,6.005,6.005,0,0,1,1.056.084,2.474,2.474,0,0,1,.844.338,1.689,1.689,0,0,1,.583.667,2.33,2.33,0,0,1,.211,1.072,1.773,1.773,0,0,1-.11.692.979.979,0,0,1-.312.414,1.266,1.266,0,0,1-.507.22c-.211,0-.439.076-.692.1-.676.076-1.351.16-2.01.253a7.338,7.338,0,0,0-1.782.456,3.074,3.074,0,0,0-1.267.954,2.753,2.753,0,0,0-.481,1.689,3.31,3.31,0,0,0,.27,1.376,2.61,2.61,0,0,0,.743.954,2.862,2.862,0,0,0,1.1.549,4.975,4.975,0,0,0,1.351.177,5.473,5.473,0,0,0,1.3-.144,3.471,3.471,0,0,0,.988-.405,3.226,3.226,0,0,0,.777-.667,8.158,8.158,0,0,0,.692-.9h.042a5.068,5.068,0,0,0,.051.743,1.536,1.536,0,0,0,.2.583,1.047,1.047,0,0,0,.456.372,1.791,1.791,0,0,0,.768.135h.431a.858.858,0,0,0,.388-.068v-1.072a.92.92,0,0,1-.4.076C253.8,242.27,253.551,242.017,253.551,241.493Zm-1.258-2.229a3.3,3.3,0,0,1-.287,1.385,3.192,3.192,0,0,1-.785,1.039,3.378,3.378,0,0,1-1.148.642,4.222,4.222,0,0,1-1.376.228,2.643,2.643,0,0,1-.844-.144,2.237,2.237,0,0,1-.735-.414,2.111,2.111,0,0,1-.507-.65,1.9,1.9,0,0,1-.194-.844,1.537,1.537,0,0,1,.456-1.182,2.922,2.922,0,0,1,1.148-.65,8.706,8.706,0,0,1,1.545-.338c.566-.068,1.115-.152,1.689-.253a4.439,4.439,0,0,0,.6-.135.718.718,0,0,0,.456-.329h0Z" transform="translate(-36.948 -35.277)"/><path class="x" d="M259.79,236.807c-.068,1.064-.152,1.951-.262,2.651a8.973,8.973,0,0,1-.38,1.638,2.8,2.8,0,0,1-.464.844.937.937,0,0,1-.473.338,1.748,1.748,0,0,1-.439.059,4.717,4.717,0,0,1-.54-.042,1.926,1.926,0,0,1-.481-.1v1.123l.186.051.279.051.3.042h.236a5.38,5.38,0,0,0,.844-.068,1.689,1.689,0,0,0,.785-.372,2.905,2.905,0,0,0,.692-.9,7.255,7.255,0,0,0,.557-1.689,20.633,20.633,0,0,0,.372-2.651q.127-1.6.127-3.876h4.416v9.441H266.8V232.88h-6.89Q259.891,235.2,259.79,236.807Z" transform="translate(-38.746 -35.328)"/><path class="y" d="M37.71,119.416a1.579,1.579,0,0,0,.583-.11c7.009-2.77,12.911-7.6,18.577-12.21,1.148-.929,2.288-1.866,3.445-2.778,6.24-4.923,13.7-10.032,22.09-10.766a57.269,57.269,0,0,0,7.558,7.963c1.689,1.486,3.665,3.107,6.173,3.487a6.282,6.282,0,0,0,4.678-1.216,4.687,4.687,0,0,0,1.858-3.2c.228-2.212-1.1-4.3-3.817-6.054a26.878,26.878,0,0,0-14.9-4.222,24.227,24.227,0,0,1-4.1-9.474c-1.174-6.755,2.626-15.2,9.483-16.407a1.571,1.571,0,0,0-.177-3.116A18.788,18.788,0,0,0,72.39,69.359a19.878,19.878,0,0,0-2.483,17.319c-7.862,2.364-13.941,8.25-18.425,13.224-1.925,2.128-3.572,4.315-5.159,6.426-2.863,3.8-5.556,7.389-9.534,10.243a1.571,1.571,0,0,0,.92,2.846ZM97.166,97.174c.76.49,2.533,1.773,2.39,3.082A1.562,1.562,0,0,1,98.9,101.3a3.133,3.133,0,0,1-2.288.591c-1.647-.245-3.15-1.486-4.551-2.727a58.731,58.731,0,0,1-5.607-5.624,23.7,23.7,0,0,1,10.707,3.631ZM48.831,108.219A79.468,79.468,0,0,1,53.813,102c4.5-5,10.682-10.977,18.527-12.717a1.571,1.571,0,0,0,1.089-2.17,16.66,16.66,0,0,1,1.537-15.943,15.579,15.579,0,0,1,5.81-5.067,19.422,19.422,0,0,0-4.036,15.284,26.177,26.177,0,0,0,3.648,9.289c-8.444,1.284-15.841,6.342-22.006,11.231q-1.748,1.385-3.479,2.8c-2.685,2.187-5.421,4.408-8.267,6.409C47.4,110.127,48.113,109.173,48.831,108.219Z" transform="translate(-4.422 -8.628)"/><path class="z" d="M55.979,89.789l1.275-.464c.431-.144.844-.27,1.284-.38s.844-.228,1.275-.321a22.642,22.642,0,0,1,2.584-.363h.228a1.528,1.528,0,0,0,1.123-1.841v-.059c-.127-.532-.22-1.064-.321-1.6s-.144-1.081-.211-1.621l-.144-1.714V79.732a16.046,16.046,0,0,1,.059-1.689c.059-.574.084-1.14.16-1.689s.135-1.157.245-1.74l.3-1.765a10.741,10.741,0,0,0-1.191,1.436,14.763,14.763,0,0,0-.946,1.621,17.735,17.735,0,0,0-.726,1.748c-.194.6-.355,1.216-.5,1.832a16.467,16.467,0,0,0-.321,3.808,15.986,15.986,0,0,0,.236,2.2,13.772,13.772,0,0,0-1.343.414,13.046,13.046,0,0,0-2.812,1.36A12.743,12.743,0,0,0,53.876,89.2a10.133,10.133,0,0,0-1.756,2.44c.844-.49,1.689-.92,2.533-1.309Z" transform="translate(-6.909 -10.43)"/><path class="aa" d="M105.982,134.556a11.155,11.155,0,0,1,1.638,2.043,27.7,27.7,0,0,1,2.238,4.855,29.26,29.26,0,0,0,2.423,5.337,13.392,13.392,0,0,0,1.368,1.849c-.6.051-1.2.1-1.8.186a51.162,51.162,0,0,0-5.784.929,50.936,50.936,0,0,0,5.776.98c.971.135,1.934.2,2.9.3s1.925.135,2.888.194a1.4,1.4,0,0,0,.76-2.626l-.16-.093a9.111,9.111,0,0,1-3.276-3.378c-.912-1.444-1.689-3.107-2.533-4.8a17.589,17.589,0,0,0-3.378-4.9,9.026,9.026,0,0,0-2.474-1.773,7,7,0,0,0-1.436-.481,6.24,6.24,0,0,0-1.469-.1,7.812,7.812,0,0,1,1.241.659A8.672,8.672,0,0,1,105.982,134.556Z" transform="translate(-14.928 -19.799)"/><path class="ab" d="M72.068,112.273a13.511,13.511,0,0,0-1.74,1,12.05,12.05,0,0,0-2.643,2.381,7.456,7.456,0,0,0-.844,1.132,4.947,4.947,0,0,0-.515.954c-.236.549-.346.844-.346.844s.312-.169.844-.481,1.182-.692,2.027-1.14a52.549,52.549,0,0,1,6.19-2.643c2.314-.844,4.72-1.63,6.536-2.407a23.01,23.01,0,0,0,3-1.385,16.263,16.263,0,0,0-3.378-.3,21.052,21.052,0,0,0-7.262,1.224,16.785,16.785,0,0,0-1.866.819Z" transform="translate(-9.066 -16.245)"/><path class="ac" d="M102.411,48.692a11.526,11.526,0,0,0,3.183,3.969,9.727,9.727,0,0,0,1.157.785c.27.16.422.236.422.236a13.164,13.164,0,0,1-1.132-1.419,14.085,14.085,0,0,1-1.959-4.222,11.662,11.662,0,0,1-.431-2.9,7.329,7.329,0,0,1,.616-2.972,10.665,10.665,0,0,1,1.841-2.778,14.791,14.791,0,0,1,9.289-4.661h1.689a10.808,10.808,0,0,1,1.52.22,12.743,12.743,0,0,1,2.787.988,11.687,11.687,0,0,1,3.572,2.82,10.436,10.436,0,0,1,1.081,1.486,1.636,1.636,0,0,0-.11-.481,7.01,7.01,0,0,0-.405-1.343,10.057,10.057,0,0,0-3.175-3.994,11.18,11.18,0,0,0-3.074-1.689,13.249,13.249,0,0,0-1.925-.549,7.692,7.692,0,0,0-.98-.144c-.338,0-.684-.059-1.03-.051a12.878,12.878,0,0,0-4.222.6,15.656,15.656,0,0,0-3.977,1.9,16.668,16.668,0,0,0-3.251,2.947,11.7,11.7,0,0,0-2.153,3.783,8.529,8.529,0,0,0-.363,4.129,10.749,10.749,0,0,0,1.03,3.344Z" transform="translate(-14.557 -4.072)"/><path class="ad" d="M9.973,147.943a7.482,7.482,0,0,0,4,2.9,4.34,4.34,0,0,0,1.351.177h.464l-.439-.152a5.547,5.547,0,0,1-1.123-.583,7.76,7.76,0,0,1-2.719-3.276,12.067,12.067,0,0,1-.844-2.685,11.468,11.468,0,0,1-.177-1.461v-1.613a16.163,16.163,0,0,1,.524-3.31,14.913,14.913,0,0,1,1.241-3.217,13.849,13.849,0,0,1,1.891-2.854,15.851,15.851,0,0,1,2.407-2.305,17.134,17.134,0,0,1,5.4-2.744,18.665,18.665,0,0,1,2.449-.549,8.487,8.487,0,0,1,1.908-.135,1.908,1.908,0,0,1,1.106.414,1.106,1.106,0,0,1,.27.363,1.115,1.115,0,0,0-.127-.464,2.12,2.12,0,0,0-1.081-.912,6.848,6.848,0,0,0-2.094-.464,12.963,12.963,0,0,0-2.761,0,15.039,15.039,0,0,0-6.637,2.238,14.5,14.5,0,0,0-3.116,2.575,16.668,16.668,0,0,0-2.415,3.437,17.631,17.631,0,0,0-1.393,3.935,15.63,15.63,0,0,0-.338,4.028l.076,1a4.306,4.306,0,0,0,.135.844,11.518,11.518,0,0,0,.49,1.849,10.978,10.978,0,0,0,1.545,2.955Z" transform="translate(0 -18.544)"/><path class="ae" d="M190.331,120.923,213.426,108.1a14.634,14.634,0,0,0,7.482-12.481l.448-26.422a14.625,14.625,0,0,0-7.068-12.725l-22.681-13.6a14.6,14.6,0,0,0-14.532-.211l-23.095,12.8A14.634,14.634,0,0,0,146.5,67.995l-.448,26.413a14.583,14.583,0,0,0,7.068,12.717l22.656,13.6a14.541,14.541,0,0,0,7.49,2.069,14.71,14.71,0,0,0,7.068-1.866Zm-10.31-33.659a16.585,16.585,0,0,1-3.378,2.212,16.28,16.28,0,0,1-2.9.963,14.971,14.971,0,0,1-3.614.448,15.36,15.36,0,0,1-11.459-4.839A17.164,17.164,0,0,1,154,73.593a16.652,16.652,0,0,1,4.8-12.109,16.044,16.044,0,0,1,11.932-4.906,19.506,19.506,0,0,1,6.494,1.03,13.941,13.941,0,0,1,4.222,2.069l1.174.988-2.677,3.428c-.287-.245-.667-.549-1.157-.9a16.838,16.838,0,0,0-3.1-1.41,13.663,13.663,0,0,0-4.813-.887,11.3,11.3,0,0,0-8.444,3.6,12.565,12.565,0,0,0-3.454,9.094,12.886,12.886,0,0,0,3.428,9.289,11.391,11.391,0,0,0,8.6,3.6,12.75,12.75,0,0,0,3.243-.422,11.122,11.122,0,0,0,2.651-1.039,20.264,20.264,0,0,0,1.908-1.224,11.258,11.258,0,0,0,1.267-1.03l.38-.422V78.972a1.529,1.529,0,0,0-.059-.414A.9.9,0,0,0,179.43,78h-2.018v-.042h0V73.906h4.323a4.949,4.949,0,0,1,.98.093,2.8,2.8,0,0,1,1.765.667,3.2,3.2,0,0,1,.7,2.305V88.6h16.888V76.988a3.091,3.091,0,0,1,.726-2.305,3.259,3.259,0,0,1,2.322-.7h4.7v4.045h-2.17a.912.912,0,0,0-1.039,1.03v28.111h-4.695V92.593H185.028v14.575h-4.695V86.961Z" transform="translate(-21.523 -5.448)"/><path class="af" d="M280.539,64.419c6.857,1.216,10.665,9.66,9.483,16.407a24.21,24.21,0,0,1-4.1,9.491,26.853,26.853,0,0,0-14.9,4.222c-2.727,1.748-4.045,3.842-3.817,6.054a4.644,4.644,0,0,0,1.849,3.2,6.308,6.308,0,0,0,4.678,1.216c2.533-.38,4.5-2,6.173-3.487a56.288,56.288,0,0,0,7.558-7.963c8.394.735,15.85,5.843,22.056,10.766,1.157.912,2.3,1.849,3.445,2.778,5.708,4.644,11.611,9.441,18.628,12.21a1.512,1.512,0,0,0,.574.11,1.571,1.571,0,0,0,.92-2.846c-3.977-2.854-6.679-6.443-9.534-10.234-1.588-2.119-3.234-4.307-5.159-6.434-4.492-4.974-10.572-10.859-18.425-13.224a19.937,19.937,0,0,0-2.542-17.327,18.847,18.847,0,0,0-16.77-8.047,1.571,1.571,0,0,0-.118,3.107ZM277.82,99.159c-1.393,1.241-2.9,2.483-4.551,2.727a3.116,3.116,0,0,1-2.288-.591,1.554,1.554,0,0,1-.65-1.047c-.144-1.309,1.621-2.592,2.381-3.082a23.737,23.737,0,0,1,10.724-3.631,59.742,59.742,0,0,1-5.641,5.632Zm17.074-27.984a16.677,16.677,0,0,1,1.528,15.968,1.588,1.588,0,0,0,0,1.343,1.562,1.562,0,0,0,1.056.844c7.853,1.765,14.026,7.718,18.577,12.717,1.832,2.027,3.428,4.155,4.982,6.215.709.946,1.436,1.908,2.179,2.854-2.854-2-5.59-4.222-8.275-6.409q-1.74-1.419-3.479-2.8c-6.156-4.889-13.511-9.947-22-11.231a26.337,26.337,0,0,0,3.639-9.289,19.422,19.422,0,0,0-4.045-15.276,15.715,15.715,0,0,1,5.835,5.067Z" transform="translate(-40.368 -8.628)"/><path class="ag" d="M316.682,76.356c.076.574.1,1.148.152,1.689s.068,1.123.068,1.689v1.689l-.144,1.689c-.068.54-.127,1.081-.22,1.621s-.194,1.072-.321,1.6V86.4a2.152,2.152,0,0,0,0,.228,1.52,1.52,0,0,0,1.393,1.638,22.8,22.8,0,0,1,2.576.363c.431.093.844.211,1.275.321s.844.236,1.284.38l1.275.464,1.275.54c.844.388,1.689.844,2.533,1.309a10.132,10.132,0,0,0-1.756-2.44,12.666,12.666,0,0,0-2.356-1.925,13.451,13.451,0,0,0-2.778-1.36c-.439-.16-.887-.3-1.343-.414a16,16,0,0,0,.236-2.2,17.454,17.454,0,0,0-.321-3.808c-.144-.616-.312-1.233-.5-1.832a17.728,17.728,0,0,0-.726-1.748,16.233,16.233,0,0,0-.946-1.621,12.211,12.211,0,0,0-1.191-1.436l.3,1.8C316.538,75.233,316.606,75.815,316.682,76.356Z" transform="translate(-47.987 -10.432)"/><path class="ah" d="M272.685,133.641a8.942,8.942,0,0,0-2.483,1.773,17.59,17.59,0,0,0-3.378,4.9,48.827,48.827,0,0,1-2.533,4.8,9.238,9.238,0,0,1-3.276,3.378l-.169.093a1.4,1.4,0,0,0,.76,2.626c.971-.059,1.934-.1,2.9-.194s1.925-.16,2.888-.3a50.936,50.936,0,0,0,5.776-.98,50.86,50.86,0,0,0-5.784-.929c-.6-.084-1.2-.135-1.8-.186a13.391,13.391,0,0,0,1.368-1.849,28.709,28.709,0,0,0,2.423-5.337,27.7,27.7,0,0,1,2.246-4.83,11.155,11.155,0,0,1,1.638-2.044,9.374,9.374,0,0,1,1.056-.844,8.2,8.2,0,0,1,1.241-.659,6.274,6.274,0,0,0-1.469.1,6.756,6.756,0,0,0-1.4.481Z" transform="translate(-39.27 -19.796)"/><path class="ai" d="M311,115.655a12.3,12.3,0,0,0-2.651-2.381,13.417,13.417,0,0,0-1.731-1,16.887,16.887,0,0,0-1.883-.844,20.984,20.984,0,0,0-7.262-1.224,16.364,16.364,0,0,0-3.378.3,23.012,23.012,0,0,0,3.023,1.461c1.815.777,4.222,1.571,6.536,2.407a51.942,51.942,0,0,1,6.19,2.643c.844.448,1.512.844,2.035,1.14s.844.481.844.481-.118-.338-.346-.844a5.467,5.467,0,0,0-.515-.954A8.056,8.056,0,0,0,311,115.655Z" transform="translate(-44.555 -16.241)"/><path class="aj" d="M256.188,35.926a13.063,13.063,0,0,1,2.787-.988,10.75,10.75,0,0,1,1.528-.22h1.689a12.743,12.743,0,0,1,3.378.718,12.962,12.962,0,0,1,3.124,1.621A13.942,13.942,0,0,1,271.4,39.38a10.842,10.842,0,0,1,1.866,2.744,7.329,7.329,0,0,1,.616,2.972,12.057,12.057,0,0,1-.422,2.9,14.077,14.077,0,0,1-1.967,4.222,13.168,13.168,0,0,1-1.132,1.452l.431-.236a9.772,9.772,0,0,0,1.148-.785,11.628,11.628,0,0,0,3.192-3.969,10.977,10.977,0,0,0,1.072-3.378,8.528,8.528,0,0,0-.363-4.129,11.7,11.7,0,0,0-2.153-3.783,16.668,16.668,0,0,0-3.251-2.947,15.74,15.74,0,0,0-3.969-1.9,12.877,12.877,0,0,0-4.222-.6,7.017,7.017,0,0,0-1.039.051,7.311,7.311,0,0,0-.971.144,12.953,12.953,0,0,0-1.925.549,11.113,11.113,0,0,0-3.082,1.689,10.133,10.133,0,0,0-3.175,3.994,7.677,7.677,0,0,0-.439,1.334c-.068.312-.11.481-.11.481a10.436,10.436,0,0,1,1.064-1.444,11.9,11.9,0,0,1,3.614-2.82Z" transform="translate(-37.93 -4.066)"/><path class="ak" d="M370.392,137.18A17.633,17.633,0,0,0,369,133.245a16.965,16.965,0,0,0-2.407-3.437,14.743,14.743,0,0,0-3.124-2.575,15.014,15.014,0,0,0-6.586-2.246,12.954,12.954,0,0,0-2.761,0,6.967,6.967,0,0,0-2.1.464,2.052,2.052,0,0,0-1.072.912,1.072,1.072,0,0,0-.135.464,1.106,1.106,0,0,1,.27-.363,1.934,1.934,0,0,1,1.106-.414,8.589,8.589,0,0,1,1.917.135,18.577,18.577,0,0,1,2.44.549,17.041,17.041,0,0,1,5.4,2.744,15.9,15.9,0,0,1,2.415,2.305,14.564,14.564,0,0,1,1.892,2.854,14.879,14.879,0,0,1,1.233,3.217,16.784,16.784,0,0,1,.532,3.31v1.613a10.13,10.13,0,0,1-.177,1.461,12.507,12.507,0,0,1-.844,2.685,7.76,7.76,0,0,1-2.719,3.276,5.573,5.573,0,0,1-1.132.583l-.439.152h.473a4.3,4.3,0,0,0,1.343-.177,7.482,7.482,0,0,0,4-2.9,10.732,10.732,0,0,0,1.579-3,12.45,12.45,0,0,0,.5-1.849c.042-.287.093-.566.135-.844s.042-.667.068-1a15.631,15.631,0,0,0-.414-3.977Z" transform="translate(-53.379 -18.53)"/><path class="al" d="M165.231,24.953a4.67,4.67,0,0,0,1.883.5,5.176,5.176,0,0,0,1.892-.279,9.288,9.288,0,0,0,3.175-1.883c.464-.4.844-.777,1.284-1.174l1.165-1.123a6.193,6.193,0,0,1,4.8-2.06,6.755,6.755,0,0,1,2.533.667,5.624,5.624,0,0,1,1.934,1.647l.093.127a1.478,1.478,0,0,0,2.415-1.689,10.848,10.848,0,0,1-.8-1.52,13.317,13.317,0,0,1-.853-3.445c-.051-.6,0-1.2,0-1.807a15.2,15.2,0,0,1,.211-1.832,15.911,15.911,0,0,1,.464-1.816,17.462,17.462,0,0,1,.743-1.765l.473-.844.549-.844A10.133,10.133,0,0,0,185.632,7.1l-.684.777-.6.844a13.421,13.421,0,0,0-.98,1.858,16.269,16.269,0,0,0-.633,2.035,12.759,12.759,0,0,0-.279,2.128,15.32,15.32,0,0,0,0,1.647,8.36,8.36,0,0,0-6.831.228,5.07,5.07,0,0,0-.473.245l-.388.262a8.69,8.69,0,0,0-.785.6,15.74,15.74,0,0,0-1.309,1.284c-.4.439-.768.844-1.106,1.3s-.684.844-1.022,1.224a9.449,9.449,0,0,1-2.229,1.917,4.551,4.551,0,0,1-1.326.49,3.31,3.31,0,0,1-1.376,0,2.922,2.922,0,0,1-2.271-1.883,2.727,2.727,0,0,0,.49,1.689,4.1,4.1,0,0,0,1.4,1.208Z" transform="translate(-24.212)"/><path class="am" d="M193.812,7.548c.287.591.524,1.174.743,1.765a13.967,13.967,0,0,1,.464,1.816,15.2,15.2,0,0,1,.211,1.832c0,.608,0,1.208-.042,1.807a13.317,13.317,0,0,1-.853,3.445,12.979,12.979,0,0,1-.844,1.52,1.473,1.473,0,1,0,2.415,1.689L196,21.3a5.548,5.548,0,0,1,2.035-1.689,6.755,6.755,0,0,1,2.533-.667,6.193,6.193,0,0,1,4.8,2.06l1.106,1.123c.414.4.844.777,1.284,1.174a9.483,9.483,0,0,0,3.175,1.883,5.218,5.218,0,0,0,1.9.279,4.636,4.636,0,0,0,1.875-.5,4.02,4.02,0,0,0,1.4-1.2,2.736,2.736,0,0,0,.5-1.689,2.93,2.93,0,0,1-2.271,1.883,3.378,3.378,0,0,1-1.385,0,4.5,4.5,0,0,1-1.317-.49,9.449,9.449,0,0,1-2.229-1.917c-.338-.372-.684-.8-1.022-1.224s-.718-.844-1.115-1.3a14.541,14.541,0,0,0-1.292-1.224,7.6,7.6,0,0,0-.785-.6l-.405-.245a4.105,4.105,0,0,0-.464-.245,8.351,8.351,0,0,0-6.831-.228,15.317,15.317,0,0,0,.042-1.647,13.715,13.715,0,0,0-.279-2.128,15.008,15.008,0,0,0-.642-2.035,12.522,12.522,0,0,0-.971-1.858l-.6-.844-.684-.777A10.208,10.208,0,0,0,192.79,5.91l.557.844Z" transform="translate(-28.795 -0.016)"/><path class="an" d="M305.025,215.67H21.081a1.571,1.571,0,0,0,0,3.141H305.025a1.571,1.571,0,0,0,0-3.141Z" transform="translate(-1.836 -32.65)"/><path class="ao" d="M26.6,115.9a6.173,6.173,0,0,0-4.644,1.148,7.743,7.743,0,0,0-2.271,2.981h0a7.819,7.819,0,0,0-.6,1.824A11.281,11.281,0,0,0,19,123.139a9.17,9.17,0,0,0,.6,2.778,12.969,12.969,0,0,0,.785,1.689c2.533,4.543,5.337,8.1,9.289,9.449H20.925a1.571,1.571,0,1,0,0,3.141h132.81a1.571,1.571,0,1,0,0-3.141H140.225a16.517,16.517,0,0,0,5.219-5.117,14.423,14.423,0,0,0,1.689-10.977,13.012,13.012,0,0,0-.532-1.689l8.166,4.9a16.812,16.812,0,0,0,16.8.279l10.682-5.911a14.247,14.247,0,0,0-.844,2.457,14.482,14.482,0,0,0,1.689,10.977,16.517,16.517,0,0,0,5.218,5.117H175.285a1.571,1.571,0,1,0,0,3.141H304.954a1.571,1.571,0,0,0,0-3.141h-6.122c3.977-1.351,6.814-4.906,9.289-9.449a12.664,12.664,0,0,0,1.36-3.673,8.545,8.545,0,0,0-.65-3.927,7.363,7.363,0,0,0-2.28-2.989,6.156,6.156,0,0,0-4.636-1.148,5.286,5.286,0,0,0-4.155,4.332,4.222,4.222,0,0,0,1.984,4.518,1.571,1.571,0,0,0,1.545-2.727,1.132,1.132,0,0,1-.439-1.25,2.2,2.2,0,0,1,1.588-1.782,3.116,3.116,0,0,1,2.288.608,4.222,4.222,0,0,1,1.689,2.651,4.165,4.165,0,0,1,.059.557,5.742,5.742,0,0,1-1.148,3.335l-.11.144a9.559,9.559,0,0,1-6.527,3.378c-3.825.287-7.9-1.165-12.844-4.543-1.984-1.351-3.927-2.846-5.81-4.29a81.683,81.683,0,0,0-9.652-6.713,29.462,29.462,0,0,0-13.891-4.036h-.3a18.02,18.02,0,0,0-13.1-5.911A21.955,21.955,0,0,0,229.43,109a12.531,12.531,0,0,0-3.378,2.939,1.587,1.587,0,0,0-.3.642c-.084.1-.169.2-.245.312A29.445,29.445,0,0,0,223.7,97.029a28.472,28.472,0,0,0-2.449-4.323,28,28,0,0,1-4.391-9.745h0a21.668,21.668,0,0,1-.616-4.788h0v-.388a20.02,20.02,0,0,1,.8-3.884,19.05,19.05,0,0,1,2.339-4.687,34.78,34.78,0,0,0,3.715,6.637,12.565,12.565,0,0,0,10.977,4.222,8.351,8.351,0,0,0,6.578-5.2,10.277,10.277,0,0,0-.676-9.888c-3.378-4.779-10.8-6.274-16.618-3.327a17.268,17.268,0,0,0-2.643,1.689,22.521,22.521,0,0,1,.093-12.067c3.969.7,7.7-.228,10.133-2.533,2.28-2.162,2.339-3.986,1.993-5.126a4.723,4.723,0,0,0-3.96-2.989,8.1,8.1,0,0,0-7.743,2.981,23.788,23.788,0,0,0-2.373,3.952,21.178,21.178,0,0,1-6.114-3.057,45.519,45.519,0,0,1-4.779-4.222,18.147,18.147,0,0,1-3.243-3.825,10.673,10.673,0,0,1-1.072-2.711,4.45,4.45,0,0,0,3.116-.7h0a4.974,4.974,0,0,0,2.533-4.779c-.118-2.981-2.263-6.3-5.641-6.7-3.682-.431-7.4,2.305-8.444,6.249a11.678,11.678,0,0,0,1.376,9.213c4.121,6.958,14.4,11.5,21.111,13.511a25.6,25.6,0,0,0,.422,15.2,21.381,21.381,0,0,0-4.568,18.248c1.343,6.139,2.39,12.548,3.378,18.746l.692,4.222c.963,5.843,1.2,14.245-3.192,21.043-2.407,3.715-4.746,6.13-7.456,7.507-.456.194-.929.38-1.393.54l-.152.068a18.206,18.206,0,0,1-10.42.481,15.048,15.048,0,0,1-9.23-6.257,11.273,11.273,0,0,1-1.284-8.622,10.133,10.133,0,0,1,4.56-6.468c2.533-1.545,6.586-1.849,8.622.346a3.454,3.454,0,0,1,.338,3.707,2.483,2.483,0,0,1-2.373,1.689,1.571,1.571,0,1,0-.169,3.107,5.624,5.624,0,0,0,5.379-3.462,6.544,6.544,0,0,0-.844-7.178,7.971,7.971,0,0,0-4.34-2.356l3.057-1.689A16.888,16.888,0,0,0,207.306,95l.524-30.99a16.888,16.888,0,0,0-8.123-14.684L173.1,33.377a16.888,16.888,0,0,0-16.8-.279L129.2,48.146a16.888,16.888,0,0,0-8.638,14.406l-.524,30.99a16.888,16.888,0,0,0,8.157,14.693L133,111.1a8.047,8.047,0,0,0-4.366,2.364,6.561,6.561,0,0,0-.887,7.178,5.666,5.666,0,0,0,5.379,3.462,1.571,1.571,0,1,0-.152-3.133,2.533,2.533,0,0,1-2.381-1.689,3.454,3.454,0,0,1,.346-3.707c2.027-2.2,6.055-1.891,8.613-.346a10.184,10.184,0,0,1,4.568,6.468,11.315,11.315,0,0,1-1.317,8.579,15.022,15.022,0,0,1-9.213,6.249h0a18.172,18.172,0,0,1-10.42-.481H123.1c-.515-.169-1.022-.355-1.528-.574-2.7-1.376-5.067-3.791-7.456-7.507-4.391-6.755-4.155-15.2-3.183-21.043l.684-4.222c1.013-6.2,2.06-12.616,3.378-18.755a21.347,21.347,0,0,0-4.568-18.248,25.67,25.67,0,0,0,.431-15.2c6.688-1.984,16.964-6.527,21.11-13.511a11.645,11.645,0,0,0,1.385-9.145c-1.047-3.943-4.763-6.679-8.444-6.249-3.378.4-5.514,3.715-5.632,6.7a4.974,4.974,0,0,0,2.533,4.779h0a4.475,4.475,0,0,0,3.124.7,11.045,11.045,0,0,1-1.047,2.643,18.146,18.146,0,0,1-3.243,3.825,43.91,43.91,0,0,1-4.779,4.222,21.111,21.111,0,0,1-6.114,3.057,23.221,23.221,0,0,0-2.373-3.952,8.1,8.1,0,0,0-7.743-2.981,4.723,4.723,0,0,0-3.96,2.989c-.346,1.14-.287,2.964,1.993,5.126,2.44,2.331,6.164,3.251,10.133,2.533a22.605,22.605,0,0,1,.084,12.075,16.888,16.888,0,0,0-2.643-1.689c-5.81-2.947-13.266-1.452-16.61,3.327a10.251,10.251,0,0,0-.684,9.888,8.377,8.377,0,0,0,6.578,5.2A12.565,12.565,0,0,0,105.5,75.809a35.044,35.044,0,0,0,3.673-6.595,18.189,18.189,0,0,1,3.167,9.989,1.689,1.689,0,0,0-.194.616c-.566,6.181-2.854,9.753-4.872,12.911a29.993,29.993,0,0,0-2.449,4.323,29.555,29.555,0,0,0-1.8,15.867l-.253-.312a1.587,1.587,0,0,0-.3-.642,12.43,12.43,0,0,0-3.378-2.955,22.081,22.081,0,0,0-13.393-4.864h-.27a18.02,18.02,0,0,0-13.1,5.911H72.03a29.49,29.49,0,0,0-13.891,4.036,81.681,81.681,0,0,0-9.652,6.713c-1.883,1.444-3.825,2.939-5.8,4.29-4.957,3.378-9.027,4.83-12.844,4.543a9.609,9.609,0,0,1-6.232-3.006h0l-.177-.22-.1-.11a.845.845,0,0,1-.1-.144s0,0,0-.051a6.4,6.4,0,0,1-1.115-3.268h0a1.782,1.782,0,0,1,.051-.557,4.273,4.273,0,0,1,1.689-2.651,3.057,3.057,0,0,1,2.3-.6,2.187,2.187,0,0,1,1.579,1.773,1.106,1.106,0,0,1-.439,1.25,1.571,1.571,0,0,0,1.545,2.727,4.171,4.171,0,0,0,1.984-4.551A5.261,5.261,0,0,0,26.6,115.9ZM237.367,66.74a7.093,7.093,0,0,1,.388,6.806,5.3,5.3,0,0,1-4.087,3.378h-.431a6.392,6.392,0,0,0,2.162-2.711,9.964,9.964,0,0,0-.5-8.377,8.343,8.343,0,0,0-1.731-2.119A8,8,0,0,1,237.367,66.74Zm-13.7-1.689a2.043,2.043,0,0,0,.38-.084,6.6,6.6,0,0,1,8.115,2.423A6.874,6.874,0,0,1,232.52,73a3.006,3.006,0,0,1-2.086,1.841c-2.364.6-3.15.532-3.378.38h0a7.372,7.372,0,0,1-1.478-1.368,27.867,27.867,0,0,1-3.918-7.3,14.255,14.255,0,0,1,2-1.5Zm.068-19.582a4.957,4.957,0,0,1,4.687-1.756c.844.144,1.4.515,1.495.844s-.22,1.047-1.157,1.934A8.476,8.476,0,0,1,222,48.315a19.726,19.726,0,0,1,1.731-2.854ZM199.3,35.437a8.545,8.545,0,0,1-1.047-6.814c.566-2.119,2.694-4.222,5.067-3.935,1.6.194,2.8,2.1,2.863,3.707a1.883,1.883,0,0,1-1.63,2.179,1.933,1.933,0,0,0-.312.1L204,30.632a1.866,1.866,0,0,1-1-.971,1.574,1.574,0,0,0-3.04.709,18.062,18.062,0,0,0,1.993,7.549,13.511,13.511,0,0,0,1.393,1.993,17.5,17.5,0,0,1-4.045-4.475Zm78.869,87.921c1.917,1.478,3.893,3,5.911,4.4,3.5,2.4,8.85,5.531,14.845,5.067a11.738,11.738,0,0,0,1.8-.287,10.319,10.319,0,0,1-3.015,1.613c-3.251,1.064-7.346.346-11.239-1.967a46.79,46.79,0,0,1-9.829-7.971,101.82,101.82,0,0,0-7.6-7.237,82.669,82.669,0,0,1,9.128,6.367Zm-23.39-10.006a10.075,10.075,0,0,1,1.393,3.031,9.162,9.162,0,0,1-.152,4.948,13.688,13.688,0,0,0-2.533-7.786,10.28,10.28,0,0,1,1.292-.211Zm-2.533-2.761c-.4.084-.785.2-1.182.312a17.522,17.522,0,0,0-6.755-3.521,14.963,14.963,0,0,1,7.929,3.209Zm-.186,14.549c-.625,1.267-2.12,3.867-5.463,3.158a3.766,3.766,0,0,1-2.136-2.255,7.372,7.372,0,0,1,.3-6.012,11.822,11.822,0,0,1,5.548-5.489C252.9,117.574,253.639,121.94,252.06,125.14ZM220.816,98.245c2.491,5.835,2.533,12.844.228,19.911a41.672,41.672,0,0,0-.355-11.754l-.684-4.222c-.414-2.533-.844-5.067-1.275-7.667a25.375,25.375,0,0,1,2.086,3.732Zm-3.471,33.583a27.79,27.79,0,0,0,2.592-3.259,59.052,59.052,0,0,0,3.58-6.316,45.4,45.4,0,0,1,4.222-7.169,20.6,20.6,0,0,1,3.487-3.53,14.642,14.642,0,0,1,7.144-1.782,16.466,16.466,0,0,1,9.356,2.533,14.921,14.921,0,0,0-5.911,6.375,10.479,10.479,0,0,0-.338,8.546,6.755,6.755,0,0,0,4.222,4.07h.135a7.194,7.194,0,0,0,2.846.068,12.582,12.582,0,0,0,8.672-5.573,12.717,12.717,0,0,0,1.849-10.251,11.631,11.631,0,0,0-.625-1.748c3.8,1.52,9.584,6.054,15.824,12.573a49.822,49.822,0,0,0,10.5,8.495,21.06,21.06,0,0,0,5.066,2.212H211.8a24.911,24.911,0,0,0,5.582-5.244Zm-87.533-26.3a13.68,13.68,0,0,1-6.637-11.94l.532-30.982a13.68,13.68,0,0,1,7.026-11.712l27.089-15.048a13.7,13.7,0,0,1,13.663.228l26.574,15.943A13.713,13.713,0,0,1,204.7,63.962l-.524,30.99a13.7,13.7,0,0,1-7,11.721l-27.1,15.048a13.7,13.7,0,0,1-13.663-.236ZM124.595,30.59a1.03,1.03,0,0,1-.253.051,1.933,1.933,0,0,0-.312-.1,1.891,1.891,0,0,1-1.63-2.179c.068-1.6,1.258-3.513,2.863-3.707,2.347-.287,4.484,1.816,5.067,3.935a8.512,8.512,0,0,1-1.064,6.848,17.5,17.5,0,0,1-4.045,4.492,12.919,12.919,0,0,0,1.393-1.993,18.352,18.352,0,0,0,1.993-7.549,1.571,1.571,0,0,0-3.023-.726,1.807,1.807,0,0,1-.988.946ZM99.811,46.457c-.929-.844-1.25-1.613-1.148-1.934s.625-.667,1.486-.844a4.788,4.788,0,0,1,.794-.068,4.881,4.881,0,0,1,3.9,1.816,20.52,20.52,0,0,1,1.74,2.82A8.288,8.288,0,0,1,99.811,46.457ZM93.165,74.28a6.367,6.367,0,0,0,2.162,2.7H94.9A5.3,5.3,0,0,1,90.818,73.6,7.076,7.076,0,0,1,91.2,66.8a8.081,8.081,0,0,1,4.222-3,8.2,8.2,0,0,0-1.689,2.111A9.981,9.981,0,0,0,93.165,74.28Zm9.863-.405a7.524,7.524,0,0,1-1.495,1.376h0c-.245.16-1.039.22-3.378-.38a3.015,3.015,0,0,1-2.077-1.841,6.848,6.848,0,0,1,.363-5.607,6.6,6.6,0,0,1,8.09-2.432,1.823,1.823,0,0,0,.372.084,14.255,14.255,0,0,1,1.984,1.5,27.647,27.647,0,0,1-3.859,7.254Zm4.687,24.412a25.476,25.476,0,0,1,2.094-3.69c-.448,2.533-.844,5.143-1.284,7.676l-.684,4.171a41.7,41.7,0,0,0-.346,11.746c-2.3-7.1-2.271-14.11.22-19.945Zm-23.331,9.069a17.64,17.64,0,0,0-6.874,3.538c-.388-.118-.785-.236-1.182-.321a15.048,15.048,0,0,1,8.056-3.217Zm-6.114,7.186a11.822,11.822,0,0,1,5.556,5.489,7.372,7.372,0,0,1,.3,6.012,3.817,3.817,0,0,1-2.136,2.28c-2.964.473-4.839-1.891-5.472-3.158C74.934,121.94,75.677,117.574,78.27,114.542Zm-5.911,1.824a10.074,10.074,0,0,1,1.393-3.031c.431.042.844.11,1.292.194a13.755,13.755,0,0,0-2.533,7.786,9.162,9.162,0,0,1-.118-4.948ZM71.21,125.79a12.582,12.582,0,0,0,8.588,5.658,7.194,7.194,0,0,0,2.846-.068h.135A6.755,6.755,0,0,0,87,127.3a10.446,10.446,0,0,0-.338-8.546,14.946,14.946,0,0,0-5.911-6.375,16.466,16.466,0,0,1,9.356-2.533,14.634,14.634,0,0,1,7.135,1.782,20.6,20.6,0,0,1,3.487,3.53,44.805,44.805,0,0,1,4.222,7.169,58.973,58.973,0,0,0,3.572,6.316,28.71,28.71,0,0,0,2.592,3.259,24.944,24.944,0,0,0,5.59,5.261H38.6a21.4,21.4,0,0,0,5.067-2.212,49.82,49.82,0,0,0,10.5-8.571c6.215-6.5,12.025-11.053,15.824-12.582a13.173,13.173,0,0,0-.625,1.756A12.784,12.784,0,0,0,71.21,125.79Zm-41.6,7.017c6,.448,11.341-2.685,14.845-5.067,2.052-1.4,4.036-2.922,5.911-4.4a82.043,82.043,0,0,1,9.17-6.375,102.039,102.039,0,0,0-7.6,7.245,47.043,47.043,0,0,1-9.837,7.971c-3.893,2.314-7.988,3.031-11.231,1.967a10.369,10.369,0,0,1-3.057-1.6,12.075,12.075,0,0,0,1.8.279Z" transform="translate(-1.756 -2.445)"/></g></svg>