<svg xmlns="http://www.w3.org/2000/svg" xmlns:xlink="http://www.w3.org/1999/xlink" width="30" height="25.316" viewBox="0 0 30 25.316">
  <defs>
    <clipPath id="clip-path">
      <rect width="30" height="25.316" fill="none"/>
    </clipPath>
  </defs>
  <g id="parking" clip-path="url(#clip-path)">
    <g id="Group_153" data-name="Group 153" transform="translate(23.255 2.437)">
      <g id="Group_152" data-name="Group 152" transform="translate(0 0)">
        <path id="Path_1913" data-name="Path 1913" d="M398.707,81.562h-1.464a.321.321,0,0,0-.357.291h0v4.735c0,.2.233.3.474.3s.474-.1.474-.3V84.9h.816a1.521,1.521,0,0,0,1.712-1.654V83.2A1.484,1.484,0,0,0,398.707,81.562Zm.707,1.756c0,.568-.291.838-.765.838h-.816V82.393h.816c.474,0,.765.27.765.838Z" transform="translate(-396.886 -81.562)" fill="#a99964"/>
      </g>
    </g>
    <g id="Group_155" data-name="Group 155" transform="translate(6.691 2.144)">
      <g id="Group_154" data-name="Group 154" transform="translate(0 0)">
        <path id="Path_1914" data-name="Path 1914" d="M124.679,78.7a7.322,7.322,0,0,0-10.355,0,.427.427,0,0,0,.6.6,6.468,6.468,0,0,1,9.147,0,.427.427,0,0,0,.6-.6Z" transform="translate(-114.198 -76.554)" fill="#a99964"/>
      </g>
    </g>
    <g id="Group_157" data-name="Group 157" transform="translate(8.454 4.639)">
      <g id="Group_156" data-name="Group 156" transform="translate(0 0)">
        <path id="Path_1915" data-name="Path 1915" d="M151.244,120.56a4.834,4.834,0,0,0-6.829,0,.427.427,0,0,0,.6.6,3.979,3.979,0,0,1,5.62,0,.427.427,0,1,0,.6-.6Z" transform="translate(-144.289 -119.147)" fill="#a99964"/>
      </g>
    </g>
    <g id="Group_159" data-name="Group 159" transform="translate(10.19 7.092)">
      <g id="Group_158" data-name="Group 158" transform="translate(0 0)">
        <path id="Path_1916" data-name="Path 1916" d="M177.387,161.7a2.378,2.378,0,0,0-3.359,0,.427.427,0,1,0,.6.6,1.522,1.522,0,0,1,2.15,0,.427.427,0,0,0,.6-.6Z" transform="translate(-173.903 -161.009)" fill="#a99964"/>
      </g>
    </g>
    <g id="Group_161" data-name="Group 161" transform="translate(3.632 12.983)">
      <g id="Group_160" data-name="Group 160">
        <path id="Path_1917" data-name="Path 1917" d="M79.385,264.679c-.185-.1-.367-.213-.542-.331l-2.827-1.91a5.151,5.151,0,0,0-2.894-.886H67.934a5.138,5.138,0,0,0-3.649,1.507,6.924,6.924,0,0,1-1.7,1.242,1.112,1.112,0,0,0,.513,2.1h1.769a.427.427,0,0,0,0-.855H63.1a.257.257,0,0,1-.119-.485,7.779,7.779,0,0,0,1.908-1.4,4.288,4.288,0,0,1,3.046-1.258H69.1v3.139h-1.42a.427.427,0,1,0,0,.855H79.394a.638.638,0,0,0,.637-.637A1.24,1.24,0,0,0,79.385,264.679Zm-9.435.867v-3.139h3.172a4.3,4.3,0,0,1,2.416.739l2.827,1.91c.2.133.4.258.609.372a.4.4,0,0,1,.133.118Z" transform="translate(-61.987 -261.552)" fill="#a99964"/>
      </g>
    </g>
    <g id="Group_163" data-name="Group 163" transform="translate(10.907 18.481)">
      <g id="Group_162" data-name="Group 162" transform="translate(0 0)">
        <path id="Path_1918" data-name="Path 1918" d="M187.89,355.388h-1.32a.427.427,0,1,0,0,.855h1.32a.427.427,0,1,0,0-.855Z" transform="translate(-186.142 -355.388)" fill="#a99964"/>
      </g>
    </g>
    <g id="Group_165" data-name="Group 165">
      <g id="Group_164" data-name="Group 164" transform="translate(0 0)">
        <path id="Path_1919" data-name="Path 1919" d="M29.631,58.093l-.135-.224a3.518,3.518,0,0,0-2.322-1.631l-1.1-.219V50.426h2.855a1.067,1.067,0,0,0,1.066-1.066V41.036a1.067,1.067,0,0,0-1.066-1.066H20.6a1.067,1.067,0,0,0-1.066,1.066v3.157a.427.427,0,0,0,.855,0V41.036a.212.212,0,0,1,.211-.211h8.323a.212.212,0,0,1,.211.211V49.36a.212.212,0,0,1-.211.211H20.6a.212.212,0,0,1-.211-.211V46.972a.427.427,0,1,0-.855,0V49.36A1.067,1.067,0,0,0,20.6,50.426h3.238v5.149l-.567-.113a6.026,6.026,0,0,1-2.052-.97L18.4,52.582a6.457,6.457,0,0,0-3.628-1.111H9.579a6.439,6.439,0,0,0-4.574,1.89,5.612,5.612,0,0,1-2.817,1.521l-.614.128A1.989,1.989,0,0,0,0,56.949v4.139a1.252,1.252,0,0,0,.743,1.143l1.7.757a2.834,2.834,0,0,0,5.511.233H22.149a2.833,2.833,0,0,0,5.455,0h.811A1.587,1.587,0,0,0,30,61.635V59.419A2.571,2.571,0,0,0,29.631,58.093ZM24.7,50.426h.521v5.423l-.521-.1ZM6.628,63.851a1.98,1.98,0,0,1-3.2-2.223l.008-.018c.01-.022.021-.043.032-.064l.016-.03.031-.055.022-.038.03-.048.029-.043.029-.042.035-.047.028-.036.043-.051.025-.029q.033-.036.067-.071l.006-.006.013-.013.059-.056.016-.014.061-.052.006,0a1.984,1.984,0,0,1,2.493,0l0,0,.065.056.012.01q.037.034.073.069c.026.026.051.052.075.079l.031.036.037.044.039.051.022.029.046.065.007.011A1.984,1.984,0,0,1,6.628,63.851Zm19.649,0a1.981,1.981,0,0,1-3.058-2.485l.007-.011q.022-.033.046-.066l.021-.029.04-.051.037-.044.031-.036c.024-.027.049-.053.075-.079a1.98,1.98,0,0,1,2.8,0c.026.026.051.052.075.079l.031.036.037.044.04.051.021.029c.016.022.031.043.046.065l.007.011A1.984,1.984,0,0,1,26.277,63.851Zm2.868-2.216h0a.731.731,0,0,1-.73.73h-.7a2.8,2.8,0,0,0-.629-1.7l-.008-.01c-.024-.03-.05-.059-.075-.088l-.019-.022c-.027-.03-.055-.059-.084-.088l-.014-.015a2.818,2.818,0,0,0-1.312-.746,2.878,2.878,0,0,0-1.25-.03,2.816,2.816,0,0,0-1.447.776l-.014.015c-.029.029-.057.059-.084.089l-.019.022c-.026.029-.051.059-.076.089l-.007.009a2.8,2.8,0,0,0-.63,1.7H8.063a2.8,2.8,0,0,0-.631-1.7l-.005-.007c-.026-.032-.053-.062-.08-.093l-.015-.017q-.048-.053-.1-.1a2.838,2.838,0,0,0-4.01,0c-.032.032-.062.064-.092.1l-.026.029-.062.072-.027.033-.061.079-.019.025q-.08.11-.149.226l0,.007q-.034.057-.065.116l0,0a2.817,2.817,0,0,0-.3.908L1.09,61.45a.4.4,0,0,1-.235-.362V56.949a1.131,1.131,0,0,1,.895-1.1l.614-.128a6.465,6.465,0,0,0,3.245-1.752,5.59,5.59,0,0,1,3.971-1.64h5.188a5.606,5.606,0,0,1,3.149.964l2.827,1.91a6.815,6.815,0,0,0,2.364,1.1l3.9.776a2.661,2.661,0,0,1,1.756,1.234l.135.224a1.714,1.714,0,0,1,.246.885Z" transform="translate(0 -39.97)" fill="#a99964"/>
      </g>
    </g>
    <g id="Group_167" data-name="Group 167" transform="translate(3.93 21.183)">
      <g id="Group_166" data-name="Group 166">
        <path id="Path_1920" data-name="Path 1920" d="M69.3,401.88a1.3,1.3,0,1,0,0,1.835A1.289,1.289,0,0,0,69.3,401.88Zm-.6,1.23a.443.443,0,1,1,0-.626A.44.44,0,0,1,68.691,403.111Z" transform="translate(-67.08 -401.5)" fill="#a99964"/>
      </g>
    </g>
    <g id="Group_169" data-name="Group 169" transform="translate(23.58 21.183)">
      <g id="Group_168" data-name="Group 168">
        <path id="Path_1921" data-name="Path 1921" d="M404.645,401.88a1.3,1.3,0,1,0,.38.917A1.289,1.289,0,0,0,404.645,401.88Zm-.6,1.23a.443.443,0,1,1,.13-.313A.44.44,0,0,1,404.04,403.111Z" transform="translate(-402.43 -401.5)" fill="#a99964"/>
      </g>
    </g>
  </g>
</svg>
