<svg xmlns="http://www.w3.org/2000/svg" xmlns:xlink="http://www.w3.org/1999/xlink" width="20" height="20" viewBox="0 0 20 20">
  <defs>
    <clipPath id="clip-path">
      <rect width="20" height="20" fill="none"/>
    </clipPath>
  </defs>
  <g id="percent" clip-path="url(#clip-path)">
    <path id="Path_1938" data-name="Path 1938" d="M17.071,2.929A10,10,0,0,0,2.929,17.071,10,10,0,0,0,17.071,2.929Zm-.442,13.7A9.375,9.375,0,0,1,3.371,3.371,9.375,9.375,0,0,1,16.629,16.629Z" fill="#a99964"/>
    <path id="Path_1939" data-name="Path 1939" d="M122.988,112.275a.937.937,0,0,0-1.326,0l-.5.5a.312.312,0,0,0,.442.442l.5-.5a.312.312,0,0,1,.442.442l-9.375,9.375a.312.312,0,0,1-.442-.442l8-8a.312.312,0,0,0-.442-.442l-8,8a.937.937,0,1,0,1.326,1.326l9.375-9.375A.938.938,0,0,0,122.988,112.275Z" transform="translate(-107.637 -107.625)" fill="#a99964"/>
    <path id="Path_1940" data-name="Path 1940" d="M98.813,101.625A2.813,2.813,0,1,0,96,98.813,2.816,2.816,0,0,0,98.813,101.625Zm0-5a2.188,2.188,0,1,1-2.187,2.188A2.19,2.19,0,0,1,98.813,96.625Z" transform="translate(-92.25 -92.25)" fill="#a99964"/>
    <path id="Path_1941" data-name="Path 1941" d="M274.813,272a2.813,2.813,0,1,0,2.813,2.813A2.816,2.816,0,0,0,274.813,272Zm0,5A2.188,2.188,0,1,1,277,274.813,2.19,2.19,0,0,1,274.813,277Z" transform="translate(-261.375 -261.375)" fill="#a99964"/>
    <path id="Path_1942" data-name="Path 1942" d="M129.563,131.125a1.564,1.564,0,0,0,1.513-1.954.313.313,0,0,0-.605.156.936.936,0,1,1-.673-.673.313.313,0,0,0,.156-.605,1.563,1.563,0,1,0-.39,3.076Z" transform="translate(-123 -123)" fill="#a99964"/>
    <path id="Path_1943" data-name="Path 1943" d="M306.695,304.946a.313.313,0,0,0-.224.381.936.936,0,1,1-.673-.673.312.312,0,0,0,.156-.605,1.561,1.561,0,1,0,1.122,1.121A.312.312,0,0,0,306.695,304.946Z" transform="translate(-292.125 -292.125)" fill="#a99964"/>
  </g>
</svg>
