<svg xmlns="http://www.w3.org/2000/svg" xmlns:xlink="http://www.w3.org/1999/xlink" width="30" height="30.046" viewBox="0 0 30 30.046">
  <defs>
    <clipPath id="clip-path">
      <rect width="30" height="30.046" fill="none"/>
    </clipPath>
  </defs>
  <g id="rings" clip-path="url(#clip-path)">
    <g id="Group_151" data-name="Group 151">
      <path id="Path_1912" data-name="Path 1912" d="M30.1,17.454A10.183,10.183,0,0,0,19.8,9.69a10.139,10.139,0,0,0-5.173-5.028.445.445,0,1,0-.355.817,9.252,9.252,0,0,1,4.839,4.849A9.384,9.384,0,0,1,19.6,11.8c.033.133.063.271.092.42h0A9.291,9.291,0,0,1,13.55,22.8q-.056-.127-.107-.257v0q-.1-.249-.178-.506L13.251,22q-.037-.121-.07-.244l0-.006a8.186,8.186,0,0,0,5.392-9.414h0c-.021-.1-.04-.184-.059-.264a8.215,8.215,0,0,0-.642-1.747l0,0-.006-.011a8.165,8.165,0,0,0-6.314-4.416l3.163-2.94a.445.445,0,0,0,.067-.574l0,0h0L13.313.2a.445.445,0,0,0-.37-.2H8.2a.445.445,0,0,0-.37.2L6.371,2.378a.445.445,0,0,0,.067.574L9.6,5.892a8.17,8.17,0,0,0-4,14.592,8.212,8.212,0,0,0,4.7,1.686l.025.1q.03.122.063.243l.016.056q.027.1.055.192l.016.053q.031.1.064.2l.011.035q.04.12.082.238A9.292,9.292,0,0,1,6.877,5.478a.445.445,0,0,0-.353-.817,10.183,10.183,0,0,0,4.048,19.524c.138,0,.277,0,.416-.009A10.181,10.181,0,0,0,30.1,17.454ZM19.272,19.293a10.148,10.148,0,0,0,1.385-6.7,7.325,7.325,0,0,1,4.017,1.515,7.2,7.2,0,0,1,2.61,4.029A7.282,7.282,0,0,1,13.961,23.6,10.147,10.147,0,0,0,19.272,19.293ZM13,20.866A7.281,7.281,0,0,1,17.784,13,7.3,7.3,0,0,1,13,20.866ZM8.442.89h4.264l.864,1.287H7.578ZM7.87,3.068h5.409l-2.7,2.514Zm2.258,18.2a7.317,7.317,0,0,1-3.987-1.493A7.2,7.2,0,0,1,3.5,15.726a7.288,7.288,0,0,1,5.35-8.8,7.2,7.2,0,0,1,4.811.48,7.321,7.321,0,0,1,3.159,2.854A10.182,10.182,0,0,0,10.128,21.27ZM22.41,28.891a9.285,9.285,0,0,1-10.755-5.406l-.047-.113-.018-.046c-.019-.047-.038-.095-.056-.142l-.008-.021q-.031-.082-.061-.165l0-.005q-.032-.09-.062-.18h0q-.031-.091-.059-.183l0-.013q-.026-.086-.051-.172l-.016-.057c-.012-.043-.025-.087-.036-.13q-.025-.1-.049-.191c-.016-.065-.031-.13-.045-.2l-.016-.077-.018-.089-.012-.059,0-.008a9.291,9.291,0,0,1,6.144-10.572,7.336,7.336,0,0,1,.371,1.057,8.17,8.17,0,0,0-5.392,9.414h0v0c.007.035.015.07.023.106.012.055.024.106.036.155q.026.108.056.215l.015.052q.023.083.048.166l.015.05q.027.087.055.173l.012.035q.034.1.07.2l0,.007a8.181,8.181,0,0,0,7.65,5.343A8.182,8.182,0,0,0,28.15,17.93a8.084,8.084,0,0,0-2.93-4.522A8.216,8.216,0,0,0,20.491,11.7q-.012-.053-.025-.1a10.243,10.243,0,0,0-.306-1.021,9.292,9.292,0,0,1,2.25,18.319Z" transform="translate(-0.394 0)" fill="#a99964"/>
    </g>
  </g>
</svg>
