<svg xmlns="http://www.w3.org/2000/svg" xmlns:xlink="http://www.w3.org/1999/xlink" width="21.777" height="20" viewBox="0 0 21.777 20">
  <defs>
    <clipPath id="clip-path">
      <rect width="21.777" height="20" fill="none"/>
    </clipPath>
  </defs>
  <g id="serving-dish" clip-path="url(#clip-path)">
    <path id="serving-dish-2" data-name="serving-dish" d="M20.848,10.221h-.756a9.13,9.13,0,0,0-.835-3.3.319.319,0,1,0-.578.268,8.5,8.5,0,0,1,.775,3.033H4.861a.319.319,0,0,0,0,.637H20.848a.292.292,0,0,1,.292.292v.389a.292.292,0,0,1-.292.292H.929a.292.292,0,0,1-.292-.292V11.15a.292.292,0,0,1,.292-.292H3.377a.319.319,0,1,0,0-.637H2.324a8.584,8.584,0,0,1,7.992-7.987h0q.13-.008.257-.013l.051,0,.09,0,.172,0c.076,0,.152,0,.228,0l.067,0,.175.008.093.005a8.591,8.591,0,0,1,6.519,3.713.319.319,0,0,0,.525-.361,9.228,9.228,0,0,0-6.3-3.914A1.551,1.551,0,0,0,12.442.83c0-.173-.077-.492-.595-.683a3.193,3.193,0,0,0-1.919,0c-.517.19-.594.51-.594.683a1.553,1.553,0,0,0,.247.839,9.224,9.224,0,0,0-7.9,8.551H.929A.931.931,0,0,0,0,11.15v.389a.93.93,0,0,0,.929.929H4.361a3.947,3.947,0,0,0-.489.395l-.006.006a.289.289,0,0,0-.028.029L2.326,14.735a.878.878,0,0,0-1.2.249l-.595.877a.881.881,0,0,0,.234,1.222l4.07,2.765A.874.874,0,0,0,5.328,20a.894.894,0,0,0,.167-.016.874.874,0,0,0,.563-.371l.595-.877a.881.881,0,0,0-.234-1.222L6.4,17.5a2.06,2.06,0,0,1,1.072-.647,7,7,0,0,1,2.576.043,6.085,6.085,0,0,0,2.6-.14l1.173-.324a6.039,6.039,0,0,0,2.137-1.081l.014-.012,2.014-1.784a.983.983,0,0,0,.3-1.086h2.57a.93.93,0,0,0,.929-.929V11.15A.93.93,0,0,0,20.848,10.221ZM10.888.637a1.492,1.492,0,0,1,.917.207.917.917,0,0,1-.406.748l-.186-.008-.062,0c-.089,0-.177,0-.263,0l-.186,0-.091,0-.109,0-.125.006A.917.917,0,0,1,9.972.844,1.492,1.492,0,0,1,10.888.637Zm2.284,11.985a1.051,1.051,0,0,0-.084-.154h3.056l-1.321.874-1.883.545h-.064A1.084,1.084,0,0,0,13.173,12.622Zm-3.454-.154-.46.1-.355-.1ZM6.126,18.379l-.595.877a.243.243,0,0,1-.337.065l-4.07-2.765a.243.243,0,0,1-.064-.337l.595-.877a.242.242,0,0,1,.337-.064l.22.149h0l3.85,2.615A.243.243,0,0,1,6.126,18.379Zm11.462-5.327-.022.018-2.016,1.786a5.406,5.406,0,0,1-1.906.962l-1.173.324a5.439,5.439,0,0,1-2.323.126,7.585,7.585,0,0,0-2.824-.035,2.706,2.706,0,0,0-1.458.908L2.856,15.094l1.461-1.775a3,3,0,0,1,1.925-.851h.013a2.4,2.4,0,0,1,.662.123l.14.039,2.109.569a.319.319,0,0,0,.148,0l2.763-.576a.475.475,0,0,1,.361.07.428.428,0,0,1,.152.181.446.446,0,0,1-.206.576l-.943.5a.319.319,0,0,0,.156.6l1.4-.03a.321.321,0,0,0,.082-.012l1.97-.57a.319.319,0,0,0,.087-.04l1.987-1.316c.167-.1.389-.188.507-.013A.379.379,0,0,1,17.588,13.051Zm0,0" fill="#a99964"/>
  </g>
</svg>
