<svg xmlns="http://www.w3.org/2000/svg" xmlns:xlink="http://www.w3.org/1999/xlink" width="30" height="24.077" viewBox="0 0 30 24.077">
  <defs>
    <clipPath id="clip-path">
      <rect width="30" height="24.077" fill="none"/>
    </clipPath>
  </defs>
  <g id="table" clip-path="url(#clip-path)">
    <path id="Path_1911" data-name="Path 1911" d="M28.977,50.547H1.023A1.024,1.024,0,0,0,0,51.57a1.542,1.542,0,0,0,1.54,1.54H3.2v2.111a.958.958,0,0,0,.957.957h.294A15.206,15.206,0,0,0,4.012,58.2a11.757,11.757,0,0,0-.145,2.75,11.182,11.182,0,0,0,.542,2.713l1.236,3.7a5.9,5.9,0,0,1,.249,2.684,1.256,1.256,0,0,0-1.5.209l-.583.583a2.008,2.008,0,0,0,0,2.839l.583.583a1.256,1.256,0,0,0,1.743.03,7.431,7.431,0,0,0,1.751-1.845,6.291,6.291,0,0,0,.866-5.276c-.39-1.534-1.366-5.751-1.223-6.886a6.8,6.8,0,0,1,.783-2.423A2.136,2.136,0,0,0,9.8,57.2a2.075,2.075,0,0,0,.515-.991c.22.023.439.053.656.092a.439.439,0,1,0,.155-.865A10.009,10.009,0,0,0,9.949,55.3H4.161a.078.078,0,0,1-.078-.078V53.11H23.205a.439.439,0,0,0,0-.879H1.54a.662.662,0,0,1-.661-.661.144.144,0,0,1,.144-.144H28.977a.144.144,0,0,1,.144.144.662.662,0,0,1-.661.661H25.207a.439.439,0,0,0,0,.879h.711v2.111a.078.078,0,0,1-.078.078h-5.77a8.7,8.7,0,0,0-5.051,1.709.049.049,0,0,1-.057,0A9.9,9.9,0,0,0,13,55.972a.439.439,0,1,0-.322.818,9.025,9.025,0,0,1,1.782.946.929.929,0,0,0,1.076-.021,7.813,7.813,0,0,1,4.143-1.52A2.078,2.078,0,0,0,20.2,57.2a2.135,2.135,0,0,0,1.48.654,6.8,6.8,0,0,1,.783,2.423c.143,1.135-.834,5.353-1.223,6.886a6.29,6.29,0,0,0,.866,5.276,7.429,7.429,0,0,0,1.751,1.845,1.256,1.256,0,0,0,1.743-.03l.583-.583a2.008,2.008,0,0,0,0-2.839l-.583-.583a1.256,1.256,0,0,0-1.5-.209,5.9,5.9,0,0,1,.249-2.684l1.236-3.7a11.18,11.18,0,0,0,.542-2.713,11.761,11.761,0,0,0-.145-2.75,15.2,15.2,0,0,0-.442-2.019h.294a.958.958,0,0,0,.957-.957V53.11H28.46A1.542,1.542,0,0,0,30,51.57a1.024,1.024,0,0,0-1.023-1.023ZM9.412,56.178a1.181,1.181,0,0,1-.255.423,1.312,1.312,0,0,1-1.044.374.439.439,0,0,0-.425.212,7.683,7.683,0,0,0-1.025,2.982c-.19,1.507,1.1,6.636,1.244,7.216l0,.007a5.364,5.364,0,0,1-.73,4.535,6.634,6.634,0,0,1-1.629,1.708.4.4,0,0,1-.531,0l-.583-.583a1.13,1.13,0,0,1,0-1.6l.583-.583a.376.376,0,0,1,.531,0l.312.313a.439.439,0,0,0,.735-.2,6.776,6.776,0,0,0-.119-3.908l-1.235-3.7a10.3,10.3,0,0,1-.5-2.5,10.989,10.989,0,0,1,.138-2.557,14.324,14.324,0,0,1,.49-2.148H9.412Zm15.706,2.148a10.989,10.989,0,0,1,.138,2.557,10.3,10.3,0,0,1-.5,2.5l-1.236,3.7a6.777,6.777,0,0,0-.119,3.908.439.439,0,0,0,.735.2l.312-.312a.376.376,0,0,1,.531,0l.583.583a1.13,1.13,0,0,1,0,1.6l-.583.583a.4.4,0,0,1-.531,0,6.327,6.327,0,0,1-1.629-1.708,5.364,5.364,0,0,1-.73-4.535l0-.007c.147-.58,1.434-5.709,1.244-7.216a7.683,7.683,0,0,0-1.025-2.982.439.439,0,0,0-.378-.215l-.048,0a1.312,1.312,0,0,1-1.044-.374,1.182,1.182,0,0,1-.255-.423h4.041a14.339,14.339,0,0,1,.49,2.148Z" transform="translate(0 -50.547)" fill="#a99964"/>
  </g>
</svg>
