<svg xmlns="http://www.w3.org/2000/svg" xmlns:xlink="http://www.w3.org/1999/xlink" width="19.924" height="20" viewBox="0 0 19.924 20">
  <defs>
    <clipPath id="clip-path">
      <rect width="19.924" height="20" fill="none"/>
    </clipPath>
  </defs>
  <g id="telephone" clip-path="url(#clip-path)">
    <path id="Path_1950" data-name="Path 1950" d="M4.949,13.295a21.218,21.218,0,0,0,7.058,5.528,10.984,10.984,0,0,0,3.949,1.169c.1,0,.186.008.282.008a3.271,3.271,0,0,0,2.536-1.09.09.09,0,0,0,.017-.021,10.678,10.678,0,0,1,.8-.829c.195-.186.394-.381.584-.58a2,2,0,0,0-.008-2.98L17.676,12.01a2.016,2.016,0,0,0-1.459-.671,2.084,2.084,0,0,0-1.475.667l-1.484,1.484c-.137-.079-.278-.149-.41-.215a5.125,5.125,0,0,1-.456-.249A15.7,15.7,0,0,1,8.642,9.61,9.042,9.042,0,0,1,7.374,7.588c.39-.352.754-.721,1.107-1.082.124-.128.253-.257.381-.385a2.125,2.125,0,0,0,.688-1.492,2.108,2.108,0,0,0-.688-1.492L7.626,1.9c-.145-.145-.282-.286-.423-.431C6.93,1.189,6.644.9,6.362.638A2.066,2.066,0,0,0,4.9,0,2.127,2.127,0,0,0,3.428.642l-1.55,1.55A3.185,3.185,0,0,0,.929,4.231a7.67,7.67,0,0,0,.576,3.315A19.288,19.288,0,0,0,4.949,13.295ZM1.94,4.318A2.192,2.192,0,0,1,2.6,2.909L4.141,1.368A1.116,1.116,0,0,1,4.9,1.015a1.059,1.059,0,0,1,.746.361c.278.257.539.526.821.812.141.145.286.29.431.439L8.136,3.862a1.125,1.125,0,0,1,.39.775,1.125,1.125,0,0,1-.39.775c-.128.128-.257.261-.385.39-.385.39-.746.758-1.144,1.111l-.021.021a.81.81,0,0,0-.207.92c0,.012.008.021.012.033a9.753,9.753,0,0,0,1.455,2.366,16.572,16.572,0,0,0,4,3.639,5.932,5.932,0,0,0,.547.3,5.124,5.124,0,0,1,.456.249l.046.025a.866.866,0,0,0,.4.1.879.879,0,0,0,.617-.282l1.55-1.55a1.1,1.1,0,0,1,.758-.369,1.041,1.041,0,0,1,.734.369l2.5,2.495a1,1,0,0,1-.012,1.562c-.174.186-.356.365-.551.551a11.934,11.934,0,0,0-.866.9A2.275,2.275,0,0,1,16.242,19c-.07,0-.145,0-.215-.008a9.979,9.979,0,0,1-3.572-1.069,20.157,20.157,0,0,1-6.718-5.263,18.462,18.462,0,0,1-3.274-5.45A6.684,6.684,0,0,1,1.94,4.318Z" transform="translate(-0.912)" fill="#a99964"/>
  </g>
</svg>
