<svg id="clock-circular-outline" xmlns="http://www.w3.org/2000/svg" width="11.691" height="11.691" viewBox="0 0 11.691 11.691">
  <g id="Group_61" data-name="Group 61">
    <path id="Path_43" data-name="Path 43" d="M5.846,0a5.846,5.846,0,1,0,5.846,5.846A5.852,5.852,0,0,0,5.846,0Zm0,10.448a4.6,4.6,0,1,1,4.6-4.6A4.607,4.607,0,0,1,5.846,10.448Z" fill="#a99964"/>
    <path id="Path_44" data-name="Path 44" d="M47.656,20.47H45.029V17.311a.481.481,0,1,0-.963,0v3.64a.481.481,0,0,0,.481.481h3.108a.481.481,0,0,0,0-.963Z" transform="translate(-38.763 -14.805)" fill="#a99964"/>
  </g>
</svg>
