<svg xmlns="http://www.w3.org/2000/svg" xmlns:xlink="http://www.w3.org/1999/xlink" width="20" height="21.333" viewBox="0 0 20 21.333">
  <defs>
    <clipPath id="clip-path">
      <rect width="20" height="21.333" fill="none"/>
    </clipPath>
  </defs>
  <g id="wedding-arch" clip-path="url(#clip-path)">
    <path id="Path_1922" data-name="Path 1922" d="M19.382,328.543v-4.29a.338.338,0,1,0-.676,0v4.232H17.353v-4.059a.338.338,0,0,0-.676,0v4.117a10.416,10.416,0,0,1-.676,2.31v1.015h4.059v-1.015a1.408,1.408,0,0,1-.032-1.6A1.014,1.014,0,0,0,19.382,328.543Zm0,2.648H16.676v-.338a.339.339,0,0,1,.338-.338h2.029a.339.339,0,0,1,.338.338Zm-.338-1.353H17.015a.338.338,0,0,1,0-.677h2.029a.338.338,0,0,1,0,.677Z" transform="translate(-16 -310.534)" fill="#a99964"/>
    <path id="Path_1923" data-name="Path 1923" d="M404.059,329.5a1.016,1.016,0,0,0-.676-.957v-4.117a.338.338,0,0,0-.677,0v4.059h-1.353v-4.232a.338.338,0,1,0-.677,0v4.29a10.417,10.417,0,0,1-.676,2.31v1.015h4.059v-1.015a1.012,1.012,0,0,1,0-1.353Zm-.676,1.691h-2.706v-.338a.339.339,0,0,1,.338-.338h2.029a.339.339,0,0,1,.338.338Zm-.338-1.353h-2.029a.338.338,0,0,1,0-.677h2.029a.338.338,0,1,1,0,.677Z" transform="translate(-384.059 -310.534)" fill="#a99964"/>
    <path id="Path_1924" data-name="Path 1924" d="M172.441,192a.339.339,0,0,0-.224.085c-.184.163-.378.32-.576.468a.338.338,0,0,0,.4.543h0c.213-.159.422-.328.621-.5a.338.338,0,0,0-.225-.592Z" transform="translate(-165.032 -184.006)" fill="#a99964"/>
    <path id="Path_1925" data-name="Path 1925" d="M144.837,220.62a.342.342,0,0,0-.16.04.339.339,0,1,0,.16-.04Z" transform="translate(-139.147 -211.432)" fill="#a99964"/>
    <path id="Path_1926" data-name="Path 1926" d="M351.818,221.3a.338.338,0,1,0-.16-.04A.338.338,0,0,0,351.818,221.3Z" transform="translate(-337.509 -211.431)" fill="#a99964"/>
    <path id="Path_1927" data-name="Path 1927" d="M311.069,193.09a.338.338,0,1,0,.4-.543c-.2-.148-.392-.3-.576-.468a.339.339,0,1,0-.448.507C310.648,192.763,310.857,192.932,311.069,193.09Z" transform="translate(-298.082 -184.002)" fill="#a99964"/>
    <path id="Path_1928" data-name="Path 1928" d="M50.647,120.456v-2.044a2.156,2.156,0,0,0-.013-.232.338.338,0,0,0-.052-.291,2.483,2.483,0,0,0-.637-1.128,3.449,3.449,0,0,0-1.732-.935,9.648,9.648,0,0,1-5.3-3.314.329.329,0,0,0-.469-.046.342.342,0,0,0-.045.476,10.318,10.318,0,0,0,5.67,3.544,2.523,2.523,0,0,1,1.754,1.252,9.494,9.494,0,0,1-2.862-.573.332.332,0,0,0-.427.2.34.34,0,0,0,.2.434,10.2,10.2,0,0,0,3.25.62v1.353a9.1,9.1,0,0,1-6.061-2.481,6.872,6.872,0,0,1-2.263-4.617v-.338a.333.333,0,1,0-.666,0v.338a6.872,6.872,0,0,1-2.263,4.617,9.1,9.1,0,0,1-6.061,2.481v-1.353a10.191,10.191,0,0,0,3.25-.62.34.34,0,0,0,.2-.434.332.332,0,0,0-.427-.2,9.494,9.494,0,0,1-2.862.573,2.523,2.523,0,0,1,1.754-1.252,10.3,10.3,0,0,0,5.712-3.6.342.342,0,0,0-.048-.476.33.33,0,0,0-.469.049,9.636,9.636,0,0,1-5.341,3.363,3.449,3.449,0,0,0-1.732.935,2.483,2.483,0,0,0-.637,1.128.338.338,0,0,0-.052.291,2.156,2.156,0,0,0-.013.232v2.044h.333a9.8,9.8,0,0,0,6.852-2.672,8.52,8.52,0,0,0,2.138-3.271,8.521,8.521,0,0,0,2.138,3.271,9.8,9.8,0,0,0,6.852,2.672Z" transform="translate(-31.323 -107.377)" fill="#a99964"/>
    <path id="Path_1929" data-name="Path 1929" d="M194.785,3.748a5.276,5.276,0,0,0,.791.3l.088.024h0l.087-.023.006,0A5.454,5.454,0,0,0,197,3.506a3.245,3.245,0,0,0,.891-.752,1.909,1.909,0,0,0,.436-1.2,1.479,1.479,0,0,0-.133-.614,1.548,1.548,0,0,0-.358-.495,1.716,1.716,0,0,0-1.7-.357,1.663,1.663,0,0,0-.469.248,1.664,1.664,0,0,0-.469-.248,1.716,1.716,0,0,0-1.7.357,1.543,1.543,0,0,0-.358.495,1.477,1.477,0,0,0-.133.614,1.91,1.91,0,0,0,.436,1.2,3.671,3.671,0,0,0,1.348.994ZM193.952.942a1.013,1.013,0,0,1,.695-.266,1,1,0,0,1,.761.343l.255.3,0,0,.257-.3a1,1,0,0,1,.761-.343,1.013,1.013,0,0,1,.695.266.84.84,0,0,1,.275.613,1.221,1.221,0,0,1-.29.778,3.15,3.15,0,0,1-1.1.8,5.2,5.2,0,0,1-.488.2l-.1.034a4.826,4.826,0,0,1-1.039-.472,2.509,2.509,0,0,1-.675-.583,1.212,1.212,0,0,1-.274-.757.84.84,0,0,1,.275-.613Z" transform="translate(-185.664 0.001)" fill="#a99964"/>
    <path id="Path_1930" data-name="Path 1930" d="M314.537,77.894a.338.338,0,0,0,.177.445,6.837,6.837,0,0,1,3.559,3.59.338.338,0,1,0,.623-.263,7.417,7.417,0,0,0-3.914-3.948A.338.338,0,0,0,314.537,77.894Z" transform="translate(-302.122 -74.465)" fill="#a99964"/>
    <path id="Path_1931" data-name="Path 1931" d="M334.979,34.8h0a8.773,8.773,0,0,1,2.407,1.572.338.338,0,0,0,.457-.5,9.472,9.472,0,0,0-2.595-1.694.338.338,0,0,0-.272.619Z" transform="translate(-321.531 -32.708)" fill="#a99964"/>
    <path id="Path_1932" data-name="Path 1932" d="M435.192,125.517a.338.338,0,1,0,.663-.136,9.387,9.387,0,0,0-1.116-2.891.338.338,0,0,0-.583.344A8.724,8.724,0,0,1,435.192,125.517Z" transform="translate(-416.726 -117.241)" fill="#a99964"/>
    <path id="Path_1933" data-name="Path 1933" d="M416.2,96.765a.338.338,0,1,0-.251-.112A.339.339,0,0,0,416.2,96.765Z" transform="translate(-399.254 -92.088)" fill="#a99964"/>
    <path id="Path_1934" data-name="Path 1934" d="M93.151,81.665a.338.338,0,0,0,.623.263,6.837,6.837,0,0,1,3.558-3.589.338.338,0,1,0-.268-.621,7.418,7.418,0,0,0-3.914,3.947Z" transform="translate(-89.924 -74.466)" fill="#a99964"/>
    <path id="Path_1935" data-name="Path 1935" d="M79.728,97.336a.338.338,0,1,0-.124-.227A.338.338,0,0,0,79.728,97.336Z" transform="translate(-76.913 -92.705)" fill="#a99964"/>
    <path id="Path_1936" data-name="Path 1936" d="M101.754,36.82a.338.338,0,0,0,.23-.09h0a8.774,8.774,0,0,1,2.4-1.581.338.338,0,0,0-.137-.647.333.333,0,0,0-.137.029,9.458,9.458,0,0,0-2.588,1.7.338.338,0,0,0,.23.587Z" transform="translate(-97.866 -33.041)" fill="#a99964"/>
    <path id="Path_1937" data-name="Path 1937" d="M36.542,126.521a.357.357,0,0,0,.067.007.339.339,0,0,0,.331-.272v0a8.733,8.733,0,0,1,1.025-2.685.338.338,0,1,0-.584-.342,9.4,9.4,0,0,0-1.1,2.9A.339.339,0,0,0,36.542,126.521Z" transform="translate(-35.414 -117.946)" fill="#a99964"/>
  </g>
</svg>
