<?xml version="1.0" encoding="utf-8"?>
<!-- Generator: Adobe Illustrator 23.0.3, SVG Export Plug-In . SVG Version: 6.00 Build 0)  -->
<svg version="1.1" id="Слой_1" xmlns="http://www.w3.org/2000/svg" xmlns:xlink="http://www.w3.org/1999/xlink" x="0px" y="0px"
	 viewBox="0 0 300 300" style="enable-background:new 0 0 300 300;" xml:space="preserve">
<style type="text/css">
	.st0{fill:#FFFFFF;}
</style>
<path class="st0" d="M261.1,2.2H38.7C18.5,2.2,2,18.8,2,39v222.4c0,20.2,16.5,36.8,36.8,36.8h222.4c20.2,0,36.8-16.5,36.8-36.8V39
	C297.9,18.8,281.4,2.2,261.1,2.2z M207.2,125c-1,1-2.4,1.6-3.9,1.6c-1.5,0-2.9-0.6-3.9-1.6l-43.9-43.9v151.6c0,3.1-2.4,5.5-5.5,5.5
	c-3.1,0-5.5-2.4-5.5-5.5V81.1L100.5,125c-1.1,1.1-2.4,1.6-3.9,1.6c-1.5,0-2.9-0.6-3.9-1.6c-1-1-1.6-2.4-1.6-3.9
	c0-1.5,0.6-2.9,1.6-3.9L146,63.8c1-1,2.5-1.6,3.9-1.6c1.4,0,2.9,0.6,3.9,1.6l53.4,53.4C209.3,119.4,209.3,122.9,207.2,125z"/>
</svg>
