<?xml version="1.0" encoding="UTF-8"?>
<!-- Generator: Adobe Illustrator 23.0.3, SVG Export Plug-In . SVG Version: 6.00 Build 0)  -->
<svg version="1.1" id="Capa_1" xmlns="http://www.w3.org/2000/svg" xmlns:xlink="http://www.w3.org/1999/xlink" x="0px" y="0px" viewBox="0 0 76 76" style="enable-background:new 0 0 76 76;" xml:space="preserve">
<style type="text/css">
	.st0{fill:none;stroke:#ffffff;stroke-width:2;stroke-linecap:round;stroke-linejoin:round;stroke-miterlimit:10;}
	.st1{fill:none;stroke:#ffffff;stroke-width:2;stroke-linecap:round;stroke-miterlimit:10;}
</style>
<g id="catering_service_1_">
	<path class="st0" d="M28,39h43l0,0c0,2.2-1.8,4-4,4H13c-2.2,0-4-1.8-4-4l0,0h10"/>
	<path class="st0" d="M37,10c0-1.7,1.3-3,3-3s3,1.3,3,3"/>
	<path class="st0" d="M19,19.7c5.3-5.4,12.7-8.7,21-8.7c16,0,29,12.5,29,28"/>
	<path class="st0" d="M11,39c0-5.5,1.7-10.7,4.5-15"/>
	<path class="st0" d="M56.8,27c-1.6-1.9-3.5-3.6-5.7-4.9c-2.5-1.4-5.4-2.1-8.3-2.1H42"/>
	<g>
		<path class="st1" d="M34,69c0,0,6.4-8.2,11-11c5-3,12-14,19-15"/>
		<path class="st0" d="M24,44c0,0-0.8,3.8-0.3,7.5c0.1,1-0.3,1.9-0.9,2.6c-1.7,1.7-4.5,5.3-3.8,11c0,0-3,3-4,4"/>
		<path class="st0" d="M29,43l0.8,3c0.2,0.6,0.2,1.3,0.2,1.9v4c0,1.7,1.3,3,3,3h1c0,0,2-12,6-12"/>
		<path class="st1" d="M34,55c0,0-6.9,1.5-8.6,8"/>
		<path class="st0" d="M44,43c0,0-3,5-3,9l12-9"/>
	</g>
	<g>
		<line class="st0" x1="32" y1="20" x2="13" y2="20"/>
		<line class="st0" x1="20" y1="11" x2="9" y2="11"/>
		<line class="st0" x1="16" y1="53" x2="9" y2="53"/>
	</g>
</g>
</svg>