<?xml version="1.0" encoding="utf-8"?>
<!-- Generator: Adobe Illustrator 23.0.3, SVG Export Plug-In . SVG Version: 6.00 Build 0)  -->
<svg version="1.1" id="Слой_1" xmlns="http://www.w3.org/2000/svg" xmlns:xlink="http://www.w3.org/1999/xlink" x="0px" y="0px"
	 viewBox="0 0 274.7 300" style="enable-background:new 0 0 274.7 300;" xml:space="preserve">
<style type="text/css">
	.st0{fill:#E3DAD0;}
</style>
<path class="st0" d="M18.3,57.5L118,5.6c5.4-2.8,12.2-4.2,19.2-4.2s13.7,1.4,19.2,4.2L256,57.5c11.2,5.8,18.3,20.1,16.2,32.4
	l-18.7,109.6c-2.1,12-12.7,24.6-24.3,28.7l-70.5,24.7c-1,0.3-2,0.6-3,0.9c0.3,1.2,0.7,2.4,1.1,3.6c3.2,9,10.3,15.7,15.1,19.4
	c4.1,3.3,8,5.8,8,5.8l-3.3,7.7l-4.4-2.5c-0.6-0.3-10.9-6.1-18.4-16.9c-3.3,13.1-11.6,22.5-12,23.1l-3.3,3.8l-3.4-3.8
	c-0.5-0.6-8.7-9.9-12-23.1c-7.5,10.7-17.8,16.5-18.4,16.9l-4.5,2.5l-3.2-7.7c0,0,4.1-2.5,8-5.8c4.8-3.6,12-10.3,15.1-19.4
	c0.4-1.2,0.9-2.4,1.2-3.6c-0.6-0.2-1.3-0.4-1.9-0.6l-74-25.1c-11.7-3.9-22.4-16.4-24.4-28.5l0,0L2.1,89.9C0,77.6,7.1,63.3,18.3,57.5
	"/>
</svg>
