<?xml version="1.0" encoding="utf-8"?>
<!-- Generator: Adobe Illustrator 23.0.3, SVG Export Plug-In . SVG Version: 6.00 Build 0)  -->
<svg version="1.1" id="Слой_1" xmlns="http://www.w3.org/2000/svg" xmlns:xlink="http://www.w3.org/1999/xlink" x="0px" y="0px"
	 viewBox="0 0 566.9 566.9" style="enable-background:new 0 0 566.9 566.9;" xml:space="preserve">
<style type="text/css">
	.st0{fill:#FFFFFF;}
	.st1{fill:#ED1D53;}
</style>
<rect x="93.1" y="160.1" class="st0" width="382.8" height="184.9"/>
<g>
	<ellipse class="st1" cx="320.2" cy="239.3" rx="13" ry="12.8"/>
	<path class="st1" d="M501.8,112.2L318.7,16.9c-9.9-5.1-22.5-7.7-35.2-7.7s-25.2,2.6-35.2,7.7L65.1,112.2
		c-20.5,10.7-33.6,36.9-29.7,59.5l34.4,201.3c3.8,22.1,23.4,45.1,44.9,52.3l136,46.2c1.2,0.4,2.4,0.8,3.5,1.2
		c-0.7,2.2-1.4,4.4-2.2,6.7c-5.8,16.6-19,28.9-27.7,35.6c-7.3,6.1-14.8,10.7-14.8,10.7l5.9,14.1l8.2-4.6c1-0.7,20-11.4,33.8-31
		c6.1,24.2,21.2,41.3,22.1,42.4l6.3,6.9l6.1-6.9c0.8-1,16-18.3,22.1-42.4c13.7,19.8,32.7,30.5,33.8,31l8.1,4.6l6-14.1
		c0,0-7.3-4.6-14.8-10.7c-8.8-6.7-21.8-19-27.7-35.6c-0.7-2.1-1.4-4.3-2-6.5c1.8-0.5,3.7-1.2,5.5-1.7l129.5-45.4
		c21.2-7.5,40.8-30.6,44.6-52.7l34.4-201.3C535.4,149.1,522.3,123,501.8,112.2z M252.6,328.5L136.7,226.1v102.4h-20.9V179.9
		l115.7,102.4h0.2V179.9h20.9V328.5z M354.1,307.1h-67.8v-20.7h67.8V307.1z M320.4,272.9c-18.6,0-33.9-15-33.9-33.6
		c0-18.6,15.3-33.7,33.9-33.7c18.6,0.2,33.9,15.1,33.9,33.7S339,272.9,320.4,272.9z M451.1,328.3h-20.9V217.7l-28.6,24.2l-13.5-15.8
		l63-53.2V328.3z"/>
</g>
</svg>
