<svg id="instagram-2" xmlns="http://www.w3.org/2000/svg" width="20.911" height="20.911" viewBox="0 0 20.911 20.911">
  <g id="Group_47" data-name="Group 47">
    <g id="Group_46" data-name="Group 46">
      <path id="Path_51" data-name="Path 51" d="M14.837,0H6.074A6.081,6.081,0,0,0,0,6.074v8.762a6.081,6.081,0,0,0,6.074,6.074h8.762a6.081,6.081,0,0,0,6.074-6.074V6.074A6.081,6.081,0,0,0,14.837,0Zm4.441,14.837a4.446,4.446,0,0,1-4.441,4.441H6.074a4.446,4.446,0,0,1-4.441-4.441V6.074A4.446,4.446,0,0,1,6.074,1.634h8.762a4.446,4.446,0,0,1,4.441,4.441Z" fill="#ffffff"/>
    </g>
  </g>
  <g id="Group_49" data-name="Group 49" transform="translate(4.819 4.819)">
    <g id="Group_48" data-name="Group 48">
      <path id="Path_52" data-name="Path 52" d="M123.636,118a5.636,5.636,0,1,0,5.636,5.636A5.642,5.642,0,0,0,123.636,118Zm0,9.639a4,4,0,1,1,4-4A4.007,4.007,0,0,1,123.636,127.639Z" transform="translate(-118 -118)" fill="#ffffff"/>
    </g>
  </g>
  <g id="Group_51" data-name="Group 51" transform="translate(15.356 3.921)">
    <g id="Group_50" data-name="Group 50">
      <ellipse id="Ellipse_25" data-name="Ellipse 25" cx="0.817" cy="0.817" rx="0.817" ry="0.817" fill="#ffffff"/>
    </g>
  </g>
</svg>
