<?xml version="1.0" encoding="utf-8"?>
<!-- Generator: Adobe Illustrator 23.0.3, SVG Export Plug-In . SVG Version: 6.00 Build 0)  -->
<svg version="1.1" id="Layer_1" xmlns="http://www.w3.org/2000/svg" xmlns:xlink="http://www.w3.org/1999/xlink" x="0px" y="0px"
	 viewBox="0 0 512 512" style="enable-background:new 0 0 512 512;" xml:space="preserve">
<style type="text/css">
	.st0{fill:#D13659;}
</style>
<path class="st0" d="M256,3.2C155,3.2,72.9,85.4,72.9,186.3c0,125.3,163.8,309.2,170.8,317c6.6,7.3,18,7.3,24.5,0
	c7-7.8,170.8-191.7,170.8-317C439.1,85.4,357,3.2,256,3.2z M351.6,170.3L338.7,246c-1.6,9.1-9.6,18.6-18.3,21.7l-48.6,17l0.1,0.2
	c2.1,5.8,6.9,10.2,9.6,12.2c2.7,2.2,5.4,3.9,5.4,3.9l1.7,1.1l-4.1,9.6l-5.4-3c-0.8-0.4-5.9-3.4-10.6-8.8c-2.2,5.7-5.3,10-7.2,12.3
	l-0.2,0.2l-4.1,4.6l-4.1-4.6c-0.9-1-4.8-5.8-7.5-12.6c-4.1,4.6-8.5,7.5-10.5,8.7l-0.2,0.1l-5.4,3l-4-9.6l1.7-1.1
	c0,0,2.7-1.7,5.3-3.8l0.1-0.1c2.7-2.1,7.6-6.4,9.6-12.3c0-0.1,0.1-0.2,0.1-0.2l-50.3-17.1c-8.9-3-16.9-12.2-18.5-21.5l-12.9-75.7
	c-1.6-9.5,3.8-20.4,12.4-24.9l0,0l68.9-35.9c4-2,9.1-3.2,14.3-3.2c5.3,0,10.3,1.1,14.3,3.2l68.9,35.9
	C347.8,149.9,353.3,160.8,351.6,170.3z"/>
</svg>
