<?xml version="1.0" encoding="utf-8"?>
<!-- Generator: Adobe Illustrator 23.0.4, SVG Export Plug-In . SVG Version: 6.00 Build 0)  -->
<svg version="1.1" id="Слой_1" xmlns="http://www.w3.org/2000/svg" xmlns:xlink="http://www.w3.org/1999/xlink" x="0px" y="0px"
	 viewBox="0 0 104.6 73.7" style="enable-background:new 0 0 104.6 73.7;" xml:space="preserve">
<style type="text/css">
	.st0{fill:#E40648;}
</style>
<g>
	<path class="st0" d="M1,12.6H0v-1.2h6c0.7,0,0.9,0.3,0.9,0.9v1.3H5.6v-0.7c0-0.2-0.1-0.3-0.3-0.3H2.4v9.1H1V12.6z"/>
	<path class="st0" d="M9.3,12.6h-1v-1.2h4.6c1.9,0,3.3,1.3,3.3,3.2c0,2-1.4,3.3-3.3,3.3h-2.2v3.8H9.3V12.6z M12.7,16.6
		c1.2,0,2-0.8,2-2c0-1.3-0.8-2-2-2h-1.9v4H12.7z"/>
	<path class="st0" d="M16.7,20.4h0.2c0.3,0,0.4-0.1,0.5-0.3l3.3-8.8h1.5l3.3,8.8c0.1,0.3,0.2,0.3,0.5,0.3h0.2v1.3h-0.8
		c-0.7,0-1-0.2-1.2-0.9l-0.8-2.1h-3.8l-0.8,2.1c-0.2,0.7-0.5,0.9-1.2,0.9h-0.8v-1.3H16.7z M23,17.5l-1.1-3.2
		c-0.2-0.5-0.4-1.5-0.4-1.5l0,0c0,0-0.2,0.9-0.4,1.5L20,17.5H23z"/>
	<path class="st0" d="M28.4,12.9c0-0.2-0.1-0.3-0.3-0.3h-0.6v-1.2H29c0.7,0,0.9,0.3,0.9,0.9v3.6h5.3v-3.6c0-0.7,0.3-0.9,1-0.9h1.5
		v1.2H37c-0.2,0-0.3,0.1-0.3,0.3v8.8h-1.5v-4.5h-5.3v4.5h-1.5C28.4,21.7,28.4,12.9,28.4,12.9z"/>
	<path class="st0" d="M39,20.4h0.2c0.3,0,0.4-0.1,0.5-0.3l3.3-8.8h1.6l3.3,8.8c0.1,0.3,0.2,0.3,0.5,0.3h0.2v1.3h-0.8
		c-0.7,0-1-0.2-1.2-0.9l-0.8-2.1H42l-1,2.1c-0.2,0.7-0.5,0.9-1.2,0.9H39V20.4z M45.3,17.5l-1.1-3.2c-0.2-0.5-0.4-1.5-0.4-1.5l0,0
		c0,0-0.2,0.9-0.4,1.5l-1.1,3.2H45.3z"/>
	<path class="st0" d="M49.8,12.9c0-0.2,0.1-0.3,0.3-0.3h2.1v12.3c0.2,0,0.5,0,0.7,0c0.3,0,0.5,0,0.7,0V12.6h2.1
		c0.2,0,0.3,0.1,0.3,0.3v0.7h1.3v-1.4c0-0.7-0.2-0.9-0.9-0.9h-7.2c-0.7,0-0.9,0.2-0.9,0.9v1.4h1.3v-0.7H49.8z"/>
	<path class="st0" d="M64,11.2c3,0,5.4,2.3,5.4,5.3c0,3.1-2.4,5.4-5.4,5.4s-5.3-2.4-5.3-5.4C58.6,13.5,61,11.2,64,11.2 M64,20.5
		c2.1,0,3.8-1.8,3.8-4.1c0-2.2-1.7-3.9-3.8-3.9c-2.1,0-3.8,1.7-3.8,3.9C60.2,18.7,61.9,20.5,64,20.5"/>
	<path class="st0" d="M72,12.6h-1v-1.2h4.6c1.8,0,3,1,3,2.6c0,1.1-0.6,1.9-1.3,2.2l0,0c1.1,0.3,1.7,1.3,1.7,2.5
		c0,1.9-1.5,2.9-3.4,2.9H73c-0.7,0-1-0.3-1-0.9V12.6z M75.7,15.7c0.9,0,1.5-0.7,1.5-1.6c0-0.9-0.6-1.5-1.5-1.5h-2.1v3.1H75.7z
		 M73.8,20.4h2c1.1,0,1.8-0.7,1.8-1.8c0-1.1-0.7-1.8-1.8-1.8h-2.3V20C73.5,20.3,73.6,20.4,73.8,20.4"/>
	<path class="st0" d="M81.9,12.9c0-0.2-0.1-0.3-0.3-0.3H81v-1.2h1.5c0.7,0,0.9,0.3,0.9,0.9v3h2c1.8,0,3.3,1,3.3,3.2
		s-1.6,3.3-3.6,3.3h-2.3c-0.7,0-1-0.3-1-0.9L81.9,12.9L81.9,12.9z M83.7,20.4h1.5c1.2,0,2-0.7,2-2c0-1.2-0.8-1.9-2-1.9h-1.8v3.6
		C83.3,20.3,83.5,20.4,83.7,20.4 M90.1,11.4h1.5v8.8c0,0.2,0.1,0.3,0.3,0.3h0.6v1.3H91c-0.7,0-0.9-0.3-0.9-0.9V11.4z"/>
	<path class="st0" d="M95.2,12.9c0-0.2-0.1-0.3-0.3-0.3h-0.6v-1.2h1.5c0.7,0,0.9,0.3,0.9,0.9V18c0,0.6-0.1,1.5-0.1,1.5l0,0
		c0,0,0.6-0.9,0.9-1.5l4.6-6.6h1.4v8.8c0,0.2,0.1,0.3,0.3,0.3h0.6v1.3h-1.5c-0.7,0-1-0.3-1-0.9v-5.7c0-0.6,0.1-1.5,0.1-1.5l0,0
		c0,0-0.5,1-0.9,1.5l-4.6,6.6H95v-8.9H95.2z M97.2,9V8.8h1.2V9c0,0.6,0.5,1,1,1s1.1-0.3,1.1-1V8.8h1.1V9c0,1.2-1,1.9-2.2,1.9
		C98.2,10.9,97.2,10.2,97.2,9"/>
</g>
<path class="st0" d="M52.9,54.3h4.8v1.5h-4.8V54.3z M57.7,51c0,1.3-1.1,2.4-2.4,2.4c-1.3,0-2.4-1.1-2.4-2.4s1.1-2.4,2.4-2.4
	S57.7,49.7,57.7,51 M56.2,51c0-0.5-0.4-0.9-0.9-0.9s-0.9,0.4-0.9,0.9s0.4,0.9,0.9,0.9C55.8,51.9,56.2,51.5,56.2,51 M61,51.2l2-1.7
	v7.8h1.5v-11L60,50.1L61,51.2z M44.7,44.6c1.2,0,2.4-0.5,3.2-1.4l-1.1-1c-0.5,0.6-1.3,0.9-2.1,0.9c-1.5,0-2.8-1.2-2.8-2.8
	c0-1.5,1.2-2.8,2.8-2.8c0.8,0,1.5,0.3,2.1,0.9l1.1-1c-0.8-0.9-2-1.4-3.2-1.4c-2.3,0-4.3,1.9-4.3,4.2C40.5,42.7,42.4,44.6,44.7,44.6
	 M65,42.8v2.7h-1.5v-1.2H59v1.2h-1.5v-2.7l0.5-0.2c0.6-0.2,1-3.4,1-5.4v-0.8h5.5v6.3H65V42.8z M60.6,38c0,1.2-0.1,3.4-0.8,4.8H63V38
	H60.6z M50,44.4h-1.7l4.3-7.9l4.3,7.9h-1.7l-0.9-1.6h-3.5L50,44.4z M51.7,41.3h1.9l-1-1.7L51.7,41.3z M49,54l-8.2-7.2v10.5h1.5v-7.2
	l8.2,7.2V46.8H49V54z M33.5,34l16.3-8.4c0.9-0.5,2-0.7,3.1-0.7s2.2,0.2,3.1,0.7l16.3,8.5c1.8,1,3,3.3,2.6,5.3l-3.1,17.9
	c-0.3,2-2.1,4-4,4.7l-11.5,4c-0.2,0-0.3,0.1-0.5,0.1c0,0.2,0.1,0.4,0.2,0.6c0.5,1.5,1.7,2.6,2.5,3.2c0.7,0.5,1.3,1,1.3,1l-0.5,1.3
	l-0.7-0.4c-0.1-0.1-1.8-1-3-2.8c-0.5,2.1-1.9,3.7-2,3.8l-0.5,0.6l-0.6-0.6c-0.1-0.1-1.4-1.6-2-3.8c-1.2,1.7-2.9,2.7-3,2.8l-0.7,0.4
	l-0.5-1.3c0,0,0.7-0.4,1.3-1c0.8-0.6,2-1.7,2.5-3.2c0.1-0.2,0.1-0.4,0.2-0.6c-0.1,0-0.2-0.1-0.3-0.1l-12.1-4.1
	c-1.9-0.6-3.7-2.7-4-4.7l0,0l-3.1-17.9C30.5,37.3,31.7,35,33.5,34 M32.3,39.1L35.4,57l0,0c0.2,1.4,1.6,3,3,3.5l12.1,4.1h0.1
	c0.4,0.1,0.9,0.2,1.5,0.3c0,0.3-0.1,0.5-0.1,0.8c-0.1,0.5-0.1,1-0.1,1.5c0,1.6,0.7,3,1.3,3.8c0.5-0.8,1.3-2.2,1.3-3.8
	c0-0.5,0-1-0.1-1.5c-0.1-0.3-0.1-0.5-0.2-0.8c0.5,0,1-0.1,1.5-0.3c0.1,0,0.2-0.1,0.3-0.1l11.5-4c1.4-0.5,2.8-2.1,3-3.5l3.1-17.9
	c0.2-1.4-0.6-3.1-1.9-3.7l-16.3-8.5c-1.3-0.7-3.6-0.7-4.9,0l-16.3,8.5C33,36,32.1,37.7,32.3,39.1"/>
<rect y="2.2" width="11.2" height="0.6"/>
<rect x="92.5" y="2.2" width="11.2" height="0.6"/>
<g>
	<path d="M18.5,3.9c-0.4,0.4-1,0.6-1.7,0.6c-1.3,0-2.3-0.9-2.3-2.3c0-1.3,0.9-2.3,2.3-2.3c0.7,0,1.3,0.2,1.7,0.6l-0.3,0.3
		c-0.3-0.3-0.8-0.5-1.3-0.5c-1,0-1.8,0.7-1.8,1.8s0.7,1.8,1.8,1.8c0.5,0,1-0.2,1.3-0.5L18.5,3.9z"/>
	<path d="M20.3,0h3v0.4h-2.5v1.5h2.3v0.4h-2.3v1.6h2.6v0.4h-3.1V0z"/>
	<path d="M25.1,0h4v0.4h-1.7v4h-0.5v-4h-1.7L25.1,0L25.1,0z"/>
	<path d="M30.9,0h0.5v1.7h1.2c0.8,0,1.4,0.6,1.4,1.4s-0.6,1.4-1.4,1.4h-1.7C30.9,4.5,30.9,0,30.9,0z M32.6,4c0.5,0,0.9-0.4,0.9-0.9
		s-0.4-0.9-0.9-0.9h-1.1v1.9L32.6,4L32.6,4z"/>
	<path d="M38.4,0H40c0.8,0,1.4,0.6,1.4,1.4S40.8,2.8,40,2.8h-1.1v1.7h-0.5V0z M38.9,0.5v1.9h1c0.5,0,0.9-0.4,0.9-0.9
		c0-0.6-0.4-0.9-0.9-0.9L38.9,0.5L38.9,0.5z"/>
	<path d="M43.1,0h3v0.4h-2.5v1.5H46v0.4h-2.3v1.6h2.6v0.4h-3.1V0H43.1z"/>
	<path d="M51.7,3.9c-0.4,0.4-1,0.6-1.7,0.6c-1.3,0-2.3-0.9-2.3-2.3c0-1.3,0.9-2.3,2.3-2.3c0.7,0,1.3,0.2,1.7,0.6l-0.3,0.3
		c-0.3-0.2-0.8-0.4-1.4-0.4c-1,0-1.8,0.7-1.8,1.8S48.9,4,50,4c0.6,0,1-0.2,1.3-0.5L51.7,3.9z"/>
	<path d="M53.4,0h4v0.4h-1.7v4h-0.5v-4h-1.7L53.4,0L53.4,0z"/>
	<path d="M60.9,0c1.3,0,2.3,0.9,2.3,2.3c0,1.3-0.9,2.3-2.3,2.3c-1.3,0-2.3-0.9-2.3-2.3C58.7,0.9,59.6,0,60.9,0z M60.9,4.1
		c1,0,1.7-0.8,1.7-1.8c0-1.1-0.7-1.8-1.7-1.8s-1.7,0.8-1.7,1.8S59.9,4.1,60.9,4.1z"/>
	<path d="M65,0h1.6C67.4,0,68,0.6,68,1.4s-0.6,1.4-1.4,1.4h-1.1v1.7H65V0z M65.5,0.5v1.9h1c0.6,0,0.9-0.4,0.9-0.9
		c0-0.6-0.4-0.9-0.9-0.9L65.5,0.5L65.5,0.5z"/>
	<path d="M71.5,0l2.1,4.5H73l-0.6-1.2h-2.5l-0.6,1.2h-0.5L70.9,0C70.9,0,71.5,0,71.5,0z M70.1,2.8h2.1l-1-2.2L70.1,2.8z"/>
	<path d="M78.6,2.4h-2.7v2.1h-0.5V0h0.5v2h2.7V0h0.5v4.5h-0.5V2.4z"/>
	<path d="M83.1,0c1.3,0,2.3,0.9,2.3,2.3c0,1.3-0.9,2.3-2.3,2.3c-1.3,0-2.3-0.9-2.3-2.3C80.9,0.9,81.8,0,83.1,0z M83.1,4.1
		c1,0,1.7-0.8,1.7-1.8c0-1.1-0.7-1.8-1.7-1.8s-1.7,0.8-1.7,1.8S82.1,4.1,83.1,4.1z"/>
	<path d="M87.2,0h1.7C89.6,0,90,0.5,90,1.1c0,0.5-0.2,0.8-0.6,1c0.5,0.1,0.8,0.6,0.8,1.1c0,0.7-0.5,1.2-1.2,1.2h-1.8V0z M87.7,0.5V2
		h1c0.5,0,0.8-0.3,0.8-0.7s-0.3-0.7-0.8-0.7L87.7,0.5L87.7,0.5z M88.8,4c0.5,0,0.9-0.3,0.9-0.8s-0.3-0.8-0.9-0.8h-1.1v1.7L88.8,4
		L88.8,4z"/>
</g>
</svg>
