<?xml version="1.0" encoding="utf-8"?>
<!-- Generator: Adobe Illustrator 23.0.1, SVG Export Plug-In . SVG Version: 6.00 Build 0)  -->
<svg version="1.1" id="Слой_1" xmlns="http://www.w3.org/2000/svg" xmlns:xlink="http://www.w3.org/1999/xlink" x="0px" y="0px"
	 viewBox="0 0 104.6 73.7" style="enable-background:new 0 0 104.6 73.7;" xml:space="preserve">
<style type="text/css">
	.st0{fill:#E40648;}
</style>
<g>
	<g>
		<path class="st0" d="M1,13H0v-1.2h6c0.7,0,0.9,0.3,0.9,0.9V14H5.6v-0.7c0-0.2-0.1-0.3-0.3-0.3H2.4v9.1H1V13z"/>
		<path class="st0" d="M9.3,13h-1v-1.2h4.6c1.9,0,3.3,1.3,3.3,3.2c0,2-1.4,3.3-3.3,3.3h-2.2v3.8H9.3V13z M12.7,17c1.2,0,2-0.8,2-2
			c0-1.3-0.8-2-2-2h-1.9v4H12.7z"/>
		<path class="st0" d="M16.7,20.8h0.2c0.3,0,0.4-0.1,0.5-0.3l3.3-8.8h1.5l3.3,8.8c0.1,0.3,0.2,0.3,0.5,0.3h0.2v1.3h-0.8
			c-0.7,0-1-0.2-1.2-0.9l-0.8-2.1h-3.8l-0.8,2.1c-0.2,0.7-0.5,0.9-1.2,0.9h-0.8V20.8z M23,17.9l-1.1-3.2c-0.2-0.5-0.4-1.5-0.4-1.5h0
			c0,0-0.2,0.9-0.4,1.5l-1.1,3.2H23z"/>
		<path class="st0" d="M28.4,13.3c0-0.2-0.1-0.3-0.3-0.3h-0.6v-1.2H29c0.7,0,0.9,0.3,0.9,0.9v3.6h5.3v-3.6c0-0.7,0.3-0.9,1-0.9h1.5
			V13H37c-0.2,0-0.3,0.1-0.3,0.3v8.8h-1.5v-4.5h-5.3v4.5h-1.5V13.3z"/>
		<path class="st0" d="M39,20.8h0.2c0.3,0,0.4-0.1,0.5-0.3l3.3-8.8h1.6l3.3,8.8c0.1,0.3,0.2,0.3,0.5,0.3h0.2v1.3h-0.8
			c-0.7,0-1-0.2-1.2-0.9l-0.8-2.1h-3.8L41,21.2c-0.2,0.7-0.5,0.9-1.2,0.9H39V20.8z M45.3,17.9l-1.1-3.2c-0.2-0.5-0.4-1.5-0.4-1.5h0
			c0,0-0.2,0.9-0.4,1.5l-1.1,3.2H45.3z"/>
		<path class="st0" d="M49.8,13.3c0-0.2,0.1-0.3,0.3-0.3h2.1v12.3c0.2,0,0.5,0,0.7,0c0.3,0,0.5,0,0.7,0V13h2.1
			c0.2,0,0.3,0.1,0.3,0.3V14h1.3v-1.4c0-0.7-0.2-0.9-0.9-0.9h-7.2c-0.7,0-0.9,0.2-0.9,0.9V14h1.3V13.3z"/>
		<path class="st0" d="M64,11.6c3,0,5.4,2.3,5.4,5.3c0,3.1-2.4,5.4-5.4,5.4c-3,0-5.3-2.4-5.3-5.4C58.6,13.9,61,11.6,64,11.6
			 M64,20.9c2.1,0,3.8-1.8,3.8-4.1c0-2.2-1.7-3.9-3.8-3.9c-2.1,0-3.8,1.7-3.8,3.9C60.2,19.1,61.9,20.9,64,20.9"/>
		<path class="st0" d="M72,13h-1v-1.2h4.6c1.8,0,3,1,3,2.6c0,1.1-0.6,1.9-1.3,2.2v0c1.1,0.3,1.7,1.3,1.7,2.5c0,1.9-1.5,2.9-3.4,2.9
			H73c-0.7,0-1-0.3-1-0.9V13z M75.7,16.1c0.9,0,1.5-0.7,1.5-1.6c0-0.9-0.6-1.5-1.5-1.5h-2.1v3.1H75.7z M73.8,20.8h2
			c1.1,0,1.8-0.7,1.8-1.8c0-1.1-0.7-1.8-1.8-1.8h-2.3v3.2C73.5,20.7,73.6,20.8,73.8,20.8"/>
		<path class="st0" d="M81.9,13.3c0-0.2-0.1-0.3-0.3-0.3h-0.6v-1.2h1.5c0.7,0,0.9,0.3,0.9,0.9v3h2c1.8,0,3.3,1,3.3,3.2
			c0,2.2-1.6,3.3-3.6,3.3h-2.3c-0.7,0-1-0.3-1-0.9V13.3z M83.7,20.8h1.5c1.2,0,2-0.7,2-2c0-1.2-0.8-1.9-2-1.9h-1.8v3.6
			C83.3,20.7,83.5,20.8,83.7,20.8 M90.1,11.8h1.5v8.8c0,0.2,0.1,0.3,0.3,0.3h0.6v1.3h-1.5c-0.7,0-0.9-0.3-0.9-0.9V11.8z"/>
		<path class="st0" d="M95.2,13.3c0-0.2-0.1-0.3-0.3-0.3h-0.6v-1.2h1.5c0.7,0,0.9,0.3,0.9,0.9v5.7c0,0.6-0.1,1.5-0.1,1.5h0
			c0,0,0.6-0.9,0.9-1.5l4.6-6.6h1.4v8.8c0,0.2,0.1,0.3,0.3,0.3h0.6v1.3h-1.5c-0.7,0-1-0.3-1-0.9v-5.7c0-0.6,0.1-1.5,0.1-1.5h0
			c0,0-0.5,1-0.9,1.5l-4.6,6.6h-1.5V13.3z M97.2,9.4V9.2h1.2v0.2c0,0.6,0.5,1,1,1c0.5,0,1.1-0.3,1.1-1V9.2h1.1v0.2
			c0,1.2-1,1.9-2.2,1.9C98.2,11.3,97.2,10.6,97.2,9.4"/>
	</g>
	<path class="st0" d="M52.9,54.7h4.8v1.5h-4.8V54.7z M57.7,51.4c0,1.3-1.1,2.4-2.4,2.4c-1.3,0-2.4-1.1-2.4-2.4S54,49,55.3,49
		C56.6,49,57.7,50.1,57.7,51.4 M56.2,51.4c0-0.5-0.4-0.9-0.9-0.9c-0.5,0-0.9,0.4-0.9,0.9c0,0.5,0.4,0.9,0.9,0.9
		C55.8,52.3,56.2,51.9,56.2,51.4 M61,51.6l2-1.7v7.8h1.5v-11l-4.5,3.8L61,51.6z M44.7,45c1.2,0,2.4-0.5,3.2-1.4l-1.1-1
		c-0.5,0.6-1.3,0.9-2.1,0.9c-1.5,0-2.8-1.2-2.8-2.8c0-1.5,1.2-2.8,2.8-2.8c0.8,0,1.5,0.3,2.1,0.9l1.1-1c-0.8-0.9-2-1.4-3.2-1.4
		c-2.3,0-4.3,1.9-4.3,4.2C40.5,43.1,42.4,45,44.7,45 M65,43.2v2.7h-1.5v-1.2h-4.5v1.2h-1.5v-2.7l0.5-0.2c0.6-0.2,1-3.4,1-5.4l0-0.8
		h5.5v6.3H65z M60.6,38.4c0,1.2-0.1,3.4-0.8,4.8h3.2v-4.8H60.6z M50,44.8h-1.7l4.3-7.9l4.3,7.9h-1.7l-0.9-1.6h-3.5L50,44.8z
		 M51.7,41.7h1.9l-1-1.7L51.7,41.7z M49,54.4l-8.2-7.2v10.5h1.5v-7.2l8.2,7.2V47.2H49V54.4z M33.5,34.4L49.8,26
		c0.9-0.5,2-0.7,3.1-0.7c1.1,0,2.2,0.2,3.1,0.7l16.3,8.5c1.8,1,3,3.3,2.6,5.3l-3.1,17.9c-0.3,2-2.1,4-4,4.7l-11.5,4
		c-0.2,0-0.3,0.1-0.5,0.1c0,0.2,0.1,0.4,0.2,0.6c0.5,1.5,1.7,2.6,2.5,3.2c0.7,0.5,1.3,1,1.3,1l-0.5,1.3l-0.7-0.4
		c-0.1-0.1-1.8-1-3-2.8c-0.5,2.1-1.9,3.7-2,3.8l-0.5,0.6l-0.6-0.6c-0.1-0.1-1.4-1.6-2-3.8c-1.2,1.7-2.9,2.7-3,2.8l-0.7,0.4l-0.5-1.3
		c0,0,0.7-0.4,1.3-1c0.8-0.6,2-1.7,2.5-3.2c0.1-0.2,0.1-0.4,0.2-0.6c-0.1,0-0.2-0.1-0.3-0.1l-12.1-4.1c-1.9-0.6-3.7-2.7-4-4.7l0,0
		l-3.1-17.9C30.5,37.7,31.7,35.4,33.5,34.4 M32.3,39.5l3.1,17.9l0,0c0.2,1.4,1.6,3,3,3.5L50.5,65c0,0,0.1,0,0.1,0
		c0.4,0.1,0.9,0.2,1.5,0.3c0,0.3-0.1,0.5-0.1,0.8c-0.1,0.5-0.1,1-0.1,1.5c0,1.6,0.7,3,1.3,3.8c0.5-0.8,1.3-2.2,1.3-3.8
		c0-0.5,0-1-0.1-1.5c-0.1-0.3-0.1-0.5-0.2-0.8c0.5,0,1-0.1,1.5-0.3c0.1,0,0.2-0.1,0.3-0.1l11.5-4c1.4-0.5,2.8-2.1,3-3.5l3.1-17.9
		c0.2-1.4-0.6-3.1-1.9-3.7l-16.3-8.5c-1.3-0.7-3.6-0.7-4.9,0l-16.3,8.5C33,36.4,32.1,38.1,32.3,39.5"/>
	<rect y="2.6" class="st0" width="11.2" height="0.6"/>
	<rect x="92.5" y="2.6" class="st0" width="11.2" height="0.6"/>
	<g>
		<path class="st0" d="M18.5,4.3c-0.4,0.4-1,0.6-1.7,0.6c-1.3,0-2.3-0.9-2.3-2.3c0-1.3,0.9-2.3,2.3-2.3c0.7,0,1.3,0.2,1.7,0.6
			l-0.3,0.3c-0.3-0.3-0.8-0.5-1.3-0.5c-1,0-1.8,0.7-1.8,1.8c0,1.1,0.7,1.8,1.8,1.8c0.5,0,1-0.2,1.3-0.5L18.5,4.3z"/>
		<path class="st0" d="M20.3,0.4h3v0.4h-2.5v1.5h2.3v0.4h-2.3v1.6h2.6v0.4h-3.1V0.4z"/>
		<path class="st0" d="M25.1,0.4h4v0.4h-1.7v4h-0.5v-4h-1.7V0.4z"/>
		<path class="st0" d="M30.9,0.4h0.5v1.7h1.2c0.8,0,1.4,0.6,1.4,1.4c0,0.8-0.6,1.4-1.4,1.4h-1.7V0.4z M32.6,4.4
			c0.5,0,0.9-0.4,0.9-0.9c0-0.5-0.4-0.9-0.9-0.9h-1.1v1.9H32.6z"/>
		<path class="st0" d="M38.4,0.4h1.6c0.8,0,1.4,0.6,1.4,1.4c0,0.8-0.6,1.4-1.4,1.4h-1.1v1.7h-0.5V0.4z M38.9,0.9v1.9h1
			c0.5,0,0.9-0.4,0.9-0.9c0-0.6-0.4-0.9-0.9-0.9H38.9z"/>
		<path class="st0" d="M43.1,0.4h3v0.4h-2.5v1.5H46v0.4h-2.3v1.6h2.6v0.4h-3.1V0.4z"/>
		<path class="st0" d="M51.7,4.3c-0.4,0.4-1,0.6-1.7,0.6c-1.3,0-2.3-0.9-2.3-2.3c0-1.3,0.9-2.3,2.3-2.3c0.7,0,1.3,0.2,1.7,0.6
			l-0.3,0.3C51.1,1,50.6,0.8,50,0.8c-1,0-1.8,0.7-1.8,1.8c0,1.1,0.7,1.8,1.8,1.8c0.6,0,1-0.2,1.3-0.5L51.7,4.3z"/>
		<path class="st0" d="M53.4,0.4h4v0.4h-1.7v4h-0.5v-4h-1.7V0.4z"/>
		<path class="st0" d="M60.9,0.4c1.3,0,2.3,0.9,2.3,2.3c0,1.3-0.9,2.3-2.3,2.3c-1.3,0-2.3-0.9-2.3-2.3C58.7,1.3,59.6,0.4,60.9,0.4z
			 M60.9,4.5c1,0,1.7-0.8,1.7-1.8c0-1.1-0.7-1.8-1.7-1.8c-1,0-1.7,0.8-1.7,1.8C59.2,3.7,59.9,4.5,60.9,4.5z"/>
		<path class="st0" d="M65,0.4h1.6c0.8,0,1.4,0.6,1.4,1.4c0,0.8-0.6,1.4-1.4,1.4h-1.1v1.7H65V0.4z M65.5,0.9v1.9h1
			c0.6,0,0.9-0.4,0.9-0.9c0-0.6-0.4-0.9-0.9-0.9H65.5z"/>
		<path class="st0" d="M71.5,0.4l2.1,4.5H73l-0.6-1.2h-2.5l-0.6,1.2h-0.5l2.1-4.5H71.5z M70.1,3.2h2.1L71.2,1L70.1,3.2z"/>
		<path class="st0" d="M78.6,2.8h-2.7v2.1h-0.5V0.4h0.5v2h2.7v-2h0.5v4.5h-0.5V2.8z"/>
		<path class="st0" d="M83.1,0.4c1.3,0,2.3,0.9,2.3,2.3c0,1.3-0.9,2.3-2.3,2.3c-1.3,0-2.3-0.9-2.3-2.3C80.9,1.3,81.8,0.4,83.1,0.4z
			 M83.1,4.5c1,0,1.7-0.8,1.7-1.8c0-1.1-0.7-1.8-1.7-1.8c-1,0-1.7,0.8-1.7,1.8C81.4,3.7,82.1,4.5,83.1,4.5z"/>
		<path class="st0" d="M87.2,0.4h1.7c0.7,0,1.1,0.5,1.1,1.1c0,0.5-0.2,0.8-0.6,1c0.5,0.1,0.8,0.6,0.8,1.1c0,0.7-0.5,1.2-1.2,1.2
			h-1.8V0.4z M87.7,0.9v1.5h1c0.5,0,0.8-0.3,0.8-0.7c0-0.4-0.3-0.7-0.8-0.7H87.7z M88.8,4.4c0.5,0,0.9-0.3,0.9-0.8
			c0-0.5-0.3-0.8-0.9-0.8h-1.1v1.7H88.8z"/>
	</g>
</g>
</svg>
