<?xml version="1.0" encoding="utf-8"?>
<!-- Generator: Adobe Illustrator 23.0.1, SVG Export Plug-In . SVG Version: 6.00 Build 0)  -->
<svg version="1.1" id="Слой_1" xmlns="http://www.w3.org/2000/svg" xmlns:xlink="http://www.w3.org/1999/xlink" x="0px" y="0px"
	 viewBox="0 0 512 512" style="enable-background:new 0 0 512 512;" xml:space="preserve">
<style type="text/css">
	.st0{fill:#E4DBD1;}
</style>
<path class="st0" d="M459.3,50.7C450.9,21.8,424.4,0.5,393,0v0H81C42.4,0,11,31.4,11,70c0,24.9,13.4,48.1,35,60.6
	c2.7,1.6,5.6,3,8.5,4.1c-4.7,21.6-11.4,42-18.4,63.2C23.2,236.8,10,276.9,10,326v126c0,33.1,26.9,60,60,60h337.4l73.6-62.8
	c13.4-11.4,21-28.1,21-45.6V258C502,162.5,467.9,71.9,459.3,50.7z M328.8,40c-4.3,9.1-6.8,19.3-6.8,30c0,10.5,2.4,20.8,6.8,30H257
	V70c0-16.5,13.5-30,30-30H328.8z M223.8,40c-4.3,9.1-6.8,19.3-6.8,30v110h-40V70c0-16.5,13.5-30,30-30H223.8z M81,40h62.8
	c-4.3,9.1-6.8,19.3-6.8,30v30H81c-5.3,0-10.5-1.4-15-4c-9.3-5.4-15-15.3-15-26C51,53.5,64.5,40,81,40z M50,452V326
	c0-42.6,11.7-78,24-115.5c7.4-22.4,15-45.4,20.2-70.5H137v80h120v-80h135v-40c-5.3,0-10.5-1.4-15-4c-9.3-5.4-15-15.3-15-26
	c0-16.5,13.5-30,30-30c13.7,0,25.3,9.2,28.9,21.8l-0.2,0.1c0,0.1,0.3,0.6,0.6,1.5c0.5,2.1,0.7,4.3,0.7,6.6v20
	c0,30.8-8.7,65.3-17.9,101.7C393.2,234.6,382,278.9,382,326v146H70C59,472,50,463,50,452z M462,403.6c0,5.9-2.6,11.4-7,15.2
	l-33,28.2V326c0-42.1,10.6-84,20.8-124.5c3.1-12.3,6.2-24.4,8.9-36.3c5.9,28.5,10.3,60.5,10.3,92.7V403.6z"/>
</svg>
