<?xml version="1.0" encoding="utf-8"?>
<!-- Generator: Adobe Illustrator 23.0.1, SVG Export Plug-In . SVG Version: 6.00 Build 0)  -->
<svg version="1.1" id="Слой_1" xmlns="http://www.w3.org/2000/svg" xmlns:xlink="http://www.w3.org/1999/xlink" x="0px" y="0px"
	 viewBox="0 0 2600 500" style="enable-background:new 0 0 2600 500;" xml:space="preserve">
<style type="text/css">
	.st0{fill:none;}
	.st1{fill:#C1A368;}
	.st2{fill:url(#Новый_узор);}
</style>
<pattern  y="198.7" width="578.1" height="578.1" patternUnits="userSpaceOnUse" id="Новый_узор" viewBox="0 -578.1 578.1 578.1" style="overflow:visible;">
	<g>
		<rect x="0" y="-578.1" class="st0" width="578.1" height="578.1"/>
		<path class="st1" d="M556.1-438.8c-7.6,1.5-17.6-3-20.5-9.2c-1.1-2.4-2.1-7.1,3.7-12c5.8-4.8,15.9-5.9,22.6-2.4
			c5.3,2.7,9.2,7.2,12.3,12.4c1.3-0.9,2.5-1.9,3.8-2.9v2.5c-0.9,0.7-1.8,1.4-2.8,2.1c1,1.9,1.9,3.8,2.8,5.8v5.2
			c-1.3-3.3-2.7-6.7-4.4-9.8C568.4-443.4,562.7-440.1,556.1-438.8z M561.1-460.8c-6.1-3.2-15.3-2.2-20.5,2.2
			c-3.7,3.1-4.8,6.4-3.2,9.7c2.6,5.4,11.7,9.4,18.4,8.1c6.2-1.2,11.8-4.4,17-8.2C569.8-453.9,566-458.2,561.1-460.8z"/>
		<path class="st1" d="M578-330.8C578.1-330.8,578.1-330.8,578-330.8l0.1,6.6c-0.2,1.7-0.2,3.5,0,5.2v7.1
			C575.4-317.7,575.2-325.3,578-330.8z"/>
		<path class="st1" d="M544-576.7c-1.2-0.3-2.4-0.8-3.5-1.4h6.6c1.7,0.2,3.4,0.2,5.1,0h7.1C554.8-576,549-575.3,544-576.7z"/>
		<path class="st1" d="M395.2-563c-3.6,3.7-8.6,5-13.9,3.5c-6.8-1.9-12.7-7.7-14.2-13.9c-0.4-1.6-0.6-3.1-0.7-4.7h2
			c0.1,1.4,0.3,2.8,0.7,4.2c1.3,5.5,6.9,10.8,12.9,12.5c3.2,0.9,7.9,1.1,12-3c2-2,2.7-4.4,2.2-7.1c-0.5-2.5-2-4.8-3.8-6.7h2.6
			c1.5,1.9,2.7,4,3.1,6.3C398.6-568.5,397.7-565.4,395.2-563z"/>
		<path class="st1" d="M426.6-572.3c-1.6,0.6-3.2,1.2-4.7,1.8c0.1,0.1,0.2,0.3,0.3,0.4c4.2,4.9,8.8,13.9,8,22.7
			c-0.4,5.2-2.6,9.4-6.5,12.6c-6.6,5.5-11.6,3.7-14,2.2c-5.7-3.7-8.8-13.9-6.6-21.8c1.9-6.6,7.5-12.6,15.5-16.8
			c-1.5-1.8-3.3-4.2-5.3-7h2.4c1.7,2.4,3.4,4.5,4.7,6.1c1.7-0.8,3.5-1.5,5.4-2.1l2-0.7c3-1,6.2-2.1,9.4-3.3h5.2
			c-4.7,2-9.5,3.6-14,5.1L426.6-572.3z M420.1-569.6c-7.8,3.9-13.2,9.6-14.9,15.8c-2,7.2,0.7,16.3,5.7,19.6
			c3.4,2.2,7.4,1.5,11.6-2.1c3.4-2.9,5.4-6.6,5.8-11.2c0.7-8.3-3.6-16.7-7.6-21.3C420.5-569,420.3-569.3,420.1-569.6z"/>
		<path class="st1" d="M569.8-179.9c-2.5,0-4.9-1-6.8-2.9c-3.7-3.6-5-8.6-3.5-13.9c1.9-6.8,7.7-12.7,13.9-14.2
			c1.6-0.4,3.1-0.6,4.7-0.7v2c-1.4,0.1-2.8,0.3-4.2,0.7c-5.5,1.3-10.8,6.9-12.5,12.9c-0.9,3.2-1.1,7.9,3,12c2,2,4.4,2.7,7.1,2.2
			c2.5-0.5,4.8-2,6.7-3.8v2.6c-1.9,1.5-4,2.7-6.3,3.1C571.1-180,570.4-179.9,569.8-179.9z"/>
		<path class="st1" d="M576.7-34c0.3-1.2,0.8-2.4,1.4-3.5v6.6c-0.2,1.7-0.2,3.4,0,5.1v7.1C576-23.3,575.3-29.1,576.7-34z"/>
		<path class="st1" d="M247.3-578C247.3-578.1,247.3-578.1,247.3-578l6.6-0.1c1.7,0.2,3.5,0.2,5.2,0h7.1
			C260.4-575.4,252.8-575.2,247.3-578z"/>
		<path class="st1" d="M549.6-85.4c-3.5,6.9-7.4,15-7.9,23.5c6.3-2.7,12.9-4.2,19.5-1.3c4.2,1.8,9.1,6.4,10.1,11.7
			c0.7,3.3-0.3,6.3-2.7,8.8c-3.6,3.7-8.6,5-13.9,3.5c-6.8-1.9-12.7-7.7-14.2-13.9c-0.5-1.9-0.7-3.8-0.8-5.7
			c-1.1,0.5-2.2,1.1-3.3,1.6c-4.9,2.5-9.5,6.1-14,9.6c-1.7,1.3-3.3,2.6-5,3.8c3.4,6.3,5.8,13.4,7.9,19.7l0.7,2
			c0.6,1.7,1.2,3.2,1.8,4.7c0.1-0.1,0.3-0.2,0.4-0.3c4.9-4.2,13.9-8.8,22.7-8c5.2,0.4,9.4,2.6,12.6,6.5c5.5,6.6,3.7,11.6,2.2,14
			c-1.4,2.1-3.7,3.9-6.5,5.2h-7.1c5-0.6,9.8-2.9,12-6.2c2.2-3.4,1.5-7.4-2.1-11.6c-2.8-3.4-6.6-5.4-11.2-5.8
			c-0.6-0.1-1.2-0.1-1.8-0.1c-7.7,0-15.2,4-19.5,7.7c-0.2,0.2-0.5,0.4-0.8,0.7c3.9,7.8,9.6,13.2,15.8,14.9c0.8,0.2,1.7,0.4,2.6,0.5
			h-6.6c-5.2-2.6-9.8-7.6-13.3-14.2c-4.7,3.8-12.9,9.9-21.4,13.8c0,0.1,0,0.2-0.1,0.3h-5.9c1.4-0.5,2.8-1,4.2-1.6
			c0.5-4.8-0.3-9.7-3.5-14.8c-4.2-6.7-12.6-7.9-18.1-5.3c-5,2.4-6.7,7.4-4.6,13.3c1.5,4,3.6,6.8,6.5,8.4H481c-2.1-1.9-3.8-4.4-5-7.7
			c-3-8.1,0.9-13.5,5.5-15.7c6.4-3.1,15.8-1.7,20.6,6c3.2,5.1,4.2,10.1,3.9,14.9c8.1-4,15.9-9.8,20.3-13.4c-0.8-1.7-1.5-3.5-2.1-5.4
			l-0.7-2c-2-6.2-4.3-13.1-7.6-19.2c-5.4,3.8-11,7.1-17.6,8.4c-7.6,1.5-17.6-3-20.5-9.2c-1.1-2.4-2.1-7.1,3.7-12
			c5.8-4.8,15.9-5.9,22.6-2.4c5.3,2.7,9.2,7.2,12.3,12.4c1.6-1.2,3.2-2.4,4.8-3.7c4.5-3.5,9.2-7.2,14.3-9.8c1.4-0.7,2.8-1.4,4.2-2.1
			c0.3-9.2,4.4-17.9,8.1-25.3c-2.7-1.3-5.4-2.8-8-4.3c-6.4-3.6-12.7-7.2-19-8.4c2.5,5.9,3.7,11.9,2.4,17c-1.3,4.9-4.9,8.5-10.7,10.6
			c-2,0.7-3.8,1-5.4,1c-5.1,0-8.6-3.1-10.3-6.6c-3.1-6.4-1.7-15.8,6-20.6c5.1-3.2,10.1-4.2,14.9-3.9c-4-8.1-9.8-15.9-13.4-20.3
			c-1.7,0.8-3.5,1.5-5.4,2.1l-2,0.7c-6.2,2-13.1,4.3-19.2,7.6c3.8,5.4,7.1,11,8.4,17.6c1.5,7.6-3,17.6-9.2,20.5
			c-2.4,1.1-7.1,2.1-12-3.7c-4.8-5.8-5.9-15.9-2.4-22.6c2.7-5.3,7.2-9.2,12.4-12.3c-1.2-1.6-2.4-3.2-3.7-4.8
			c-3.5-4.5-7.2-9.2-9.8-14.3c-0.7-1.4-1.4-2.8-2.1-4.2c-9.2-0.3-17.9-4.4-25.3-8.1c-1.3,2.7-2.8,5.4-4.3,8
			c-3.6,6.4-7.2,12.7-8.4,19c5.9-2.5,11.9-3.7,17-2.4c4.9,1.3,8.5,4.9,10.6,10.7c3,8.1-0.9,13.5-5.5,15.7c-6.4,3.1-15.8,1.7-20.6-6
			c-3.2-5.1-4.2-10.1-3.9-14.9c-8.1,4-15.9,9.8-20.3,13.4c0.8,1.7,1.5,3.5,2.1,5.4l0.7,2c2,6.2,4.3,13.1,7.6,19.2
			c5.4-3.8,11-7.1,17.6-8.4c7.6-1.5,17.6,3,20.5,9.2c1.1,2.4,2.1,7.1-3.7,12c-5.8,4.8-15.9,5.9-22.6,2.4c-5.3-2.7-9.2-7.2-12.3-12.4
			c-1.6,1.2-3.2,2.4-4.8,3.7c-4.5,3.5-9.2,7.2-14.3,9.8c-1.4,0.7-2.8,1.4-4.2,2.1c-0.3,9.2-4.4,17.9-8.1,25.3c2.7,1.3,5.4,2.8,8,4.3
			c6.4,3.6,12.7,7.2,19,8.4c-2.5-5.9-3.7-11.9-2.4-17c1.3-4.9,4.9-8.5,10.7-10.6c8.1-3,13.5,0.9,15.7,5.5c3.1,6.4,1.7,15.8-6,20.6
			c-5.1,3.2-10.1,4.2-14.9,3.9C409.7-9.1,413-4.1,416,0h-2.4c-3-4.2-6.2-9.3-8.6-14.5c-7.2-1.1-14.1-5-20.9-8.9
			c-2.6-1.5-5.2-3-7.9-4.3c-3.5,6.9-7.4,15-7.9,23.5c6.3-2.7,12.9-4.2,19.5-1.3c2.4,1,5,3,7,5.4h-2.6c-1.6-1.6-3.4-2.9-5.1-3.6
			c-2.2-1-4.5-1.4-6.8-1.4c-4,0-8.1,1.3-12.1,3.1c0,0.6,0,1.3,0.1,1.9h-2c0-0.3-0.1-0.7-0.1-1c-0.7,0.3-1.4,0.7-2,1h-4.2
			c0.7-0.4,1.3-0.8,2-1.1c1.4-0.7,2.8-1.4,4.2-2.1c0.3-9.2,4.4-17.9,8.1-25.3c-2.7-1.3-5.4-2.8-8-4.3c-6.4-3.6-12.7-7.2-19-8.4
			c2.5,5.9,3.7,11.9,2.4,17c-1.3,4.9-4.9,8.5-10.7,10.6c-2,0.7-3.8,1-5.4,1c-5.1,0-8.6-3.1-10.3-6.6c-3.1-6.4-1.7-15.8,6-20.6
			c5.1-3.2,10.1-4.2,14.9-3.9c-4-8.1-9.8-15.9-13.4-20.3c-1.7,0.8-3.5,1.5-5.4,2.1l-2,0.7c-6.2,2-13.1,4.3-19.2,7.6
			c3.8,5.4,7.1,11,8.4,17.6c1.5,7.6-3,17.6-9.2,20.5c-2.4,1.1-7.1,2.1-12-3.7c-4.8-5.8-5.9-15.9-2.4-22.6c2.7-5.3,7.2-9.2,12.4-12.3
			c-1.2-1.6-2.4-3.2-3.7-4.8c-3.5-4.5-7.2-9.2-9.8-14.3c-0.7-1.4-1.4-2.8-2.1-4.2c-9.2-0.3-17.9-4.4-25.3-8.1
			c-1.3,2.7-2.8,5.4-4.3,8c-3.6,6.4-7.2,12.7-8.4,19c5.9-2.5,11.9-3.7,17-2.4c4.9,1.3,8.5,4.9,10.6,10.7c3,8.1-0.9,13.5-5.5,15.7
			c-6.4,3.1-15.8,1.7-20.6-6c-3.2-5.1-4.2-10.1-3.9-14.9c-8.1,4-15.9,9.8-20.3,13.4c0.8,1.7,1.5,3.5,2.1,5.4l0.7,2
			c2,6.2,4.3,13.1,7.6,19.2c5.4-3.8,11-7.1,17.6-8.4c7.6-1.5,17.6,3,20.5,9.2c1.1,2.4,2.1,7.1-3.7,12c-1.1,0.9-2.4,1.7-3.8,2.4h-7.1
			c3.6-0.4,7.1-1.7,9.6-3.9c3.7-3.1,4.8-6.4,3.2-9.7c-2.2-4.7-9.5-8.4-15.7-8.4c-0.9,0-1.8,0.1-2.6,0.2c-6.2,1.2-11.8,4.4-17,8.2
			c3,5,6.7,9.3,11.6,11.8c1.7,0.9,3.6,1.4,5.7,1.7h-6.7c-5.2-2.7-9.2-7.2-12.2-12.4c-1.6,1.2-3.2,2.4-4.8,3.7
			c-3.9,3.1-8,6.2-12.3,8.7h-4.2c0.4-0.2,0.8-0.4,1.3-0.6c4.9-2.5,9.5-6.1,14-9.6c1.7-1.3,3.3-2.6,5-3.8c-3.4-6.3-5.8-13.4-7.9-19.7
			l-0.7-2c-0.6-1.7-1.2-3.2-1.8-4.7c-0.1,0.1-0.3,0.2-0.4,0.3c-4.9,4.2-13.9,8.8-22.7,8c-5.2-0.4-9.4-2.6-12.6-6.5
			c-5.5-6.6-3.7-11.6-2.2-14c3.7-5.7,13.9-8.8,21.8-6.6c6.6,1.9,12.6,7.5,16.8,15.5c4.7-3.8,12.9-9.9,21.4-13.8
			c1.1-7.2,5-14.1,8.9-20.9c1.5-2.6,3-5.2,4.3-7.9c-6.9-3.5-15-7.4-23.5-7.9c2.7,6.4,4.2,12.9,1.3,19.5c-1.8,4.2-6.4,9.1-11.7,10.1
			c-0.7,0.1-1.3,0.2-2,0.2c-2.5,0-4.9-1-6.8-2.9c-3.7-3.6-5-8.6-3.5-13.9c1.9-6.8,7.7-12.7,13.9-14.2c1.9-0.5,3.8-0.7,5.7-0.8
			c-0.5-1.1-1.1-2.2-1.6-3.3c-2.5-4.9-6.1-9.5-9.6-14c-1.3-1.7-2.6-3.3-3.8-5c-6.3,3.4-13.4,5.8-19.7,7.9l-2,0.7
			c-1.6,0.6-3.2,1.2-4.7,1.8c0.1,0.1,0.2,0.3,0.3,0.4c4.2,4.9,8.8,13.9,8,22.7c-0.4,5.2-2.6,9.4-6.5,12.6c-6.6,5.5-11.6,3.7-14,2.2
			c-5.7-3.7-8.8-13.9-6.6-21.8c1.9-6.6,7.5-12.6,15.5-16.8c-3.8-4.7-9.9-12.9-13.8-21.4c-7.2-1.1-14.1-5-20.9-8.9
			c-2.6-1.5-5.2-3-7.9-4.3c-3.5,6.9-7.4,15-7.9,23.5c6.3-2.7,12.9-4.2,19.5-1.3c4.2,1.8,9.1,6.4,10.1,11.7c0.7,3.3-0.3,6.3-2.7,8.8
			c-3.6,3.7-8.6,5-13.9,3.5c-6.8-1.9-12.7-7.7-14.2-13.9c-0.5-1.9-0.7-3.8-0.8-5.7c-1.1,0.5-2.2,1.1-3.3,1.6
			c-4.9,2.5-9.5,6.1-14,9.6c-1.7,1.3-3.3,2.6-5,3.8c3.4,6.3,5.8,13.4,7.9,19.7l0.7,2c0.6,1.7,1.2,3.2,1.8,4.7
			c0.1-0.1,0.3-0.2,0.4-0.3c4.9-4.2,13.9-8.8,22.7-8c5.2,0.4,9.4,2.6,12.6,6.5c5.5,6.6,3.7,11.6,2.2,14c-3.7,5.7-13.9,8.8-21.8,6.6
			c-6.6-1.9-12.6-7.5-16.8-15.5c-4.7,3.8-12.9,9.9-21.4,13.8c-1.1,7.2-5,14.1-8.9,20.9c-1.5,2.6-3,5.2-4.3,7.9
			c6.9,3.5,15,7.4,23.5,7.9c-2.7-6.4-4.2-12.9-1.3-19.5c1.8-4.2,6.4-9.1,11.7-10.1c3.3-0.7,6.3,0.3,8.8,2.7c3.7,3.6,5,8.6,3.5,13.9
			c-1.9,6.8-7.7,12.7-13.9,14.2c-1.9,0.5-3.8,0.7-5.7,0.8c0.5,1.1,1.1,2.2,1.6,3.3c2.5,4.9,6.1,9.5,9.6,14c0.6,0.7,1.2,1.5,1.7,2.2
			h-2.5c-0.3-0.3-0.5-0.7-0.8-1c-3.5-4.5-7.2-9.2-9.8-14.3c-0.7-1.4-1.4-2.8-2.1-4.2c-9.2-0.3-17.9-4.4-25.3-8.1
			c-1.3,2.7-2.8,5.4-4.3,8c-3.6,6.4-7.2,12.7-8.4,19c5.9-2.5,11.9-3.7,17-2.4c2.1,0.6,4,1.6,5.7,3h-3.4c-0.9-0.5-1.8-0.9-2.8-1.1
			c-1.3-0.3-2.6-0.5-4-0.5c-2.7,0-5.7,0.6-8.6,1.6h-5.9c1.2-7.1,5-13.9,8.8-20.6c1.5-2.6,3-5.2,4.3-7.9c-6.9-3.5-15-7.4-23.5-7.9
			c2.7,6.3,4.2,12.9,1.3,19.5c-1.8,4.2-6.4,9.1-11.7,10.1c-0.7,0.1-1.3,0.2-2,0.2c-2.5,0-4.9-1-6.8-2.9c-3.7-3.6-5-8.6-3.5-13.9
			C41.1-30,46.9-36,53.1-37.5c1.9-0.5,3.8-0.7,5.7-0.8c-0.5-1.1-1.1-2.2-1.6-3.3c-2.5-4.9-6.1-9.5-9.6-14c-1.3-1.7-2.6-3.3-3.8-5
			c-6.3,3.4-13.4,5.8-19.7,7.9L22-52c-1.7,0.6-3.2,1.2-4.7,1.8c0.1,0.1,0.2,0.3,0.3,0.4c4.2,4.9,8.8,13.9,8,22.7
			c-0.4,5.2-2.6,9.4-6.5,12.6c-6.6,5.5-11.6,3.7-14,2.2C3-13.7,1.3-16,0-18.7v-7.1c0.6,5,2.9,9.8,6.2,12c3.4,2.2,7.4,1.5,11.6-2.1
			c3.4-2.9,5.4-6.6,5.8-11.2c0.7-8.3-3.6-16.7-7.6-21.3c-0.2-0.2-0.4-0.5-0.7-0.8C7.6-45.4,2.2-39.7,0.5-33.5
			C0.3-32.7,0.1-31.8,0-31v-6.6c2.6-5.2,7.6-9.8,14.2-13.3c-3.8-4.7-9.9-12.9-13.8-21.4c-0.1,0-0.2,0-0.3-0.1v-5.9
			c0.5,1.4,1,2.8,1.6,4.2c4.8,0.5,9.7-0.3,14.8-3.5c6.7-4.2,7.9-12.6,5.3-18.1c-1.7-3.6-4.8-5.5-8.5-5.5c-1.5,0-3.1,0.3-4.8,0.9
			c-4,1.5-6.8,3.6-8.4,6.5v-3.4c1.9-2.1,4.4-3.8,7.7-5c8.1-3,13.5,0.9,15.7,5.5c3.1,6.4,1.7,15.8-6,20.6C12.3-72.7,7.4-71.7,2.6-72
			c4,8.1,9.8,15.9,13.4,20.3c1.7-0.8,3.5-1.5,5.4-2.1l2-0.7c6.2-2,13.1-4.3,19.2-7.6c-3.8-5.4-7.1-11-8.4-17.6
			c-1.5-7.6,3-17.6,9.2-20.5c2.4-1.1,7.1-2.1,12,3.7c4.8,5.8,5.9,15.9,2.4,22.6c-2.7,5.3-7.2,9.2-12.4,12.3c1.2,1.6,2.4,3.2,3.7,4.8
			c3.5,4.5,7.2,9.2,9.8,14.3c0.7,1.4,1.4,2.8,2.1,4.2c9.2,0.3,17.9,4.4,25.3,8.1c1.3-2.7,2.8-5.4,4.3-8c3.6-6.4,7.2-12.7,8.4-19
			c-5.9,2.5-11.9,3.7-17,2.4c-4.9-1.3-8.5-4.9-10.6-10.7c-3-8.1,0.9-13.5,5.5-15.7c6.4-3.1,15.8-1.7,20.6,6
			c3.2,5.1,4.2,10.1,3.9,14.9c8.1-4,15.9-9.8,20.3-13.4c-0.8-1.7-1.5-3.5-2.1-5.4l-0.7-2c-2-6.2-4.3-13.1-7.6-19.2
			c-5.4,3.8-11,7.1-17.6,8.4c-7.6,1.4-17.6-3-20.5-9.2c-1.1-2.4-2.1-7.1,3.7-12c5.8-4.8,15.9-5.9,22.6-2.4
			c5.3,2.7,9.2,7.2,12.3,12.4c1.6-1.2,3.2-2.4,4.8-3.7c4.5-3.5,9.2-7.2,14.3-9.8c1.4-0.7,2.8-1.4,4.2-2.1c0.3-9.2,4.4-17.9,8.1-25.3
			c-2.7-1.3-5.4-2.8-8-4.3c-6.4-3.6-12.7-7.2-19-8.4c2.5,5.9,3.7,11.9,2.4,17c-1.3,4.9-4.9,8.5-10.7,10.6c-2,0.7-3.8,1-5.4,1
			c-5.1,0-8.6-3.1-10.3-6.6c-3.1-6.4-1.7-15.8,6-20.6c5.1-3.2,10.1-4.2,14.9-3.9c-4-8.1-9.8-15.9-13.4-20.3
			c-1.7,0.8-3.5,1.5-5.4,2.1l-2,0.7c-6.2,2-13.1,4.3-19.2,7.6c3.8,5.4,7.1,11,8.4,17.6c1.5,7.6-3,17.6-9.2,20.5
			c-2.4,1.1-7.1,2.1-12-3.7c-4.8-5.8-5.9-15.9-2.4-22.6c2.7-5.3,7.2-9.2,12.4-12.3c-1.2-1.6-2.4-3.2-3.7-4.8
			c-3.5-4.5-7.2-9.2-9.8-14.3c-0.7-1.4-1.4-2.8-2.1-4.2c-9.2-0.3-17.9-4.4-25.3-8.1c-1.3,2.7-2.8,5.4-4.3,8
			c-3.6,6.4-7.2,12.7-8.4,19c5.9-2.5,11.9-3.7,17-2.4c4.9,1.3,8.5,4.9,10.6,10.7c3,8.1-0.9,13.5-5.5,15.7c-6.4,3.1-15.8,1.7-20.6-6
			c-3.2-5.1-4.2-10.1-3.9-14.9c-5.1,2.5-10.1,5.8-14.2,8.7v-2.4c4.2-3,9.3-6.2,14.5-8.6c1.1-7.2,5-14.1,8.9-20.9
			c1.5-2.6,3-5.2,4.3-7.9c-6.9-3.5-15-7.4-23.5-7.9c2.7,6.3,4.2,12.9,1.3,19.5c-1,2.4-3,5-5.4,7v-2.6c1.6-1.6,2.9-3.4,3.6-5.1
			c2.7-6.2,1-12.6-1.7-18.8c-0.6,0-1.3,0-1.9,0.1v-2c0.3,0,0.7-0.1,1-0.1c-0.3-0.7-0.7-1.4-1-2v-4.2c0.4,0.7,0.8,1.3,1.1,2
			c0.7,1.4,1.4,2.8,2.1,4.2c9.2,0.3,17.9,4.4,25.3,8.1c1.3-2.7,2.8-5.4,4.3-8c3.6-6.4,7.2-12.7,8.4-19c-5.9,2.5-11.9,3.7-17,2.4
			c-4.9-1.3-8.5-4.9-10.6-10.7c-3-8.1,0.9-13.5,5.5-15.7c6.4-3.1,15.8-1.7,20.6,6c3.2,5.1,4.2,10.1,3.9,14.9
			c8.1-4,15.9-9.8,20.3-13.4c-0.8-1.7-1.5-3.5-2.1-5.4l-0.7-2c-2-6.2-4.3-13.1-7.6-19.2c-5.4,3.8-11,7.1-17.6,8.4
			c-7.6,1.5-17.6-3-20.5-9.2c-1.1-2.4-2.1-7.1,3.7-12c5.8-4.8,15.9-5.9,22.6-2.4c5.3,2.7,9.2,7.2,12.3,12.4c1.6-1.2,3.2-2.4,4.8-3.7
			c4.5-3.5,9.2-7.2,14.3-9.8c1.4-0.7,2.8-1.4,4.2-2.1c0.3-9.2,4.4-17.9,8.1-25.3c-2.7-1.3-5.4-2.8-8-4.3c-6.4-3.6-12.7-7.2-19-8.4
			c2.5,5.9,3.7,11.9,2.4,17c-1.3,4.9-4.9,8.5-10.7,10.6c-2,0.7-3.8,1-5.4,1c-5.1,0-8.6-3.1-10.3-6.6c-3.1-6.4-1.7-15.8,6-20.6
			c5.1-3.2,10.1-4.2,14.9-3.9c-4-8.1-9.8-15.9-13.4-20.3c-1.7,0.8-3.5,1.5-5.4,2.1l-2,0.7c-6.2,2-13.1,4.3-19.2,7.6
			c3.8,5.4,7.1,11,8.4,17.6c1.5,7.6-3,17.6-9.2,20.5c-2.4,1.1-7.1,2.1-12-3.7c-0.9-1.1-1.7-2.4-2.4-3.8v-7.1
			c0.4,3.6,1.7,7.1,3.9,9.6c3.1,3.7,6.4,4.8,9.7,3.2c5.4-2.6,9.4-11.7,8.1-18.4c-1.2-6.2-4.4-11.8-8.2-17c-5,3-9.3,6.7-11.8,11.6
			c-0.9,1.7-1.4,3.6-1.7,5.7v-6.7c2.7-5.2,7.2-9.2,12.4-12.2c-1.2-1.6-2.4-3.2-3.7-4.8c-3.1-3.9-6.2-8-8.7-12.3v-4.2
			c0.2,0.4,0.4,0.8,0.6,1.3c2.5,4.9,6.1,9.5,9.6,14c1.3,1.7,2.6,3.3,3.8,5c6.3-3.4,13.4-5.8,19.7-7.9l2-0.7c1.7-0.6,3.2-1.2,4.7-1.8
			c-0.1-0.1-0.2-0.3-0.3-0.4c-4.2-4.9-8.8-13.9-8-22.7c0.4-5.2,2.6-9.4,6.5-12.6c6.6-5.5,11.6-3.7,14-2.2c5.7,3.7,8.8,13.9,6.6,21.8
			c-1.9,6.6-7.5,12.6-15.5,16.8c3.8,4.7,9.9,12.9,13.8,21.4c7.2,1.1,14.1,5,20.9,8.9c2.6,1.5,5.2,3,7.9,4.3c3.5-6.9,7.4-15,7.9-23.5
			c-6.3,2.7-12.9,4.2-19.5,1.3c-4.2-1.8-9.1-6.4-10.1-11.7c-0.7-3.3,0.3-6.3,2.7-8.8c3.6-3.7,8.6-5,13.9-3.5
			c6.8,1.9,12.7,7.7,14.2,13.9c0.5,1.9,0.7,3.8,0.8,5.7c1.1-0.5,2.2-1.1,3.3-1.6c4.9-2.5,9.5-6.1,14-9.6c1.7-1.3,3.3-2.6,5-3.8
			c-3.4-6.3-5.8-13.4-7.9-19.7l-0.7-2c-0.6-1.6-1.2-3.2-1.8-4.7c-0.1,0.1-0.3,0.2-0.4,0.3c-4.9,4.2-13.9,8.8-22.7,8
			c-5.2-0.4-9.4-2.6-12.6-6.5c-5.5-6.6-3.7-11.6-2.2-14c3.7-5.7,13.9-8.8,21.8-6.6c6.6,1.9,12.6,7.5,16.8,15.5
			c4.7-3.8,12.9-9.9,21.4-13.8c1.1-7.2,5-14.1,8.9-20.9c1.5-2.6,3-5.2,4.3-7.9c-6.9-3.5-15-7.4-23.5-7.9c2.7,6.4,4.2,12.9,1.3,19.5
			c-1.8,4.2-6.4,9.1-11.7,10.1c-0.7,0.1-1.3,0.2-2,0.2c-2.5,0-4.9-1-6.8-2.9c-3.7-3.6-5-8.6-3.5-13.9c1.9-6.8,7.7-12.7,13.9-14.2
			c1.9-0.5,3.8-0.7,5.7-0.8c-0.5-1.1-1.1-2.2-1.6-3.3c-2.5-4.9-6.1-9.5-9.6-14c-1.3-1.7-2.6-3.3-3.8-5c-6.3,3.4-13.4,5.8-19.7,7.9
			l-2,0.7c-1.7,0.6-3.2,1.2-4.7,1.8c0.1,0.1,0.2,0.3,0.3,0.4c4.2,4.9,8.8,13.9,8,22.7c-0.4,5.2-2.6,9.4-6.5,12.6
			c-6.6,5.5-11.6,3.7-14,2.2c-5.7-3.7-8.8-13.9-6.6-21.8c1.9-6.6,7.5-12.6,15.5-16.8c-3.8-4.7-9.9-12.9-13.8-21.4
			c-7.2-1.1-14.1-5-20.9-8.9c-2.6-1.5-5.2-3-7.9-4.3c-3.5,6.9-7.4,15-7.9,23.5c6.3-2.7,12.9-4.2,19.5-1.3c4.2,1.8,9.1,6.4,10.1,11.7
			c0.7,3.3-0.3,6.3-2.7,8.8c-3.6,3.7-8.6,5-13.9,3.5c-6.8-1.9-12.7-7.7-14.2-13.9c-0.5-1.9-0.7-3.8-0.8-5.7
			c-1.1,0.5-2.2,1.1-3.3,1.6c-4.9,2.5-9.5,6.1-14,9.6c-0.7,0.6-1.5,1.2-2.2,1.7v-2.5c0.3-0.3,0.7-0.5,1-0.8
			c4.5-3.5,9.2-7.2,14.3-9.8c1.4-0.7,2.8-1.4,4.2-2.1c0.3-9.2,4.4-17.9,8.1-25.3c-2.7-1.3-5.4-2.8-8-4.3c-6.4-3.6-12.7-7.2-19-8.4
			c2.5,5.9,3.7,11.9,2.4,17c-0.6,2.1-1.6,4-3,5.7v-3.4c0.5-0.9,0.9-1.8,1.1-2.8c1-3.8,0.4-8.2-1.1-12.6v-5.9
			c7.1,1.2,13.9,5,20.6,8.8c2.6,1.5,5.2,3,7.9,4.3c3.5-6.9,7.4-15,7.9-23.5c-6.3,2.7-12.9,4.2-19.5,1.3c-4.2-1.8-9.1-6.4-10.1-11.7
			c-0.7-3.3,0.3-6.3,2.7-8.8c3.6-3.7,8.6-5,13.9-3.5C30-537,36-531.2,37.5-525c0.5,1.9,0.7,3.8,0.8,5.7c1.1-0.5,2.2-1.1,3.3-1.6
			c4.9-2.5,9.5-6.1,14-9.6c1.7-1.3,3.3-2.6,5-3.8c-3.4-6.3-5.8-13.4-7.9-19.7l-0.7-2c-0.6-1.6-1.2-3.2-1.8-4.7
			c-0.1,0.1-0.3,0.2-0.4,0.3c-4.9,4.2-13.9,8.8-22.7,8c-5.2-0.4-9.4-2.6-12.6-6.5c-5.5-6.6-3.7-11.6-2.2-14c1.4-2.1,3.7-3.9,6.5-5.2
			h7.1c-5,0.6-9.8,2.9-12,6.2c-2.2,3.4-1.5,7.4,2.1,11.6c2.8,3.4,6.6,5.4,11.2,5.8c8.3,0.7,16.7-3.6,21.3-7.6
			c0.2-0.2,0.5-0.4,0.8-0.7c-3.9-7.8-9.6-13.2-15.8-14.9c-0.8-0.2-1.7-0.4-2.6-0.5h6.6c5.2,2.6,9.8,7.6,13.3,14.2
			c4.7-3.8,12.9-9.9,21.4-13.8c0-0.1,0-0.2,0.1-0.3h5.9c-1.4,0.5-2.8,1-4.2,1.6c-0.5,4.8,0.3,9.7,3.5,14.8
			c4.2,6.7,12.6,7.9,18.1,5.3c5-2.4,6.7-7.4,4.6-13.3c-1.5-4-3.6-6.8-6.5-8.4h3.4c2.1,1.9,3.8,4.4,5,7.7c3,8.1-0.9,13.5-5.5,15.7
			c-6.4,3.1-15.8,1.7-20.6-6c-3.2-5.1-4.2-10.1-3.9-14.9c-8.1,4-15.9,9.8-20.3,13.4c0.8,1.7,1.5,3.5,2.1,5.4l0.7,2
			c2,6.2,4.3,13.1,7.6,19.2c5.4-3.8,11-7.1,17.6-8.4c7.6-1.5,17.6,3,20.5,9.2c1.1,2.4,2.1,7.1-3.7,12c-5.8,4.8-15.9,5.9-22.6,2.4
			c-5.3-2.7-9.2-7.2-12.3-12.4c-1.6,1.2-3.2,2.4-4.8,3.7c-4.5,3.5-9.2,7.2-14.3,9.8c-1.4,0.7-2.8,1.4-4.2,2.1
			c-0.3,9.2-4.4,17.9-8.1,25.3c2.7,1.3,5.4,2.8,8,4.3c6.4,3.6,12.7,7.2,19,8.4c-2.5-5.9-3.7-11.9-2.4-17c1.3-4.9,4.9-8.5,10.7-10.6
			c8.2-3,13.5,0.9,15.7,5.5c3.1,6.4,1.7,15.8-6,20.6c-5.1,3.2-10.1,4.2-14.9,3.9c4,8.1,9.8,15.9,13.4,20.3c1.7-0.8,3.5-1.5,5.4-2.1
			l2-0.7c6.2-2,13.1-4.3,19.2-7.6c-3.8-5.4-7.1-11-8.4-17.6c-1.5-7.6,3-17.6,9.2-20.5c2.4-1.1,7.1-2.1,12,3.7
			c4.8,5.8,5.9,15.9,2.4,22.6c-2.7,5.3-7.2,9.2-12.4,12.3c1.2,1.6,2.4,3.2,3.7,4.8c3.5,4.5,7.2,9.2,9.8,14.3
			c0.7,1.4,1.4,2.8,2.1,4.2c9.2,0.3,17.9,4.4,25.3,8.1c1.3-2.7,2.8-5.4,4.3-8c3.6-6.4,7.2-12.7,8.4-19c-5.9,2.5-11.9,3.7-17,2.4
			c-4.9-1.3-8.5-4.9-10.6-10.7c-3-8.1,0.9-13.5,5.5-15.7c6.4-3.1,15.8-1.7,20.6,6c3.2,5.1,4.2,10.1,3.9,14.9
			c8.1-4,15.9-9.8,20.3-13.4c-0.8-1.7-1.5-3.5-2.1-5.4l-0.7-2c-2-6.2-4.3-13.1-7.6-19.2c-5.4,3.8-11,7.1-17.6,8.4
			c-7.6,1.5-17.6-3-20.5-9.2c-1.1-2.4-2.1-7.1,3.7-12c5.8-4.8,15.9-5.9,22.6-2.4c5.3,2.7,9.2,7.2,12.3,12.4c1.6-1.2,3.2-2.4,4.8-3.7
			c4.5-3.5,9.2-7.2,14.3-9.8c1.4-0.7,2.8-1.4,4.2-2.1c0.3-9.2,4.4-17.9,8.1-25.3c-2.7-1.3-5.4-2.8-8-4.3c-6.4-3.6-12.7-7.2-19-8.4
			c2.5,5.9,3.7,11.9,2.4,17c-1.3,4.9-4.9,8.5-10.7,10.6c-2,0.7-3.8,1-5.4,1c-5.1,0-8.6-3.1-10.3-6.6c-3.1-6.4-1.7-15.8,6-20.6
			c5.1-3.2,10.1-4.2,14.9-3.9c-2.5-5.1-5.8-10.1-8.7-14.2h2.4c3,4.2,6.2,9.3,8.6,14.5c7.2,1.1,14.1,5,20.9,8.9
			c2.6,1.5,5.2,3,7.9,4.3c3.5-6.9,7.4-15,7.9-23.5c-6.3,2.7-12.9,4.2-19.5,1.3c-2.4-1-5-2.9-7-5.4h2.6c1.6,1.6,3.4,2.9,5.1,3.6
			c6.2,2.7,12.6,1,18.8-1.7c0-0.6,0-1.3-0.1-1.9h2c0,0.3,0.1,0.7,0.1,1c0.7-0.3,1.4-0.7,2-1h4.2c-0.7,0.4-1.3,0.8-2,1.1
			c-1.4,0.7-2.8,1.4-4.2,2.1c-0.3,9.2-4.4,17.9-8.1,25.3c2.7,1.3,5.4,2.8,8,4.3c6.4,3.6,12.7,7.2,19,8.4c-2.5-5.9-3.7-11.9-2.4-17
			c1.3-4.9,4.9-8.5,10.7-10.6c8.1-3,13.5,0.9,15.7,5.5c3.1,6.4,1.7,15.8-6,20.6c-5.1,3.2-10.1,4.2-14.9,3.9
			c4,8.1,9.8,15.9,13.4,20.3c1.7-0.8,3.5-1.5,5.4-2.1l2-0.7c6.2-2,13.1-4.3,19.2-7.6c-3.8-5.4-7.1-11-8.4-17.6
			c-1.5-7.6,3-17.6,9.2-20.5c2.4-1.1,7.1-2.1,12,3.7c4.8,5.8,5.9,15.9,2.4,22.6c-2.7,5.3-7.2,9.2-12.4,12.3c1.2,1.6,2.4,3.2,3.7,4.8
			c3.5,4.5,7.2,9.2,9.8,14.3c0.7,1.4,1.4,2.8,2.1,4.2c9.2,0.3,17.9,4.4,25.3,8.1c1.3-2.7,2.8-5.4,4.3-8c3.6-6.4,7.2-12.7,8.4-19
			c-5.9,2.5-11.9,3.7-17,2.4c-4.9-1.3-8.5-4.9-10.6-10.7c-3-8.1,0.9-13.5,5.5-15.7c6.4-3.1,15.8-1.7,20.6,6
			c3.2,5.1,4.2,10.1,3.9,14.9c8.1-4,15.9-9.8,20.3-13.4c-0.8-1.7-1.5-3.5-2.1-5.4l-0.7-2c-2-6.2-4.3-13.1-7.6-19.2
			c-5.4,3.8-11,7.1-17.6,8.4c-7.6,1.5-17.6-3-20.5-9.2c-1.1-2.4-2.1-7.1,3.7-12c1.1-0.9,2.4-1.7,3.8-2.4h7.1
			c-3.6,0.4-7.1,1.7-9.6,3.9c-3.7,3.1-4.8,6.4-3.2,9.7c2.6,5.4,11.7,9.4,18.4,8.1c6.2-1.2,11.8-4.4,17-8.2c-3-5-6.7-9.3-11.6-11.8
			c-1.7-0.9-3.6-1.4-5.7-1.7h6.7c5.2,2.7,9.2,7.2,12.2,12.4c1.6-1.2,3.2-2.4,4.8-3.7c3.9-3.1,8-6.2,12.3-8.7h4.2
			c-0.4,0.2-0.8,0.4-1.3,0.6c-4.9,2.5-9.5,6.1-14,9.6c-1.7,1.3-3.3,2.6-5,3.8c3.4,6.3,5.8,13.4,7.9,19.7l0.7,2
			c0.6,1.6,1.2,3.2,1.8,4.7c0.1-0.1,0.3-0.2,0.4-0.3c4.9-4.2,13.9-8.8,22.7-8c5.2,0.4,9.4,2.6,12.6,6.5c5.5,6.6,3.7,11.6,2.2,14
			c-3.7,5.7-13.9,8.8-21.8,6.6c-6.6-1.9-12.6-7.5-16.8-15.5c-4.7,3.8-12.9,9.9-21.4,13.8c-1.1,7.2-5,14.1-8.9,20.9
			c-1.5,2.6-3,5.2-4.3,7.9c6.9,3.5,15,7.4,23.5,7.9c-2.7-6.4-4.2-12.9-1.3-19.5c1.8-4.2,6.4-9.1,11.7-10.1c3.3-0.7,6.3,0.3,8.8,2.7
			c3.7,3.6,5,8.6,3.5,13.9c-1.9,6.8-7.7,12.7-13.9,14.2c-1.9,0.5-3.8,0.7-5.7,0.8c0.5,1.1,1.1,2.2,1.6,3.3c2.5,4.9,6.1,9.5,9.6,14
			c1.3,1.7,2.6,3.3,3.8,5c6.3-3.4,13.4-5.8,19.7-7.9l2-0.7c1.7-0.6,3.2-1.2,4.7-1.8c-0.1-0.1-0.2-0.3-0.3-0.4
			c-4.2-4.9-8.8-13.9-8-22.7c0.4-5.2,2.6-9.4,6.5-12.6c6.6-5.5,11.6-3.7,14-2.2c5.7,3.7,8.8,13.9,6.6,21.8
			c-1.9,6.6-7.5,12.6-15.5,16.8c3.8,4.7,9.9,12.9,13.8,21.4c7.2,1.1,14.1,5,20.9,8.9c2.6,1.5,5.2,3,7.9,4.3c3.5-6.9,7.4-15,7.9-23.5
			c-6.3,2.7-12.9,4.2-19.5,1.3c-4.2-1.8-9.1-6.4-10.1-11.7c-0.7-3.3,0.3-6.3,2.7-8.8c3.6-3.7,8.6-5,13.9-3.5
			c6.8,1.9,12.7,7.7,14.2,13.9c0.5,1.9,0.7,3.8,0.8,5.7c1.1-0.5,2.2-1.1,3.3-1.6c4.9-2.5,9.5-6.1,14-9.6c1.7-1.3,3.3-2.6,5-3.8
			c-3.4-6.3-5.8-13.4-7.9-19.7l-0.7-2c-0.6-1.6-1.2-3.2-1.8-4.7c-0.1,0.1-0.3,0.2-0.4,0.3c-4.9,4.2-13.9,8.8-22.7,8
			c-5.2-0.4-9.4-2.6-12.6-6.5c-5.5-6.6-3.7-11.6-2.2-14c3.7-5.7,13.9-8.8,21.8-6.6c6.6,1.9,12.6,7.5,16.8,15.5
			c4.7-3.8,12.9-9.9,21.4-13.8c1.1-7.2,5-14.1,8.9-20.9c1.5-2.6,3-5.2,4.3-7.9c-6.9-3.5-15-7.4-23.5-7.9c2.7,6.3,4.2,12.9,1.3,19.5
			c-1.8,4.2-6.4,9.1-11.7,10.1c-0.7,0.1-1.3,0.2-2,0.2c-2.5,0-4.9-1-6.8-2.9c-3.7-3.6-5-8.6-3.5-13.9c1.9-6.8,7.7-12.7,13.9-14.2
			c1.9-0.5,3.8-0.7,5.7-0.8c-0.5-1.1-1.1-2.2-1.6-3.3c-2.5-4.9-6.1-9.5-9.6-14c-0.6-0.7-1.2-1.5-1.7-2.2h2.5c0.3,0.3,0.5,0.7,0.8,1
			c3.5,4.5,7.2,9.2,9.8,14.3c0.7,1.4,1.4,2.8,2.1,4.2c9.2,0.3,17.9,4.4,25.3,8.1c1.3-2.7,2.8-5.4,4.3-8c3.6-6.4,7.2-12.7,8.4-19
			c-5.9,2.5-11.9,3.7-17,2.4c-2.1-0.6-4-1.6-5.7-3h3.4c0.9,0.5,1.8,0.9,2.8,1.1c3.8,1,8.2,0.4,12.6-1.1h5.9
			c-1.2,7.1-5,13.9-8.8,20.6c-1.5,2.6-3,5.2-4.3,7.9c6.9,3.5,15,7.4,23.5,7.9c-2.7-6.4-4.2-12.9-1.3-19.5c1.8-4.2,6.4-9.1,11.7-10.1
			c3.3-0.7,6.3,0.3,8.8,2.7c3.7,3.6,5,8.6,3.5,13.9c-1.9,6.8-7.7,12.7-13.9,14.2c-1.9,0.5-3.8,0.7-5.7,0.8c0.5,1.1,1.1,2.2,1.6,3.3
			c2.5,4.9,6.1,9.5,9.6,14c1.3,1.7,2.6,3.3,3.9,5c6.3-3.4,13.4-5.8,19.7-7.9l2-0.7c1.6-0.6,3.2-1.2,4.7-1.8
			c-0.1-0.1-0.2-0.3-0.3-0.4c-4.2-4.9-8.8-13.9-8-22.7c0.4-5.2,2.6-9.4,6.5-12.6c6.6-5.5,11.6-3.7,14-2.2c2.1,1.4,3.9,3.7,5.2,6.5
			v7.1c-0.6-5-2.9-9.8-6.2-12c-1.3-0.8-2.6-1.2-4.1-1.2c-2.4,0-4.9,1.1-7.6,3.3c-3.4,2.9-5.4,6.6-5.8,11.2
			c-0.7,8.3,3.6,16.7,7.6,21.3c0.2,0.2,0.4,0.5,0.7,0.8c7.8-3.9,13.2-9.6,14.9-15.8c0.2-0.8,0.4-1.7,0.5-2.6v6.6
			c-2.6,5.2-7.6,9.8-14.2,13.3c3.8,4.7,9.9,12.9,13.8,21.4c0.1,0,0.2,0,0.3,0.1v5.9c-0.5-1.4-1-2.8-1.6-4.2
			c-4.8-0.5-9.7,0.3-14.8,3.5c-6.7,4.2-7.9,12.6-5.3,18.1c2.4,5,7.4,6.7,13.3,4.6c4-1.5,6.8-3.6,8.4-6.5v3.4c-1.9,2.1-4.4,3.8-7.7,5
			c-2,0.7-3.8,1-5.4,1c-5.1,0-8.6-3.1-10.3-6.6c-3.1-6.4-1.7-15.8,6-20.6c5.1-3.2,10.1-4.2,14.9-3.9c-4-8.1-9.8-15.9-13.4-20.3
			c-1.7,0.8-3.5,1.5-5.4,2.1l-2,0.7c-6.2,2-13.1,4.3-19.2,7.6c3.8,5.4,7.1,11,8.4,17.6c1.5,7.6-3,17.6-9.2,20.5
			c-2.4,1.1-7.1,2.1-12-3.7c-4.8-5.8-5.9-15.9-2.4-22.6c2.7-5.3,7.2-9.2,12.4-12.3c-1.2-1.6-2.4-3.2-3.7-4.8
			c-3.5-4.5-7.2-9.2-9.8-14.3c-0.7-1.4-1.4-2.8-2.1-4.2c-9.2-0.3-17.9-4.4-25.3-8.1c-1.3,2.7-2.8,5.4-4.3,8
			c-3.6,6.4-7.2,12.7-8.4,19c5.9-2.5,11.9-3.7,17-2.4c4.9,1.3,8.5,4.9,10.6,10.7c3,8.1-0.9,13.5-5.5,15.7c-6.4,3.1-15.8,1.7-20.6-6
			c-3.2-5.1-4.2-10.1-3.9-14.9c-8.1,4-15.9,9.8-20.3,13.4c0.8,1.7,1.5,3.5,2.1,5.4l0.7,2c2,6.2,4.3,13.1,7.6,19.2
			c5.4-3.8,11-7.1,17.6-8.4c7.6-1.5,17.6,3,20.5,9.2c1.1,2.4,2.1,7.1-3.7,12c-5.8,4.8-15.9,5.9-22.6,2.4c-5.3-2.7-9.2-7.2-12.3-12.4
			c-1.6,1.2-3.2,2.4-4.8,3.7c-4.5,3.5-9.2,7.2-14.3,9.8c-1.4,0.7-2.8,1.4-4.2,2.1c-0.3,9.2-4.4,17.9-8.1,25.3c2.7,1.3,5.4,2.8,8,4.3
			c6.4,3.6,12.7,7.2,19,8.4c-2.5-5.9-3.7-11.9-2.4-17c1.3-4.9,4.9-8.5,10.7-10.6c8.1-3,13.5,0.9,15.7,5.5c3.1,6.4,1.7,15.8-6,20.6
			c-5.1,3.2-10.1,4.2-14.9,3.9c4,8.1,9.8,15.9,13.4,20.3c1.7-0.8,3.5-1.5,5.4-2.1l2-0.7c6.2-2,13.1-4.3,19.2-7.6
			c-3.8-5.4-7.1-11-8.4-17.6c-1.5-7.6,3-17.6,9.2-20.5c2.4-1.1,7.1-2.1,12,3.7c4.8,5.8,5.9,15.9,2.4,22.6
			c-2.7,5.3-7.2,9.2-12.4,12.3c1.2,1.6,2.4,3.2,3.7,4.8c3.5,4.5,7.2,9.2,9.8,14.3c0.7,1.4,1.4,2.8,2.1,4.2
			c9.2,0.3,17.9,4.4,25.3,8.1c1.3-2.7,2.8-5.4,4.3-8c3.6-6.4,7.2-12.7,8.4-19c-5.9,2.5-11.9,3.7-17,2.4c-4.9-1.3-8.5-4.9-10.6-10.7
			c-3-8.1,0.9-13.5,5.5-15.7c6.4-3.1,15.8-1.7,20.6,6c3.2,5.1,4.2,10.1,3.9,14.9c5.1-2.5,10.1-5.8,14.2-8.7v2.4
			c-4.2,3-9.3,6.2-14.5,8.6c-1.1,7.2-5,14.1-8.9,20.9c-1.5,2.6-3,5.2-4.3,7.9c6.9,3.5,15,7.4,23.5,7.9c-2.7-6.4-4.2-12.9-1.3-19.5
			c1-2.4,2.9-5,5.4-7v2.6c-1.6,1.6-2.9,3.4-3.6,5.1c-2.7,6.2-1,12.6,1.7,18.8c0.6,0,1.3,0,1.9-0.1v2c-0.3,0-0.7,0.1-1,0.1
			c0.3,0.7,0.7,1.4,1,2v4.2c-0.4-0.7-0.8-1.3-1.1-2c-0.7-1.4-1.4-2.8-2.1-4.2c-9.2-0.3-17.9-4.4-25.3-8.1c-1.3,2.7-2.8,5.4-4.3,8
			c-3.6,6.4-7.2,12.7-8.4,19c5.9-2.5,11.9-3.7,17-2.4c4.9,1.3,8.5,4.9,10.6,10.7c3,8.1-0.9,13.5-5.5,15.7c-6.4,3.1-15.8,1.7-20.6-6
			c-3.2-5.1-4.2-10.1-3.9-14.9c-8.1,4-15.9,9.8-20.3,13.4c0.8,1.7,1.5,3.5,2.1,5.4l0.7,2c2,6.2,4.3,13.1,7.6,19.2
			c5.4-3.8,11-7.1,17.6-8.4c7.6-1.5,17.6,3,20.5,9.2c1.1,2.4,2.1,7.1-3.7,12c-5.8,4.8-15.9,5.9-22.6,2.4c-5.3-2.7-9.2-7.2-12.3-12.4
			c-1.6,1.2-3.2,2.4-4.8,3.7c-4.5,3.5-9.2,7.2-14.3,9.8c-1.4,0.7-2.8,1.4-4.2,2.1c-0.3,9.2-4.4,17.9-8.1,25.3c2.7,1.3,5.4,2.8,8,4.3
			c6.4,3.6,12.7,7.2,19,8.4c-2.5-5.9-3.7-11.9-2.4-17c1.3-4.9,4.9-8.5,10.7-10.6c8.1-3,13.5,0.9,15.7,5.5c3.1,6.4,1.7,15.8-6,20.6
			c-5.1,3.2-10.1,4.2-14.9,3.9c4,8.1,9.8,15.9,13.4,20.3c1.7-0.8,3.5-1.5,5.4-2.1l2-0.7c6.2-2,13.1-4.3,19.2-7.6
			c-3.8-5.4-7.1-11-8.4-17.6c-1.5-7.6,3-17.6,9.2-20.5c2.4-1.1,7.1-2.1,12,3.7c0.9,1.1,1.7,2.4,2.4,3.8v7.1
			c-0.4-3.6-1.7-7.1-3.9-9.6c-2.2-2.6-4.5-3.9-6.8-3.9c-1,0-1.9,0.2-2.9,0.7c-5.4,2.6-9.4,11.7-8.1,18.4c1.2,6.2,4.4,11.8,8.2,17
			c5-3,9.3-6.7,11.8-11.6c0.9-1.7,1.4-3.6,1.7-5.7v6.7c-2.7,5.2-7.2,9.2-12.4,12.2c1.2,1.6,2.4,3.2,3.7,4.8c3.1,3.9,6.2,8,8.7,12.3
			v4.2c-0.2-0.4-0.4-0.8-0.6-1.3c-2.5-4.9-6.1-9.5-9.6-14c-1.3-1.7-2.6-3.3-3.9-5c-6.3,3.4-13.4,5.8-19.7,7.9l-2,0.7
			c-1.6,0.6-3.2,1.2-4.7,1.8c0.1,0.1,0.2,0.3,0.3,0.4c4.2,4.9,8.8,13.9,8,22.7c-0.4,5.2-2.6,9.4-6.5,12.6c-6.6,5.5-11.6,3.7-14,2.2
			c-5.7-3.7-8.8-13.9-6.6-21.8c1.9-6.6,7.5-12.6,15.5-16.8c-3.8-4.7-9.9-12.9-13.8-21.4c-7.2-1.1-14.1-5-20.9-8.9
			c-2.6-1.5-5.2-3-7.9-4.3c-3.5,6.9-7.4,15-7.9,23.5c6.4-2.7,12.9-4.2,19.5-1.3c4.2,1.8,9.1,6.4,10.1,11.7c0.7,3.3-0.3,6.3-2.7,8.8
			c-3.6,3.7-8.6,5-13.9,3.5c-6.8-1.9-12.7-7.7-14.2-13.9c-0.5-1.9-0.7-3.8-0.8-5.7c-1.1,0.5-2.2,1.1-3.3,1.6
			c-4.9,2.5-9.5,6.1-14,9.6c-1.7,1.3-3.3,2.6-5,3.8c3.4,6.3,5.8,13.4,7.9,19.7l0.7,2c0.6,1.6,1.2,3.2,1.8,4.7
			c0.1-0.1,0.3-0.2,0.4-0.3c4.9-4.2,13.9-8.8,22.7-8c5.2,0.4,9.4,2.6,12.6,6.5c5.5,6.6,3.7,11.6,2.2,14c-3.7,5.7-13.9,8.8-21.8,6.6
			c-6.6-1.9-12.6-7.5-16.8-15.5c-4.7,3.8-12.9,9.9-21.4,13.8c-1.1,7.2-5,14.1-8.9,20.9c-1.5,2.6-3,5.2-4.3,7.9
			c6.9,3.5,15,7.4,23.5,7.9c-2.7-6.4-4.2-12.9-1.3-19.5c1.8-4.2,6.4-9.1,11.7-10.1c3.3-0.7,6.3,0.3,8.8,2.7c3.7,3.6,5,8.6,3.5,13.9
			c-1.9,6.8-7.7,12.7-13.9,14.2c-1.9,0.5-3.8,0.7-5.7,0.8c0.5,1.1,1.1,2.2,1.6,3.3c2.5,4.9,6.1,9.5,9.6,14c1.3,1.7,2.6,3.3,3.8,5
			c6.3-3.4,13.4-5.8,19.7-7.9l2-0.7c1.7-0.6,3.2-1.2,4.7-1.8c-0.1-0.1-0.2-0.3-0.3-0.4c-4.2-4.9-8.8-13.9-8-22.7
			c0.4-5.2,2.6-9.4,6.5-12.6c6.6-5.5,11.6-3.7,14-2.2c5.7,3.7,8.8,13.9,6.6,21.8c-1.9,6.6-7.5,12.6-15.5,16.8
			c3.8,4.7,9.9,12.9,13.8,21.4c7.2,1.1,14.1,5,20.9,8.9c2.6,1.5,5.2,3,7.9,4.3c3.5-6.9,7.4-15,7.9-23.5c-6.3,2.7-12.9,4.2-19.5,1.3
			c-4.2-1.8-9.1-6.4-10.1-11.7c-0.7-3.3,0.3-6.3,2.7-8.8c3.6-3.7,8.6-5,13.9-3.5c6.8,1.9,12.7,7.7,14.2,13.9
			c0.5,1.9,0.7,3.8,0.8,5.7c1.1-0.5,2.2-1.1,3.3-1.6c4.9-2.5,9.5-6.1,14-9.6c0.7-0.6,1.5-1.2,2.2-1.7v2.5c-0.3,0.3-0.7,0.5-1,0.8
			c-4.5,3.5-9.2,7.2-14.3,9.8c-1.4,0.7-2.8,1.4-4.2,2.1c-0.3,9.2-4.4,17.9-8.1,25.3c2.7,1.3,5.4,2.8,8,4.3c6.4,3.6,12.7,7.2,19,8.4
			c-2.5-5.9-3.7-11.9-2.4-17c0.6-2.1,1.6-4,3-5.7v3.4c-0.5,0.9-0.9,1.8-1.1,2.8c-1,3.8-0.4,8.2,1.1,12.6v5.9
			c-7.1-1.2-13.9-5-20.6-8.8C554.9-82.6,552.3-84.1,549.6-85.4z M503.3-56.1c-6.1-3.2-15.3-2.2-20.5,2.2c-3.7,3.1-4.8,6.4-3.2,9.7
			c2.6,5.4,11.7,9.4,18.4,8.1c6.2-1.2,11.8-4.4,17-8.2C512-49.3,508.2-53.6,503.3-56.1z M542.5-53.6c1.3,5.5,6.9,10.8,12.9,12.5
			c3.2,0.9,7.9,1.1,12-3c2-2,2.7-4.4,2.2-7.1c-0.9-4.6-5.3-8.7-8.9-10.3c-2.2-1-4.5-1.4-6.8-1.4c-4,0-8.1,1.3-12.1,3.1
			C541.7-57.7,542-55.6,542.5-53.6z M421.7-59.5c6.1,3.2,15.3,2.2,20.5-2.2c3.7-3.1,4.8-6.4,3.2-9.7c-2.2-4.7-9.5-8.4-15.7-8.4
			c-0.9,0-1.8,0.1-2.6,0.2c-6.2,1.2-11.8,4.4-17,8.2C413-66.3,416.7-62.1,421.7-59.5z M406.3-16.2c4.8,0.5,9.7-0.3,14.8-3.5
			c6.7-4.2,7.9-12.6,5.3-18.1c-1.7-3.6-4.8-5.5-8.5-5.5c-1.5,0-3.1,0.3-4.8,0.9c-5.2,1.9-8.4,5-9.5,9.3
			C402.2-28.2,403.7-22.2,406.3-16.2z M206.9-57.3c-7.2-2-16.3,0.7-19.6,5.7c-2.2,3.4-1.5,7.4,2.1,11.6c2.9,3.4,6.6,5.4,11.2,5.8
			c8.3,0.7,16.7-3.6,21.3-7.6c0.2-0.2,0.5-0.4,0.8-0.7C218.8-50.2,213.2-55.6,206.9-57.3z M251-41.4c4.2,6.7,12.6,7.9,18.1,5.3
			c5-2.4,6.7-7.4,4.6-13.3c-1.9-5.2-5-8.4-9.3-9.5c-1.3-0.3-2.6-0.5-4-0.5c-4,0-8.5,1.3-12.9,3.2C246.9-51.4,247.8-46.5,251-41.4z
			 M139.9-58.3c7.2,2,16.3-0.7,19.6-5.7c2.2-3.4,1.5-7.4-2.1-11.6c-2.9-3.4-6.6-5.4-11.2-5.8c-0.6-0.1-1.2-0.1-1.8-0.1
			c-7.7,0-15.2,4-19.5,7.7c-0.2,0.2-0.5,0.4-0.8,0.7C128.1-65.5,133.7-60,139.9-58.3z M113.7-21.4c2,0,4.1-0.3,6.1-0.8
			c5.5-1.3,10.8-6.9,12.5-12.9c0.9-3.2,1.1-7.9-3-12c-1.6-1.6-3.4-2.4-5.4-2.4c-0.5,0-1.1,0.1-1.6,0.2c-4.6,0.9-8.7,5.3-10.3,8.9
			C109.4-34,111-27.6,113.7-21.4z M56.1-74.8c3.2-6.1,2.2-15.3-2.2-20.5c-2.2-2.6-4.5-3.9-6.8-3.9c-1,0-1.9,0.2-2.9,0.7
			c-5.4,2.6-9.4,11.7-8.1,18.4c1.2,6.2,4.4,11.8,8.2,17C49.3-66.1,53.5-69.9,56.1-74.8z M59.7-36.4c-2,0-4.1,0.3-6.1,0.8
			c-5.5,1.3-10.8,6.9-12.5,12.9c-0.9,3.2-1.1,7.9,3,12c2,2,4.4,2.7,7.1,2.2c4.6-0.9,8.7-5.3,10.3-8.9C64.1-23.8,62.4-30.2,59.7-36.4
			z M95.9-74.2c-4.2-6.7-12.6-7.9-18.1-5.3c-5,2.4-6.7,7.4-4.6,13.3c1.9,5.2,5,8.4,9.3,9.5c4.9,1.3,10.9-0.1,16.8-2.8
			C99.9-64.2,99-69.1,95.9-74.2z M98.6-113.9c-6.1-3.2-15.3-2.2-20.5,2.2c-3.7,3.1-4.8,6.4-3.2,9.7c2.6,5.4,11.7,9.4,18.4,8.1
			c6.2-1.2,11.8-4.4,17-8.2C107.3-107.1,103.6-111.4,98.6-113.9z M137.8-111.4c1.3,5.5,6.9,10.8,12.9,12.5c3.2,0.9,8,1.1,12-3
			c2-2,2.7-4.4,2.2-7.1c-0.9-4.6-5.3-8.7-8.9-10.3c-2.2-1-4.5-1.4-6.8-1.4c-4,0-8.1,1.3-12.1,3.1
			C137.1-115.5,137.3-113.4,137.8-111.4z M19.7-157c4.2,6.7,12.6,7.9,18.1,5.3c5-2.4,6.7-7.4,4.6-13.3c-1.9-5.2-5-8.4-9.3-9.5
			c-1.3-0.3-2.6-0.5-4-0.5c-4,0-8.5,1.3-12.9,3.2C15.7-167,16.6-162.1,19.7-157z M40.8-287.4c-6.1-3.2-15.3-2.2-20.5,2.2
			c-3.7,3.1-4.8,6.4-3.2,9.7c2.6,5.4,11.7,9.4,18.4,8.1c6.2-1.2,11.8-4.4,17-8.2C49.5-280.5,45.8-284.8,40.8-287.4z M57.3-371.1
			c2-7.2-0.7-16.3-5.7-19.6c-1.3-0.8-2.6-1.2-4.1-1.2c-2.4,0-4.9,1.1-7.6,3.3c-3.4,2.9-5.4,6.6-5.8,11.2c-0.7,8.3,3.6,16.7,7.6,21.3
			c0.2,0.2,0.4,0.5,0.7,0.8C50.2-359.3,55.6-364.9,57.3-371.1z M56.2-330.6c-4.8-0.5-9.7,0.3-14.8,3.5c-6.7,4.2-7.9,12.6-5.3,18.1
			c2.4,5,7.4,6.7,13.3,4.6c5.2-1.9,8.4-5,9.5-9.3C60.2-318.7,58.8-324.7,56.2-330.6z M91.3-404.2c-7.2-2-16.3,0.7-19.6,5.7
			c-2.2,3.4-1.5,7.4,2.1,11.6c2.9,3.4,6.6,5.4,11.2,5.8c8.3,0.7,16.7-3.6,21.3-7.6c0.2-0.2,0.5-0.4,0.8-0.7
			C103.2-397,97.5-402.4,91.3-404.2z M22.2-458.2c1.3,5.5,6.9,10.8,12.9,12.5c3.2,0.9,8,1.1,12-3c2-2,2.7-4.4,2.2-7.1
			c-0.9-4.6-5.3-8.7-8.9-10.3c-2.2-1-4.5-1.4-6.8-1.4c-4,0-8.1,1.3-12.1,3.1C21.4-462.3,21.7-460.3,22.2-458.2z M74.8-522
			c6.1,3.2,15.3,2.2,20.5-2.2c3.7-3.1,4.8-6.4,3.2-9.7c-2.2-4.7-9.5-8.4-15.7-8.4c-0.9,0-1.8,0.1-2.6,0.2c-6.2,1.2-11.8,4.4-17,8.2
			C66.1-528.8,69.9-524.5,74.8-522z M35.6-524.5c-1.3-5.5-6.9-10.8-12.9-12.5c-3.2-0.9-7.9-1.1-12,3c-2,2-2.7,4.4-2.2,7.1
			c0.9,4.6,5.3,8.7,8.9,10.3c6.2,2.7,12.6,1,18.8-1.7C36.4-520.4,36.1-522.5,35.6-524.5z M74.2-482.2c6.7-4.2,7.9-12.6,5.3-18.1
			c-1.7-3.6-4.8-5.5-8.5-5.5c-1.5,0-3.1,0.3-4.8,0.9c-5.2,1.9-8.4,5-9.5,9.3c-1.3,4.9,0.1,10.9,2.8,16.8
			C64.2-478.2,69.1-479,74.2-482.2z M73.2-454c-7.8,3.9-13.2,9.6-14.9,15.8c-2,7.2,0.7,16.3,5.7,19.6c3.4,2.2,7.4,1.5,11.6-2.1
			c3.4-2.9,5.4-6.6,5.8-11.2c0.7-8.3-3.6-16.7-7.6-21.3C73.7-453.4,73.5-453.7,73.2-454z M113.9-479.5c3.2-6.1,2.2-15.3-2.2-20.5
			c-2.2-2.6-4.5-3.9-6.8-3.9c-1,0-1.9,0.2-2.9,0.7c-5.4,2.6-9.4,11.7-8.1,18.4c1.2,6.2,4.4,11.8,8.2,17
			C107.1-470.8,111.4-474.5,113.9-479.5z M117.5-441.1c-2,0-4.1,0.3-6.1,0.8c-5.5,1.3-10.8,6.9-12.5,12.9c-0.9,3.2-1.1,7.9,3,12
			c2,2,4.4,2.7,7.1,2.2c4.6-0.9,8.7-5.3,10.3-8.9C121.9-428.5,120.3-434.8,117.5-441.1z M156.4-518.6c-6.1-3.2-15.3-2.2-20.5,2.2
			c-3.7,3.1-4.8,6.4-3.2,9.7c2.6,5.4,11.7,9.4,18.4,8.1c6.2-1.2,11.8-4.4,17-8.2C165.1-511.7,161.4-516,156.4-518.6z M171.8-561.8
			c-4.8-0.5-9.7,0.3-14.8,3.5c-6.7,4.2-7.9,12.6-5.3,18.1c2.4,5,7.4,6.7,13.3,4.6c5.2-1.9,8.4-5,9.5-9.3
			C175.8-549.9,174.4-555.9,171.8-561.8z M371.1-520.8c7.2,2,16.3-0.7,19.6-5.7c2.2-3.4,1.5-7.4-2.1-11.6c-2.8-3.4-6.6-5.4-11.2-5.8
			c-0.6-0.1-1.2-0.1-1.8-0.1c-7.7,0-15.2,4-19.5,7.7c-0.2,0.2-0.5,0.4-0.8,0.7C359.3-527.9,364.9-522.5,371.1-520.8z M327.1-536.7
			c-4.2-6.7-12.6-7.9-18.1-5.3c-5,2.4-6.7,7.4-4.6,13.3c1.9,5.2,5,8.4,9.3,9.5c4.9,1.3,10.9-0.1,16.8-2.8
			C331.1-526.7,330.3-531.6,327.1-536.7z M438.2-519.8c-7.2-2-16.3,0.7-19.6,5.7c-2.2,3.4-1.5,7.4,2.1,11.6
			c2.8,3.4,6.6,5.4,11.2,5.8c8.3,0.7,16.7-3.6,21.3-7.6c0.2-0.2,0.5-0.4,0.8-0.7C450-512.6,444.4-518,438.2-519.8z M464.4-556.7
			c-2,0-4.1,0.3-6.1,0.8c-5.5,1.3-10.8,6.9-12.5,12.9c-0.9,3.2-1.1,7.9,3,12c2,2,4.4,2.7,7.1,2.2c4.6-0.9,8.7-5.3,10.3-8.9
			C468.7-544.1,467.1-550.5,464.4-556.7z M522-503.3c-3.2,6.1-2.2,15.3,2.2,20.5c3.1,3.7,6.4,4.8,9.7,3.2c5.4-2.6,9.4-11.7,8.1-18.4
			c-1.2-6.2-4.4-11.8-8.2-17C528.8-512,524.5-508.2,522-503.3z M518.4-541.7c2,0,4.1-0.3,6.1-0.8c5.5-1.3,10.8-6.9,12.5-12.9
			c0.9-3.2,1.1-7.9-3-12c-1.6-1.6-3.4-2.4-5.4-2.4c-0.5,0-1.1,0.1-1.6,0.2c-4.6,0.9-8.7,5.3-10.3,8.9
			C514-554.3,515.6-547.9,518.4-541.7z M482.2-503.9c4.2,6.7,12.6,7.9,18.1,5.3c5-2.4,6.7-7.4,4.6-13.3c-1.9-5.2-5-8.4-9.3-9.5
			c-1.3-0.3-2.6-0.5-4-0.5c-4,0-8.5,1.3-12.9,3.2C478.2-513.9,479-509,482.2-503.9z M479.5-464.2c6.1,3.2,15.3,2.2,20.5-2.2
			c3.7-3.1,4.8-6.4,3.2-9.7c-2.2-4.7-9.5-8.4-15.7-8.4c-0.9,0-1.8,0.1-2.6,0.2c-6.2,1.2-11.8,4.4-17,8.2
			C470.8-471,474.5-466.7,479.5-464.2z M440.3-466.7c-1.3-5.5-6.9-10.8-12.9-12.5c-3.2-0.9-7.9-1.1-12,3c-2,2-2.7,4.4-2.2,7.1
			c0.9,4.6,5.3,8.7,8.9,10.3c6.2,2.7,12.6,1,18.8-1.7C441-462.6,440.8-464.7,440.3-466.7z M558.3-421.1c-4.2-6.7-12.6-7.9-18.1-5.3
			c-5,2.4-6.7,7.4-4.6,13.3c1.9,5.2,5,8.4,9.3,9.5c4.9,1.3,10.9-0.1,16.8-2.8C562.4-411.1,561.5-416,558.3-421.1z M537.3-290.7
			c6.1,3.2,15.3,2.2,20.5-2.2c3.7-3.1,4.8-6.4,3.2-9.7c-2.2-4.7-9.5-8.4-15.7-8.4c-0.9,0-1.8,0.1-2.6,0.2c-6.2,1.2-11.8,4.4-17,8.2
			C528.6-297.6,532.3-293.3,537.3-290.7z M520.8-206.9c-2,7.2,0.7,16.3,5.7,19.6c3.4,2.2,7.4,1.5,11.6-2.1c3.4-2.9,5.4-6.6,5.8-11.2
			c0.7-8.3-3.6-16.7-7.6-21.3c-0.2-0.2-0.4-0.5-0.7-0.8C527.9-218.8,522.5-213.2,520.8-206.9z M521.9-247.5
			c4.8,0.5,9.7-0.3,14.8-3.5c6.7-4.2,7.9-12.6,5.3-18.1c-1.7-3.6-4.8-5.5-8.5-5.5c-1.5,0-3.1,0.3-4.8,0.9c-5.2,1.9-8.4,5-9.5,9.3
			C517.9-259.4,519.3-253.4,521.9-247.5z M486.8-173.9c7.2,2,16.3-0.7,19.6-5.7c2.2-3.4,1.5-7.4-2.1-11.6c-2.9-3.4-6.6-5.4-11.2-5.8
			c-0.6-0.1-1.2-0.1-1.8-0.1c-7.7,0-15.2,4-19.5,7.7c-0.2,0.2-0.5,0.4-0.8,0.7C474.9-181.1,480.6-175.7,486.8-173.9z M424.4-99.2
			c4.2,6.7,12.6,7.9,18.1,5.3c5-2.4,6.7-7.4,4.6-13.3c-1.9-5.2-5-8.4-9.3-9.5c-1.3-0.3-2.6-0.5-4-0.5c-4,0-8.5,1.3-12.9,3.2
			C420.4-109.2,421.2-104.3,424.4-99.2z M330.5-38.1c-6.7,4.2-7.9,12.6-5.3,18.1c2.4,5,7.4,6.7,13.3,4.6c5.2-1.9,8.4-5,9.5-9.3
			c1.3-4.9-0.1-10.9-2.8-16.8C340.4-42.1,335.6-41.2,330.5-38.1z M331.4-66.3c7.8-3.9,13.2-9.6,14.9-15.8c2-7.2-0.7-16.3-5.7-19.6
			c-1.3-0.8-2.6-1.2-4.1-1.2c-2.4,0-4.9,1.1-7.6,3.3c-3.4,2.9-5.4,6.6-5.8,11.2c-0.7,8.3,3.6,16.7,7.6,21.3
			C331-66.9,331.2-66.6,331.4-66.3z M290.7-40.8c-3.2,6.1-2.2,15.3,2.2,20.5c3.1,3.7,6.4,4.8,9.7,3.2c5.4-2.6,9.4-11.7,8.1-18.4
			c-1.2-6.2-4.4-11.8-8.2-17C297.6-49.5,293.3-45.8,290.7-40.8z M287.1-79.2c2,0,4.1-0.3,6.1-0.8c5.5-1.3,10.8-6.9,12.5-12.9
			c0.9-3.2,1.1-7.9-3-12c-1.6-1.6-3.4-2.4-5.4-2.4c-0.5,0-1.1,0.1-1.6,0.2c-4.6,0.9-8.7,5.3-10.3,8.9
			C282.8-91.8,284.4-85.4,287.1-79.2z M285-79.3c-2.7-6.3-4.2-12.9-1.3-19.5c1.8-4.2,6.4-9.1,11.7-10.1c3.3-0.7,6.3,0.3,8.8,2.7
			c3.7,3.6,5,8.6,3.5,13.9c-1.9,6.8-7.7,12.7-13.9,14.2c-1.9,0.5-3.8,0.7-5.7,0.8c0.5,1.1,1.1,2.2,1.6,3.3c2.5,4.9,6.1,9.5,9.6,14
			c1.3,1.7,2.6,3.3,3.8,5c6.3-3.4,13.4-5.8,19.7-7.9l2-0.7c1.6-0.6,3.2-1.2,4.7-1.8c-0.1-0.1-0.2-0.3-0.3-0.4
			c-4.2-4.9-8.8-13.9-8-22.7c0.4-5.2,2.6-9.4,6.5-12.6c6.6-5.5,11.6-3.7,14-2.2c5.7,3.7,8.8,13.9,6.6,21.8
			c-1.9,6.6-7.5,12.6-15.5,16.8c3.8,4.7,9.9,12.9,13.8,21.4c7.2,1.1,14.1,5,20.9,8.9c2.6,1.5,5.2,3,7.9,4.3c3.5-6.9,7.4-15,7.9-23.5
			c-6.3,2.7-12.9,4.2-19.5,1.3c-4.2-1.8-9.1-6.4-10.1-11.7c-0.7-3.3,0.3-6.3,2.7-8.8c3.6-3.7,8.6-5,13.9-3.5
			c6.8,1.9,12.7,7.7,14.2,13.9c0.5,1.9,0.7,3.8,0.8,5.7c1.1-0.5,2.2-1.1,3.3-1.6c4.9-2.5,9.5-6.1,14-9.6c1.7-1.3,3.3-2.6,5-3.9
			c-3.4-6.3-5.8-13.4-7.9-19.7l-0.7-2c-0.6-1.7-1.2-3.2-1.8-4.7c-0.1,0.1-0.3,0.2-0.4,0.3c-4.9,4.2-13.9,8.8-22.7,8
			c-5.2-0.4-9.4-2.6-12.6-6.5c-5.5-6.6-3.7-11.6-2.2-14c3.7-5.7,13.9-8.8,21.8-6.6c6.6,1.9,12.6,7.5,16.8,15.5
			c4.7-3.8,12.9-9.9,21.4-13.8c1.1-7.2,5-14.1,8.9-20.9c1.5-2.6,3-5.2,4.3-7.9c-6.9-3.5-15-7.4-23.5-7.9c2.7,6.4,4.2,12.9,1.3,19.5
			c-1.8,4.2-6.4,9.1-11.7,10.1c-0.7,0.1-1.3,0.2-2,0.2c-2.5,0-4.9-1-6.8-2.9c-3.7-3.6-5-8.6-3.5-13.9c1.9-6.8,7.7-12.7,13.9-14.2
			c1.9-0.5,3.8-0.7,5.7-0.8c-0.5-1.1-1.1-2.2-1.6-3.3c-2.5-4.9-6.1-9.5-9.6-14c-1.3-1.7-2.6-3.3-3.8-5c-6.3,3.4-13.4,5.8-19.7,7.9
			l-2,0.7c-1.6,0.6-3.2,1.2-4.7,1.8c0.1,0.1,0.2,0.3,0.3,0.4c4.2,4.9,8.8,13.9,8,22.7c-0.4,5.2-2.6,9.4-6.5,12.6
			c-6.6,5.5-11.6,3.7-14,2.2c-5.7-3.7-8.8-13.9-6.6-21.8c1.9-6.6,7.5-12.6,15.5-16.8c-3.8-4.7-9.9-12.9-13.8-21.4
			c-7.2-1.1-14.1-5-20.9-8.9c-2.6-1.5-5.2-3-7.9-4.3c-3.5,6.9-7.4,15-7.9,23.5c6.3-2.7,12.9-4.2,19.5-1.3c4.2,1.8,9.1,6.4,10.1,11.7
			c0.7,3.3-0.3,6.3-2.7,8.8c-3.6,3.7-8.6,5-13.9,3.5c-6.8-1.9-12.7-7.7-14.2-13.9c-0.5-1.9-0.7-3.8-0.8-5.7
			c-1.1,0.5-2.2,1.1-3.3,1.6c-4.9,2.5-9.5,6.1-14,9.6c-1.7,1.3-3.3,2.6-5,3.8c3.4,6.3,5.8,13.4,7.9,19.7l0.7,2
			c0.6,1.7,1.2,3.2,1.8,4.7c0.1-0.1,0.3-0.2,0.4-0.3c4.9-4.2,13.9-8.8,22.7-8c5.2,0.4,9.4,2.6,12.6,6.5c5.5,6.6,3.7,11.6,2.2,14
			c-3.7,5.7-13.9,8.8-21.8,6.6c-6.6-1.9-12.6-7.5-16.8-15.5c-4.7,3.8-12.9,9.9-21.4,13.8c-1.1,7.2-5,14.1-8.9,20.9
			c-1.5,2.6-3,5.2-4.3,7.9C268.4-83.7,276.5-79.8,285-79.3z M383.2-55.9c0-2-0.3-4.1-0.8-6.1c-1.3-5.5-6.9-10.8-12.9-12.5
			c-3.2-0.9-7.9-1.1-12,3c-2,2-2.7,4.4-2.2,7.1c0.9,4.6,5.3,8.7,8.9,10.3C370.6-51.6,377-53.2,383.2-55.9z M396.2-100.2
			c-3.9-7.8-9.6-13.2-15.8-14.9c-7.2-2-16.3,0.7-19.6,5.7c-2.2,3.4-1.5,7.4,2.1,11.6c2.9,3.4,6.6,5.4,11.2,5.8
			c8.3,0.7,16.7-3.6,21.3-7.6C395.6-99.7,395.9-100,396.2-100.2z M406.6-152c-2,0-4.1,0.3-6.1,0.8c-5.5,1.3-10.8,6.9-12.5,12.9
			c-0.9,3.2-1.1,8,3,12c2,2,4.4,2.7,7.1,2.2c4.6-0.9,8.7-5.3,10.3-8.9C410.9-139.4,409.3-145.8,406.6-152z M391.1-178.8
			c5-3,9.3-6.7,11.8-11.6c3.2-6.1,2.2-15.3-2.2-20.5c-2.2-2.6-4.5-3.9-6.8-3.9c-1,0-1.9,0.2-2.9,0.7c-5.4,2.6-9.4,11.7-8.1,18.4
			C384.2-189.5,387.4-184,391.1-178.8z M362.9-164.1c-0.2-0.2-0.4-0.5-0.7-0.8c-7.8,3.9-13.2,9.6-14.9,15.8
			c-2,7.2,0.7,16.3,5.7,19.6c3.4,2.2,7.4,1.5,11.6-2.1c3.4-2.9,5.4-6.6,5.8-11.2C371.2-151.1,366.9-159.5,362.9-164.1z M348.5-189.7
			c4.8,0.5,9.7-0.3,14.8-3.5c6.7-4.2,7.9-12.6,5.3-18.1c-1.7-3.6-4.8-5.5-8.5-5.5c-1.5,0-3.1,0.3-4.8,0.9c-5.2,1.9-8.4,5-9.5,9.3
			C344.4-201.6,345.9-195.6,348.5-189.7z M305.8-225.8c-4.2-1.8-9.1-6.4-10.1-11.7c-0.7-3.3,0.3-6.3,2.7-8.8c3.6-3.7,8.6-5,13.9-3.5
			c6.8,1.9,12.7,7.7,14.2,13.9c0.5,1.9,0.7,3.8,0.8,5.7c1.1-0.5,2.2-1.1,3.3-1.6c4.9-2.5,9.5-6.1,14-9.6c1.7-1.3,3.3-2.6,5-3.8
			c-3.4-6.3-5.8-13.4-7.9-19.7l-0.7-2c-0.6-1.7-1.2-3.2-1.8-4.7c-0.1,0.1-0.3,0.2-0.4,0.3c-4.9,4.2-13.9,8.8-22.7,8
			c-5.2-0.4-9.4-2.6-12.6-6.5c-5.5-6.6-3.7-11.6-2.2-14c3.7-5.7,13.9-8.8,21.8-6.6c6.6,1.9,12.6,7.5,16.8,15.5
			c4.7-3.8,12.9-9.9,21.4-13.8c1.1-7.2,5-14.1,8.9-20.9c1.5-2.6,3-5.2,4.3-7.9c-6.9-3.5-15-7.4-23.5-7.9c2.7,6.4,4.2,12.9,1.3,19.5
			c-1.8,4.2-6.4,9.1-11.7,10.1c-0.7,0.1-1.3,0.2-2,0.2c-2.5,0-4.9-1-6.8-2.9c-3.7-3.6-5-8.6-3.5-13.9c1.9-6.8,7.7-12.7,13.9-14.2
			c1.9-0.5,3.8-0.7,5.7-0.8c-0.5-1.1-1.1-2.2-1.6-3.3c-2.5-4.9-6.1-9.5-9.6-14c-1.3-1.7-2.6-3.3-3.8-5c-6.3,3.4-13.4,5.8-19.7,7.9
			l-2,0.7c-1.6,0.6-3.2,1.2-4.7,1.8c0.1,0.1,0.2,0.3,0.3,0.4c4.2,4.9,8.8,13.9,8,22.7c-0.4,5.2-2.6,9.4-6.5,12.6
			c-6.6,5.5-11.6,3.7-14,2.2c-5.7-3.7-8.8-13.9-6.6-21.8c1.9-6.6,7.5-12.6,15.5-16.8c-3.8-4.7-9.9-12.9-13.8-21.4
			c-7.2-1.1-14.1-5-20.9-8.9c-2.6-1.5-5.2-3-7.9-4.3c-3.5,6.9-7.4,15-7.9,23.5c6.3-2.7,12.9-4.2,19.5-1.3c4.2,1.8,9.1,6.4,10.1,11.7
			c0.7,3.3-0.3,6.3-2.7,8.8c-3.6,3.7-8.6,5-13.9,3.5c-6.8-1.9-12.7-7.7-14.2-13.9c-0.5-1.9-0.7-3.8-0.8-5.7
			c-1.1,0.5-2.2,1.1-3.3,1.6c-4.9,2.5-9.5,6.1-14,9.6c-1.7,1.3-3.3,2.6-5,3.8c3.4,6.3,5.8,13.4,7.9,19.7l0.7,2
			c0.6,1.7,1.2,3.2,1.8,4.7c0.1-0.1,0.3-0.2,0.4-0.3c4.9-4.2,13.9-8.8,22.7-8c5.2,0.4,9.4,2.6,12.6,6.5c5.5,6.6,3.7,11.6,2.2,14
			c-3.7,5.7-13.9,8.8-21.8,6.6c-6.6-1.9-12.6-7.5-16.8-15.5c-4.7,3.8-12.9,9.9-21.4,13.8c-1.1,7.2-5,14.1-8.9,20.9
			c-1.5,2.6-3,5.2-4.3,7.9c6.9,3.5,15,7.4,23.5,7.9c-2.7-6.4-4.2-12.9-1.3-19.5c1.8-4.2,6.4-9.1,11.7-10.1c3.3-0.7,6.3,0.3,8.8,2.7
			c3.7,3.6,5,8.6,3.5,13.9c-1.9,6.8-7.7,12.7-13.9,14.2c-1.9,0.5-3.8,0.7-5.7,0.8c0.5,1.1,1.1,2.2,1.6,3.3c2.5,4.9,6.1,9.5,9.6,14
			c1.3,1.7,2.6,3.3,3.8,5c6.3-3.4,13.4-5.8,19.7-7.9l2-0.7c1.7-0.6,3.2-1.2,4.7-1.8c-0.1-0.1-0.2-0.3-0.3-0.4
			c-4.2-4.9-8.8-13.9-8-22.7c0.4-5.2,2.6-9.4,6.5-12.6c6.6-5.5,11.6-3.7,14-2.2c5.7,3.7,8.8,13.9,6.6,21.8
			c-1.9,6.6-7.5,12.6-15.5,16.8c3.8,4.7,9.9,12.9,13.8,21.4c7.2,1.1,14.1,5,20.9,8.9c2.6,1.5,5.2,3,7.9,4.3c3.5-6.9,7.4-15,7.9-23.5
			C319-224.5,312.4-223,305.8-225.8z M325.4-229.3c0-2-0.3-4.1-0.8-6.1c-1.3-5.5-6.9-10.8-12.9-12.5c-3.2-0.9-8-1.1-12,3
			c-2,2-2.7,4.4-2.2,7.1c0.9,4.6,5.3,8.7,8.9,10.3C312.8-225,319.2-226.6,325.4-229.3z M338.3-273.6c-3.9-7.8-9.6-13.2-15.8-14.9
			c-7.2-2-16.3,0.7-19.6,5.7c-2.2,3.4-1.5,7.4,2.1,11.6c2.9,3.4,6.6,5.4,11.2,5.8c8.3,0.7,16.7-3.6,21.3-7.6
			C337.8-273.2,338.1-273.4,338.3-273.6z M366.6-272.6c4.2,6.7,12.6,7.9,18.1,5.3c5-2.4,6.7-7.4,4.6-13.3c-1.9-5.2-5-8.4-9.3-9.5
			c-1.3-0.3-2.6-0.5-4-0.5c-4,0-8.5,1.3-12.9,3.2C362.6-282.6,363.4-277.7,366.6-272.6z M348.7-325.4c-2,0-4.1,0.3-6.1,0.8
			c-5.5,1.3-10.8,6.9-12.5,12.9c-0.9,3.2-1.1,7.9,3,12c2,2,4.4,2.7,7.1,2.2c4.6-0.9,8.7-5.3,10.3-8.9
			C353.1-312.8,351.5-319.2,348.7-325.4z M333.3-352.2c5-3,9.3-6.7,11.8-11.6c3.2-6.1,2.2-15.3-2.2-20.5c-2.2-2.6-4.5-3.9-6.8-3.9
			c-1,0-1.9,0.2-2.9,0.7c-5.4,2.6-9.4,11.7-8.1,18.4C326.3-362.9,329.6-357.4,333.3-352.2z M305.1-337.6c-0.2-0.2-0.4-0.5-0.7-0.8
			c-7.8,3.9-13.2,9.6-14.9,15.8c-2,7.2,0.7,16.3,5.7,19.6c3.4,2.2,7.4,1.5,11.6-2.1c3.4-2.9,5.4-6.6,5.8-11.2
			C313.4-324.5,309.1-332.9,305.1-337.6z M290.7-363.1c4.8,0.5,9.7-0.3,14.8-3.5c6.7-4.2,7.9-12.6,5.3-18.1
			c-1.7-3.6-4.8-5.5-8.5-5.5c-1.5,0-3.1,0.3-4.8,0.9c-5.2,1.9-8.4,5-9.5,9.3C286.6-375,288.1-369,290.7-363.1z M252.7-348.8
			c0,2,0.3,4.1,0.8,6.1c1.3,5.5,6.9,10.8,12.9,12.5c3.2,0.9,7.9,1.1,12-3c2-2,2.7-4.4,2.2-7.1c-0.9-4.6-5.3-8.7-8.9-10.3
			c-2.2-1-4.5-1.4-6.7-1.4C260.7-351.8,256.6-350.5,252.7-348.8z M239.7-304.5c3.9,7.8,9.6,13.2,15.8,14.9c7.2,2,16.3-0.7,19.6-5.7
			c2.2-3.4,1.5-7.4-2.1-11.6c-2.9-3.4-6.6-5.4-11.2-5.8c-0.6-0.1-1.2-0.1-1.8-0.1c-7.7,0-15.2,4-19.5,7.7
			C240.3-304.9,240-304.7,239.7-304.5z M211.5-305.4c-4.2-6.7-12.6-7.9-18.1-5.3c-5,2.4-6.7,7.4-4.6,13.3c1.9,5.2,5,8.4,9.3,9.5
			c4.9,1.3,10.9-0.1,16.8-2.8C215.5-295.5,214.7-300.3,211.5-305.4z M229.3-252.7c2,0,4.1-0.3,6.1-0.8c5.5-1.3,10.8-6.9,12.5-12.9
			c0.9-3.2,1.1-7.9-3-12c-1.6-1.6-3.4-2.4-5.4-2.4c-0.5,0-1.1,0.1-1.6,0.2c-4.6,0.9-8.7,5.3-10.3,8.9
			C225-265.3,226.6-258.9,229.3-252.7z M244.8-225.9c-5,3-9.3,6.7-11.8,11.6c-3.2,6.1-2.2,15.3,2.2,20.5c3.1,3.7,6.4,4.8,9.7,3.2
			c5.4-2.6,9.4-11.7,8.1-18.4C251.7-215.1,248.5-220.7,244.8-225.9z M273-240.5c0.2,0.2,0.4,0.5,0.7,0.8c7.8-3.9,13.2-9.6,14.9-15.8
			c2-7.2-0.7-16.3-5.7-19.6c-1.3-0.8-2.6-1.2-4.1-1.2c-2.4,0-4.9,1.1-7.6,3.3c-3.4,2.8-5.4,6.6-5.8,11.2
			C264.7-253.6,269-245.2,273-240.5z M287.4-215c-4.8-0.5-9.7,0.3-14.8,3.5c-6.7,4.2-7.9,12.6-5.3,18.1c2.4,5,7.4,6.7,13.3,4.6
			c5.2-1.9,8.4-5,9.5-9.3C291.5-203.1,290-209.1,287.4-215z M310.5-175.3c0,2,0.3,4.1,0.8,6.1c1.3,5.5,6.9,10.8,12.9,12.5
			c3.2,0.9,7.9,1.1,12-3c2-2,2.7-4.4,2.2-7.1c-0.9-4.6-5.3-8.7-8.9-10.3c-2.2-1-4.5-1.4-6.7-1.4
			C318.5-178.4,314.4-177.1,310.5-175.3z M297.6-131c3.9,7.8,9.6,13.2,15.8,14.9c7.2,2,16.3-0.7,19.6-5.7c2.2-3.4,1.5-7.4-2.1-11.6
			c-2.9-3.4-6.6-5.4-11.2-5.8c-0.6-0.1-1.2-0.1-1.8-0.1c-7.7,0-15.2,4-19.5,7.7C298.1-131.5,297.8-131.3,297.6-131z M269.3-132
			c-4.2-6.7-12.6-7.9-18.1-5.3c-5,2.4-6.7,7.4-4.6,13.3c1.9,5.2,5,8.4,9.3,9.5c4.9,1.3,10.9-0.1,16.8-2.8
			C273.3-122,272.5-126.9,269.3-132z M227-93.4c-5.5,1.3-10.8,6.9-12.5,12.9c-0.9,3.2-1.1,7.9,3,12c2,2,4.4,2.7,7.1,2.2
			c4.6-0.9,8.7-5.3,10.3-8.9c2.7-6.2,1-12.6-1.7-18.8C231.1-94.2,229-93.9,227-93.4z M217.7-121c5-3,9.3-6.7,11.8-11.6
			c3.2-6.1,2.2-15.3-2.2-20.5c-2.2-2.6-4.5-3.9-6.8-3.9c-1,0-1.9,0.2-2.9,0.7c-5.4,2.6-9.4,11.7-8.1,18.4
			C210.7-131.7,213.9-126.2,217.7-121z M173.9-91.3c-2,7.2,0.7,16.3,5.7,19.6c3.4,2.2,7.4,1.5,11.6-2.1c3.4-2.9,5.4-6.6,5.8-11.2
			c0.7-8.3-3.6-16.7-7.6-21.3c-0.2-0.2-0.4-0.5-0.7-0.8C181.1-103.2,175.7-97.5,173.9-91.3z M175.1-131.9c4.8,0.5,9.7-0.3,14.8-3.5
			c6.7-4.2,7.9-12.6,5.3-18.1c-1.7-3.6-4.8-5.5-8.5-5.5c-1.5,0-3.1,0.3-4.8,0.9c-5.2,1.9-8.4,5-9.5,9.3
			C171-143.8,172.4-137.8,175.1-131.9z M153.8-140.6c6.4,3.6,12.7,7.2,19,8.4c-2.5-5.9-3.7-11.9-2.4-17c1.3-4.9,4.9-8.5,10.7-10.6
			c8.1-3,13.5,0.9,15.7,5.5c3.1,6.4,1.7,15.8-6,20.6c-5.1,3.2-10.1,4.2-14.9,3.9c4,8.1,9.8,15.9,13.4,20.3c1.7-0.8,3.5-1.5,5.4-2.1
			l2-0.7c6.2-2,13.1-4.3,19.2-7.6c-3.8-5.4-7.1-11-8.4-17.6c-1.5-7.6,3-17.6,9.2-20.5c2.4-1.1,7.1-2.1,12,3.7
			c4.8,5.8,5.9,15.9,2.4,22.6c-2.7,5.3-7.2,9.2-12.4,12.3c1.2,1.6,2.4,3.2,3.7,4.8c3.5,4.5,7.2,9.2,9.8,14.3
			c0.7,1.4,1.4,2.8,2.1,4.2c9.2,0.3,17.9,4.4,25.3,8.1c1.3-2.7,2.8-5.4,4.3-8c3.6-6.4,7.2-12.7,8.4-19c-5.9,2.5-11.9,3.7-17,2.4
			c-4.9-1.3-8.5-4.9-10.6-10.7c-3-8.1,0.9-13.5,5.5-15.7c6.4-3.1,15.8-1.7,20.6,6c3.2,5.1,4.2,10.1,3.9,14.9
			c8.1-4,15.9-9.8,20.3-13.4c-0.8-1.7-1.5-3.5-2.1-5.4l-0.7-2c-2-6.2-4.3-13.1-7.6-19.2c-5.4,3.8-11,7.1-17.6,8.4
			c-7.6,1.4-17.6-3-20.5-9.2c-1.1-2.4-2.1-7.1,3.7-12c5.8-4.8,15.9-5.9,22.6-2.4c5.3,2.7,9.2,7.2,12.3,12.4c1.6-1.2,3.2-2.4,4.8-3.7
			c4.5-3.5,9.2-7.2,14.3-9.8c1.4-0.7,2.8-1.4,4.2-2.1c0.3-9.2,4.4-17.9,8.1-25.3c-2.7-1.3-5.4-2.8-8-4.3c-6.4-3.6-12.7-7.2-19-8.4
			c2.5,5.9,3.7,11.9,2.4,17c-1.3,4.9-4.9,8.5-10.7,10.6c-2,0.7-3.8,1-5.4,1c-5.1,0-8.6-3.1-10.3-6.6c-3.1-6.4-1.7-15.8,6-20.6
			c5.1-3.2,10.1-4.2,14.9-3.9c-4-8.1-9.8-15.9-13.4-20.3c-1.7,0.8-3.5,1.5-5.4,2.1l-2,0.7c-6.2,2-13.1,4.3-19.2,7.6
			c3.8,5.4,7.1,11,8.4,17.6c1.5,7.6-3,17.6-9.2,20.5c-2.4,1.1-7.1,2.1-12-3.7c-4.8-5.8-5.9-15.9-2.4-22.6c2.7-5.3,7.2-9.2,12.4-12.3
			c-1.2-1.6-2.4-3.2-3.7-4.8c-3.5-4.5-7.2-9.2-9.8-14.3c-0.7-1.4-1.4-2.8-2.1-4.2c-9.2-0.3-17.9-4.4-25.3-8.1
			c-1.3,2.7-2.8,5.4-4.3,8c-3.6,6.4-7.2,12.7-8.4,19c5.9-2.5,11.9-3.7,17-2.4c4.9,1.3,8.5,4.9,10.6,10.7c3,8.1-0.9,13.5-5.5,15.7
			c-6.4,3.1-15.8,1.7-20.6-6c-3.2-5.1-4.2-10.1-3.9-14.9c-8.1,4-15.9,9.8-20.3,13.4c0.8,1.7,1.5,3.5,2.1,5.4l0.7,2
			c2,6.2,4.3,13.1,7.6,19.2c5.4-3.8,11-7.1,17.6-8.4c7.6-1.5,17.6,3,20.5,9.2c1.1,2.4,2.1,7.1-3.7,12c-5.8,4.8-15.9,5.9-22.6,2.4
			c-5.3-2.7-9.2-7.2-12.3-12.4c-1.6,1.2-3.2,2.4-4.8,3.7c-4.5,3.5-9.2,7.2-14.3,9.8c-1.4,0.7-2.8,1.4-4.2,2.1
			c-0.3,9.2-4.4,17.9-8.1,25.3C148.5-143.6,151.2-142.1,153.8-140.6z M283.7-159.9c-3-5-6.7-9.3-11.6-11.8
			c-6.1-3.2-15.3-2.2-20.5,2.2c-3.7,3.1-4.8,6.4-3.2,9.7c2.6,5.4,11.7,9.4,18.4,8.1C273-152.9,278.5-156.1,283.7-159.9z
			 M189.7-229.6c-0.5,4.8,0.3,9.7,3.5,14.8c4.2,6.7,12.6,7.9,18.1,5.3c5-2.4,6.7-7.4,4.6-13.3c-1.9-5.2-5-8.4-9.3-9.5
			c-1.3-0.3-2.6-0.5-4-0.5C198.5-232.8,194.1-231.5,189.7-229.6z M178.8-187c3,5,6.7,9.3,11.6,11.8c6.1,3.2,15.3,2.2,20.5-2.2
			c3.7-3.1,4.8-6.4,3.2-9.7c-2.2-4.7-9.5-8.4-15.7-8.4c-0.9,0-1.8,0.1-2.6,0.2C189.5-193.9,184-190.7,178.8-187z M99.2-153.7
			c-6.7,4.2-7.9,12.6-5.3,18.1c2.4,5,7.4,6.7,13.3,4.6c5.2-1.9,8.4-5,9.5-9.3c1.3-4.9-0.1-10.9-2.8-16.8
			C109.2-157.7,104.3-156.9,99.2-153.7z M100.2-181.9c7.8-3.9,13.2-9.6,14.9-15.8c2-7.2-0.7-16.3-5.7-19.6c-1.3-0.8-2.6-1.2-4.1-1.2
			c-2.4,0-4.9,1.1-7.6,3.3c-3.4,2.9-5.4,6.6-5.8,11.2c-0.7,8.3,3.6,16.7,7.6,21.3C99.7-182.5,100-182.2,100.2-181.9z M59.5-156.4
			c-3.2,6.1-2.2,15.3,2.2,20.5c3.1,3.7,6.4,4.8,9.7,3.2c5.4-2.6,9.4-11.7,8.1-18.4c-1.2-6.2-4.4-11.8-8.2-17
			C66.3-165.1,62.1-161.4,59.5-156.4z M55.9-194.8c2,0,4.1-0.3,6.1-0.8c5.5-1.3,10.8-6.9,12.5-12.9c0.9-3.2,1.1-7.9-3-12
			c-1.6-1.6-3.4-2.4-5.4-2.4c-0.5,0-1.1,0.1-1.6,0.2c-4.6,0.9-8.7,5.3-10.3,8.9C51.6-207.4,53.2-201.1,55.9-194.8z M38.1-247.6
			c-4.2-6.7-12.6-7.9-18.1-5.3c-5,2.4-6.7,7.4-4.6,13.3c1.9,5.2,5,8.4,9.3,9.5c4.9,1.3,10.9-0.1,16.8-2.8
			C42.1-237.7,41.2-242.5,38.1-247.6z M79.3-293.1c6.3-2.7,12.9-4.2,19.5-1.3c4.2,1.8,9.1,6.4,10.1,11.7c0.7,3.3-0.3,6.3-2.7,8.8
			c-3.6,3.7-8.6,5-13.9,3.5c-6.8-1.9-12.7-7.7-14.2-13.9c-0.5-1.9-0.7-3.8-0.8-5.7c-1.1,0.5-2.2,1.1-3.3,1.6
			c-4.9,2.5-9.5,6.1-14,9.6c-1.7,1.3-3.3,2.6-5,3.8c3.4,6.3,5.8,13.4,7.9,19.7l0.7,2c0.6,1.6,1.2,3.2,1.8,4.7
			c0.1-0.1,0.3-0.2,0.4-0.3c4.9-4.2,13.9-8.8,22.7-8c5.2,0.4,9.4,2.6,12.6,6.5c5.5,6.6,3.7,11.6,2.2,14c-3.7,5.7-13.9,8.8-21.8,6.6
			c-6.6-1.9-12.6-7.5-16.8-15.5c-4.7,3.8-12.9,9.9-21.4,13.8c-1.1,7.2-5,14.1-8.9,20.9c-1.5,2.6-3,5.2-4.3,7.9
			c6.9,3.5,15,7.4,23.5,7.9c-2.7-6.3-4.2-12.9-1.3-19.5c1.8-4.2,6.4-9.1,11.7-10.1c3.3-0.7,6.3,0.3,8.8,2.7c3.7,3.6,5,8.6,3.5,13.9
			c-1.9,6.8-7.7,12.7-13.9,14.2c-1.9,0.5-3.8,0.7-5.7,0.8c0.5,1.1,1.1,2.2,1.6,3.3c2.5,4.9,6.1,9.5,9.6,14c1.3,1.7,2.6,3.3,3.8,5
			c6.3-3.4,13.4-5.8,19.7-7.9l2-0.7c1.7-0.6,3.2-1.2,4.7-1.8c-0.1-0.1-0.2-0.3-0.3-0.4c-4.2-4.9-8.8-13.9-8-22.7
			c0.4-5.2,2.6-9.4,6.5-12.6c6.6-5.5,11.6-3.7,14-2.2c5.7,3.7,8.8,13.9,6.6,21.8c-1.9,6.6-7.5,12.6-15.5,16.8
			c3.8,4.7,9.9,12.9,13.8,21.4c7.2,1.1,14.1,5,20.9,8.9c2.6,1.5,5.2,3,7.9,4.3c3.5-6.9,7.4-15,7.9-23.5c-6.3,2.7-12.9,4.2-19.5,1.3
			c-4.2-1.8-9.1-6.4-10.1-11.7c-0.7-3.3,0.3-6.3,2.7-8.8c3.6-3.7,8.6-5,13.9-3.5c6.8,1.9,12.7,7.7,14.2,13.9
			c0.5,1.9,0.7,3.8,0.8,5.7c1.1-0.5,2.2-1.1,3.3-1.6c4.9-2.5,9.5-6.1,14-9.6c1.7-1.3,3.3-2.6,5-3.8c-3.4-6.3-5.8-13.4-7.9-19.7
			l-0.7-2c-0.6-1.7-1.2-3.2-1.8-4.7c-0.1,0.1-0.3,0.2-0.4,0.3c-4.9,4.2-13.9,8.8-22.7,8c-5.2-0.4-9.4-2.6-12.6-6.5
			c-5.5-6.6-3.7-11.6-2.2-14c3.7-5.7,13.9-8.8,21.8-6.6c6.6,1.9,12.6,7.5,16.8,15.5c4.7-3.8,12.9-9.9,21.4-13.8
			c1.1-7.2,5-14.1,8.9-20.9c1.5-2.6,3-5.2,4.3-7.9c-6.9-3.5-15-7.4-23.5-7.9c2.7,6.3,4.2,12.9,1.3,19.5c-1.8,4.2-6.4,9.1-11.7,10.1
			c-0.7,0.1-1.3,0.2-2,0.2c-2.5,0-4.9-1-6.8-2.9c-3.7-3.6-5-8.6-3.5-13.9c1.9-6.8,7.7-12.7,13.9-14.2c1.9-0.5,3.8-0.7,5.7-0.8
			c-0.5-1.1-1.1-2.2-1.6-3.3c-2.5-4.9-6.1-9.5-9.6-14c-1.3-1.7-2.6-3.3-3.8-5c-6.3,3.4-13.4,5.8-19.7,7.9l-2,0.7
			c-1.7,0.6-3.2,1.2-4.7,1.8c0.1,0.1,0.2,0.3,0.3,0.4c4.2,4.9,8.8,13.9,8,22.7c-0.4,5.2-2.6,9.4-6.5,12.6c-6.6,5.5-11.6,3.7-14,2.2
			c-5.7-3.7-8.8-13.9-6.6-21.8c1.9-6.6,7.5-12.6,15.5-16.8c-3.8-4.7-9.9-12.9-13.8-21.4c-7.2-1.1-14.1-5-20.9-8.9
			c-2.6-1.5-5.2-3-7.9-4.3C83.7-309.7,79.8-301.6,79.3-293.1z M79.2-290.9c0,2,0.3,4.1,0.8,6.1c1.3,5.5,6.9,10.8,12.9,12.5
			c3.2,0.9,8,1.1,12-3c2-2,2.7-4.4,2.2-7.1c-0.9-4.6-5.3-8.7-8.9-10.3c-2.2-1-4.5-1.4-6.8-1.4C87.3-294,83.2-292.7,79.2-290.9z
			 M66.3-246.7c3.9,7.8,9.6,13.2,15.8,14.9c7.2,2,16.3-0.7,19.6-5.7c2.2-3.4,1.5-7.4-2.1-11.6c-2.9-3.4-6.6-5.4-11.2-5.8
			c-0.6-0.1-1.2-0.1-1.8-0.1c-7.7,0-15.2,4-19.5,7.7C66.9-247.1,66.6-246.9,66.3-246.7z M152-171.5c0-2-0.3-4.1-0.8-6.1
			c-1.3-5.5-6.9-10.8-12.9-12.5c-3.2-0.9-8-1.1-12,3c-2,2-2.7,4.4-2.2,7.1c0.9,4.6,5.3,8.7,8.9,10.3
			C139.4-167.2,145.8-168.8,152-171.5z M164.9-215.8c-3.9-7.8-9.6-13.2-15.8-14.9c-7.2-2-16.3,0.7-19.6,5.7
			c-2.2,3.4-1.5,7.4,2.1,11.6c2.9,3.4,6.6,5.4,11.2,5.8c8.3,0.7,16.7-3.6,21.3-7.6C164.4-215.4,164.6-215.6,164.9-215.8z
			 M175.3-267.6c-2,0-4.1,0.3-6.1,0.8c-5.5,1.3-10.8,6.9-12.5,12.9c-0.9,3.2-1.1,7.9,3,12c2,2,4.4,2.7,7.1,2.2
			c4.6-0.9,8.7-5.3,10.3-8.9C179.7-255,178.1-261.4,175.3-267.6z M159.9-294.4c5-3,9.3-6.7,11.8-11.6c3.2-6.1,2.2-15.3-2.2-20.5
			c-2.2-2.6-4.5-3.9-6.8-3.9c-1,0-1.9,0.2-2.9,0.7c-5.4,2.6-9.4,11.7-8.1,18.4C152.9-305.1,156.1-299.6,159.9-294.4z M131.7-279.8
			c-0.2-0.2-0.4-0.5-0.7-0.8c-7.8,3.9-13.2,9.6-14.9,15.8c-2,7.2,0.7,16.3,5.7,19.6c3.4,2.2,7.4,1.5,11.6-2.1
			c3.4-2.9,5.4-6.6,5.8-11.2C140-266.7,135.6-275.1,131.7-279.8z M117.3-305.3c4.8,0.5,9.7-0.3,14.8-3.5c6.7-4.2,7.9-12.6,5.3-18.1
			c-1.7-3.6-4.8-5.5-8.5-5.5c-1.5,0-3.1,0.3-4.8,0.9c-5.2,1.9-8.4,5-9.5,9.3C113.2-317.2,114.6-311.2,117.3-305.3z M93.4-351.1
			c-1.3-5.5-6.9-10.8-12.9-12.5c-3.2-0.9-7.9-1.1-12,3c-2,2-2.7,4.4-2.2,7.1c0.9,4.6,5.3,8.7,8.9,10.3c6.2,2.7,12.6,1,18.8-1.7
			C94.2-347,93.9-349,93.4-351.1z M135.4-388.3c4.2,6.7,12.6,7.9,18.1,5.3c5-2.4,6.7-7.4,4.6-13.3c-1.9-5.2-5-8.4-9.3-9.5
			c-1.3-0.3-2.6-0.5-4-0.5c-4,0-8.5,1.3-12.9,3.2C131.3-398.2,132.2-393.4,135.4-388.3z M140.6-424.3c-3.6,6.4-7.2,12.7-8.4,19
			c5.9-2.5,11.9-3.7,17-2.4c4.9,1.3,8.5,4.9,10.6,10.7c3,8.1-0.9,13.5-5.5,15.7c-6.4,3.1-15.8,1.7-20.6-6
			c-3.2-5.1-4.2-10.1-3.9-14.9c-8.1,4-15.9,9.8-20.3,13.4c0.8,1.7,1.5,3.5,2.1,5.4l0.7,2c2,6.2,4.3,13.1,7.6,19.2
			c5.4-3.8,11-7.1,17.6-8.4c7.6-1.5,17.6,3,20.5,9.2c1.1,2.4,2.1,7.1-3.7,12c-5.8,4.8-15.9,5.9-22.6,2.4c-5.3-2.7-9.2-7.2-12.3-12.4
			c-1.6,1.2-3.2,2.4-4.8,3.7c-4.5,3.5-9.2,7.2-14.3,9.8c-1.4,0.7-2.8,1.4-4.2,2.1c-0.3,9.2-4.4,17.9-8.1,25.3c2.7,1.3,5.4,2.8,8,4.3
			c6.4,3.6,12.7,7.2,19,8.4c-2.5-5.9-3.7-11.9-2.4-17c1.3-4.9,4.9-8.5,10.7-10.6c8.1-3,13.5,0.9,15.7,5.5c3.1,6.4,1.7,15.8-6,20.6
			c-5.1,3.2-10.1,4.2-14.9,3.9c4,8.1,9.8,15.9,13.4,20.3c1.7-0.8,3.5-1.5,5.4-2.1l2-0.7c6.2-2,13.1-4.3,19.2-7.6
			c-3.8-5.4-7.1-11-8.4-17.6c-1.5-7.6,3-17.6,9.2-20.5c2.4-1.1,7.1-2.1,12,3.7c4.8,5.8,5.9,15.9,2.4,22.6
			c-2.7,5.3-7.2,9.2-12.4,12.3c1.2,1.6,2.4,3.2,3.7,4.8c3.5,4.5,7.2,9.2,9.8,14.3c0.7,1.4,1.4,2.8,2.1,4.2
			c9.2,0.3,17.9,4.4,25.3,8.1c1.3-2.7,2.8-5.4,4.3-8c3.6-6.4,7.2-12.7,8.4-19c-5.9,2.5-11.9,3.7-17,2.4c-4.9-1.3-8.5-4.9-10.6-10.7
			c-3-8.1,0.9-13.5,5.5-15.7c6.4-3.1,15.8-1.7,20.6,6c3.2,5.1,4.2,10.1,3.9,14.9c8.1-4,15.9-9.8,20.3-13.4c-0.8-1.7-1.5-3.5-2.1-5.4
			l-0.7-2c-2-6.2-4.3-13.1-7.6-19.2c-5.4,3.8-11,7.1-17.6,8.4c-7.6,1.5-17.6-3-20.5-9.2c-1.1-2.4-2.1-7.1,3.7-12
			c5.8-4.8,15.9-5.9,22.6-2.4c5.3,2.7,9.2,7.2,12.3,12.4c1.6-1.2,3.2-2.4,4.8-3.7c4.5-3.5,9.2-7.2,14.3-9.8c1.4-0.7,2.8-1.4,4.2-2.1
			c0.3-9.2,4.4-17.9,8.1-25.3c-2.7-1.3-5.4-2.8-8-4.3c-6.4-3.6-12.7-7.2-19-8.4c2.5,5.9,3.7,11.9,2.4,17c-1.3,4.9-4.9,8.5-10.7,10.6
			c-2,0.7-3.8,1-5.4,1c-5.1,0-8.6-3.1-10.3-6.6c-3.1-6.4-1.7-15.8,6-20.6c5.1-3.2,10.1-4.2,14.9-3.9c-4-8.1-9.8-15.9-13.4-20.3
			c-1.7,0.8-3.5,1.5-5.4,2.1l-2,0.7c-6.2,2-13.1,4.3-19.2,7.6c3.8,5.4,7.1,11,8.4,17.6c1.5,7.6-3,17.6-9.2,20.5
			c-2.4,1.1-7.1,2.1-12-3.7c-4.8-5.8-5.9-15.9-2.4-22.6c2.7-5.3,7.2-9.2,12.4-12.3c-1.2-1.6-2.4-3.2-3.7-4.8
			c-3.5-4.5-7.2-9.2-9.8-14.3c-0.7-1.4-1.4-2.8-2.1-4.2c-9.2-0.3-17.9-4.4-25.3-8.1C143.6-429.6,142.1-426.9,140.6-424.3z
			 M121-360.4c3,5,6.7,9.3,11.6,11.8c6.1,3.2,15.3,2.2,20.5-2.2c3.7-3.1,4.8-6.4,3.2-9.7c-2.2-4.7-9.5-8.4-15.7-8.4
			c-0.9,0-1.8,0.1-2.6,0.2C131.7-367.4,126.2-364.1,121-360.4z M225.9-333.3c-3-5-6.7-9.3-11.6-11.8c-6.1-3.2-15.3-2.2-20.5,2.2
			c-3.7,3.1-4.8,6.4-3.2,9.7c2.6,5.4,11.7,9.4,18.4,8.1C215.1-326.3,220.7-329.6,225.9-333.3z M229.6-388.4
			c-4.8-0.5-9.7,0.3-14.8,3.5c-6.7,4.2-7.9,12.6-5.3,18.1c2.4,5,7.4,6.7,13.3,4.6c5.2-1.9,8.4-5,9.5-9.3
			C233.7-376.5,232.2-382.5,229.6-388.4z M215.8-413.2c7.8-3.9,13.2-9.6,14.9-15.8c2-7.2-0.7-16.3-5.7-19.6
			c-1.3-0.8-2.6-1.2-4.1-1.2c-2.4,0-4.9,1.1-7.6,3.3c-3.4,2.9-5.4,6.6-5.8,11.2c-0.7,8.3,3.6,16.7,7.6,21.3
			C215.4-413.7,215.6-413.5,215.8-413.2z M187-399.3c-5,3-9.3,6.7-11.8,11.6c-3.2,6.1-2.2,15.3,2.2,20.5c3.1,3.7,6.4,4.8,9.7,3.2
			c5.4-2.6,9.4-11.7,8.1-18.4C193.9-388.6,190.7-394.1,187-399.3z M177.7-426.8c5.5-1.3,10.8-6.9,12.5-12.9c0.9-3.2,1.1-7.9-3-12
			c-1.6-1.6-3.4-2.4-5.4-2.4c-0.5,0-1.1,0.1-1.6,0.2c-4.6,0.9-8.7,5.3-10.3,8.9c-2.7,6.2-1,12.6,1.7,18.8
			C173.6-426.1,175.6-426.3,177.7-426.8z M153.7-478.9c-4.2-6.7-12.6-7.9-18.1-5.3c-5,2.4-6.7,7.4-4.6,13.3c1.9,5.2,5,8.4,9.3,9.5
			c4.9,1.3,10.9-0.1,16.8-2.8C157.7-468.9,156.9-473.8,153.7-478.9z M247.6-540c6.7-4.2,7.9-12.6,5.3-18.1c-1.7-3.6-4.8-5.5-8.5-5.5
			c-1.5,0-3.1,0.3-4.8,0.9c-5.2,1.9-8.4,5-9.5,9.3c-1.3,4.9,0.1,10.9,2.8,16.8C237.7-536,242.5-536.9,247.6-540z M246.7-511.8
			c-7.8,3.9-13.2,9.6-14.9,15.8c-2,7.2,0.7,16.3,5.7,19.6c3.4,2.2,7.4,1.5,11.6-2.1c3.4-2.9,5.4-6.6,5.8-11.2
			c0.7-8.3-3.6-16.7-7.6-21.3C247.1-511.2,246.9-511.5,246.7-511.8z M287.4-537.3c3.2-6.1,2.2-15.3-2.2-20.5
			c-2.2-2.6-4.5-3.9-6.8-3.9c-1,0-1.9,0.2-2.9,0.7c-5.4,2.6-9.4,11.7-8.1,18.4c1.2,6.2,4.4,11.8,8.2,17
			C280.5-528.6,284.8-532.3,287.4-537.3z M290.9-498.9c-2,0-4.1,0.3-6.1,0.8c-5.5,1.3-10.8,6.9-12.5,12.9c-0.9,3.2-1.1,7.9,3,12
			c2,2,4.4,2.7,7.1,2.2c4.6-0.9,8.7-5.3,10.3-8.9C295.3-486.3,293.7-492.7,290.9-498.9z M293.1-498.8c2.7,6.3,4.2,12.9,1.3,19.5
			c-1.8,4.2-6.4,9.1-11.7,10.1c-0.7,0.1-1.3,0.2-2,0.2c-2.5,0-4.9-1-6.8-2.9c-3.7-3.6-5-8.6-3.5-13.9c1.9-6.8,7.7-12.7,13.9-14.2
			c1.9-0.5,3.8-0.7,5.7-0.8c-0.5-1.1-1.1-2.2-1.6-3.3c-2.5-4.9-6.1-9.5-9.6-14c-1.3-1.7-2.6-3.3-3.9-5c-6.3,3.4-13.4,5.8-19.7,7.9
			l-2,0.7c-1.6,0.6-3.2,1.2-4.7,1.8c0.1,0.1,0.2,0.3,0.3,0.4c4.2,4.9,8.8,13.9,8,22.7c-0.4,5.2-2.6,9.4-6.5,12.6
			c-6.6,5.5-11.6,3.7-14,2.2c-5.7-3.7-8.8-13.9-6.6-21.8c1.9-6.6,7.5-12.6,15.5-16.8c-3.8-4.7-9.9-12.9-13.8-21.4
			c-7.2-1.1-14.1-5-20.9-8.9c-2.6-1.5-5.2-3-7.9-4.3c-3.5,6.9-7.4,15-7.9,23.5c6.3-2.7,12.9-4.2,19.5-1.3c4.2,1.8,9.1,6.4,10.1,11.7
			c0.7,3.3-0.3,6.3-2.7,8.8c-3.6,3.7-8.6,5-13.9,3.5c-6.8-1.9-12.7-7.7-14.2-13.9c-0.5-1.9-0.7-3.8-0.8-5.7
			c-1.1,0.5-2.2,1.1-3.3,1.6c-4.9,2.5-9.5,6.1-14,9.6c-1.7,1.3-3.3,2.6-5,3.8c3.4,6.3,5.8,13.4,7.9,19.7l0.7,2
			c0.6,1.6,1.2,3.2,1.8,4.7c0.1-0.1,0.3-0.2,0.4-0.3c4.9-4.2,13.9-8.8,22.7-8c5.2,0.4,9.4,2.6,12.6,6.5c5.5,6.6,3.7,11.6,2.2,14
			c-3.7,5.7-13.9,8.8-21.8,6.6c-6.6-1.9-12.6-7.5-16.8-15.5c-4.7,3.8-12.9,9.9-21.4,13.8c-1.1,7.2-5,14.1-8.9,20.9
			c-1.5,2.6-3,5.2-4.3,7.9c6.9,3.5,15,7.4,23.5,7.9c-2.7-6.4-4.2-12.9-1.3-19.5c1.8-4.2,6.4-9.1,11.7-10.1c3.3-0.7,6.3,0.3,8.8,2.7
			c3.7,3.6,5,8.6,3.5,13.9c-1.9,6.8-7.7,12.7-13.9,14.2c-1.9,0.5-3.8,0.7-5.7,0.8c0.5,1.1,1.1,2.2,1.6,3.3c2.5,4.9,6.1,9.5,9.6,14
			c1.3,1.7,2.6,3.3,3.8,5c6.3-3.4,13.4-5.8,19.7-7.9l2-0.7c1.7-0.6,3.2-1.2,4.7-1.8c-0.1-0.1-0.2-0.3-0.3-0.4
			c-4.2-4.9-8.8-13.9-8-22.7c0.4-5.2,2.6-9.4,6.5-12.6c6.6-5.5,11.6-3.7,14-2.2c5.7,3.7,8.8,13.9,6.6,21.8
			c-1.9,6.6-7.5,12.6-15.5,16.8c3.8,4.7,9.9,12.9,13.8,21.4c7.2,1.1,14.1,5,20.9,8.9c2.6,1.5,5.2,3,7.9,4.3c3.5-6.9,7.4-15,7.9-23.5
			c-6.3,2.7-12.9,4.2-19.5,1.3c-4.2-1.8-9.1-6.4-10.1-11.7c-0.7-3.3,0.3-6.3,2.7-8.8c3.6-3.7,8.6-5,13.9-3.5
			c6.8,1.9,12.7,7.7,14.2,13.9c0.5,1.9,0.7,3.8,0.8,5.7c1.1-0.5,2.2-1.1,3.3-1.6c4.9-2.5,9.5-6.1,14-9.6c1.7-1.3,3.3-2.6,5-3.8
			c-3.4-6.3-5.8-13.4-7.9-19.7l-0.7-2c-0.6-1.6-1.2-3.2-1.8-4.7c-0.1,0.1-0.3,0.2-0.4,0.3c-4.9,4.2-13.9,8.8-22.7,8
			c-5.2-0.4-9.4-2.6-12.6-6.5c-5.5-6.6-3.7-11.6-2.2-14c3.7-5.7,13.9-8.8,21.8-6.6c6.6,1.9,12.6,7.5,16.8,15.5
			c4.7-3.8,12.9-9.9,21.4-13.8c1.1-7.2,5-14.1,8.9-20.9c1.5-2.6,3-5.2,4.3-7.9C309.7-494.4,301.6-498.3,293.1-498.8z M194.8-522.2
			c0,2,0.3,4.1,0.8,6.1c1.3,5.5,6.9,10.8,12.9,12.5c3.2,0.9,8,1.1,12-3c2-2,2.7-4.4,2.2-7.1c-0.9-4.6-5.3-8.7-8.9-10.3
			c-2.2-1-4.5-1.4-6.7-1.4C202.9-525.2,198.8-523.9,194.8-522.2z M181.9-477.9c3.9,7.8,9.6,13.2,15.8,14.9c7.2,2,16.3-0.7,19.6-5.7
			c2.2-3.4,1.5-7.4-2.1-11.6c-2.9-3.4-6.6-5.4-11.2-5.8c-0.6-0.1-1.2-0.1-1.8-0.1c-7.7,0-15.2,4-19.5,7.7
			C182.5-478.3,182.2-478.1,181.9-477.9z M267.6-402.8c0-2-0.3-4.1-0.8-6.1c-1.3-5.5-6.9-10.8-12.9-12.5c-3.2-0.9-7.9-1.1-12,3
			c-2,2-2.7,4.4-2.2,7.1c0.9,4.6,5.3,8.7,8.9,10.3C255-398.4,261.4-400,267.6-402.8z M280.5-447.1c-3.9-7.8-9.6-13.2-15.8-14.9
			c-7.2-2-16.3,0.7-19.6,5.7c-2.2,3.4-1.5,7.4,2.1,11.6c2.8,3.4,6.6,5.4,11.2,5.8c8.3,0.7,16.7-3.6,21.3-7.6
			C280-446.6,280.3-446.8,280.5-447.1z M308.8-446.1c4.2,6.7,12.6,7.9,18.1,5.3c5-2.4,6.7-7.4,4.6-13.3c-1.9-5.2-5-8.4-9.3-9.5
			c-1.3-0.3-2.6-0.5-4-0.5c-4,0-8.5,1.3-12.9,3.2C304.8-456,305.6-451.2,308.8-446.1z M351.1-484.6c5.5-1.3,10.8-6.9,12.5-12.9
			c0.9-3.2,1.1-7.9-3-12c-1.6-1.6-3.4-2.4-5.4-2.4c-0.5,0-1.1,0.1-1.6,0.2c-4.6,0.9-8.7,5.3-10.3,8.9c-2.7,6.2-1,12.6,1.7,18.8
			C347-483.9,349-484.2,351.1-484.6z M360.4-457.1c-5,3-9.3,6.7-11.8,11.6c-3.2,6.1-2.2,15.3,2.2,20.5c3.1,3.7,6.4,4.8,9.7,3.2
			c5.4-2.6,9.4-11.7,8.1-18.4C367.4-446.4,364.1-451.9,360.4-457.1z M404.2-486.8c2-7.2-0.7-16.3-5.7-19.6c-1.3-0.8-2.6-1.2-4.1-1.2
			c-2.4,0-4.9,1.1-7.6,3.3c-3.4,2.9-5.4,6.6-5.8,11.2c-0.7,8.3,3.6,16.7,7.6,21.3c0.2,0.2,0.4,0.5,0.7,0.8
			C397-474.9,402.4-480.6,404.2-486.8z M403-446.2c-4.8-0.5-9.7,0.3-14.8,3.5c-6.7,4.2-7.9,12.6-5.3,18.1c2.4,5,7.4,6.7,13.3,4.6
			c5.2-1.9,8.4-5,9.5-9.3C407.1-434.3,405.6-440.3,403-446.2z M424.3-437.4c-6.4-3.6-12.7-7.2-19-8.4c2.5,5.9,3.7,11.9,2.4,17
			c-1.3,4.9-4.9,8.5-10.7,10.6c-2,0.7-3.8,1-5.4,1c-5.1,0-8.6-3.1-10.3-6.6c-3.1-6.4-1.7-15.8,6-20.6c5.1-3.2,10.1-4.2,14.9-3.9
			c-4-8.1-9.8-15.9-13.4-20.3c-1.7,0.8-3.5,1.5-5.4,2.1l-2,0.7c-6.2,2-13.1,4.3-19.2,7.6c3.8,5.4,7.1,11,8.4,17.6
			c1.5,7.6-3,17.6-9.2,20.5c-2.4,1.1-7.1,2.1-12-3.7c-4.8-5.8-5.9-15.9-2.4-22.6c2.7-5.3,7.2-9.2,12.4-12.3
			c-1.2-1.6-2.4-3.2-3.7-4.8c-3.5-4.5-7.2-9.2-9.8-14.3c-0.7-1.4-1.4-2.8-2.1-4.2c-9.2-0.3-17.9-4.4-25.3-8.1
			c-1.3,2.7-2.8,5.4-4.3,8c-3.6,6.4-7.2,12.7-8.4,19c5.9-2.5,11.9-3.7,17-2.4c4.9,1.3,8.5,4.9,10.6,10.7c3,8.1-0.9,13.5-5.5,15.7
			c-6.4,3.1-15.8,1.7-20.6-6c-3.2-5.1-4.2-10.1-3.9-14.9c-8.1,4-15.9,9.8-20.3,13.4c0.8,1.7,1.5,3.5,2.1,5.4l0.7,2
			c2,6.2,4.3,13.1,7.6,19.2c5.4-3.8,11-7.1,17.6-8.4c7.6-1.5,17.6,3,20.5,9.2c1.1,2.4,2.1,7.1-3.7,12c-5.8,4.8-15.9,5.9-22.6,2.4
			c-5.3-2.7-9.2-7.2-12.3-12.4c-1.6,1.2-3.2,2.4-4.8,3.7c-4.5,3.5-9.2,7.2-14.3,9.8c-1.4,0.7-2.8,1.4-4.2,2.1
			c-0.3,9.2-4.4,17.9-8.1,25.3c2.7,1.3,5.4,2.8,8,4.3c6.4,3.6,12.7,7.2,19,8.4c-2.5-5.9-3.7-11.9-2.4-17c1.3-4.9,4.9-8.5,10.7-10.6
			c8.1-3,13.5,0.9,15.7,5.5c3.1,6.4,1.7,15.8-6,20.6c-5.1,3.2-10.1,4.2-14.9,3.9c4,8.1,9.8,15.9,13.4,20.3c1.7-0.8,3.5-1.5,5.4-2.1
			l2-0.7c6.2-2,13.1-4.3,19.2-7.6c-3.8-5.4-7.1-11-8.4-17.6c-1.5-7.6,3-17.6,9.2-20.5c2.4-1.1,7.1-2.1,12,3.7
			c4.8,5.8,5.9,15.9,2.4,22.6c-2.7,5.3-7.2,9.2-12.4,12.3c1.2,1.6,2.4,3.2,3.7,4.8c3.5,4.5,7.2,9.2,9.8,14.3
			c0.7,1.4,1.4,2.8,2.1,4.2c9.2,0.3,17.9,4.4,25.3,8.1c1.3-2.7,2.8-5.4,4.3-8c3.6-6.4,7.2-12.7,8.4-19c-5.9,2.5-11.9,3.7-17,2.4
			c-4.9-1.3-8.5-4.9-10.6-10.7c-3-8.1,0.9-13.5,5.5-15.7c6.4-3.1,15.8-1.7,20.6,6c3.2,5.1,4.2,10.1,3.9,14.9
			c8.1-4,15.9-9.8,20.3-13.4c-0.8-1.7-1.5-3.5-2.1-5.4l-0.7-2c-2-6.2-4.3-13.1-7.6-19.2c-5.4,3.8-11,7.1-17.6,8.4
			c-7.6,1.5-17.6-3-20.5-9.2c-1.1-2.4-2.1-7.1,3.7-12c5.8-4.8,15.9-5.9,22.6-2.4c5.3,2.7,9.2,7.2,12.3,12.4c1.6-1.2,3.2-2.4,4.8-3.7
			c4.5-3.5,9.2-7.2,14.3-9.8c1.4-0.7,2.8-1.4,4.2-2.1c0.3-9.2,4.4-17.9,8.1-25.3C429.6-434.5,426.9-436,424.3-437.4z M294.4-418.2
			c3,5,6.7,9.3,11.6,11.8c6.1,3.2,15.3,2.2,20.5-2.2c3.7-3.1,4.8-6.4,3.2-9.7c-2.2-4.7-9.5-8.4-15.7-8.4c-0.9,0-1.8,0.1-2.6,0.2
			C305.1-425.2,299.6-422,294.4-418.2z M388.4-348.5c0.5-4.8-0.3-9.7-3.5-14.8c-4.2-6.7-12.6-7.9-18.1-5.3c-5,2.4-6.7,7.4-4.6,13.3
			c1.9,5.2,5,8.4,9.3,9.5C376.5-344.4,382.5-345.9,388.4-348.5z M399.3-391.1c-3-5-6.7-9.3-11.6-11.8c-6.1-3.2-15.3-2.2-20.5,2.2
			c-3.7,3.1-4.8,6.4-3.2,9.7c2.6,5.4,11.7,9.4,18.4,8.1C388.6-384.2,394.1-387.4,399.3-391.1z M478.9-424.4
			c6.7-4.2,7.9-12.6,5.3-18.1c-1.7-3.6-4.8-5.5-8.5-5.5c-1.5,0-3.1,0.3-4.8,0.9c-5.2,1.9-8.4,5-9.5,9.3c-1.3,4.9,0.1,10.9,2.8,16.8
			C468.9-420.4,473.8-421.2,478.9-424.4z M477.9-396.2c-7.8,3.9-13.2,9.6-14.9,15.8c-2,7.2,0.7,16.3,5.7,19.6
			c3.4,2.2,7.4,1.5,11.6-2.1c3.4-2.8,5.4-6.6,5.8-11.2c0.7-8.3-3.6-16.7-7.6-21.3C478.3-395.6,478.1-395.9,477.9-396.2z
			 M518.6-421.7c3.2-6.1,2.2-15.3-2.2-20.5c-2.2-2.6-4.5-3.9-6.8-3.9c-1,0-1.9,0.2-2.9,0.7c-5.4,2.6-9.4,11.7-8.1,18.4
			c1.2,6.2,4.4,11.8,8.2,17C511.7-413,516-416.7,518.6-421.7z M522.2-383.2c-2,0-4.1,0.3-6.1,0.8c-5.5,1.3-10.8,6.9-12.5,12.9
			c-0.9,3.2-1.1,7.9,3,12c2,2,4.4,2.7,7.1,2.2c4.6-0.9,8.7-5.3,10.3-8.9C526.5-370.6,524.9-377,522.2-383.2z M540-330.5
			c4.2,6.7,12.6,7.9,18.1,5.3c5-2.4,6.7-7.4,4.6-13.3c-1.9-5.2-5-8.4-9.3-9.5c-1.3-0.3-2.6-0.5-4-0.5c-4,0-8.5,1.3-12.9,3.2
			C536-340.4,536.9-335.6,540-330.5z M498.8-285c-6.4,2.7-12.9,4.2-19.5,1.3c-4.2-1.8-9.1-6.4-10.1-11.7c-0.7-3.3,0.3-6.3,2.7-8.8
			c3.6-3.7,8.6-5,13.9-3.5c6.8,1.9,12.7,7.7,14.2,13.9c0.5,1.9,0.7,3.8,0.8,5.7c1.1-0.5,2.2-1.1,3.3-1.6c4.9-2.5,9.5-6.1,14-9.6
			c1.7-1.3,3.3-2.6,5-3.8c-3.4-6.3-5.8-13.4-7.9-19.7l-0.7-2c-0.6-1.6-1.2-3.2-1.8-4.7c-0.1,0.1-0.3,0.2-0.4,0.3
			c-4.9,4.2-13.9,8.8-22.7,8c-5.2-0.4-9.4-2.6-12.6-6.5c-5.5-6.6-3.7-11.6-2.2-14c3.7-5.7,13.9-8.8,21.8-6.6
			c6.6,1.9,12.6,7.5,16.8,15.5c4.7-3.8,12.9-9.9,21.4-13.8c1.1-7.2,5-14.1,8.9-20.9c1.5-2.6,3-5.2,4.3-7.9c-6.9-3.5-15-7.4-23.5-7.9
			c2.7,6.4,4.2,12.9,1.3,19.5c-1.8,4.2-6.4,9.1-11.7,10.1c-0.7,0.1-1.3,0.2-2,0.2c-2.5,0-4.9-1-6.8-2.9c-3.7-3.6-5-8.6-3.5-13.9
			c1.9-6.8,7.7-12.7,13.9-14.2c1.9-0.5,3.8-0.7,5.7-0.8c-0.5-1.1-1.1-2.2-1.6-3.3c-2.5-4.9-6.1-9.5-9.6-14c-1.3-1.7-2.6-3.3-3.8-5
			c-6.3,3.4-13.4,5.8-19.7,7.9l-2,0.7c-1.7,0.6-3.2,1.2-4.7,1.8c0.1,0.1,0.2,0.3,0.3,0.4c4.2,4.9,8.8,13.9,8,22.7
			c-0.4,5.2-2.6,9.4-6.5,12.6c-6.6,5.5-11.6,3.7-14,2.2c-5.7-3.7-8.8-13.9-6.6-21.8c1.9-6.6,7.5-12.6,15.5-16.8
			c-3.8-4.7-9.9-12.9-13.8-21.4c-7.2-1.1-14.1-5-20.9-8.9c-2.6-1.5-5.2-3-7.9-4.3c-3.5,6.9-7.4,15-7.9,23.5
			c6.3-2.7,12.9-4.2,19.5-1.3c4.2,1.8,9.1,6.4,10.1,11.7c0.7,3.3-0.3,6.3-2.7,8.8c-3.6,3.7-8.6,5-13.9,3.5
			c-6.8-1.9-12.7-7.7-14.2-13.9c-0.5-1.9-0.7-3.8-0.8-5.7c-1.1,0.5-2.2,1.1-3.3,1.6c-4.9,2.5-9.5,6.1-14,9.6c-1.7,1.3-3.3,2.6-5,3.8
			c3.4,6.3,5.8,13.4,7.9,19.7l0.7,2c0.6,1.6,1.2,3.2,1.8,4.7c0.1-0.1,0.3-0.2,0.4-0.3c4.9-4.2,13.9-8.8,22.7-8
			c5.2,0.4,9.4,2.6,12.6,6.5c5.5,6.6,3.7,11.6,2.2,14c-3.7,5.7-13.9,8.8-21.8,6.6c-6.6-1.9-12.6-7.5-16.8-15.5
			c-4.7,3.8-12.9,9.9-21.4,13.8c-1.1,7.2-5,14.1-8.9,20.9c-1.5,2.6-3,5.2-4.3,7.9c6.9,3.5,15,7.4,23.5,7.9
			c-2.7-6.3-4.2-12.9-1.3-19.5c1.8-4.2,6.4-9.1,11.7-10.1c3.3-0.7,6.3,0.3,8.8,2.7c3.7,3.6,5,8.6,3.5,13.9
			c-1.9,6.8-7.7,12.7-13.9,14.2c-1.9,0.5-3.8,0.7-5.7,0.8c0.5,1.1,1.1,2.2,1.6,3.3c2.5,4.9,6.1,9.5,9.6,14c1.3,1.7,2.6,3.3,3.9,5
			c6.3-3.4,13.4-5.8,19.7-7.9l2-0.7c1.6-0.6,3.2-1.2,4.7-1.8c-0.1-0.1-0.2-0.3-0.3-0.4c-4.2-4.9-8.8-13.9-8-22.7
			c0.4-5.2,2.6-9.4,6.5-12.6c6.6-5.5,11.6-3.7,14-2.2c5.7,3.7,8.8,13.9,6.6,21.8c-1.9,6.6-7.5,12.6-15.5,16.8
			c3.8,4.7,9.9,12.9,13.8,21.4c7.2,1.1,14.1,5,20.9,8.9c2.6,1.5,5.2,3,7.9,4.3C494.4-268.4,498.3-276.5,498.8-285z M498.9-287.1
			c0-2-0.3-4.1-0.8-6.1c-1.3-5.5-6.9-10.8-12.9-12.5c-3.2-0.9-8-1.1-12,3c-2,2-2.7,4.4-2.2,7.1c0.9,4.6,5.3,8.7,8.9,10.3
			C486.3-282.8,492.7-284.4,498.9-287.1z M511.8-331.4c-3.9-7.8-9.6-13.2-15.8-14.9c-7.2-2-16.3,0.7-19.6,5.7
			c-2.2,3.4-1.5,7.4,2.1,11.6c2.8,3.4,6.6,5.4,11.2,5.8c8.3,0.7,16.7-3.6,21.3-7.6C511.2-331,511.5-331.2,511.8-331.4z M426.1-406.6
			c0,2,0.3,4.1,0.8,6.1c1.3,5.5,6.9,10.8,12.9,12.5c3.2,0.9,7.9,1.1,12-3c2-2,2.7-4.4,2.2-7.1c-0.9-4.6-5.3-8.7-8.9-10.3
			c-2.2-1-4.5-1.4-6.8-1.4C434.1-409.6,430.1-408.3,426.1-406.6z M413.2-362.3c3.9,7.8,9.6,13.2,15.8,14.9c7.2,2,16.3-0.7,19.6-5.7
			c2.2-3.4,1.5-7.4-2.1-11.6c-2.9-3.4-6.6-5.4-11.2-5.8c-0.6-0.1-1.2-0.1-1.8-0.1c-7.7,0-15.2,4-19.5,7.7
			C413.7-362.7,413.5-362.5,413.2-362.3z M402.8-310.5c2,0,4.1-0.3,6.1-0.8c5.5-1.3,10.8-6.9,12.5-12.9c0.9-3.2,1.1-7.9-3-12
			c-1.6-1.6-3.4-2.4-5.4-2.4c-0.5,0-1.1,0.1-1.6,0.2c-4.6,0.9-8.7,5.3-10.3,8.9C398.4-323.1,400-316.7,402.8-310.5z M418.2-283.7
			c-5,3-9.3,6.7-11.8,11.6c-3.2,6.1-2.2,15.3,2.2,20.5c3.1,3.7,6.4,4.8,9.7,3.2c5.4-2.6,9.4-11.7,8.1-18.4
			C425.2-273,422-278.5,418.2-283.7z M446.4-298.3c0.2,0.2,0.4,0.5,0.7,0.8c7.8-3.9,13.2-9.6,14.9-15.8c2-7.2-0.7-16.3-5.7-19.6
			c-1.3-0.8-2.6-1.2-4.1-1.2c-2.4,0-4.9,1.1-7.6,3.3c-3.4,2.9-5.4,6.6-5.8,11.2C438.1-311.4,442.4-303,446.4-298.3z M460.8-272.8
			c-4.8-0.5-9.7,0.3-14.8,3.5c-6.7,4.2-7.9,12.6-5.3,18.1c2.4,5,7.4,6.7,13.3,4.6c5.2-1.9,8.4-5,9.5-9.3
			C464.9-260.9,463.5-266.9,460.8-272.8z M484.6-227c1.3,5.5,6.9,10.8,12.9,12.5c3.2,0.9,7.9,1.1,12-3c2-2,2.7-4.4,2.2-7.1
			c-0.9-4.6-5.3-8.7-8.9-10.3c-2.2-1-4.5-1.4-6.7-1.4c-4,0-8.1,1.3-12.1,3.1C483.9-231.1,484.2-229,484.6-227z M442.7-189.8
			c-4.2-6.7-12.6-7.9-18.1-5.3c-5,2.4-6.7,7.4-4.6,13.3c1.9,5.2,5,8.4,9.3,9.5c4.9,1.3,10.9-0.1,16.8-2.8
			C446.8-179.9,445.9-184.7,442.7-189.8z M437.4-153.8c3.6-6.4,7.2-12.7,8.4-19c-5.9,2.5-11.9,3.7-17,2.4
			c-4.9-1.3-8.5-4.9-10.6-10.7c-3-8.1,0.9-13.5,5.5-15.7c6.4-3.1,15.8-1.7,20.6,6c3.2,5.1,4.2,10.1,3.9,14.9
			c8.1-4,15.9-9.8,20.3-13.4c-0.8-1.7-1.5-3.5-2.1-5.4l-0.7-2c-2-6.2-4.3-13.1-7.6-19.2c-5.4,3.8-11,7.1-17.6,8.4
			c-7.6,1.4-17.6-3-20.5-9.2c-1.1-2.4-2.1-7.1,3.7-12c5.8-4.8,15.9-5.9,22.6-2.4c5.3,2.7,9.2,7.2,12.3,12.4c1.6-1.2,3.2-2.4,4.8-3.7
			c4.5-3.5,9.2-7.2,14.3-9.8c1.4-0.7,2.8-1.4,4.2-2.1c0.3-9.2,4.4-17.9,8.1-25.3c-2.7-1.3-5.4-2.8-8-4.3c-6.4-3.6-12.7-7.2-19-8.4
			c2.5,5.9,3.7,11.9,2.4,17c-1.3,4.9-4.9,8.5-10.7,10.6c-2,0.7-3.8,1-5.4,1c-5.1,0-8.6-3.1-10.3-6.6c-3.1-6.4-1.7-15.8,6-20.6
			c5.1-3.2,10.1-4.2,14.9-3.9c-4-8.1-9.8-15.9-13.4-20.3c-1.7,0.8-3.5,1.5-5.4,2.1l-2,0.7c-6.2,2-13.1,4.3-19.2,7.6
			c3.8,5.4,7.1,11,8.4,17.6c1.5,7.6-3,17.6-9.2,20.5c-2.4,1.1-7.1,2.1-12-3.7c-4.8-5.8-5.9-15.9-2.4-22.6c2.7-5.3,7.2-9.2,12.4-12.3
			c-1.2-1.6-2.4-3.2-3.7-4.8c-3.5-4.5-7.2-9.2-9.8-14.3c-0.7-1.4-1.4-2.8-2.1-4.2c-9.2-0.3-17.9-4.4-25.3-8.1
			c-1.3,2.7-2.8,5.4-4.3,8c-3.6,6.4-7.2,12.7-8.4,19c5.9-2.5,11.9-3.7,17-2.4c4.9,1.3,8.5,4.9,10.6,10.7c3,8.1-0.9,13.5-5.5,15.7
			c-6.4,3.1-15.8,1.7-20.6-6c-3.2-5.1-4.2-10.1-3.9-14.9c-8.1,4-15.9,9.8-20.3,13.4c0.8,1.7,1.5,3.5,2.1,5.4l0.7,2
			c2,6.2,4.3,13.1,7.6,19.2c5.4-3.8,11-7.1,17.6-8.4c7.6-1.5,17.6,3,20.5,9.2c1.1,2.4,2.1,7.1-3.7,12c-5.8,4.8-15.9,5.9-22.6,2.4
			c-5.3-2.7-9.2-7.2-12.3-12.4c-1.6,1.2-3.2,2.4-4.8,3.7c-4.5,3.5-9.2,7.2-14.3,9.8c-1.4,0.7-2.8,1.4-4.2,2.1
			c-0.3,9.2-4.4,17.9-8.1,25.3c2.7,1.3,5.4,2.8,8,4.3c6.4,3.6,12.7,7.2,19,8.4c-2.5-5.9-3.7-11.9-2.4-17c1.3-4.9,4.9-8.5,10.7-10.6
			c8.1-3,13.5,0.9,15.7,5.5c3.1,6.4,1.7,15.8-6,20.6c-5.1,3.2-10.1,4.2-14.9,3.9c4,8.1,9.8,15.9,13.4,20.3c1.7-0.8,3.5-1.5,5.4-2.1
			l2-0.7c6.2-2,13.1-4.3,19.2-7.6c-3.8-5.4-7.1-11-8.4-17.6c-1.5-7.6,3-17.6,9.2-20.5c2.4-1.1,7.1-2.1,12,3.7
			c4.8,5.8,5.9,15.9,2.4,22.6c-2.7,5.3-7.2,9.2-12.4,12.3c1.2,1.6,2.4,3.2,3.7,4.8c3.5,4.5,7.2,9.2,9.8,14.3
			c0.7,1.4,1.4,2.8,2.1,4.2c9.2,0.3,17.9,4.4,25.3,8.1C434.5-148.5,436-151.2,437.4-153.8z M457.1-217.7c-3-5-6.7-9.3-11.6-11.8
			c-6.1-3.2-15.3-2.2-20.5,2.2c-3.7,3.1-4.8,6.4-3.2,9.7c2.6,5.4,11.7,9.4,18.4,8.1C446.4-210.7,451.9-213.9,457.1-217.7z
			 M352.2-244.8c3,5,6.7,9.3,11.6,11.8c6.1,3.2,15.3,2.2,20.5-2.2c3.7-3.1,4.8-6.4,3.2-9.7c-2.2-4.7-9.5-8.4-15.7-8.4
			c-0.9,0-1.8,0.1-2.6,0.2C362.9-251.7,357.4-248.5,352.2-244.8z M466.7-137.8c5.5-1.3,10.8-6.9,12.5-12.9c0.9-3.2,1.1-7.9-3-12
			c-1.6-1.6-3.4-2.4-5.4-2.4c-0.5,0-1.1,0.1-1.6,0.2c-4.6,0.9-8.7,5.3-10.3,8.9c-2.7,6.2-1,12.6,1.7,18.8
			C462.6-137.1,464.7-137.3,466.7-137.8z M476-110.3c-5,3-9.3,6.7-11.8,11.6c-3.2,6.1-2.2,15.3,2.2,20.5c3.1,3.7,6.4,4.8,9.7,3.2
			c5.4-2.6,9.4-11.7,8.1-18.4C483-99.5,479.8-105,476-110.3z M519.8-139.9c2-7.2-0.7-16.3-5.7-19.6c-1.3-0.8-2.6-1.2-4.1-1.2
			c-2.4,0-4.9,1.1-7.6,3.3c-3.4,2.9-5.4,6.6-5.8,11.2c-0.7,8.3,3.6,16.7,7.6,21.3c0.2,0.2,0.4,0.5,0.7,0.8
			C512.6-128.1,518-133.7,519.8-139.9z M518.6-99.4c-4.8-0.5-9.7,0.3-14.8,3.5c-6.7,4.2-7.9,12.6-5.3,18.1c2.4,5,7.4,6.7,13.3,4.6
			c5.2-1.9,8.4-5,9.5-9.3C522.7-87.5,521.3-93.5,518.6-99.4z M555.9-119.9c-1.3-5.5-6.9-10.8-12.9-12.5c-3.2-0.9-7.9-1.1-12,3
			c-2,2-2.7,4.4-2.2,7.1c0.9,4.6,5.3,8.7,8.9,10.3c6.2,2.7,12.6,1,18.8-1.7C556.6-115.8,556.4-117.8,555.9-119.9z"/>
		<path class="st1" d="M572.3-151.5c-0.6-1.7-1.2-3.2-1.8-4.7c-0.1,0.1-0.3,0.2-0.4,0.3c-4.9,4.2-13.9,8.8-22.7,8
			c-5.2-0.4-9.4-2.6-12.6-6.5c-5.5-6.6-3.7-11.6-2.2-14c3.7-5.7,13.9-8.8,21.8-6.6c6.6,1.9,12.6,7.5,16.8,15.5
			c1.8-1.5,4.2-3.3,7-5.3v2.4c-2.4,1.7-4.5,3.4-6.1,4.7c0.8,1.7,1.5,3.5,2.1,5.4l0.7,2c1,3,2.1,6.2,3.3,9.4v5.2
			c-2-4.7-3.6-9.5-5.1-14L572.3-151.5z M553.8-172.9c-7.2-2-16.3,0.7-19.6,5.7c-2.2,3.4-1.5,7.4,2.1,11.6c2.9,3.4,6.6,5.4,11.2,5.8
			c8.3,0.7,16.7-3.6,21.3-7.6c0.2-0.2,0.5-0.4,0.8-0.7C565.6-165.8,560-171.2,553.8-172.9z"/>
		<path class="st1" d="M0.1-247.3C0-247.3,0-247.3,0.1-247.3L0-253.9c0.2-1.7,0.2-3.5,0-5.2v-7.1C2.7-260.4,2.9-252.8,0.1-247.3z"/>
		<path class="st1" d="M182.8-15.1c3.6-3.7,8.6-5,13.9-3.5c6.8,1.9,12.7,7.7,14.2,13.9c0.4,1.6,0.6,3.1,0.7,4.7h-2
			c-0.1-1.4-0.3-2.8-0.7-4.2c-1.3-5.5-6.9-10.8-12.9-12.5c-3.2-0.9-7.9-1.1-12,3c-2,2-2.7,4.4-2.2,7.1c0.5,2.5,2,4.8,3.8,6.7h-2.6
			c-1.5-1.9-2.7-4-3.1-6.3C179.5-9.6,180.4-12.6,182.8-15.1z"/>
		<path class="st1" d="M151.5-5.8c1.7-0.6,3.2-1.2,4.7-1.8c-0.1-0.1-0.2-0.3-0.3-0.4c-4.2-4.9-8.8-13.9-8-22.7
			c0.4-5.2,2.6-9.4,6.5-12.6c6.6-5.5,11.6-3.7,14-2.2c5.7,3.7,8.8,13.9,6.6,21.8c-1.9,6.6-7.5,12.6-15.5,16.8c1.5,1.8,3.3,4.2,5.3,7
			h-2.4c-1.7-2.4-3.4-4.5-4.7-6.1c-1.7,0.8-3.5,1.5-5.4,2.1l-2,0.7c-3,1-6.2,2.1-9.4,3.3h-5.2c4.7-2,9.5-3.6,14-5.1L151.5-5.8z
			 M158-8.5c7.8-3.9,13.2-9.6,14.9-15.8c2-7.2-0.7-16.3-5.7-19.6c-1.3-0.8-2.6-1.2-4.1-1.2c-2.4,0-4.9,1.1-7.6,3.3
			c-3.4,2.9-5.4,6.6-5.8,11.2c-0.7,8.3,3.6,16.7,7.6,21.3C157.6-9,157.8-8.8,158-8.5z"/>
		<path class="st1" d="M438.8-22c-1.5-7.6,3-17.6,9.2-20.5c2.4-1.1,7.1-2.1,12,3.7c4.8,5.8,5.9,15.9,2.4,22.6
			c-2.7,5.3-7.2,9.2-12.4,12.3C451-2.5,452-1.2,453,0h-2.5c-0.7-0.9-1.4-1.8-2.1-2.8c-1.9,1-3.8,1.9-5.8,2.8h-5.2
			c3.3-1.3,6.7-2.7,9.8-4.4C443.4-9.7,440.1-15.4,438.8-22z M448.9-5.4c5-3,9.3-6.7,11.8-11.6c3.2-6.1,2.2-15.3-2.2-20.5
			c-2.2-2.6-4.5-3.9-6.8-3.9c-1,0-1.9,0.2-2.9,0.7c-5.4,2.6-9.4,11.7-8.1,18.4C442-16.1,445.2-10.6,448.9-5.4z"/>
		<path class="st1" d="M34-1.4C35.3-1,36.4-0.6,37.6,0H31c-1.7-0.2-3.4-0.2-5.1,0h-7.1C23.3-2.1,29.1-2.8,34-1.4z"/>
		<path class="st1" d="M139.2-556.1c1.5,7.6-3,17.6-9.2,20.5c-2.4,1.1-7.1,2.1-12-3.7c-4.8-5.8-5.9-15.9-2.4-22.6
			c2.7-5.3,7.2-9.2,12.4-12.3c-0.9-1.3-1.9-2.5-2.9-3.8h2.5c0.7,0.9,1.4,1.8,2.1,2.8c1.9-1,3.8-1.9,5.8-2.8h5.2
			c-3.3,1.3-6.7,2.7-9.8,4.4C134.7-568.4,138-562.7,139.2-556.1z M129.2-572.7c-5,3-9.3,6.7-11.8,11.6c-3.2,6.1-2.2,15.3,2.2,20.5
			c3.1,3.7,6.4,4.8,9.7,3.2c5.4-2.6,9.4-11.7,8.1-18.4C136.1-562,132.9-567.5,129.2-572.7z"/>
		<path class="st1" d="M330.8-0.1C330.8,0,330.8,0,330.8-0.1L324.2,0c-1.7-0.2-3.5-0.2-5.2,0h-7.1C317.7-2.7,325.3-2.9,330.8-0.1z"
			/>
		<path class="st1" d="M1.4-544c-0.3,1.2-0.8,2.4-1.4,3.5v-6.6c0.2-1.7,0.2-3.4,0-5.1v-7.1C2.1-554.8,2.8-549,1.4-544z"/>
		<path class="st1" d="M5.8-426.6c0.6,1.6,1.2,3.2,1.8,4.7c0.1-0.1,0.3-0.2,0.4-0.3c4.9-4.2,13.9-8.8,22.7-8
			c5.2,0.4,9.4,2.6,12.6,6.5c5.5,6.6,3.7,11.6,2.2,14c-3.7,5.7-13.9,8.8-21.8,6.6c-6.6-1.9-12.6-7.5-16.8-15.5
			c-1.8,1.5-4.2,3.3-7,5.3v-2.4c2.4-1.7,4.5-3.4,6.1-4.7c-0.8-1.7-1.5-3.5-2.1-5.4l-0.7-2c-1-3-2.1-6.2-3.3-9.4v-5.2
			c2,4.7,3.6,9.5,5.1,14L5.8-426.6z M24.3-405.2c7.2,2,16.3-0.7,19.6-5.7c2.2-3.4,1.5-7.4-2.1-11.6c-2.9-3.4-6.6-5.4-11.2-5.8
			c-0.6-0.1-1.2-0.1-1.8-0.1c-7.7,0-15.2,4-19.5,7.7c-0.2,0.2-0.5,0.4-0.8,0.7C12.4-412.3,18.1-406.9,24.3-405.2z"/>
		<path class="st1" d="M22-139.2c7.6-1.5,17.6,3,20.5,9.2c1.1,2.4,2.1,7.1-3.7,12c-5.8,4.8-15.9,5.9-22.6,2.4
			c-5.3-2.7-9.2-7.2-12.3-12.4c-1.3,0.9-2.5,1.9-3.8,2.9v-2.5c0.9-0.7,1.8-1.4,2.8-2.1c-1-1.9-1.9-3.8-2.8-5.8v-5.2
			c1.3,3.3,2.7,6.7,4.4,9.8C9.7-134.7,15.4-138,22-139.2z M17-117.3c6.1,3.2,15.3,2.2,20.5-2.2c3.7-3.1,4.8-6.4,3.2-9.7
			c-2.2-4.7-9.5-8.4-15.7-8.4c-0.9,0-1.8,0.1-2.6,0.2c-6.2,1.2-11.8,4.4-17,8.2C8.3-124.2,12-119.9,17-117.3z"/>
		<path class="st1" d="M15.1-395.2c3.7,3.6,5,8.6,3.5,13.9c-1.9,6.8-7.7,12.7-13.9,14.2c-1.6,0.4-3.1,0.6-4.7,0.7v-2
			c1.4-0.1,2.8-0.3,4.2-0.7c5.5-1.3,10.8-6.9,12.5-12.9c0.9-3.2,1.1-8-3-12c-1.6-1.6-3.4-2.4-5.4-2.4c-0.5,0-1.1,0.1-1.6,0.2
			c-2.5,0.5-4.8,2-6.7,3.8v-2.6c1.9-1.5,4-2.7,6.3-3.1C9.6-398.6,12.6-397.7,15.1-395.2z"/>
	</g>
</pattern>
<rect class="st2" width="2600" height="500"/>
</svg>
