<?xml version="1.0" encoding="utf-8"?>
<!-- Generator: Adobe Illustrator 23.0.1, SVG Export Plug-In . SVG Version: 6.00 Build 0)  -->
<svg version="1.1" id="Слой_1" xmlns="http://www.w3.org/2000/svg" xmlns:xlink="http://www.w3.org/1999/xlink" x="0px" y="0px"
	 viewBox="0 0 575 630" style="enable-background:new 0 0 575 630;" xml:space="preserve">
<style type="text/css">
	.st0{fill:rgba(255,255,255,0.3);}
</style>
<path class="st0" d="M36.7,120.9l210-109.3c11.4-5.8,25.8-8.8,40.3-8.8c14.6,0,28.9,3,40.4,8.8l210,109.3
	c23.6,12.3,38.6,42.3,34.1,68.2L532,420c-4.4,25.4-26.9,51.9-51.1,60.4l-148.5,52.1c-2.1,0.6-4.2,1.4-6.3,2c0.6,2.5,1.5,5.1,2.2,7.5
	c6.8,19,21.8,33.1,31.8,40.8c8.6,7.1,16.9,12.3,16.9,12.3l-6.9,16.2l-9.3-5.2c-1.2-0.6-22.9-12.9-38.7-35.5
	c-7.1,27.6-24.4,47.4-25.4,48.6l-7.1,7.9l-7.2-7.9c-1.1-1.2-18.3-20.9-25.3-48.6c-15.8,22.5-37.5,34.8-38.7,35.5l-9.4,5.2l-6.8-16.2
	c0,0,8.6-5.2,16.9-12.3c10.1-7.6,25.2-21.8,31.8-40.8c0.9-2.6,1.8-5.1,2.6-7.6c-1.3-0.5-2.7-0.9-4.1-1.4l-156-53
	c-24.6-8.2-47.1-34.6-51.4-60l0,0L2.7,189.2C-1.8,163.2,13.2,133.2,36.7,120.9 M21.4,185.8l39.6,231l0,0
	c3.2,18.4,20.8,39.3,38.7,45.3l156.2,53c0.6,0.3,1.2,0.3,1.9,0.6c5.6,1.6,12,2.9,18.8,3.4c-0.4,3.3-1.1,6.6-1.9,9.9
	c-0.8,6-1.2,12.5-1.2,18.9c0,20.4,9.4,38.4,16.5,49.1c6.9-10.6,16.3-28.8,16.3-49.1c0-6.4-0.4-12.8-1.2-18.9
	c-0.8-3.3-1.5-6.6-1.9-9.8c6.8-0.6,13.1-1.6,18.8-3.3c1.5-0.5,2.9-0.8,4.2-1.4l148.4-52.1c17.7-6.3,35.6-27.1,38.7-45.8l39.4-231
	c3-17.7-7.9-39.9-24.1-48.3L318.3,28.2c-16.9-8.8-45.8-8.8-62.8,0l-210,109.3C29.4,146.1,18.4,168.2,21.4,185.8"/>
</svg>
