<svg id="Слой_1" data-name="Слой 1" xmlns="http://www.w3.org/2000/svg" xmlns:xlink="http://www.w3.org/1999/xlink" viewBox="0 0 352 262"><defs><style>.cls-1{fill:url(#linear-gradient);}.cls-2{fill:url(#linear-gradient-2);}.cls-3{fill:url(#linear-gradient-3);}.cls-4{fill:url(#linear-gradient-4);}.cls-5{fill:url(#linear-gradient-5);}.cls-6{fill:url(#linear-gradient-6);}.cls-7{fill:url(#linear-gradient-7);}.cls-8{fill:url(#linear-gradient-8);}.cls-9{fill:url(#linear-gradient-9);}.cls-10{fill:url(#linear-gradient-10);}.cls-11{fill:url(#linear-gradient-11);}.cls-12{fill:url(#linear-gradient-12);}.cls-13{fill:url(#linear-gradient-13);}.cls-14{fill:url(#linear-gradient-14);}.cls-15{fill:url(#linear-gradient-15);}.cls-16{fill:url(#linear-gradient-16);}.cls-17{fill:url(#linear-gradient-17);}.cls-18{fill:url(#linear-gradient-18);}.cls-19{fill:url(#linear-gradient-19);}.cls-20{fill:url(#linear-gradient-20);}.cls-21{fill:url(#linear-gradient-21);}.cls-22{fill:url(#linear-gradient-22);}.cls-23{fill:url(#linear-gradient-23);}.cls-24{fill:url(#linear-gradient-24);}.cls-25{fill:url(#linear-gradient-25);}.cls-26{fill:url(#linear-gradient-26);}.cls-27{fill:url(#linear-gradient-27);}.cls-28{fill:url(#linear-gradient-28);}.cls-29{fill:url(#linear-gradient-29);}.cls-30{fill:url(#linear-gradient-30);}.cls-31{fill:url(#linear-gradient-31);}.cls-32{fill:url(#linear-gradient-32);}.cls-33{fill:url(#linear-gradient-33);}.cls-34{fill:url(#linear-gradient-34);}.cls-35{fill:url(#linear-gradient-35);}.cls-36{fill:url(#linear-gradient-36);}.cls-37{fill:url(#linear-gradient-37);}.cls-38{fill:url(#linear-gradient-38);}.cls-39{fill:url(#linear-gradient-39);}.cls-40{fill:url(#linear-gradient-40);}.cls-41{fill:url(#linear-gradient-41);}.cls-42{fill:url(#linear-gradient-42);}.cls-43{fill:url(#linear-gradient-43);}.cls-44{fill:url(#linear-gradient-44);}.cls-45{fill:url(#linear-gradient-45);}.cls-46{fill:url(#linear-gradient-46);}.cls-47{fill:url(#linear-gradient-47);}.cls-48{fill:url(#linear-gradient-48);}.cls-49{fill:url(#linear-gradient-49);}.cls-50{fill:url(#linear-gradient-50);}.cls-51{fill:url(#linear-gradient-51);}.cls-52{fill:url(#linear-gradient-52);}.cls-53{fill:url(#linear-gradient-53);}.cls-54{fill:url(#linear-gradient-54);}.cls-55{fill:url(#linear-gradient-55);}.cls-56{fill:url(#linear-gradient-56);}.cls-57{fill:url(#linear-gradient-57);}.cls-58{fill:url(#linear-gradient-58);}.cls-59{fill:url(#linear-gradient-59);}.cls-60{fill:url(#linear-gradient-60);}.cls-61{fill:url(#linear-gradient-61);}.cls-62{fill:url(#linear-gradient-62);}.cls-63{fill:url(#linear-gradient-63);}.cls-64{fill:url(#linear-gradient-64);}.cls-65{fill:url(#linear-gradient-65);}.cls-66{fill:url(#linear-gradient-66);}.cls-67{fill:url(#linear-gradient-67);}.cls-68{fill:url(#linear-gradient-68);}.cls-69{fill:url(#Безымянный_градиент_7);}.cls-70{fill:url(#Безымянный_градиент_7-2);}.cls-71{fill:url(#Безымянный_градиент_9);}.cls-72{fill:url(#Безымянный_градиент_9-2);}</style><linearGradient id="linear-gradient" x1="-195.58" y1="140.29" x2="283.47" y2="-131.04" gradientUnits="userSpaceOnUse"><stop offset="0" stop-color="#f3debb"/><stop offset="0.06" stop-color="#e5c6a1"/><stop offset="0.14" stop-color="#d5a983"/><stop offset="0.26" stop-color="#a57b5d"/><stop offset="0.36" stop-color="#d5a983"/><stop offset="0.49" stop-color="#f3debb"/><stop offset="0.54" stop-color="#e5c6a1"/><stop offset="0.61" stop-color="#d5a983"/><stop offset="0.72" stop-color="#a57b5d"/><stop offset="0.84" stop-color="#d5a983"/><stop offset="1" stop-color="#f3debb"/></linearGradient><linearGradient id="linear-gradient-2" x1="-197.9" y1="136.23" x2="281.18" y2="-135.13" xlink:href="#linear-gradient"/><linearGradient id="linear-gradient-3" x1="-192.25" y1="146.37" x2="287" y2="-125.08" xlink:href="#linear-gradient"/><linearGradient id="linear-gradient-4" x1="-192.89" y1="145" x2="286.12" y2="-126.31" xlink:href="#linear-gradient"/><linearGradient id="linear-gradient-5" x1="-194.24" y1="142.74" x2="284.89" y2="-128.64" xlink:href="#linear-gradient"/><linearGradient id="linear-gradient-6" x1="-170.86" y1="184.02" x2="308.31" y2="-87.38" xlink:href="#linear-gradient"/><linearGradient id="linear-gradient-7" x1="-172.92" y1="180.38" x2="306.25" y2="-91.02" xlink:href="#linear-gradient"/><linearGradient id="linear-gradient-8" x1="-184.13" y1="160.61" x2="295.04" y2="-110.79" xlink:href="#linear-gradient"/><linearGradient id="linear-gradient-9" x1="-186.19" y1="156.97" x2="292.98" y2="-114.43" xlink:href="#linear-gradient"/><linearGradient id="linear-gradient-10" x1="-180.08" y1="167.46" x2="298.78" y2="-103.76" xlink:href="#linear-gradient"/><linearGradient id="linear-gradient-11" x1="-183.82" y1="161.19" x2="295.35" y2="-110.22" xlink:href="#linear-gradient"/><linearGradient id="linear-gradient-12" x1="-184.99" y1="159.12" x2="294.19" y2="-112.28" xlink:href="#linear-gradient"/><linearGradient id="linear-gradient-13" x1="-191.34" y1="147.92" x2="287.84" y2="-123.49" xlink:href="#linear-gradient"/><linearGradient id="linear-gradient-14" x1="-192.5" y1="145.85" x2="286.67" y2="-125.55" xlink:href="#linear-gradient"/><linearGradient id="linear-gradient-15" x1="-189.11" y1="151.84" x2="290.06" y2="-119.56" xlink:href="#linear-gradient"/><linearGradient id="linear-gradient-16" x1="-202.67" y1="127.84" x2="276.43" y2="-143.52" xlink:href="#linear-gradient"/><linearGradient id="linear-gradient-17" x1="-203.4" y1="126.67" x2="275.81" y2="-144.76" xlink:href="#linear-gradient"/><linearGradient id="linear-gradient-18" x1="-2337.42" y1="140.29" x2="-1858.37" y2="-131.04" gradientTransform="matrix(-1, 0, 0, 1, -1789.84, 0)" xlink:href="#linear-gradient"/><linearGradient id="linear-gradient-19" x1="-2339.74" y1="136.23" x2="-1860.66" y2="-135.13" gradientTransform="matrix(-1, 0, 0, 1, -1789.84, 0)" xlink:href="#linear-gradient"/><linearGradient id="linear-gradient-20" x1="-2334.09" y1="146.37" x2="-1854.84" y2="-125.08" gradientTransform="matrix(-1, 0, 0, 1, -1789.84, 0)" xlink:href="#linear-gradient"/><linearGradient id="linear-gradient-21" x1="-2334.72" y1="145" x2="-1855.72" y2="-126.31" gradientTransform="matrix(-1, 0, 0, 1, -1789.84, 0)" xlink:href="#linear-gradient"/><linearGradient id="linear-gradient-22" x1="-2336.08" y1="142.74" x2="-1856.94" y2="-128.64" gradientTransform="matrix(-1, 0, 0, 1, -1789.84, 0)" xlink:href="#linear-gradient"/><linearGradient id="linear-gradient-23" x1="-2312.69" y1="184.02" x2="-1833.52" y2="-87.38" gradientTransform="matrix(-1, 0, 0, 1, -1789.84, 0)" xlink:href="#linear-gradient"/><linearGradient id="linear-gradient-24" x1="-2314.76" y1="180.38" x2="-1835.58" y2="-91.02" gradientTransform="matrix(-1, 0, 0, 1, -1789.84, 0)" xlink:href="#linear-gradient"/><linearGradient id="linear-gradient-25" x1="-2325.97" y1="160.61" x2="-1846.79" y2="-110.79" gradientTransform="matrix(-1, 0, 0, 1, -1789.84, 0)" xlink:href="#linear-gradient"/><linearGradient id="linear-gradient-26" x1="-2328.03" y1="156.97" x2="-1848.86" y2="-114.43" gradientTransform="matrix(-1, 0, 0, 1, -1789.84, 0)" xlink:href="#linear-gradient"/><linearGradient id="linear-gradient-27" x1="-2321.91" y1="167.46" x2="-1843.06" y2="-103.76" gradientTransform="matrix(-1, 0, 0, 1, -1789.84, 0)" xlink:href="#linear-gradient"/><linearGradient id="linear-gradient-28" x1="-2325.65" y1="161.19" x2="-1846.48" y2="-110.22" gradientTransform="matrix(-1, 0, 0, 1, -1789.84, 0)" xlink:href="#linear-gradient"/><linearGradient id="linear-gradient-29" x1="-2326.82" y1="159.12" x2="-1847.65" y2="-112.28" gradientTransform="matrix(-1, 0, 0, 1, -1789.84, 0)" xlink:href="#linear-gradient"/><linearGradient id="linear-gradient-30" x1="-2333.17" y1="147.92" x2="-1854" y2="-123.49" gradientTransform="matrix(-1, 0, 0, 1, -1789.84, 0)" xlink:href="#linear-gradient"/><linearGradient id="linear-gradient-31" x1="-2334.34" y1="145.85" x2="-1855.17" y2="-125.55" gradientTransform="matrix(-1, 0, 0, 1, -1789.84, 0)" xlink:href="#linear-gradient"/><linearGradient id="linear-gradient-32" x1="-2330.95" y1="151.84" x2="-1851.78" y2="-119.56" gradientTransform="matrix(-1, 0, 0, 1, -1789.84, 0)" xlink:href="#linear-gradient"/><linearGradient id="linear-gradient-33" x1="-2344.5" y1="127.84" x2="-1865.4" y2="-143.52" gradientTransform="matrix(-1, 0, 0, 1, -1789.84, 0)" xlink:href="#linear-gradient"/><linearGradient id="linear-gradient-34" x1="-2345.23" y1="126.67" x2="-1866.02" y2="-144.76" gradientTransform="matrix(-1, 0, 0, 1, -1789.84, 0)" xlink:href="#linear-gradient"/><linearGradient id="linear-gradient-35" x1="-195.58" y1="1.5" x2="283.47" y2="-269.84" gradientTransform="matrix(1, 0, 0, -1, 0, 123.21)" xlink:href="#linear-gradient"/><linearGradient id="linear-gradient-36" x1="-197.9" y1="-2.57" x2="281.18" y2="-273.92" gradientTransform="matrix(1, 0, 0, -1, 0, 123.21)" xlink:href="#linear-gradient"/><linearGradient id="linear-gradient-37" x1="-192.25" y1="7.58" x2="287" y2="-263.87" gradientTransform="matrix(1, 0, 0, -1, 0, 123.21)" xlink:href="#linear-gradient"/><linearGradient id="linear-gradient-38" x1="-192.89" y1="6.2" x2="286.12" y2="-265.1" gradientTransform="matrix(1, 0, 0, -1, 0, 123.21)" xlink:href="#linear-gradient"/><linearGradient id="linear-gradient-39" x1="-194.24" y1="3.95" x2="284.89" y2="-267.43" gradientTransform="matrix(1, 0, 0, -1, 0, 123.21)" xlink:href="#linear-gradient"/><linearGradient id="linear-gradient-40" x1="-170.86" y1="45.23" x2="308.31" y2="-226.17" gradientTransform="matrix(1, 0, 0, -1, 0, 123.21)" xlink:href="#linear-gradient"/><linearGradient id="linear-gradient-41" x1="-172.92" y1="41.59" x2="306.25" y2="-229.81" gradientTransform="matrix(1, 0, 0, -1, 0, 123.21)" xlink:href="#linear-gradient"/><linearGradient id="linear-gradient-42" x1="-184.13" y1="21.82" x2="295.04" y2="-249.58" gradientTransform="matrix(1, 0, 0, -1, 0, 123.21)" xlink:href="#linear-gradient"/><linearGradient id="linear-gradient-43" x1="-186.19" y1="18.18" x2="292.98" y2="-253.22" gradientTransform="matrix(1, 0, 0, -1, 0, 123.21)" xlink:href="#linear-gradient"/><linearGradient id="linear-gradient-44" x1="-180.08" y1="28.67" x2="298.78" y2="-242.55" gradientTransform="matrix(1, 0, 0, -1, 0, 123.21)" xlink:href="#linear-gradient"/><linearGradient id="linear-gradient-45" x1="-183.82" y1="22.39" x2="295.35" y2="-249.01" gradientTransform="matrix(1, 0, 0, -1, 0, 123.21)" xlink:href="#linear-gradient"/><linearGradient id="linear-gradient-46" x1="-184.99" y1="20.33" x2="294.19" y2="-251.07" gradientTransform="matrix(1, 0, 0, -1, 0, 123.21)" xlink:href="#linear-gradient"/><linearGradient id="linear-gradient-47" x1="-191.34" y1="9.12" x2="287.84" y2="-262.28" gradientTransform="matrix(1, 0, 0, -1, 0, 123.21)" xlink:href="#linear-gradient"/><linearGradient id="linear-gradient-48" x1="-192.5" y1="7.06" x2="286.67" y2="-264.34" gradientTransform="matrix(1, 0, 0, -1, 0, 123.21)" xlink:href="#linear-gradient"/><linearGradient id="linear-gradient-49" x1="-189.11" y1="13.05" x2="290.06" y2="-258.35" gradientTransform="matrix(1, 0, 0, -1, 0, 123.21)" xlink:href="#linear-gradient"/><linearGradient id="linear-gradient-50" x1="-202.67" y1="-10.95" x2="276.43" y2="-282.32" gradientTransform="matrix(1, 0, 0, -1, 0, 123.21)" xlink:href="#linear-gradient"/><linearGradient id="linear-gradient-51" x1="-203.4" y1="-12.13" x2="275.81" y2="-283.55" gradientTransform="matrix(1, 0, 0, -1, 0, 123.21)" xlink:href="#linear-gradient"/><linearGradient id="linear-gradient-52" x1="-2337.42" y1="1.5" x2="-1858.37" y2="-269.84" gradientTransform="translate(-1789.84 123.21) rotate(180)" xlink:href="#linear-gradient"/><linearGradient id="linear-gradient-53" x1="-2339.74" y1="-2.57" x2="-1860.66" y2="-273.92" gradientTransform="translate(-1789.84 123.21) rotate(180)" xlink:href="#linear-gradient"/><linearGradient id="linear-gradient-54" x1="-2334.09" y1="7.58" x2="-1854.84" y2="-263.87" gradientTransform="translate(-1789.84 123.21) rotate(180)" xlink:href="#linear-gradient"/><linearGradient id="linear-gradient-55" x1="-2334.72" y1="6.2" x2="-1855.72" y2="-265.1" gradientTransform="translate(-1789.84 123.21) rotate(180)" xlink:href="#linear-gradient"/><linearGradient id="linear-gradient-56" x1="-2336.08" y1="3.95" x2="-1856.94" y2="-267.43" gradientTransform="translate(-1789.84 123.21) rotate(180)" xlink:href="#linear-gradient"/><linearGradient id="linear-gradient-57" x1="-2312.69" y1="45.23" x2="-1833.52" y2="-226.17" gradientTransform="translate(-1789.84 123.21) rotate(180)" xlink:href="#linear-gradient"/><linearGradient id="linear-gradient-58" x1="-2314.76" y1="41.59" x2="-1835.58" y2="-229.81" gradientTransform="translate(-1789.84 123.21) rotate(180)" xlink:href="#linear-gradient"/><linearGradient id="linear-gradient-59" x1="-2325.97" y1="21.82" x2="-1846.79" y2="-249.58" gradientTransform="translate(-1789.84 123.21) rotate(180)" xlink:href="#linear-gradient"/><linearGradient id="linear-gradient-60" x1="-2328.03" y1="18.18" x2="-1848.86" y2="-253.22" gradientTransform="translate(-1789.84 123.21) rotate(180)" xlink:href="#linear-gradient"/><linearGradient id="linear-gradient-61" x1="-2321.91" y1="28.67" x2="-1843.06" y2="-242.55" gradientTransform="translate(-1789.84 123.21) rotate(180)" xlink:href="#linear-gradient"/><linearGradient id="linear-gradient-62" x1="-2325.65" y1="22.39" x2="-1846.48" y2="-249.01" gradientTransform="translate(-1789.84 123.21) rotate(180)" xlink:href="#linear-gradient"/><linearGradient id="linear-gradient-63" x1="-2326.82" y1="20.33" x2="-1847.65" y2="-251.07" gradientTransform="translate(-1789.84 123.21) rotate(180)" xlink:href="#linear-gradient"/><linearGradient id="linear-gradient-64" x1="-2333.17" y1="9.12" x2="-1854" y2="-262.28" gradientTransform="translate(-1789.84 123.21) rotate(180)" xlink:href="#linear-gradient"/><linearGradient id="linear-gradient-65" x1="-2334.34" y1="7.06" x2="-1855.17" y2="-264.34" gradientTransform="translate(-1789.84 123.21) rotate(180)" xlink:href="#linear-gradient"/><linearGradient id="linear-gradient-66" x1="-2330.95" y1="13.05" x2="-1851.78" y2="-258.35" gradientTransform="translate(-1789.84 123.21) rotate(180)" xlink:href="#linear-gradient"/><linearGradient id="linear-gradient-67" x1="-2344.5" y1="-10.95" x2="-1865.4" y2="-282.32" gradientTransform="translate(-1789.84 123.21) rotate(180)" xlink:href="#linear-gradient"/><linearGradient id="linear-gradient-68" x1="-2345.23" y1="-12.13" x2="-1866.02" y2="-283.55" gradientTransform="translate(-1789.84 123.21) rotate(180)" xlink:href="#linear-gradient"/><linearGradient id="Безымянный_градиент_7" x1="87.92" y1="11.27" x2="268.74" y2="11.27" gradientUnits="userSpaceOnUse"><stop offset="0" stop-color="#e0bf9a"/><stop offset="0.14" stop-color="#d5a983"/><stop offset="0.36" stop-color="#d5a983"/><stop offset="0.49" stop-color="#f3debb"/><stop offset="0.54" stop-color="#e5c6a1"/><stop offset="0.61" stop-color="#d5a983"/><stop offset="0.84" stop-color="#d5a983"/><stop offset="1" stop-color="#e4c19c"/></linearGradient><linearGradient id="Безымянный_градиент_7-2" x1="87.92" y1="250.73" x2="268.74" y2="250.73" xlink:href="#Безымянный_градиент_7"/><linearGradient id="Безымянный_градиент_9" x1="-853.61" y1="-1440.03" x2="-763.91" y2="-1440.03" gradientTransform="translate(1149.33 1571.66)" gradientUnits="userSpaceOnUse"><stop offset="0" stop-color="#d9af8a"/><stop offset="0.14" stop-color="#d5a983"/><stop offset="0.36" stop-color="#d5a983"/><stop offset="0.49" stop-color="#f3debb"/><stop offset="0.54" stop-color="#e5c6a1"/><stop offset="0.61" stop-color="#d5a983"/><stop offset="0.84" stop-color="#d5a983"/><stop offset="1" stop-color="#d8b08a"/></linearGradient><linearGradient id="Безымянный_градиент_9-2" x1="-853.61" y1="-1110.88" x2="-763.91" y2="-1110.88" gradientTransform="translate(820.19 1242.51)" xlink:href="#Безымянный_градиент_9"/></defs><title>frame-gh</title><path class="cls-1" d="M3.38,21.55a8.51,8.51,0,0,1,2.53-1.76l.24-.11A20.42,20.42,0,0,1,13.62,18c7.36-.33,9.57-5.1,9.59-5.15a.16.16,0,0,1,0-.07A3.58,3.58,0,0,0,22,7.88a2.7,2.7,0,0,0-3.71.88,2,2,0,0,0-.18,1.62,1.86,1.86,0,0,0,1.48,1.43,1.5,1.5,0,0,0,1.47-.72.63.63,0,1,1,1.07.65,2.76,2.76,0,0,1-2.68,1.31,3.09,3.09,0,0,1-2.53-2.29,3.29,3.29,0,0,1,.3-2.66,4,4,0,0,1,5.43-1.29,4.82,4.82,0,0,1,1.67,6.56c-.25.53-2.8,5.51-10.66,5.86a19.53,19.53,0,0,0-7,1.58l-.26.12a7.47,7.47,0,0,0-4.28,5.71,6.88,6.88,0,0,0,2.21,6.28l.43.36a5.93,5.93,0,0,0,4.79,1.09c2.51-.46,4.23-1.9,4.72-3.95a4.83,4.83,0,0,0-1.76-5,3.58,3.58,0,0,0-2.82-.66,3.31,3.31,0,0,0-2.89,2.36,2.89,2.89,0,0,0,1,3,2.19,2.19,0,0,0,1.6.43,2.11,2.11,0,0,0,1.42-.81.63.63,0,0,1,.88-.12.63.63,0,0,1,.11.88,3.32,3.32,0,0,1-2.25,1.29,3.4,3.4,0,0,1-2.53-.68,4.14,4.14,0,0,1-1.49-4.25A4.56,4.56,0,0,1,9.5,23.57a4.88,4.88,0,0,1,3.81.9,6.11,6.11,0,0,1,2.21,6.25c-.6,2.51-2.74,4.33-5.71,4.88A7.17,7.17,0,0,1,4,34.27l-.5-.42a8.11,8.11,0,0,1-2.61-7.4A8.69,8.69,0,0,1,3.38,21.55Z"/><path class="cls-2" d="M21.73,3.21A8.75,8.75,0,0,1,26.64.74,8.12,8.12,0,0,1,34,3.36c.14.16.28.32.41.49a7.14,7.14,0,0,1,1.34,5.79c-.55,3-2.38,5.1-4.89,5.7a6.11,6.11,0,0,1-6.25-2.2,4.89,4.89,0,0,1-.9-3.81A4.6,4.6,0,0,1,27,5.44a4.13,4.13,0,0,1,4.25,1.49,3.4,3.4,0,0,1-.6,4.78.62.62,0,0,1-.88-.12.61.61,0,0,1,.11-.87,2.12,2.12,0,0,0,.82-1.42,2.15,2.15,0,0,0-.44-1.6,2.89,2.89,0,0,0-3-1A3.34,3.34,0,0,0,25,9.55a3.63,3.63,0,0,0,.67,2.82,4.85,4.85,0,0,0,5,1.76c2-.5,3.49-2.22,4-4.72a5.91,5.91,0,0,0-1.1-4.79,4.82,4.82,0,0,0-.36-.43A6.89,6.89,0,0,0,26.82,2a7.47,7.47,0,0,0-5.71,4.28L21,6.5a19.22,19.22,0,0,0-1.59,7c-.35,7.85-5.33,10.4-5.86,10.65A4.84,4.84,0,0,1,7,22.49a4,4,0,0,1,1.29-5.43,3.29,3.29,0,0,1,2.66-.3,3.07,3.07,0,0,1,2.29,2.53A2.73,2.73,0,0,1,11.91,22a.63.63,0,0,1-.86-.21.62.62,0,0,1,.22-.86A1.5,1.5,0,0,0,12,19.44,1.83,1.83,0,0,0,10.55,18a2,2,0,0,0-1.62.17,2.7,2.7,0,0,0-.88,3.71,3.58,3.58,0,0,0,4.88,1.23L13,23c.2-.09,4.83-2.27,5.16-9.58A20.32,20.32,0,0,1,19.86,6L20,5.74A8.51,8.51,0,0,1,21.73,3.21Z"/><path class="cls-3" d="M20,19.79a.63.63,0,0,1,.69-.13c.2.08,4.88,2.11,7.13,5,1.08,1.38.93,2.63.3,3.26s-1.87.78-3.25-.3c-2.89-2.26-4.92-6.93-5-7.13A.63.63,0,0,1,20,19.79ZM27.21,27c.23-.23.17-.86-.41-1.6h0a16.55,16.55,0,0,0-5-3.81,16.59,16.59,0,0,0,3.82,5C26.35,27.2,27,27.26,27.21,27Zm.09-2h0Z"/><path class="cls-4" d="M17.68,22.88a.6.6,0,0,1,.44-.19.64.64,0,0,1,.53.29c.14.22,1.37,2.2,1.05,3.82h0a1.57,1.57,0,0,1-1.55,1.31,1.62,1.62,0,0,1-1.59-1.31c-.32-1.63.89-3.6,1-3.82Zm1.41,3.81-.62-.12a3.48,3.48,0,0,0-.35-1.88,3.6,3.6,0,0,0-.33,1.86.34.34,0,0,0,.35.31.32.32,0,0,0,.33-.29Z"/><path class="cls-5" d="M23.06,17.5a.39.39,0,0,1,.1-.08c.22-.14,2.19-1.36,3.82-1A1.58,1.58,0,0,1,28.29,18,1.56,1.56,0,0,1,27,19.53h0c-1.63.31-3.61-.92-3.83-1.06a.63.63,0,0,1-.29-.53A.61.61,0,0,1,23.06,17.5Zm3.89.7A.34.34,0,0,0,27,18a.35.35,0,0,0-.3-.35,3.53,3.53,0,0,0-1.87.34,3.68,3.68,0,0,0,1.88.35A.42.42,0,0,0,27,18.2Z"/><polygon class="cls-6" points="9.04 80.78 11.43 78.37 13.82 80.78 11.43 83.18 9.04 80.78"/><polygon class="cls-7" points="9.04 75.97 11.43 73.57 13.82 75.97 11.43 78.37 9.04 75.97"/><polygon class="cls-8" points="9.04 49.85 11.43 47.44 13.82 49.85 11.43 52.25 9.04 49.85"/><polygon class="cls-9" points="9.04 45.04 11.43 42.64 13.82 45.04 11.43 47.45 9.04 45.04"/><path class="cls-10" d="M11.43,29.56a.6.6,0,0,0-.6.6V87.84a.6.6,0,0,0,1.2,0V30.16A.6.6,0,0,0,11.43,29.56Z"/><polygon class="cls-11" points="80.86 13.66 78.45 11.28 80.86 8.88 83.26 11.28 80.86 13.66"/><polygon class="cls-12" points="76.05 13.66 73.64 11.28 76.05 8.88 78.45 11.28 76.05 13.66"/><polygon class="cls-13" points="49.91 13.66 47.5 11.28 49.91 8.88 52.31 11.28 49.91 13.66"/><polygon class="cls-14" points="45.09 13.66 42.69 11.28 45.09 8.88 47.5 11.28 45.09 13.66"/><path class="cls-15" d="M87.92,10.68H30.2a.6.6,0,1,0,0,1.19H87.92a.6.6,0,1,0,0-1.19Z"/><path class="cls-16" d="M5.27,15.74A4.44,4.44,0,0,1,4,13.05l0-.13a10.27,10.27,0,0,1,.36-3.73,4.83,4.83,0,0,0-.65-4.56,1.65,1.65,0,0,1,0,1.47,1.79,1.79,0,0,1-1.74,1A1.91,1.91,0,0,1,.52,6.43,2.25,2.25,0,0,1,.79,3.28a2.65,2.65,0,0,1,1.92-.63,2.71,2.71,0,0,1,1.78.89c.28.27,2.16,2.32,1.12,6a8.93,8.93,0,0,0-.32,3.21l0,.14A3.17,3.17,0,0,0,7,15.39a2.85,2.85,0,0,0,2.76-.05,1.37,1.37,0,0,0,.2-.13,2.42,2.42,0,0,0,1-1.72,2.26,2.26,0,0,0-.9-2.34,1.92,1.92,0,0,0-2.06,0,1.28,1.28,0,0,0-.55.91A1.21,1.21,0,0,0,8,13.38a1,1,0,0,0,1.06,0,.64.64,0,0,0,.18-.89.67.67,0,0,1,.18-.93.68.68,0,0,1,.93.18,2,2,0,0,1-.54,2.75,2.31,2.31,0,0,1-2.52,0A2.54,2.54,0,0,1,6.2,11.91a2.67,2.67,0,0,1,1.13-1.83A3.24,3.24,0,0,1,10.84,10a3.56,3.56,0,0,1,1.52,3.66,3.79,3.79,0,0,1-1.61,2.66l-.29.17a4.15,4.15,0,0,1-4,.08A4.26,4.26,0,0,1,5.27,15.74ZM2.93,4.06A1.14,1.14,0,0,0,2.61,4a1.26,1.26,0,0,0-.95.31.9.9,0,0,0-.11,1.27A.55.55,0,0,0,2,5.75a.48.48,0,0,0,.5-.23.34.34,0,0,0,0-.36.67.67,0,0,1,.07-.94A.66.66,0,0,1,2.93,4.06Z"/><path class="cls-17" d="M3.41,4.36a2.56,2.56,0,0,1-.75-1.65A2.58,2.58,0,0,1,3.28.79,2.25,2.25,0,0,1,6.43.52,1.91,1.91,0,0,1,7.1,1.94a1.81,1.81,0,0,1-1,1.74,1.72,1.72,0,0,1-1.47,0,4.85,4.85,0,0,0,4.56.65A10.18,10.18,0,0,1,13,4h.11a4.49,4.49,0,0,1,3.53,2.45,4.17,4.17,0,0,1-.08,4l-.17.28a3.8,3.8,0,0,1-2.66,1.62A3.59,3.59,0,0,1,10,10.84a3.25,3.25,0,0,1,.07-3.52,2.7,2.7,0,0,1,1.83-1.13,2.53,2.53,0,0,1,2.61,1.08,2.31,2.31,0,0,1,0,2.52,2,2,0,0,1-2.75.53.67.67,0,0,1-.18-.93.68.68,0,0,1,.93-.18A.64.64,0,0,0,13.37,9a1,1,0,0,0,0-1.06,1.23,1.23,0,0,0-1.28-.46,1.35,1.35,0,0,0-.91.55,1.9,1.9,0,0,0,0,2.06,2.26,2.26,0,0,0,2.34.9,2.42,2.42,0,0,0,1.72-1,1.37,1.37,0,0,0,.13-.2A2.85,2.85,0,0,0,15.4,7a3.16,3.16,0,0,0-2.49-1.72l-.12,0a9.07,9.07,0,0,0-3.24.32c-3.69,1-5.73-.84-6-1.13ZM5.6,1.57l0,0a.9.9,0,0,0-1.27.11,1.35,1.35,0,0,0-.31,1,1.23,1.23,0,0,0,.07.32.64.64,0,0,1,.16-.43.67.67,0,0,1,.94-.08.34.34,0,0,0,.37.05c.15-.07.23-.25.23-.51A.55.55,0,0,0,5.6,1.57Z"/><path class="cls-18" d="M348.62,21.55a8.51,8.51,0,0,0-2.53-1.76l-.24-.11a20.42,20.42,0,0,0-7.47-1.7c-7.36-.33-9.57-5.1-9.59-5.15a.16.16,0,0,0,0-.07A3.58,3.58,0,0,1,330,7.88a2.7,2.7,0,0,1,3.71.88,2,2,0,0,1,.18,1.62,1.86,1.86,0,0,1-1.48,1.43,1.5,1.5,0,0,1-1.47-.72.63.63,0,0,0-1.07.65,2.76,2.76,0,0,0,2.68,1.31,3.09,3.09,0,0,0,2.53-2.29,3.29,3.29,0,0,0-.3-2.66,4,4,0,0,0-5.43-1.29,4.82,4.82,0,0,0-1.67,6.56c.25.53,2.8,5.51,10.66,5.86a19.53,19.53,0,0,1,7,1.58l.26.12a7.47,7.47,0,0,1,4.28,5.71,6.88,6.88,0,0,1-2.21,6.28l-.43.36a5.93,5.93,0,0,1-4.79,1.09c-2.51-.46-4.23-1.9-4.72-3.95a4.83,4.83,0,0,1,1.76-5,3.58,3.58,0,0,1,2.82-.66,3.31,3.31,0,0,1,2.89,2.36,2.89,2.89,0,0,1-1,3,2.19,2.19,0,0,1-1.6.43,2.11,2.11,0,0,1-1.42-.81.63.63,0,0,0-.88-.12.63.63,0,0,0-.11.88,3.32,3.32,0,0,0,2.25,1.29,3.4,3.4,0,0,0,2.53-.68,4.14,4.14,0,0,0,1.49-4.25,4.56,4.56,0,0,0-3.89-3.29,4.88,4.88,0,0,0-3.81.9,6.11,6.11,0,0,0-2.21,6.25c.6,2.51,2.74,4.33,5.71,4.88A7.17,7.17,0,0,0,348,34.27l.5-.42a8.11,8.11,0,0,0,2.61-7.4A8.69,8.69,0,0,0,348.62,21.55Z"/><path class="cls-19" d="M330.27,3.21A8.75,8.75,0,0,0,325.36.74,8.12,8.12,0,0,0,318,3.36c-.14.16-.28.32-.41.49a7.14,7.14,0,0,0-1.34,5.79c.55,3,2.38,5.1,4.89,5.7a6.11,6.11,0,0,0,6.25-2.2,4.89,4.89,0,0,0,.9-3.81A4.6,4.6,0,0,0,325,5.44a4.13,4.13,0,0,0-4.25,1.49,3.4,3.4,0,0,0,.6,4.78.62.62,0,0,0,.88-.12.61.61,0,0,0-.11-.87,2.12,2.12,0,0,1-.82-1.42,2.15,2.15,0,0,1,.44-1.6,2.89,2.89,0,0,1,3-1A3.34,3.34,0,0,1,327,9.55a3.63,3.63,0,0,1-.67,2.82,4.85,4.85,0,0,1-5,1.76c-2.05-.5-3.49-2.22-3.95-4.72a5.91,5.91,0,0,1,1.1-4.79,4.82,4.82,0,0,1,.36-.43A6.89,6.89,0,0,1,325.18,2a7.47,7.47,0,0,1,5.71,4.28l.11.24a19.22,19.22,0,0,1,1.59,7c.35,7.85,5.33,10.4,5.86,10.65A4.84,4.84,0,0,0,345,22.49a4,4,0,0,0-1.29-5.43,3.29,3.29,0,0,0-2.66-.3,3.07,3.07,0,0,0-2.29,2.53A2.73,2.73,0,0,0,340.09,22a.63.63,0,0,0,.86-.21.62.62,0,0,0-.22-.86,1.5,1.5,0,0,1-.71-1.46A1.83,1.83,0,0,1,341.45,18a2,2,0,0,1,1.62.17,2.7,2.7,0,0,1,.88,3.71,3.58,3.58,0,0,1-4.88,1.23L339,23c-.2-.09-4.83-2.27-5.16-9.58A20.32,20.32,0,0,0,332.14,6L332,5.74A8.51,8.51,0,0,0,330.27,3.21Z"/><path class="cls-20" d="M332.16,20.48c-.08.2-2.11,4.87-5,7.13-1.38,1.08-2.63.93-3.25.3s-.78-1.88.3-3.26c2.25-2.88,6.93-4.91,7.13-5a.62.62,0,0,1,.82.82Zm-5.77,6.14a16.59,16.59,0,0,0,3.82-5,16.55,16.55,0,0,0-5,3.81h0c-.58.74-.64,1.37-.41,1.6S325.65,27.2,326.39,26.62ZM324.71,25h0Z"/><path class="cls-21" d="M334.41,23c.14.22,1.35,2.19,1,3.82a1.62,1.62,0,0,1-1.59,1.31,1.57,1.57,0,0,1-1.55-1.31h0c-.32-1.62.91-3.6,1.05-3.82a.64.64,0,0,1,.53-.29.6.6,0,0,1,.44.19Zm-.88,3.59a.32.32,0,0,0,.33.29.34.34,0,0,0,.35-.31,3.6,3.6,0,0,0-.33-1.86,3.48,3.48,0,0,0-.35,1.88l-.62.12Z"/><path class="cls-22" d="M329.13,17.94a.63.63,0,0,1-.29.53c-.22.14-2.2,1.37-3.83,1.06h0a1.56,1.56,0,0,1-1.3-1.56A1.58,1.58,0,0,1,325,16.39c1.63-.33,3.6.89,3.82,1a.39.39,0,0,1,.1.08A.61.61,0,0,1,329.13,17.94Zm-3.88.36a3.68,3.68,0,0,0,1.88-.35,3.53,3.53,0,0,0-1.87-.34.35.35,0,0,0-.3.35.34.34,0,0,0,.09.24A.42.42,0,0,0,325.25,18.3Z"/><polygon class="cls-23" points="342.96 80.78 340.57 78.37 338.18 80.78 340.57 83.18 342.96 80.78"/><polygon class="cls-24" points="342.96 75.97 340.57 73.57 338.18 75.97 340.57 78.37 342.96 75.97"/><polygon class="cls-25" points="342.96 49.85 340.57 47.44 338.18 49.85 340.57 52.25 342.96 49.85"/><polygon class="cls-26" points="342.96 45.04 340.57 42.64 338.18 45.04 340.57 47.45 342.96 45.04"/><path class="cls-27" d="M340.57,29.56a.6.6,0,0,1,.6.6V87.84a.6.6,0,1,1-1.2,0V30.16A.6.6,0,0,1,340.57,29.56Z"/><polygon class="cls-28" points="271.14 13.66 273.55 11.28 271.14 8.88 268.74 11.28 271.14 13.66"/><polygon class="cls-29" points="275.95 13.66 278.36 11.28 275.95 8.88 273.55 11.28 275.95 13.66"/><polygon class="cls-30" points="302.09 13.66 304.5 11.28 302.09 8.88 299.69 11.28 302.09 13.66"/><polygon class="cls-31" points="306.9 13.66 309.31 11.28 306.9 8.88 304.5 11.28 306.9 13.66"/><path class="cls-32" d="M264.08,10.68H321.8a.6.6,0,1,1,0,1.19H264.08a.6.6,0,1,1,0-1.19Z"/><path class="cls-33" d="M345.57,16.58a4.15,4.15,0,0,1-4-.08l-.29-.17a3.79,3.79,0,0,1-1.61-2.66A3.56,3.56,0,0,1,341.16,10a3.24,3.24,0,0,1,3.51.07,2.67,2.67,0,0,1,1.13,1.83,2.54,2.54,0,0,1-1.07,2.61,2.31,2.31,0,0,1-2.52,0,2,2,0,0,1-.54-2.75.68.68,0,0,1,.93-.18.67.67,0,0,1,.18.93.64.64,0,0,0,.18.89,1,1,0,0,0,1.06,0,1.21,1.21,0,0,0,.45-1.28,1.28,1.28,0,0,0-.55-.91,1.92,1.92,0,0,0-2.06,0,2.26,2.26,0,0,0-.9,2.34,2.42,2.42,0,0,0,1,1.72,1.37,1.37,0,0,0,.2.13,2.85,2.85,0,0,0,2.76.05,3.17,3.17,0,0,0,1.73-2.49l0-.14a8.93,8.93,0,0,0-.32-3.21c-1-3.69.84-5.74,1.12-6a2.71,2.71,0,0,1,1.78-.89,2.65,2.65,0,0,1,1.92.63,2.25,2.25,0,0,1,.27,3.15,1.91,1.91,0,0,1-1.42.66,1.79,1.79,0,0,1-1.74-1,1.65,1.65,0,0,1,0-1.47,4.83,4.83,0,0,0-.65,4.56,10.27,10.27,0,0,1,.36,3.73l0,.13a4.44,4.44,0,0,1-1.29,2.69A4.26,4.26,0,0,1,345.57,16.58ZM349.5,4.22a.67.67,0,0,1,.07.94.34.34,0,0,0,0,.36.48.48,0,0,0,.5.23.55.55,0,0,0,.42-.18.9.9,0,0,0-.11-1.27,1.26,1.26,0,0,0-.95-.31,1.14,1.14,0,0,0-.32.07A.66.66,0,0,1,349.5,4.22Z"/><path class="cls-34" d="M348.46,4.48c-.28.29-2.32,2.17-6,1.13a9.07,9.07,0,0,0-3.24-.32l-.12,0A3.16,3.16,0,0,0,336.6,7a2.85,2.85,0,0,0,0,2.76,1.37,1.37,0,0,0,.13.2,2.42,2.42,0,0,0,1.72,1,2.26,2.26,0,0,0,2.34-.9,1.9,1.9,0,0,0,0-2.06,1.35,1.35,0,0,0-.91-.55,1.23,1.23,0,0,0-1.28.46,1,1,0,0,0,0,1.06.64.64,0,0,0,.89.17.68.68,0,0,1,.93.18.67.67,0,0,1-.18.93,2,2,0,0,1-2.75-.53,2.31,2.31,0,0,1,0-2.52,2.53,2.53,0,0,1,2.61-1.08,2.7,2.7,0,0,1,1.83,1.13,3.25,3.25,0,0,1,.07,3.52,3.59,3.59,0,0,1-3.66,1.52,3.8,3.8,0,0,1-2.66-1.62l-.17-.28a4.17,4.17,0,0,1-.08-4A4.49,4.49,0,0,1,338.94,4h.11a10.18,10.18,0,0,1,3.76.36,4.85,4.85,0,0,0,4.56-.65,1.72,1.72,0,0,1-1.47,0,1.81,1.81,0,0,1-1-1.74,1.91,1.91,0,0,1,.67-1.42,2.25,2.25,0,0,1,3.15.27,2.58,2.58,0,0,1,.62,1.92,2.56,2.56,0,0,1-.75,1.65ZM346.24,2c0,.26.08.44.23.51a.34.34,0,0,0,.37-.05.67.67,0,0,1,.94.08.64.64,0,0,1,.16.43,1.23,1.23,0,0,0,.07-.32,1.35,1.35,0,0,0-.31-.95.9.9,0,0,0-1.27-.11l0,0A.55.55,0,0,0,346.24,2Z"/><path class="cls-35" d="M3.38,240.45a8.51,8.51,0,0,0,2.53,1.76l.24.11a20.42,20.42,0,0,0,7.47,1.7c7.36.33,9.57,5.1,9.59,5.15a.16.16,0,0,0,0,.07A3.58,3.58,0,0,1,22,254.12a2.7,2.7,0,0,1-3.71-.88,2,2,0,0,1-.18-1.62,1.86,1.86,0,0,1,1.48-1.43,1.5,1.5,0,0,1,1.47.72.63.63,0,1,0,1.07-.65A2.76,2.76,0,0,0,19.47,249a3.09,3.09,0,0,0-2.53,2.29,3.29,3.29,0,0,0,.3,2.66,4,4,0,0,0,5.43,1.29,4.82,4.82,0,0,0,1.67-6.56c-.25-.53-2.8-5.51-10.66-5.86a19.53,19.53,0,0,1-7-1.58l-.26-.12a7.47,7.47,0,0,1-4.28-5.71,6.88,6.88,0,0,1,2.21-6.28l.43-.36a5.93,5.93,0,0,1,4.79-1.09c2.51.46,4.23,1.9,4.72,4a4.83,4.83,0,0,1-1.76,5,3.58,3.58,0,0,1-2.82.66,3.31,3.31,0,0,1-2.89-2.36,2.89,2.89,0,0,1,1-3,2.19,2.19,0,0,1,1.6-.43,2.11,2.11,0,0,1,1.42.81.63.63,0,0,0,.88.12.63.63,0,0,0,.11-.88,3.32,3.32,0,0,0-2.25-1.29,3.4,3.4,0,0,0-2.53.68,4.14,4.14,0,0,0-1.49,4.25,4.56,4.56,0,0,0,3.89,3.29,4.88,4.88,0,0,0,3.81-.9,6.11,6.11,0,0,0,2.21-6.25c-.6-2.51-2.74-4.33-5.71-4.88A7.17,7.17,0,0,0,4,227.73l-.5.42a8.11,8.11,0,0,0-2.61,7.4A8.69,8.69,0,0,0,3.38,240.45Z"/><path class="cls-36" d="M21.73,258.79a8.75,8.75,0,0,0,4.91,2.47,8.12,8.12,0,0,0,7.4-2.62c.14-.16.28-.32.41-.49a7.14,7.14,0,0,0,1.34-5.79c-.55-3-2.38-5.1-4.89-5.7a6.11,6.11,0,0,0-6.25,2.2,4.89,4.89,0,0,0-.9,3.81A4.6,4.6,0,0,0,27,256.56a4.13,4.13,0,0,0,4.25-1.49,3.4,3.4,0,0,0-.6-4.78.62.62,0,0,0-.88.12.61.61,0,0,0,.11.87,2.12,2.12,0,0,1,.82,1.42,2.15,2.15,0,0,1-.44,1.6,2.89,2.89,0,0,1-3,1A3.34,3.34,0,0,1,25,252.45a3.63,3.63,0,0,1,.67-2.82,4.85,4.85,0,0,1,5-1.76c2,.5,3.49,2.22,4,4.72a5.91,5.91,0,0,1-1.1,4.79,4.82,4.82,0,0,1-.36.43A6.89,6.89,0,0,1,26.82,260a7.47,7.47,0,0,1-5.71-4.28L21,255.5a19.22,19.22,0,0,1-1.59-7c-.35-7.85-5.33-10.4-5.86-10.65A4.84,4.84,0,0,0,7,239.51a4,4,0,0,0,1.29,5.43,3.29,3.29,0,0,0,2.66.3,3.07,3.07,0,0,0,2.29-2.53A2.73,2.73,0,0,0,11.91,240a.63.63,0,0,0-.86.21.62.62,0,0,0,.22.86,1.5,1.5,0,0,1,.71,1.46A1.83,1.83,0,0,1,10.55,244a2,2,0,0,1-1.62-.17,2.7,2.7,0,0,1-.88-3.71,3.58,3.58,0,0,1,4.88-1.23l.07,0c.2.09,4.83,2.27,5.16,9.58a20.32,20.32,0,0,0,1.7,7.48l.11.23A8.51,8.51,0,0,0,21.73,258.79Z"/><path class="cls-37" d="M19.84,241.52c.08-.2,2.11-4.87,5-7.13,1.38-1.08,2.63-.93,3.25-.3s.78,1.88-.3,3.26c-2.25,2.88-6.93,4.91-7.13,5a.62.62,0,0,1-.82-.82Zm5.77-6.14a16.59,16.59,0,0,0-3.82,5,16.55,16.55,0,0,0,5-3.81h0c.58-.74.64-1.37.41-1.6S26.35,234.8,25.61,235.38ZM27.29,237h0Z"/><path class="cls-38" d="M17.59,239c-.14-.22-1.35-2.19-1-3.82a1.62,1.62,0,0,1,1.59-1.31,1.57,1.57,0,0,1,1.55,1.31h0c.32,1.62-.91,3.6-1.05,3.82a.64.64,0,0,1-.53.29.6.6,0,0,1-.44-.19Zm.88-3.59a.32.32,0,0,0-.33-.29.34.34,0,0,0-.35.31,3.6,3.6,0,0,0,.33,1.86,3.48,3.48,0,0,0,.35-1.88l.62-.12Z"/><path class="cls-39" d="M22.87,244.06a.63.63,0,0,1,.29-.53c.22-.14,2.2-1.37,3.83-1.06h0a1.56,1.56,0,0,1,1.3,1.56A1.58,1.58,0,0,1,27,245.61c-1.63.33-3.6-.89-3.82-1a.39.39,0,0,1-.1-.08A.61.61,0,0,1,22.87,244.06Zm3.88-.36a3.68,3.68,0,0,0-1.88.35,3.53,3.53,0,0,0,1.87.34A.35.35,0,0,0,27,244a.34.34,0,0,0-.09-.24A.42.42,0,0,0,26.75,243.7Z"/><polygon class="cls-40" points="9.04 181.22 11.43 183.63 13.82 181.22 11.43 178.82 9.04 181.22"/><polygon class="cls-41" points="9.04 186.03 11.43 188.43 13.82 186.03 11.43 183.63 9.04 186.03"/><polygon class="cls-42" points="9.04 212.15 11.43 214.56 13.82 212.15 11.43 209.75 9.04 212.15"/><polygon class="cls-43" points="9.04 216.96 11.43 219.36 13.82 216.96 11.43 214.56 9.04 216.96"/><path class="cls-44" d="M11.43,232.44a.6.6,0,0,1-.6-.6V174.16a.6.6,0,0,1,1.2,0v57.68A.6.6,0,0,1,11.43,232.44Z"/><polygon class="cls-45" points="80.86 248.34 78.45 250.72 80.86 253.12 83.26 250.72 80.86 248.34"/><polygon class="cls-46" points="76.05 248.34 73.64 250.72 76.05 253.12 78.45 250.72 76.05 248.34"/><polygon class="cls-47" points="49.91 248.34 47.5 250.72 49.91 253.12 52.31 250.72 49.91 248.34"/><polygon class="cls-48" points="45.09 248.34 42.69 250.72 45.09 253.12 47.5 250.72 45.09 248.34"/><path class="cls-49" d="M87.92,251.32H30.2a.6.6,0,1,1,0-1.19H87.92a.6.6,0,1,1,0,1.19Z"/><path class="cls-50" d="M6.43,245.42a4.15,4.15,0,0,1,4,.08l.29.17a3.79,3.79,0,0,1,1.61,2.66A3.56,3.56,0,0,1,10.84,252a3.24,3.24,0,0,1-3.51-.07,2.67,2.67,0,0,1-1.13-1.83,2.54,2.54,0,0,1,1.07-2.61,2.31,2.31,0,0,1,2.52.05,2,2,0,0,1,.54,2.75.68.68,0,0,1-.93.18.67.67,0,0,1-.18-.93.64.64,0,0,0-.18-.89,1,1,0,0,0-1.06,0,1.21,1.21,0,0,0-.45,1.28,1.28,1.28,0,0,0,.55.91,1.92,1.92,0,0,0,2.06,0,2.26,2.26,0,0,0,.9-2.34,2.42,2.42,0,0,0-1-1.72,1.37,1.37,0,0,0-.2-.13,2.85,2.85,0,0,0-2.76,0,3.17,3.17,0,0,0-1.73,2.49l0,.14a8.93,8.93,0,0,0,.32,3.21c1,3.69-.84,5.74-1.12,6a2.71,2.71,0,0,1-1.78.89,2.65,2.65,0,0,1-1.92-.63,2.25,2.25,0,0,1-.27-3.15,1.91,1.91,0,0,1,1.42-.66,1.79,1.79,0,0,1,1.74,1,1.65,1.65,0,0,1,0,1.47,4.83,4.83,0,0,0,.65-4.56A10.27,10.27,0,0,1,4,249.08L4,249a4.44,4.44,0,0,1,1.29-2.69A4.26,4.26,0,0,1,6.43,245.42ZM2.5,257.78a.67.67,0,0,1-.07-.94.34.34,0,0,0,0-.36.48.48,0,0,0-.5-.23.55.55,0,0,0-.42.18.9.9,0,0,0,.11,1.27,1.26,1.26,0,0,0,1,.31,1.14,1.14,0,0,0,.32-.07A.66.66,0,0,1,2.5,257.78Z"/><path class="cls-51" d="M3.54,257.52c.28-.29,2.32-2.17,6-1.13a9.07,9.07,0,0,0,3.24.32l.12,0A3.16,3.16,0,0,0,15.4,255a2.85,2.85,0,0,0-.05-2.76,1.37,1.37,0,0,0-.13-.2,2.42,2.42,0,0,0-1.72-1,2.26,2.26,0,0,0-2.34.9,1.9,1.9,0,0,0,0,2.06,1.35,1.35,0,0,0,.91.55,1.23,1.23,0,0,0,1.28-.46,1,1,0,0,0,0-1.06.64.64,0,0,0-.89-.17.68.68,0,0,1-.93-.18.67.67,0,0,1,.18-.93,2,2,0,0,1,2.75.53,2.31,2.31,0,0,1,0,2.52,2.53,2.53,0,0,1-2.61,1.08,2.7,2.7,0,0,1-1.83-1.13,3.25,3.25,0,0,1-.07-3.52,3.59,3.59,0,0,1,3.66-1.52,3.8,3.8,0,0,1,2.66,1.62l.17.28a4.17,4.17,0,0,1,.08,4A4.49,4.49,0,0,1,13.06,258H13a10.18,10.18,0,0,1-3.76-.36,4.85,4.85,0,0,0-4.56.65,1.72,1.72,0,0,1,1.47,0,1.81,1.81,0,0,1,1,1.74,1.91,1.91,0,0,1-.67,1.42,2.25,2.25,0,0,1-3.15-.27,2.58,2.58,0,0,1-.62-1.92,2.56,2.56,0,0,1,.75-1.65ZM5.76,260c0-.26-.08-.44-.23-.51a.34.34,0,0,0-.37.05.67.67,0,0,1-.94-.08.64.64,0,0,1-.16-.43,1.23,1.23,0,0,0-.07.32,1.35,1.35,0,0,0,.31.95.9.9,0,0,0,1.27.11l0,0A.55.55,0,0,0,5.76,260Z"/><path class="cls-52" d="M348.62,240.45a8.51,8.51,0,0,1-2.53,1.76l-.24.11a20.42,20.42,0,0,1-7.47,1.7c-7.36.33-9.57,5.1-9.59,5.15a.16.16,0,0,1,0,.07,3.58,3.58,0,0,0,1.23,4.88,2.7,2.7,0,0,0,3.71-.88,2,2,0,0,0,.18-1.62,1.86,1.86,0,0,0-1.48-1.43,1.5,1.5,0,0,0-1.47.72.63.63,0,1,1-1.07-.65,2.76,2.76,0,0,1,2.68-1.31,3.09,3.09,0,0,1,2.53,2.29,3.29,3.29,0,0,1-.3,2.66,4,4,0,0,1-5.43,1.29,4.82,4.82,0,0,1-1.67-6.56c.25-.53,2.8-5.51,10.66-5.86a19.53,19.53,0,0,0,7-1.58l.26-.12a7.47,7.47,0,0,0,4.28-5.71,6.88,6.88,0,0,0-2.21-6.28l-.43-.36a5.93,5.93,0,0,0-4.79-1.09c-2.51.46-4.23,1.9-4.72,4a4.83,4.83,0,0,0,1.76,5,3.58,3.58,0,0,0,2.82.66,3.31,3.31,0,0,0,2.89-2.36,2.89,2.89,0,0,0-1-3,2.19,2.19,0,0,0-1.6-.43,2.11,2.11,0,0,0-1.42.81.63.63,0,0,1-.88.12.63.63,0,0,1-.11-.88,3.32,3.32,0,0,1,2.25-1.29,3.4,3.4,0,0,1,2.53.68,4.14,4.14,0,0,1,1.49,4.25,4.56,4.56,0,0,1-3.89,3.29,4.88,4.88,0,0,1-3.81-.9,6.11,6.11,0,0,1-2.21-6.25c.6-2.51,2.74-4.33,5.71-4.88a7.17,7.17,0,0,1,5.79,1.33l.5.42a8.11,8.11,0,0,1,2.61,7.4A8.69,8.69,0,0,1,348.62,240.45Z"/><path class="cls-53" d="M330.27,258.79a8.75,8.75,0,0,1-4.91,2.47,8.12,8.12,0,0,1-7.4-2.62c-.14-.16-.28-.32-.41-.49a7.14,7.14,0,0,1-1.34-5.79c.55-3,2.38-5.1,4.89-5.7a6.11,6.11,0,0,1,6.25,2.2,4.89,4.89,0,0,1,.9,3.81,4.6,4.6,0,0,1-3.29,3.89,4.13,4.13,0,0,1-4.25-1.49,3.4,3.4,0,0,1,.6-4.78.62.62,0,0,1,.88.12.61.61,0,0,1-.11.87,2.12,2.12,0,0,0-.82,1.42,2.15,2.15,0,0,0,.44,1.6,2.89,2.89,0,0,0,3,1,3.34,3.34,0,0,0,2.36-2.89,3.63,3.63,0,0,0-.67-2.82,4.85,4.85,0,0,0-5-1.76c-2.05.5-3.49,2.22-3.95,4.72a5.91,5.91,0,0,0,1.1,4.79,4.82,4.82,0,0,0,.36.43,6.89,6.89,0,0,0,6.28,2.21,7.47,7.47,0,0,0,5.71-4.28l.11-.24a19.22,19.22,0,0,0,1.59-7c.35-7.85,5.33-10.4,5.86-10.65a4.84,4.84,0,0,1,6.57,1.67,4,4,0,0,1-1.29,5.43,3.29,3.29,0,0,1-2.66.3,3.07,3.07,0,0,1-2.29-2.53,2.73,2.73,0,0,1,1.31-2.68.63.63,0,0,1,.86.21.62.62,0,0,1-.22.86,1.5,1.5,0,0,0-.71,1.46,1.83,1.83,0,0,0,1.43,1.48,2,2,0,0,0,1.62-.17,2.7,2.7,0,0,0,.88-3.71,3.58,3.58,0,0,0-4.88-1.23l-.07,0c-.2.09-4.83,2.27-5.16,9.58a20.32,20.32,0,0,1-1.7,7.48l-.11.23A8.51,8.51,0,0,1,330.27,258.79Z"/><path class="cls-54" d="M332,242.21a.63.63,0,0,1-.69.13c-.2-.08-4.88-2.11-7.13-5-1.08-1.38-.93-2.63-.3-3.26s1.87-.78,3.25.3c2.89,2.26,4.92,6.93,5,7.13A.63.63,0,0,1,332,242.21ZM324.79,235c-.23.23-.17.86.41,1.6h0a16.55,16.55,0,0,0,5,3.81,16.59,16.59,0,0,0-3.82-5C325.65,234.8,325,234.74,324.79,235Zm-.09,2h0Z"/><path class="cls-55" d="M334.32,239.12a.6.6,0,0,1-.44.19.64.64,0,0,1-.53-.29c-.14-.22-1.37-2.2-1.05-3.82h0a1.57,1.57,0,0,1,1.55-1.31,1.62,1.62,0,0,1,1.59,1.31c.32,1.63-.89,3.6-1,3.82Zm-1.41-3.81.62.12a3.48,3.48,0,0,0,.35,1.88,3.6,3.6,0,0,0,.33-1.86.34.34,0,0,0-.35-.31.32.32,0,0,0-.33.29Z"/><path class="cls-56" d="M328.94,244.5a.39.39,0,0,1-.1.08c-.22.14-2.19,1.36-3.82,1a1.58,1.58,0,0,1-1.31-1.58,1.56,1.56,0,0,1,1.3-1.56h0c1.63-.31,3.61.92,3.83,1.06a.63.63,0,0,1,.29.53A.61.61,0,0,1,328.94,244.5Zm-3.89-.7a.34.34,0,0,0-.09.24.35.35,0,0,0,.3.35,3.53,3.53,0,0,0,1.87-.34,3.68,3.68,0,0,0-1.88-.35A.42.42,0,0,0,325.05,243.8Z"/><polygon class="cls-57" points="342.96 181.22 340.57 183.63 338.18 181.22 340.57 178.82 342.96 181.22"/><polygon class="cls-58" points="342.96 186.03 340.57 188.43 338.18 186.03 340.57 183.63 342.96 186.03"/><polygon class="cls-59" points="342.96 212.15 340.57 214.56 338.18 212.15 340.57 209.75 342.96 212.15"/><polygon class="cls-60" points="342.96 216.96 340.57 219.36 338.18 216.96 340.57 214.56 342.96 216.96"/><path class="cls-61" d="M340.57,232.44a.6.6,0,0,0,.6-.6V174.16a.6.6,0,0,0-1.2,0v57.68A.6.6,0,0,0,340.57,232.44Z"/><polygon class="cls-62" points="271.14 248.34 273.55 250.72 271.14 253.12 268.74 250.72 271.14 248.34"/><polygon class="cls-63" points="275.95 248.34 278.36 250.72 275.95 253.12 273.55 250.72 275.95 248.34"/><polygon class="cls-64" points="302.09 248.34 304.5 250.72 302.09 253.12 299.69 250.72 302.09 248.34"/><polygon class="cls-65" points="306.9 248.34 309.31 250.72 306.9 253.12 304.5 250.72 306.9 248.34"/><path class="cls-66" d="M264.08,251.32H321.8a.6.6,0,1,0,0-1.19H264.08a.6.6,0,1,0,0,1.19Z"/><path class="cls-67" d="M346.73,246.26A4.44,4.44,0,0,1,348,249l0,.13a10.27,10.27,0,0,1-.36,3.73,4.83,4.83,0,0,0,.65,4.56,1.65,1.65,0,0,1,0-1.47,1.79,1.79,0,0,1,1.74-1,1.91,1.91,0,0,1,1.42.66,2.25,2.25,0,0,1-.27,3.15,2.65,2.65,0,0,1-1.92.63,2.71,2.71,0,0,1-1.78-.89c-.28-.27-2.16-2.32-1.12-6a8.93,8.93,0,0,0,.32-3.21l0-.14a3.17,3.17,0,0,0-1.73-2.49,2.85,2.85,0,0,0-2.76,0,1.37,1.37,0,0,0-.2.13,2.42,2.42,0,0,0-1,1.72,2.26,2.26,0,0,0,.9,2.34,1.92,1.92,0,0,0,2.06,0,1.28,1.28,0,0,0,.55-.91,1.21,1.21,0,0,0-.45-1.28,1,1,0,0,0-1.06,0,.64.64,0,0,0-.18.89.67.67,0,0,1-.18.93.68.68,0,0,1-.93-.18,2,2,0,0,1,.54-2.75,2.31,2.31,0,0,1,2.52-.05,2.54,2.54,0,0,1,1.07,2.61,2.67,2.67,0,0,1-1.13,1.83,3.24,3.24,0,0,1-3.51.07,3.56,3.56,0,0,1-1.52-3.66,3.79,3.79,0,0,1,1.61-2.66l.29-.17a4.15,4.15,0,0,1,4-.08A4.26,4.26,0,0,1,346.73,246.26Zm2.34,11.68a1.14,1.14,0,0,0,.32.07,1.26,1.26,0,0,0,.95-.31.9.9,0,0,0,.11-1.27.55.55,0,0,0-.42-.18.48.48,0,0,0-.5.23.34.34,0,0,0,0,.36.67.67,0,0,1-.07.94A.66.66,0,0,1,349.07,257.94Z"/><path class="cls-68" d="M348.59,257.64a2.56,2.56,0,0,1,.75,1.65,2.58,2.58,0,0,1-.62,1.92,2.25,2.25,0,0,1-3.15.27,1.91,1.91,0,0,1-.67-1.42,1.81,1.81,0,0,1,1-1.74,1.72,1.72,0,0,1,1.47,0,4.85,4.85,0,0,0-4.56-.65,10.18,10.18,0,0,1-3.76.36h-.11a4.49,4.49,0,0,1-3.53-2.45,4.17,4.17,0,0,1,.08-4l.17-.28a3.8,3.8,0,0,1,2.66-1.62,3.59,3.59,0,0,1,3.66,1.52,3.25,3.25,0,0,1-.07,3.52,2.7,2.7,0,0,1-1.83,1.13,2.53,2.53,0,0,1-2.61-1.08,2.31,2.31,0,0,1,0-2.52,2,2,0,0,1,2.75-.53.67.67,0,0,1,.18.93.68.68,0,0,1-.93.18.64.64,0,0,0-.89.17,1,1,0,0,0,0,1.06,1.23,1.23,0,0,0,1.28.46,1.35,1.35,0,0,0,.91-.55,1.9,1.9,0,0,0,0-2.06,2.26,2.26,0,0,0-2.34-.9,2.42,2.42,0,0,0-1.72,1,1.37,1.37,0,0,0-.13.2,2.85,2.85,0,0,0,0,2.76,3.16,3.16,0,0,0,2.49,1.72l.12,0a9.07,9.07,0,0,0,3.24-.32c3.69-1,5.73.84,6,1.13Zm-2.19,2.79,0,0a.9.9,0,0,0,1.27-.11,1.35,1.35,0,0,0,.31-.95,1.23,1.23,0,0,0-.07-.32.64.64,0,0,1-.16.43.67.67,0,0,1-.94.08.34.34,0,0,0-.37-.05c-.15.07-.23.25-.23.51A.55.55,0,0,0,346.4,260.43Z"/><rect class="cls-69" x="87.92" y="10.68" width="180.82" height="1.2"/><rect class="cls-70" x="87.92" y="250.13" width="180.82" height="1.2"/><rect class="cls-71" x="295.72" y="131.03" width="89.7" height="1.2" transform="translate(472.2 -208.95) rotate(90)"/><rect class="cls-72" x="-33.43" y="131.03" width="89.7" height="1.2" transform="translate(143.05 120.2) rotate(90)"/></svg>