<svg id="Слой_1" xmlns="http://www.w3.org/2000/svg" xmlns:xlink="http://www.w3.org/1999/xlink" viewBox="0 0 381.57 171.87"><defs><style>.cls-1{fill:url(#Безымянный_градиент_2);}.cls-2{fill:url(#Безымянный_градиент_2-2);}.cls-3{fill:url(#Безымянный_градиент_2-3);}.cls-4{fill:url(#Безымянный_градиент_2-4);}.cls-5{fill:url(#Безымянный_градиент_2-5);}.cls-6{fill:url(#Безымянный_градиент_2-6);}.cls-7{fill:url(#Безымянный_градиент_2-7);}.cls-8{fill:url(#Безымянный_градиент_2-8);}.cls-9{fill:url(#Безымянный_градиент_2-9);}.cls-10{fill:url(#Безымянный_градиент_2-10);}.cls-11{fill:url(#Безымянный_градиент_2-11);}.cls-12{fill:url(#Безымянный_градиент_2-12);}.cls-13{fill:url(#Безымянный_градиент_2-13);}.cls-14{fill:url(#Безымянный_градиент_2-14);}.cls-15{fill:url(#Безымянный_градиент_2-15);}.cls-16{fill:url(#Безымянный_градиент_2-16);}</style><linearGradient id="Безымянный_градиент_2" x1="61.04" y1="88.37" x2="98.55" y2="125.87" gradientUnits="userSpaceOnUse"><stop offset="0" stop-color="#ddcb7c"/><stop offset="1" stop-color="#716224"/></linearGradient><linearGradient id="Безымянный_градиент_2-2" x1="56.96" y1="81.87" x2="65.54" y2="90.45" xlink:href="#Безымянный_градиент_2"/><linearGradient id="Безымянный_градиент_2-3" x1="100.36" y1="136.39" x2="119.75" y2="155.78" xlink:href="#Безымянный_градиент_2"/><linearGradient id="Безымянный_градиент_2-4" x1="73.07" y1="111.49" x2="80.09" y2="118.5" xlink:href="#Безымянный_градиент_2"/><linearGradient id="Безымянный_градиент_2-5" x1="106.64" y1="36" x2="121.5" y2="50.85" xlink:href="#Безымянный_градиент_2"/><linearGradient id="Безымянный_градиент_2-6" x1="12.31" y1="130.97" x2="27.22" y2="145.88" xlink:href="#Безымянный_градиент_2"/><linearGradient id="Безымянный_градиент_2-7" x1="157" y1="55.68" x2="224.29" y2="122.98" xlink:href="#Безымянный_градиент_2"/><linearGradient id="Безымянный_градиент_2-8" x1="269.52" y1="74.33" x2="335.1" y2="139.91" xlink:href="#Безымянный_градиент_2"/><linearGradient id="Безымянный_градиент_2-9" x1="311.83" y1="77.14" x2="329.88" y2="95.18" xlink:href="#Безымянный_градиент_2"/><linearGradient id="Безымянный_градиент_2-10" x1="266.93" y1="140.97" x2="277.17" y2="151.21" xlink:href="#Безымянный_градиент_2"/><linearGradient id="Безымянный_градиент_2-11" x1="297.61" y1="107.08" x2="313.43" y2="122.91" xlink:href="#Безымянный_градиент_2"/><linearGradient id="Безымянный_градиент_2-12" x1="257.61" y1="33" x2="278.46" y2="53.85" xlink:href="#Безымянный_градиент_2"/><linearGradient id="Безымянный_градиент_2-13" x1="350.7" y1="126.78" x2="373.98" y2="150.07" xlink:href="#Безымянный_градиент_2"/><linearGradient id="Безымянный_градиент_2-14" x1="174.83" y1="13.59" x2="188.03" y2="26.79" xlink:href="#Безымянный_градиент_2"/><linearGradient id="Безымянный_градиент_2-15" x1="190.7" y1="7.97" x2="215.15" y2="32.42" xlink:href="#Безымянный_градиент_2"/><linearGradient id="Безымянный_градиент_2-16" x1="99.32" y1="57.43" x2="281.19" y2="239.31" xlink:href="#Безымянный_градиент_2"/></defs><title>head-1</title><path class="cls-1" d="M38,130.13a1.87,1.87,0,0,0,.69-.13c8.3-3.28,15.29-9,22-14.46,1.36-1.1,2.71-2.21,4.08-3.29C72.16,106.42,81,100.37,90.93,99.5a67.82,67.82,0,0,0,8.95,9.43c2,1.76,4.34,3.68,7.31,4.13a7.44,7.44,0,0,0,5.54-1.44,5.55,5.55,0,0,0,2.2-3.79c.27-2.62-1.3-5.09-4.52-7.17a31.83,31.83,0,0,0-17.65-5A28.69,28.69,0,0,1,87.9,84.44c-1.39-8,3.11-18,11.23-19.43a1.86,1.86,0,0,0-.21-3.69,22.25,22.25,0,0,0-19.85,9.53,23.54,23.54,0,0,0-2.94,20.51c-9.31,2.8-16.51,9.77-21.82,15.66-2.28,2.52-4.23,5.11-6.11,7.61-3.39,4.5-6.58,8.75-11.29,12.13A1.86,1.86,0,0,0,38,130.13Zm70.41-26.34c.9.58,3,2.1,2.83,3.65a1.85,1.85,0,0,1-.78,1.24,3.71,3.71,0,0,1-2.71.7c-1.95-.29-3.73-1.76-5.39-3.23a69.55,69.55,0,0,1-6.64-6.66A28.07,28.07,0,0,1,108.4,103.79ZM51.17,116.87c1.83-2.44,3.73-5,5.9-7.36,5.33-5.92,12.65-13,21.94-15.06a1.86,1.86,0,0,0,1.29-2.57A19.73,19.73,0,0,1,82.12,73,18.45,18.45,0,0,1,89,67a23,23,0,0,0-4.78,18.1,31,31,0,0,0,4.32,11c-10,1.52-18.76,7.51-26.06,13.3q-2.07,1.64-4.12,3.32c-3.18,2.59-6.42,5.22-9.79,7.59C49.47,119.13,50.32,118,51.17,116.87Z"/><path class="cls-2" d="M56.69,92.91l1.51-.55c.51-.17,1-.32,1.52-.45s1-.27,1.51-.38a26.81,26.81,0,0,1,3.06-.43l.27,0a1.81,1.81,0,0,0,1.33-2.18l0-.07c-.15-.63-.26-1.26-.38-1.9s-.17-1.28-.25-1.92L65.09,83c0-.66,0-1.31,0-2s0-1.32.07-2,.1-1.35.19-2,.16-1.37.29-2.06L66,72.85a12.72,12.72,0,0,0-1.41,1.7,17.48,17.48,0,0,0-1.12,1.92,21,21,0,0,0-.86,2.07c-.23.71-.42,1.44-.59,2.17a19.5,19.5,0,0,0-.38,4.51,18.93,18.93,0,0,0,.28,2.61,16.31,16.31,0,0,0-1.59.49A15.45,15.45,0,0,0,57,89.93a15.09,15.09,0,0,0-2.8,2.28,12,12,0,0,0-2.08,2.89c1-.58,2-1.09,3-1.55Z"/><path class="cls-3" d="M106.41,134.83a13.21,13.21,0,0,1,1.94,2.42A32.8,32.8,0,0,1,111,143a34.65,34.65,0,0,0,2.87,6.32,15.86,15.86,0,0,0,1.62,2.19c-.71.06-1.42.12-2.13.22a60.59,60.59,0,0,0-6.85,1.1,60.32,60.32,0,0,0,6.84,1.16c1.15.16,2.29.24,3.43.35s2.28.16,3.42.23a1.66,1.66,0,0,0,.9-3.11l-.19-.11a10.79,10.79,0,0,1-3.88-4c-1.08-1.71-2-3.68-3-5.68a20.83,20.83,0,0,0-4-5.8,10.69,10.69,0,0,0-2.93-2.1,8.29,8.29,0,0,0-1.7-.57,7.39,7.39,0,0,0-1.74-.12,9.25,9.25,0,0,1,1.47.78A10.27,10.27,0,0,1,106.41,134.83Z"/><path class="cls-4" d="M73.19,112.65a16,16,0,0,0-2.06,1.19A14.27,14.27,0,0,0,68,116.66,8.83,8.83,0,0,0,67,118a5.86,5.86,0,0,0-.61,1.13c-.28.65-.41,1-.41,1s.37-.2,1-.57,1.4-.82,2.4-1.35a62.23,62.23,0,0,1,7.33-3.13c2.74-1,5.59-1.93,7.74-2.85A27.25,27.25,0,0,0,88,110.59a19.26,19.26,0,0,0-4-.36,24.93,24.93,0,0,0-8.6,1.45A19.88,19.88,0,0,0,73.19,112.65Z"/><path class="cls-5" d="M102.62,51.77a13.65,13.65,0,0,0,3.77,4.7,11.52,11.52,0,0,0,1.37.93c.32.19.5.28.5.28A15.59,15.59,0,0,1,106.92,56a16.68,16.68,0,0,1-2.32-5,13.81,13.81,0,0,1-.51-3.44,8.68,8.68,0,0,1,.73-3.52A12.63,12.63,0,0,1,107,40.75,15.94,15.94,0,0,1,110.25,38,15.83,15.83,0,0,1,118,35.23c.33,0,.66,0,1,0s.68,0,1,0a12.8,12.8,0,0,1,1.8.26,15.09,15.09,0,0,1,3.3,1.17A13.84,13.84,0,0,1,129.33,40a12.36,12.36,0,0,1,1.28,1.76s0-.2-.13-.57A8.3,8.3,0,0,0,130,39.6a11.91,11.91,0,0,0-3.76-4.73,13.24,13.24,0,0,0-3.64-2,15.69,15.69,0,0,0-2.28-.65,9.11,9.11,0,0,0-1.16-.17c-.4,0-.81-.07-1.22-.06a15.25,15.25,0,0,0-5,.71,18.54,18.54,0,0,0-4.71,2.25,19.74,19.74,0,0,0-3.85,3.49,13.85,13.85,0,0,0-2.55,4.48,10.1,10.1,0,0,0-.43,4.89A12.73,12.73,0,0,0,102.62,51.77Z"/><path class="cls-6" d="M10.39,152.17a8.86,8.86,0,0,0,4.74,3.44,5.14,5.14,0,0,0,1.6.21h.55l-.52-.18a6.57,6.57,0,0,1-1.33-.69,9.19,9.19,0,0,1-3.22-3.88,14.29,14.29,0,0,1-1-3.18,13.58,13.58,0,0,1-.21-1.73l0-1,0-.91a19.14,19.14,0,0,1,.62-3.92,17.66,17.66,0,0,1,1.47-3.81,16.4,16.4,0,0,1,2.24-3.38,18.77,18.77,0,0,1,2.85-2.73,20.29,20.29,0,0,1,6.4-3.25,22.1,22.1,0,0,1,2.9-.65,10.05,10.05,0,0,1,2.26-.16,2.26,2.26,0,0,1,1.31.49,1.31,1.31,0,0,1,.32.43,1.32,1.32,0,0,0-.15-.55,2.51,2.51,0,0,0-1.28-1.08,8.11,8.11,0,0,0-2.48-.55,15.35,15.35,0,0,0-3.27,0,17.81,17.81,0,0,0-7.86,2.65,17.17,17.17,0,0,0-3.69,3.05,19.74,19.74,0,0,0-2.86,4.07,20.88,20.88,0,0,0-1.65,4.66,18.51,18.51,0,0,0-.4,4.77l.09,1.19c0,.36.1.69.16,1a13.64,13.64,0,0,0,.58,2.19A13,13,0,0,0,10.39,152.17Z"/><path class="cls-7" d="M198.49,135.68l27.35-15.18a17.33,17.33,0,0,0,8.86-14.78l.53-31.29a17.32,17.32,0,0,0-8.37-15.07L200,43.25A17.29,17.29,0,0,0,182.79,43L155.44,58.16A17.33,17.33,0,0,0,146.58,73l-.53,31.28a17.27,17.27,0,0,0,8.37,15.06l26.83,16.1a17.22,17.22,0,0,0,8.87,2.45A17.42,17.42,0,0,0,198.49,135.68ZM186.28,95.82a19.64,19.64,0,0,1-4,2.62,19.28,19.28,0,0,1-3.43,1.14,17.73,17.73,0,0,1-4.28.53A18.19,18.19,0,0,1,161,94.38q-5.55-5.75-5.54-14.75a19.72,19.72,0,0,1,5.68-14.34,19,19,0,0,1,14.13-5.81,23.1,23.1,0,0,1,7.69,1.22,16.51,16.51,0,0,1,5,2.45l1.39,1.17-3.17,4.06c-.34-.29-.79-.65-1.37-1.06a19.94,19.94,0,0,0-3.67-1.67,16.18,16.18,0,0,0-5.7-1.05,13.38,13.38,0,0,0-10,4.26,14.88,14.88,0,0,0-4.09,10.77,15.26,15.26,0,0,0,4.06,11,13.49,13.49,0,0,0,10.19,4.26,15.1,15.1,0,0,0,3.84-.5,13.17,13.17,0,0,0,3.14-1.23,24,24,0,0,0,2.26-1.45,13.33,13.33,0,0,0,1.5-1.22l.45-.5V86a1.81,1.81,0,0,0-.07-.49,1.07,1.07,0,0,0-1.14-.66h-2.39V84.8h0V80h5.12a5.86,5.86,0,0,1,1.16.11,3.31,3.31,0,0,1,2.09.79,3.79,3.79,0,0,1,.83,2.73V97.4h20V83.65a3.66,3.66,0,0,1,.86-2.73,3.86,3.86,0,0,1,2.75-.83h5.57v4.79H219a1.08,1.08,0,0,0-1.23,1.22v33.29h-5.56V102.13h-20v17.26h-5.56V95.46Z"/><path class="cls-8" d="M283,65c8.12,1.44,12.63,11.44,11.23,19.43a28.67,28.67,0,0,1-4.85,11.24,31.8,31.8,0,0,0-17.65,5c-3.23,2.07-4.79,4.55-4.52,7.17a5.5,5.5,0,0,0,2.19,3.79,7.47,7.47,0,0,0,5.54,1.44c3-.45,5.33-2.37,7.31-4.13a66.66,66.66,0,0,0,8.95-9.43c9.94.87,18.77,6.92,26.12,12.75,1.37,1.08,2.72,2.19,4.08,3.29,6.76,5.5,13.75,11.18,22.06,14.46a1.79,1.79,0,0,0,.68.13,1.86,1.86,0,0,0,1.09-3.37c-4.71-3.38-7.91-7.63-11.29-12.12-1.88-2.51-3.83-5.1-6.11-7.62-5.32-5.89-12.52-12.86-21.82-15.66A23.61,23.61,0,0,0,303,70.85a22.32,22.32,0,0,0-19.86-9.53A1.86,1.86,0,0,0,283,65Zm-3.22,41.14c-1.65,1.47-3.43,2.94-5.39,3.23a3.69,3.69,0,0,1-2.71-.7,1.84,1.84,0,0,1-.77-1.24c-.17-1.55,1.92-3.07,2.82-3.65a28.11,28.11,0,0,1,12.7-4.3A70.75,70.75,0,0,1,279.75,106.15ZM300,73a19.75,19.75,0,0,1,1.81,18.91,1.88,1.88,0,0,0,0,1.59,1.85,1.85,0,0,0,1.25,1c9.3,2.09,16.61,9.14,22,15.06,2.17,2.4,4.06,4.92,5.9,7.36.84,1.12,1.7,2.26,2.58,3.38-3.38-2.37-6.62-5-9.8-7.59q-2.06-1.68-4.12-3.32c-7.29-5.79-16-11.78-26.05-13.3a31.19,31.19,0,0,0,4.31-11A23,23,0,0,0,293.09,67,18.61,18.61,0,0,1,300,73Z"/><path class="cls-9" d="M316.78,77c.09.68.12,1.36.18,2s.08,1.33.08,2,0,1.32,0,2L316.87,85c-.08.64-.15,1.28-.26,1.92s-.23,1.27-.38,1.9l0,.08a2.51,2.51,0,0,0,0,.27,1.8,1.8,0,0,0,1.65,1.94,27,27,0,0,1,3.05.43c.51.11,1,.25,1.51.38s1,.28,1.52.45l1.51.55,1.51.64c1,.46,2,1,3,1.55a12,12,0,0,0-2.08-2.89,15,15,0,0,0-2.79-2.28,15.93,15.93,0,0,0-3.29-1.61c-.52-.19-1.05-.35-1.59-.49a18.93,18.93,0,0,0,.28-2.61,20.67,20.67,0,0,0-.38-4.51c-.17-.73-.37-1.46-.59-2.17a21,21,0,0,0-.86-2.07,19.24,19.24,0,0,0-1.12-1.92,14.46,14.46,0,0,0-1.41-1.7l.36,2.13C316.61,75.67,316.69,76.36,316.78,77Z"/><path class="cls-10" d="M275,133.75a10.59,10.59,0,0,0-2.94,2.1,20.83,20.83,0,0,0-4,5.8c-1,2-1.9,4-3,5.68a10.94,10.94,0,0,1-3.88,4l-.2.11a1.66,1.66,0,0,0,.9,3.11c1.15-.07,2.29-.12,3.43-.23s2.28-.19,3.42-.35a60.32,60.32,0,0,0,6.84-1.16,60.23,60.23,0,0,0-6.85-1.1c-.71-.1-1.42-.16-2.13-.22a15.86,15.86,0,0,0,1.62-2.19,34,34,0,0,0,2.87-6.32,32.8,32.8,0,0,1,2.66-5.72,13.21,13.21,0,0,1,1.94-2.42,11.1,11.1,0,0,1,1.25-1,9.71,9.71,0,0,1,1.47-.78,7.43,7.43,0,0,0-1.74.12A8,8,0,0,0,275,133.75Z"/><path class="cls-11" d="M314.11,116.66a14.57,14.57,0,0,0-3.14-2.82,15.89,15.89,0,0,0-2.05-1.19,20,20,0,0,0-2.23-1,24.85,24.85,0,0,0-8.6-1.45,19.38,19.38,0,0,0-4,.36,27.25,27.25,0,0,0,3.58,1.73c2.15.92,5,1.86,7.74,2.85a61.51,61.51,0,0,1,7.33,3.13c1,.53,1.79,1,2.41,1.35s1,.57,1,.57-.14-.4-.41-1a6.47,6.47,0,0,0-.61-1.13A9.53,9.53,0,0,0,314.11,116.66Z"/><path class="cls-12" d="M257.05,36.66a15.47,15.47,0,0,1,3.3-1.17,12.73,12.73,0,0,1,1.81-.26c.32,0,.8,0,1,0s.65,0,1,0a15.09,15.09,0,0,1,4,.85A15.35,15.35,0,0,1,271.86,38a16.51,16.51,0,0,1,3.21,2.75A12.84,12.84,0,0,1,277.28,44a8.68,8.68,0,0,1,.73,3.52,14.28,14.28,0,0,1-.5,3.44,16.67,16.67,0,0,1-2.33,5,15.59,15.59,0,0,1-1.34,1.72l.51-.28a11.57,11.57,0,0,0,1.36-.93,13.77,13.77,0,0,0,3.78-4.7,13,13,0,0,0,1.27-4,10.1,10.1,0,0,0-.43-4.89,13.85,13.85,0,0,0-2.55-4.48,19.74,19.74,0,0,0-3.85-3.49,18.64,18.64,0,0,0-4.7-2.25,15.25,15.25,0,0,0-5-.71c-.42,0-.83,0-1.23.06a8.66,8.66,0,0,0-1.15.17,15.34,15.34,0,0,0-2.28.65,13.16,13.16,0,0,0-3.65,2,12,12,0,0,0-3.76,4.73,9.09,9.09,0,0,0-.52,1.58c-.08.37-.13.57-.13.57A12.36,12.36,0,0,1,252.77,40,14.09,14.09,0,0,1,257.05,36.66Z"/><path class="cls-13" d="M374,139.44a20.88,20.88,0,0,0-1.65-4.66,20.09,20.09,0,0,0-2.85-4.07,17.46,17.46,0,0,0-3.7-3.05A17.78,17.78,0,0,0,358,125a15.34,15.34,0,0,0-3.27,0,8.25,8.25,0,0,0-2.49.55,2.43,2.43,0,0,0-1.27,1.08,1.27,1.27,0,0,0-.16.55,1.31,1.31,0,0,1,.32-.43,2.29,2.29,0,0,1,1.31-.49,10.17,10.17,0,0,1,2.27.16,22,22,0,0,1,2.89.65,20.18,20.18,0,0,1,6.4,3.25,18.83,18.83,0,0,1,2.86,2.73,17.25,17.25,0,0,1,2.24,3.38,17.62,17.62,0,0,1,1.46,3.81,19.88,19.88,0,0,1,.63,3.92v.91l0,1a12,12,0,0,1-.21,1.73,14.81,14.81,0,0,1-1,3.18,9.19,9.19,0,0,1-3.22,3.88,6.6,6.6,0,0,1-1.34.69l-.52.18h.56a5.09,5.09,0,0,0,1.59-.21,8.86,8.86,0,0,0,4.74-3.44,12.71,12.71,0,0,0,1.87-3.55,14.75,14.75,0,0,0,.59-2.19c.05-.34.11-.67.16-1s.05-.79.08-1.19A18.51,18.51,0,0,0,374,139.44Z"/><path class="cls-14" d="M165.58,28.48a5.53,5.53,0,0,0,2.23.59,6.13,6.13,0,0,0,2.24-.33,11,11,0,0,0,3.76-2.23c.55-.47,1-.92,1.52-1.39l1.38-1.33c1.82-1.71,3.56-2.58,5.69-2.44a8,8,0,0,1,3,.79,6.66,6.66,0,0,1,2.29,1.95l.11.15a1.75,1.75,0,0,0,2.86-2,12.85,12.85,0,0,1-.95-1.8,16,16,0,0,1-.64-2,15.87,15.87,0,0,1-.37-2.08c-.06-.71,0-1.42,0-2.14a18,18,0,0,1,.25-2.17,18.84,18.84,0,0,1,.55-2.15,20.68,20.68,0,0,1,.88-2.09l.56-1,.65-1a12,12,0,0,0-1.85,1.53l-.81.92-.71,1a15.89,15.89,0,0,0-1.16,2.2,19.27,19.27,0,0,0-.75,2.41,15.11,15.11,0,0,0-.33,2.52,18.14,18.14,0,0,0,0,1.95,9.9,9.9,0,0,0-8.09.27,6,6,0,0,0-.56.29l-.46.31a10.29,10.29,0,0,0-.93.71,18.64,18.64,0,0,0-1.55,1.52c-.47.52-.91,1-1.31,1.54s-.81,1-1.21,1.45a11.19,11.19,0,0,1-2.64,2.27,5.39,5.39,0,0,1-1.57.58,3.92,3.92,0,0,1-1.63,0,3.46,3.46,0,0,1-2.69-2.23,3.23,3.23,0,0,0,.58,2A4.85,4.85,0,0,0,165.58,28.48Z"/><path class="cls-15" d="M194,7.85c.34.7.62,1.39.88,2.09s.39,1.44.55,2.15a18,18,0,0,1,.25,2.17c0,.72,0,1.43-.05,2.14a15.87,15.87,0,0,1-.37,2.08,16,16,0,0,1-.64,2,15.37,15.37,0,0,1-1,1.8,1.74,1.74,0,0,0,2.86,2l.11-.14A6.57,6.57,0,0,1,199,22.14a8,8,0,0,1,3-.79c2.13-.14,3.87.73,5.69,2.44L209,25.12c.49.47,1,.92,1.52,1.39a11.23,11.23,0,0,0,3.76,2.23,6.18,6.18,0,0,0,2.25.33,5.49,5.49,0,0,0,2.22-.59,4.76,4.76,0,0,0,1.66-1.42,3.24,3.24,0,0,0,.59-2,3.47,3.47,0,0,1-2.69,2.23,4,4,0,0,1-1.64,0,5.33,5.33,0,0,1-1.56-.58,11.19,11.19,0,0,1-2.64-2.27c-.4-.44-.81-.95-1.21-1.45s-.85-1-1.32-1.54A17.22,17.22,0,0,0,208.41,20a9,9,0,0,0-.93-.71L207,19a4.86,4.86,0,0,0-.55-.29,9.89,9.89,0,0,0-8.09-.27,18.14,18.14,0,0,0,.05-1.95,16.24,16.24,0,0,0-.33-2.52,17.77,17.77,0,0,0-.76-2.41,14.83,14.83,0,0,0-1.15-2.2l-.71-1-.81-.92a12.09,12.09,0,0,0-1.86-1.53l.66,1Z"/><path class="cls-16" d="M28,133.29a7.31,7.31,0,0,0-5.5,1.36,9.17,9.17,0,0,0-2.69,3.53h0a9.26,9.26,0,0,0-.71,2.16,13.36,13.36,0,0,0-.1,1.52,10.86,10.86,0,0,0,.71,3.29,15.36,15.36,0,0,0,.93,2c3,5.38,6.32,9.59,11,11.19H21.28a1.86,1.86,0,0,0,0,3.72H178.56a1.86,1.86,0,0,0,0-3.72h-16a19.56,19.56,0,0,0,6.18-6.06,17.08,17.08,0,0,0,2-13,15.41,15.41,0,0,0-.63-2l9.67,5.8a19.91,19.91,0,0,0,19.89.33l12.65-7a16.87,16.87,0,0,0-1,2.91,17.15,17.15,0,0,0,2,13,19.56,19.56,0,0,0,6.18,6.06H204.08a1.86,1.86,0,0,0,0,3.72H357.64a1.86,1.86,0,0,0,0-3.72h-7.25c4.71-1.6,8.07-5.81,11-11.19a15,15,0,0,0,1.61-4.35,10.12,10.12,0,0,0-.77-4.65,8.72,8.72,0,0,0-2.7-3.54,7.29,7.29,0,0,0-5.49-1.36,6.26,6.26,0,0,0-4.92,5.13,5,5,0,0,0,2.35,5.35,1.86,1.86,0,0,0,1.83-3.23,1.34,1.34,0,0,1-.52-1.48,2.61,2.61,0,0,1,1.88-2.11,3.69,3.69,0,0,1,2.71.72,5,5,0,0,1,2,3.14,4.93,4.93,0,0,1,.07.66,6.8,6.8,0,0,1-1.36,3.95l-.13.17a11.32,11.32,0,0,1-7.73,4c-4.53.34-9.35-1.38-15.21-5.38-2.35-1.6-4.65-3.37-6.88-5.08a96.73,96.73,0,0,0-11.43-7.95c-3.54-2-9.68-4.77-16.45-4.78h-.36a21.34,21.34,0,0,0-15.51-7,26,26,0,0,0-16.18,5.72,14.84,14.84,0,0,0-4,3.48,1.88,1.88,0,0,0-.35.76c-.1.12-.2.24-.29.37a34.87,34.87,0,0,0-2.14-18.79,33.72,33.72,0,0,0-2.9-5.12,33.16,33.16,0,0,1-5.2-11.54.06.06,0,0,1,0,0,25.66,25.66,0,0,1-.73-5.67h0v-.08s0-.19,0-.38a23.71,23.71,0,0,1,.95-4.6A22.56,22.56,0,0,1,256.31,78a41.19,41.19,0,0,0,4.4,7.86,14.88,14.88,0,0,0,13,5,9.89,9.89,0,0,0,7.79-6.16,12.17,12.17,0,0,0-.8-11.71c-4-5.66-12.79-7.43-19.68-3.94a20.45,20.45,0,0,0-3.13,2A26.67,26.67,0,0,1,258,56.76c4.7.83,9.12-.27,12-3,2.7-2.56,2.77-4.72,2.36-6.07-.55-1.8-2.3-3.12-4.69-3.54a9.59,9.59,0,0,0-9.17,3.53,28.17,28.17,0,0,0-2.81,4.68,25.08,25.08,0,0,1-7.24-3.62,53.91,53.91,0,0,1-5.66-5,21.49,21.49,0,0,1-3.84-4.53A12.64,12.64,0,0,1,237.68,36a5.27,5.27,0,0,0,3.69-.83l0,0a5.89,5.89,0,0,0,3-5.66c-.14-3.53-2.68-7.46-6.68-7.93-4.36-.51-8.76,2.73-10,7.4a13.83,13.83,0,0,0,1.63,10.91c4.88,8.24,17.05,13.62,25,16a30.32,30.32,0,0,0,.5,18,25.32,25.32,0,0,0-5.41,21.61c1.59,7.27,2.83,14.86,4,22.2l.82,5c1.14,6.92,1.42,16.87-3.78,24.92-2.85,4.4-5.62,7.26-8.83,8.89-.54.23-1.1.45-1.65.64l-.18.08a21.56,21.56,0,0,1-12.34.57,17.82,17.82,0,0,1-10.93-7.41A13.35,13.35,0,0,1,215,140.18a12,12,0,0,1,5.4-7.66c3-1.83,7.8-2.19,10.21.41a4.09,4.09,0,0,1,.4,4.39,2.94,2.94,0,0,1-2.81,2A1.86,1.86,0,1,0,228,143a6.66,6.66,0,0,0,6.37-4.1,7.75,7.75,0,0,0-1-8.5,9.44,9.44,0,0,0-5.14-2.79l3.62-2A20,20,0,0,0,242,108.54l.62-36.7A20,20,0,0,0,233,54.45L201.49,35.56a20,20,0,0,0-19.89-.33L149.5,53.05a20,20,0,0,0-10.23,17.06l-.62,36.7a20,20,0,0,0,9.66,17.4L154,127.6a9.53,9.53,0,0,0-5.17,2.8,7.77,7.77,0,0,0-1.05,8.5,6.71,6.71,0,0,0,6.37,4.1,1.86,1.86,0,1,0-.18-3.71,3,3,0,0,1-2.82-2,4.09,4.09,0,0,1,.41-4.39c2.4-2.6,7.17-2.24,10.2-.41a12.06,12.06,0,0,1,5.41,7.66,13.4,13.4,0,0,1-1.56,10.16,17.79,17.79,0,0,1-10.91,7.4h0a21.52,21.52,0,0,1-12.34-.57l-.08,0c-.61-.2-1.21-.42-1.81-.68-3.2-1.63-6-4.49-8.83-8.89-5.2-8-4.92-18-3.77-24.92l.81-5c1.2-7.34,2.44-14.94,4-22.21a25.28,25.28,0,0,0-5.41-21.61,30.4,30.4,0,0,0,.51-18c7.92-2.35,20.09-7.73,25-16A13.79,13.79,0,0,0,154.42,29c-1.24-4.67-5.64-7.91-10-7.4-4,.47-6.53,4.4-6.67,7.93a5.89,5.89,0,0,0,3,5.66l0,0a5.3,5.3,0,0,0,3.7.83,13.08,13.08,0,0,1-1.24,3.13,21.49,21.49,0,0,1-3.84,4.53,52,52,0,0,1-5.66,5,25,25,0,0,1-7.24,3.62,27.5,27.5,0,0,0-2.81-4.68,9.59,9.59,0,0,0-9.17-3.53c-2.39.42-4.14,1.74-4.69,3.54-.41,1.35-.34,3.51,2.36,6.07,2.89,2.76,7.3,3.85,12,3A26.77,26.77,0,0,1,124.26,71a20,20,0,0,0-3.13-2c-6.88-3.49-15.71-1.72-19.67,3.94a12.14,12.14,0,0,0-.81,11.71,9.92,9.92,0,0,0,7.79,6.16,14.88,14.88,0,0,0,13-5A41.5,41.5,0,0,0,125.79,78a21.54,21.54,0,0,1,3.75,11.83,2,2,0,0,0-.23.73c-.67,7.32-3.38,11.55-5.77,15.29a35.52,35.52,0,0,0-2.9,5.12,35,35,0,0,0-2.13,18.79l-.3-.37a1.88,1.88,0,0,0-.35-.76,14.72,14.72,0,0,0-4-3.5A26.15,26.15,0,0,0,98,119.37h-.32a21.34,21.34,0,0,0-15.51,7H81.8c-6.74,0-12.9,2.78-16.45,4.78a96.73,96.73,0,0,0-11.43,7.95c-2.23,1.71-4.53,3.48-6.87,5.08-5.87,4-10.69,5.72-15.21,5.38A11.38,11.38,0,0,1,24.46,146l0,0-.21-.26-.12-.13a1,1,0,0,1-.12-.17s0,0,0-.06a7.58,7.58,0,0,1-1.32-3.87v0a2.11,2.11,0,0,1,.06-.66,5.06,5.06,0,0,1,2-3.14,3.62,3.62,0,0,1,2.72-.71,2.59,2.59,0,0,1,1.87,2.1,1.31,1.31,0,0,1-.52,1.48,1.86,1.86,0,0,0,1.83,3.23A4.94,4.94,0,0,0,33,138.42,6.23,6.23,0,0,0,28,133.29ZM277.6,75.07a8.4,8.4,0,0,1,.46,8.06,6.28,6.28,0,0,1-4.84,4c-.17,0-.34,0-.51,0a7.57,7.57,0,0,0,2.56-3.21,11.8,11.8,0,0,0-.59-9.92,9.88,9.88,0,0,0-2.05-2.51A9.47,9.47,0,0,1,277.6,75.07Zm-16.23-2a2.42,2.42,0,0,0,.45-.1,7.82,7.82,0,0,1,9.61,2.87,8.14,8.14,0,0,1,.43,6.64,3.56,3.56,0,0,1-2.47,2.18c-2.8.71-3.73.63-4,.45h0a8.73,8.73,0,0,1-1.75-1.62A33,33,0,0,1,259,74.84,16.88,16.88,0,0,1,261.37,73.06Zm.08-23.19A5.87,5.87,0,0,1,267,47.8c1,.17,1.66.61,1.77,1s-.26,1.24-1.37,2.29c-2.12,2-5.28,2.47-8,2.16A23.36,23.36,0,0,1,261.45,49.87ZM232.52,38a10.12,10.12,0,0,1-1.24-8.07c.67-2.51,3.19-5,6-4.66,1.9.23,3.32,2.49,3.39,4.39a2.23,2.23,0,0,1-1.93,2.58,2.29,2.29,0,0,0-.37.12l-.29-.05a2.21,2.21,0,0,1-1.18-1.15A1.84,1.84,0,0,0,234.72,30a1.85,1.85,0,0,0-1.42,2c.33,3.26.72,6,2.36,8.94a16,16,0,0,0,1.65,2.36A20.73,20.73,0,0,1,232.52,38Zm93.4,104.12c2.27,1.75,4.61,3.55,7,5.21,4.15,2.84,10.48,6.55,17.58,6a13.9,13.9,0,0,0,2.13-.34,12.22,12.22,0,0,1-3.57,1.91c-3.85,1.26-8.7.41-13.31-2.33a55.41,55.41,0,0,1-11.64-9.44,120.58,120.58,0,0,0-9-8.57A97.89,97.89,0,0,1,325.92,142.1Zm-27.7-11.85a11.93,11.93,0,0,1,1.65,3.59,10.85,10.85,0,0,1-.18,5.86,16.21,16.21,0,0,0-3-9.22C297.21,130.38,297.72,130.3,298.22,130.25Zm-3-3.27c-.47.1-.93.24-1.4.37a20.75,20.75,0,0,0-8-4.17A17.72,17.72,0,0,1,295.21,127ZM295,144.23c-.74,1.5-2.51,4.58-6.47,3.74A4.46,4.46,0,0,1,286,145.3a8.73,8.73,0,0,1,.35-7.12,14,14,0,0,1,6.57-6.5C296,135.27,296.87,140.44,295,144.23ZM258,112.38c2.95,6.91,3,15.21.27,23.58a49.35,49.35,0,0,0-.42-13.92l-.81-5c-.49-3-1-6-1.51-9.08A30.05,30.05,0,0,1,258,112.38Zm-4.11,39.77a32.91,32.91,0,0,0,3.07-3.86,69.94,69.94,0,0,0,4.24-7.48,53.77,53.77,0,0,1,5-8.49,24.39,24.39,0,0,1,4.13-4.18,17.34,17.34,0,0,1,8.46-2.11,19.5,19.5,0,0,1,11.08,3,17.67,17.67,0,0,0-7,7.55,12.41,12.41,0,0,0-.4,10.12,8,8,0,0,0,5,4.82l.1,0,.06,0a8.52,8.52,0,0,0,3.37.08A14.9,14.9,0,0,0,301.27,145a15.06,15.06,0,0,0,2.19-12.14,13.78,13.78,0,0,0-.74-2.07c4.5,1.8,11.35,7.17,18.74,14.89a59,59,0,0,0,12.43,10.06,24.94,24.94,0,0,0,6,2.62H247.32A29.5,29.5,0,0,0,253.93,152.15ZM150.23,121a16.2,16.2,0,0,1-7.86-14.14L143,70.17a16.2,16.2,0,0,1,8.32-13.87L183.4,38.48a16.23,16.23,0,0,1,16.18.27l31.47,18.88a16.24,16.24,0,0,1,7.86,14.15l-.62,36.7A16.22,16.22,0,0,1,230,122.36l-32.09,17.82a16.23,16.23,0,0,1-16.18-.28Zm-6.18-88.74a1.22,1.22,0,0,1-.3.06,2.29,2.29,0,0,0-.37-.12,2.24,2.24,0,0,1-1.93-2.58c.08-1.9,1.49-4.16,3.39-4.39,2.78-.34,5.31,2.15,6,4.66A10.08,10.08,0,0,1,149.58,38a20.73,20.73,0,0,1-4.79,5.32,15.3,15.3,0,0,0,1.65-2.36c1.65-2.95,2-5.68,2.36-8.94a1.86,1.86,0,0,0-3.58-.86A2.14,2.14,0,0,1,144.05,32.28ZM114.7,51.05c-1.1-1-1.48-1.91-1.36-2.29s.74-.79,1.76-1a5.67,5.67,0,0,1,.94-.08,5.78,5.78,0,0,1,4.62,2.15,24.3,24.3,0,0,1,2.06,3.34C120,53.52,116.83,53.08,114.7,51.05ZM106.83,84a7.54,7.54,0,0,0,2.56,3.2c-.17,0-.34,0-.5,0a6.27,6.27,0,0,1-4.84-4,8.38,8.38,0,0,1,.45-8.06,9.57,9.57,0,0,1,5-3.55,9.71,9.71,0,0,0-2,2.5A11.82,11.82,0,0,0,106.83,84Zm11.68-.48a8.91,8.91,0,0,1-1.77,1.63h0c-.29.19-1.23.26-4-.45a3.57,3.57,0,0,1-2.46-2.18,8.11,8.11,0,0,1,.43-6.64A7.81,7.81,0,0,1,120.29,73a2.16,2.16,0,0,0,.44.1,16.88,16.88,0,0,1,2.35,1.78A32.74,32.74,0,0,1,118.51,83.47Zm5.55,28.91a30.17,30.17,0,0,1,2.48-4.37c-.53,3-1,6.09-1.52,9.09l-.81,4.94A49.38,49.38,0,0,0,123.8,136C121.08,127.59,121.11,119.29,124.06,112.38ZM96.43,123.17a20.89,20.89,0,0,0-8.14,4.19c-.46-.14-.93-.28-1.4-.38A17.82,17.82,0,0,1,96.43,123.17Zm-7.24,8.51a14,14,0,0,1,6.58,6.5,8.73,8.73,0,0,1,.35,7.12A4.52,4.52,0,0,1,93.59,148c-3.51.56-5.73-2.24-6.48-3.74C85.24,140.44,86.12,135.27,89.19,131.68Zm-7,2.16a11.93,11.93,0,0,1,1.65-3.59c.51.05,1,.13,1.53.23a16.29,16.29,0,0,0-3,9.22A10.85,10.85,0,0,1,82.23,133.84ZM80.83,145A14.9,14.9,0,0,0,91,151.7a8.52,8.52,0,0,0,3.37-.08l.08,0,.08,0a8,8,0,0,0,5-4.83,12.37,12.37,0,0,0-.4-10.12,17.7,17.7,0,0,0-7-7.55,19.5,19.5,0,0,1,11.08-3,17.33,17.33,0,0,1,8.45,2.11,24.39,24.39,0,0,1,4.13,4.18,53.06,53.06,0,0,1,5,8.49,69.84,69.84,0,0,0,4.23,7.48,34,34,0,0,0,3.07,3.86,29.54,29.54,0,0,0,6.62,6.23H42.21a25.34,25.34,0,0,0,6-2.62A59,59,0,0,0,60.64,145.7C68,138,74.88,132.61,79.38,130.8a15.6,15.6,0,0,0-.74,2.08A15.14,15.14,0,0,0,80.83,145Zm-49.27,8.31c7.1.53,13.43-3.18,17.58-6,2.43-1.66,4.78-3.46,7-5.21A97.16,97.16,0,0,1,67,134.55a120.84,120.84,0,0,0-9,8.58,55.71,55.71,0,0,1-11.65,9.44c-4.61,2.74-9.46,3.59-13.3,2.33A12.28,12.28,0,0,1,29.43,153,14.3,14.3,0,0,0,31.56,153.33Z"/></svg>