<svg id="Слой_1" data-name="Слой 1" xmlns="http://www.w3.org/2000/svg" xmlns:xlink="http://www.w3.org/1999/xlink" viewBox="0 0 357.46 79.41"><defs><style>.cls-1{fill:url(#Безымянный_градиент_2);}</style><linearGradient id="Безымянный_градиент_2" x1="-435.65" y1="-576.87" x2="1611.32" y2="1470.1" gradientUnits="userSpaceOnUse"><stop offset="0" stop-color="#ddcb7c"/><stop offset="1" stop-color="#716224"/></linearGradient></defs><title>head-3</title><path class="cls-1" d="M352.61,37.36H253.2c-.19-.28-.39-.57-.6-.84-3.56-4.6-8.35-7.21-13.31-7.29a14.69,14.69,0,0,0-3.66.42,15.33,15.33,0,0,0-1.78.56,6.6,6.6,0,0,0,.42-.89,9.09,9.09,0,0,0-5.08-11.72c-1.24-.65-10-4.39-20.8,3.19a30.47,30.47,0,0,1-10.17,4.74l-.42.1a10.91,10.91,0,0,1-10.05-2.78,9.84,9.84,0,0,1-3-9c.05-.27.11-.53.17-.79a8.36,8.36,0,0,1,4.42-5.34c3.23-1.66,6.38-1.55,8.64.25a6.52,6.52,0,0,1,2.21,6.74,4.56,4.56,0,0,1-2.33,2.83c-1.78.93-3.49.92-4.68,0A3.33,3.33,0,0,1,192,14a2.22,2.22,0,0,1,2.7-1.59A2.31,2.31,0,1,0,195.9,8a6.84,6.84,0,0,0-8.32,4.89,8,8,0,0,0,2.73,8.25c2.65,2.11,6.28,2.3,9.71.5a9.19,9.19,0,0,0,4.65-5.75,11.15,11.15,0,0,0-3.79-11.51c-3.68-3-8.79-3.25-13.64-.76a13.11,13.11,0,0,0-6.68,8,13.14,13.14,0,0,0-6.68-8c-4.86-2.49-10-2.2-13.65.76a11.14,11.14,0,0,0-3.78,11.51,9.15,9.15,0,0,0,4.65,5.75c3.43,1.8,7.06,1.61,9.71-.5a8,8,0,0,0,2.73-8.25A6.85,6.85,0,0,0,165.21,8a2.31,2.31,0,0,0,1.17,4.47A2.21,2.21,0,0,1,169.07,14a3.33,3.33,0,0,1-1.14,3.46c-1.19.95-2.9,1-4.69,0a4.59,4.59,0,0,1-2.33-2.83,6.53,6.53,0,0,1,2.22-6.74c2.26-1.8,5.4-1.91,8.64-.25A8.34,8.34,0,0,1,176.18,13c.07.26.13.52.18.79a9.84,9.84,0,0,1-3,9,10.91,10.91,0,0,1-10.05,2.78l-.43-.1a30.52,30.52,0,0,1-10.16-4.74c-10.8-7.58-19.57-3.84-20.8-3.19a9.07,9.07,0,0,0-5.08,11.72,7.45,7.45,0,0,0,.79,1.51l-.62-.16a14.43,14.43,0,0,0-3-.35c-5.2-.08-10.24,2.65-13.87,7.54-.1.13-.18.26-.27.39H9a1.8,1.8,0,1,0,0,3.6h98.87a17.44,17.44,0,0,0-1.34,6.41,16.61,16.61,0,0,0,.33,3.59c.11.51.23,1,.37,1.51a19.41,19.41,0,0,0,13.12,13.41,21.43,21.43,0,0,0,6.1,1A21,21,0,0,0,140.08,63l.44-.36h0c3.92-3,8.08-8.2,11.27-13.91h0c3.9-7.1,8.62-10.55,12.42-12.26a17.18,17.18,0,0,1,6.84-1.67h.28l.74,0a7.05,7.05,0,0,1,6.87,6.44c0,.18,0,.36,0,.54a5.17,5.17,0,0,1-4.62,5H174a3.92,3.92,0,0,1-3.65-3.56,2.46,2.46,0,0,1,.13-.75,2.4,2.4,0,0,1,2.05-1.6,2.48,2.48,0,0,0,2.25-2.43v-.25h0A2.49,2.49,0,0,0,172.35,36h-.23a7.35,7.35,0,0,0-6.69,7.2A8.82,8.82,0,0,0,174,51.74a6.09,6.09,0,0,0,.85,0,9.93,9.93,0,0,0,2.39-.57,6.46,6.46,0,0,0-2,3.66,11,11,0,0,0-.2,2,22.88,22.88,0,0,0,2.2,9.11,34.68,34.68,0,0,0,2.42,4.55h0a2.53,2.53,0,0,0,4.16,0A34.87,34.87,0,0,0,186,66.09a24.11,24.11,0,0,0,2.14-8.75,12.48,12.48,0,0,0-.23-2.66,6.61,6.61,0,0,0-2.06-3.62,9.44,9.44,0,0,0,2.38.52h0l.47,0a8.84,8.84,0,0,0,8.75-8.38,7.38,7.38,0,0,0-6.8-7.43h-.15a2.46,2.46,0,0,0-2.5,2.26h0v0h0v.14a2.46,2.46,0,0,0,2.29,2.5,2.4,2.4,0,0,1,2.08,1.57,2.55,2.55,0,0,1,.15.86,3.67,3.67,0,0,1-1.25,2.48,3.59,3.59,0,0,1-2.48,1h-.17a5.17,5.17,0,0,1-4.72-5.22v-.28a7,7,0,0,1,2.4-4.84,6.88,6.88,0,0,1,4.7-1.73h1a18.29,18.29,0,0,1,7.54,2c3.64,1.78,8,5.14,11.68,11.6h0c3.29,5.64,7.55,10.72,11.49,13.67h0l.48.37a20.84,20.84,0,0,0,12.67,4.5,21.18,21.18,0,0,0,7.09-1.11A19.39,19.39,0,0,0,255.79,52c.14-.5.25-1,.34-1.51a16.49,16.49,0,0,0,.28-2.79A17.34,17.34,0,0,0,255.13,41h97.48a1.8,1.8,0,1,0,0-3.59ZM236.8,34.45a9.48,9.48,0,0,1,2.47-.29,11.25,11.25,0,0,1,7.41,3.2h-6.6l-.6-.14h0l-.41,0a2.43,2.43,0,0,0-1.35.4,1.75,1.75,0,0,0-.76.74,2.57,2.57,0,0,0-.35.87h0l0,.42a2.47,2.47,0,0,0,2,2.46,3.89,3.89,0,0,1,3.16,3.87,5,5,0,0,1-.07.65,5.45,5.45,0,0,1-4.08,4.32,6.18,6.18,0,0,1-1.34.15,7.09,7.09,0,0,1-5.41-3.19,7.3,7.3,0,0,1-1.53-4.49,6.6,6.6,0,0,1,.11-1.09A9.93,9.93,0,0,1,236.8,34.45Zm-7.53-9.62a2.32,2.32,0,0,0,0-1.58,4.3,4.3,0,0,1,.58,1,4.46,4.46,0,0,1,.08,3.44,3.12,3.12,0,0,1-4,1.81,1.87,1.87,0,0,1-1.08-1.15,1.73,1.73,0,0,1,.17-1.91,1.17,1.17,0,0,1,1.23-.26A2.31,2.31,0,0,0,229.27,24.83Zm-98-.61a4.34,4.34,0,0,1,.59-1,2.27,2.27,0,0,0,0,1.58,2.3,2.3,0,0,0,3,1.32,1.18,1.18,0,0,1,1.24.26,1.73,1.73,0,0,1,.17,1.91,1.89,1.89,0,0,1-1.08,1.15,3.12,3.12,0,0,1-4-1.81A4.46,4.46,0,0,1,131.23,24.22Zm-7.3,11a9.9,9.9,0,0,1,9.54,7.94,7.3,7.3,0,0,1,.13,1.4,7.4,7.4,0,0,1-1.44,4.21c-1.64,2.23-3.63,3.31-5.62,3.29a5.89,5.89,0,0,1-1.08-.13,5.45,5.45,0,0,1-4.16-4.25,3.87,3.87,0,0,1,3-4.57,2.45,2.45,0,0,0,2-2.38,2.41,2.41,0,0,0,0-.53,2.46,2.46,0,0,0-2.39-2,1.46,1.46,0,0,0-.36,0,2.2,2.2,0,0,0-.36,0h-6.65A11,11,0,0,1,123.93,35.25ZM162,32.05c-4.6,2.11-10.12,6.26-14.52,14.3h0c-2.84,5.1-6.72,9.9-10,12.45l0,0-.47.38a16.08,16.08,0,0,1-15.07,2.87A14.48,14.48,0,0,1,112,52c-.11-.38-.21-.76-.29-1.16a12.22,12.22,0,0,1,1.69-9h4.47a8.92,8.92,0,0,0-1.62,5,8.76,8.76,0,0,0,.18,1.89,10.41,10.41,0,0,0,8,8.09,10.91,10.91,0,0,0,2,.23c3.67.06,7.19-1.89,9.69-5.31a12.35,12.35,0,0,0,2.39-7,11.92,11.92,0,0,0-.23-2.46,14.84,14.84,0,0,0-4.46-7.93,7.58,7.58,0,0,0,2.94-.49,6.52,6.52,0,0,0,3.78-3.86,6.22,6.22,0,0,0-1.26-6.8,5.81,5.81,0,0,0-4.78-1.63c1.85-.7,7.91-2.29,15.55,3.08A35,35,0,0,0,161.9,30l.37.08a15.33,15.33,0,0,0,4,.4A24,24,0,0,0,162,32.05Zm19.65,31.67a17.88,17.88,0,0,1-1.7-6.85,8.61,8.61,0,0,1,.11-1.17,1.57,1.57,0,0,1,.59-1,1.48,1.48,0,0,1,.91-.29h0a1.49,1.49,0,0,1,.89.28,1.63,1.63,0,0,1,.59,1h0a8,8,0,0,1,.14,1.65A18.39,18.39,0,0,1,181.64,63.72ZM180,49.65a9.74,9.74,0,0,0,1.52-1.49A9.72,9.72,0,0,0,183,49.61a6.19,6.19,0,0,0-1.37-.17h-.17A6.57,6.57,0,0,0,180,49.65Zm3.1-17a12.26,12.26,0,0,0-1.7,1.83,12.26,12.26,0,0,0-1.73-1.8,11.82,11.82,0,0,0-7.49-2.8h-.29l-.82,0-.83,0a16.07,16.07,0,0,0,2.3-.89,15.47,15.47,0,0,0,4.06-2.81,14.75,14.75,0,0,0,4-6.46,14.66,14.66,0,0,0,4,6.46A15.31,15.31,0,0,0,188.62,29a17,17,0,0,0,1.66.68A11.83,11.83,0,0,0,183.06,32.6Zm68.42,14.93a12.46,12.46,0,0,1-.2,2c-.08.4-.16.78-.27,1.17a14.5,14.5,0,0,1-9.66,10.22,16.23,16.23,0,0,1-5.44.85,16,16,0,0,1-9.68-3.43l-.52-.41h0c-3.31-2.46-7.29-7.19-10.21-12.22h0c-4.25-7.43-9.42-11.46-13.86-13.6a25.06,25.06,0,0,0-4.56-1.7,15.55,15.55,0,0,0,1.79-.3l.36-.08A34.9,34.9,0,0,0,211,24.58c7.65-5.37,13.71-3.78,15.55-3.08a5.82,5.82,0,0,0-4.78,1.63,6.24,6.24,0,0,0-1.25,6.8,6.52,6.52,0,0,0,3.78,3.86,7.54,7.54,0,0,0,3.74.42,14.85,14.85,0,0,0-3.52,7.19,11.11,11.11,0,0,0-.18,1.9,12.22,12.22,0,0,0,2.52,7.56,12,12,0,0,0,9.3,5.13,9.92,9.92,0,0,0,2.53-.28,10.38,10.38,0,0,0,7.8-8.24,8.13,8.13,0,0,0,.14-1.47,8.82,8.82,0,0,0-1.5-5h4.49A12.48,12.48,0,0,1,251.48,47.53Z"/></svg>