<?xml version="1.0" encoding="utf-8"?>
<!-- Generator: Adobe Illustrator 23.0.4, SVG Export Plug-In . SVG Version: 6.00 Build 0)  -->
<svg version="1.1" id="Слой_1" xmlns="http://www.w3.org/2000/svg" xmlns:xlink="http://www.w3.org/1999/xlink" x="0px" y="0px"
	 viewBox="0 0 381.6 171.5" style="enable-background:new 0 0 381.6 171.5;" xml:space="preserve">
<style type="text/css">
	.st0{fill:url(#SVGID_1_);}
	.st1{fill:url(#SVGID_2_);}
	.st2{fill:url(#SVGID_3_);}
	.st3{fill:url(#SVGID_4_);}
	.st4{fill:url(#SVGID_5_);}
	.st5{fill:url(#SVGID_6_);}
	.st6{fill:url(#SVGID_7_);}
	.st7{fill:url(#SVGID_8_);}
	.st8{fill:url(#SVGID_9_);}
	.st9{fill:url(#SVGID_10_);}
	.st10{fill:url(#SVGID_11_);}
	.st11{fill:url(#SVGID_12_);}
	.st12{fill:url(#SVGID_13_);}
	.st13{fill:url(#SVGID_14_);}
	.st14{fill:url(#SVGID_15_);}
	.st15{fill:url(#SVGID_16_);}
	.st16{fill:url(#SVGID_17_);}
	.st17{fill:url(#SVGID_18_);}
	.st18{fill:url(#SVGID_19_);}
	.st19{fill:url(#SVGID_20_);}
	.st20{fill:url(#SVGID_21_);}
	.st21{fill:url(#SVGID_22_);}
	.st22{fill:url(#SVGID_23_);}
	.st23{fill:url(#SVGID_24_);}
	.st24{fill:url(#SVGID_25_);}
	.st25{fill:url(#SVGID_26_);}
	.st26{fill:url(#SVGID_27_);}
	.st27{fill:url(#SVGID_28_);}
	.st28{fill:url(#SVGID_29_);}
	.st29{fill:url(#SVGID_30_);}
	.st30{fill:url(#SVGID_31_);}
	.st31{fill:url(#SVGID_32_);}
	.st32{fill:url(#SVGID_33_);}
	.st33{fill:url(#SVGID_34_);}
	.st34{fill:#E40648;}
</style>
<linearGradient id="SVGID_1_" gradientUnits="userSpaceOnUse" x1="519.2806" y1="132.1459" x2="690.0462" y2="302.9114">
	<stop  offset="3.505610e-03" style="stop-color:#DDCB7C"/>
	<stop  offset="1" style="stop-color:#716224"/>
</linearGradient>
<path class="st0" d="M772.8,215.7H436.5c-1,0-1.9,0.8-1.9,1.9s0.8,1.9,1.9,1.9h336.3c1,0,1.9-0.8,1.9-1.9S773.8,215.7,772.8,215.7z"
	/>
<linearGradient id="SVGID_2_" gradientUnits="userSpaceOnUse" x1="383.9698" y1="-145.607" x2="451.263" y2="-78.3138">
	<stop  offset="3.505610e-03" style="stop-color:#DDCB7C"/>
	<stop  offset="1" style="stop-color:#716224"/>
</linearGradient>
<path class="st1" d="M425.5-65.6l27.3-15.2c5.4-3,8.8-8.6,8.9-14.8l0.5-31.3c0.1-6.1-3.1-11.9-8.4-15.1L427-158
	c-5.3-3.2-11.9-3.3-17.2-0.3l-27.3,15.2c-5.4,3-8.8,8.6-8.9,14.8L373-97.1c-0.1,6.1,3.1,11.9,8.4,15.1l26.8,16.1
	c2.7,1.6,5.8,2.5,8.9,2.5C420-63.4,422.9-64.2,425.5-65.6z M413.3-105.5c-0.2,0.2-0.8,0.6-1.5,1.2s-1.6,1-2.5,1.4
	c-0.9,0.4-2,0.8-3.4,1.1c-1.4,0.4-2.8,0.5-4.3,0.5c-5.4,0-9.9-1.9-13.6-5.7c-3.7-3.8-5.5-8.7-5.5-14.8c0-5.7,1.9-10.5,5.7-14.3
	c3.8-3.9,8.5-5.8,14.1-5.8c2.8,0,5.3,0.4,7.7,1.2c2.3,0.8,4,1.6,5,2.4l1.4,1.2l-3.2,4.1c-0.3-0.3-0.8-0.6-1.4-1.1
	c-0.6-0.4-1.8-1-3.7-1.7c-1.9-0.7-3.8-1.1-5.7-1.1c-4,0-7.3,1.4-10,4.3s-4.1,6.4-4.1,10.8c0,4.5,1.4,8.2,4.1,11
	c2.7,2.8,6.1,4.3,10.2,4.3c1.3,0,2.6-0.2,3.8-0.5c1.3-0.3,2.3-0.7,3.1-1.2c0.8-0.5,1.6-1,2.3-1.4c0.7-0.5,1.2-0.9,1.5-1.2l0.4-0.5
	v-4c0-0.2,0-0.3-0.1-0.5c-0.2-0.4-0.5-0.7-1.1-0.7H410v-0.1h0v-4.8h5.1c0.4,0,0.8,0,1.2,0.1c0.9,0.1,1.6,0.3,2.1,0.8
	c0.6,0.6,0.8,1.5,0.8,2.7v13.7h20v-13.7c0-1.3,0.3-2.2,0.9-2.7c0.6-0.6,1.5-0.8,2.8-0.8h5.6v4.8H446c-0.8,0-1.2,0.4-1.2,1.2v33.3
	h-5.6v-17.3h-20v17.3h-5.6v-23.9C413.5-105.7,413.4-105.6,413.3-105.5z"/>
<linearGradient id="SVGID_3_" gradientUnits="userSpaceOnUse" x1="61.0433" y1="88.367" x2="98.55" y2="125.8736">
	<stop  offset="3.505610e-03" style="stop-color:#DDCB7C"/>
	<stop  offset="1" style="stop-color:#716224"/>
</linearGradient>
<path class="st2" d="M38,130.1c0.2,0,0.5,0,0.7-0.1c8.3-3.3,15.3-9,22-14.5c1.4-1.1,2.7-2.2,4.1-3.3c7.4-5.8,16.2-11.9,26.1-12.8
	c2.9,3.8,6.2,6.9,9,9.4c2,1.8,4.3,3.7,7.3,4.1c1.9,0.3,4-0.2,5.5-1.4c1.3-1,2-2.3,2.2-3.8c0.3-2.6-1.3-5.1-4.5-7.2
	c-5.2-3.4-11.4-5.1-17.7-5c-2.3-3.3-4.1-7.1-4.9-11.2c-1.4-8,3.1-18,11.2-19.4c0.9-0.2,1.6-1,1.5-1.9c-0.1-0.9-0.8-1.7-1.7-1.8
	c-7.9-0.5-15.4,3.1-19.9,9.5c-4.1,5.9-5.2,13.7-2.9,20.5c-9.3,2.8-16.5,9.8-21.8,15.7c-2.3,2.5-4.2,5.1-6.1,7.6
	c-3.4,4.5-6.6,8.7-11.3,12.1c-0.8,0.5-1,1.6-0.5,2.4C36.7,129.8,37.3,130.1,38,130.1z M108.4,103.8c0.9,0.6,3,2.1,2.8,3.7
	c-0.1,0.6-0.5,1-0.8,1.2c-0.7,0.6-1.8,0.8-2.7,0.7c-2-0.3-3.7-1.8-5.4-3.2c-2.1-1.8-4.4-4.1-6.6-6.7
	C100.2,99.9,104.6,101.4,108.4,103.8z M51.2,116.9c1.8-2.4,3.7-5,5.9-7.4c5.3-5.9,12.7-13,21.9-15.1c0.5-0.1,1-0.5,1.3-1
	c0.2-0.5,0.3-1.1,0-1.6c-2.7-6.1-2-13.5,1.8-18.9c1.8-2.6,4.2-4.6,6.9-6c-4.1,4.9-5.8,12-4.8,18.1c0.7,4,2.3,7.7,4.3,11
	c-10,1.5-18.8,7.5-26.1,13.3c-1.4,1.1-2.7,2.2-4.1,3.3c-3.2,2.6-6.4,5.2-9.8,7.6C49.5,119.1,50.3,118,51.2,116.9z"/>
<linearGradient id="SVGID_4_" gradientUnits="userSpaceOnUse" x1="56.9566" y1="81.8704" x2="65.5394" y2="90.4531">
	<stop  offset="3.505610e-03" style="stop-color:#DDCB7C"/>
	<stop  offset="1" style="stop-color:#716224"/>
</linearGradient>
<path class="st3" d="M56.7,92.9l1.5-0.5c0.5-0.2,1-0.3,1.5-0.5c0.5-0.1,1-0.3,1.5-0.4c1-0.2,2-0.3,3.1-0.4c0.1,0,0.2,0,0.3,0
	c1-0.2,1.6-1.2,1.3-2.2l0-0.1c-0.2-0.6-0.3-1.3-0.4-1.9c-0.1-0.6-0.2-1.3-0.3-1.9L65.1,83c0-0.7,0-1.3,0-2c0-0.7,0-1.3,0.1-2
	c0.1-0.7,0.1-1.3,0.2-2c0.1-0.7,0.2-1.4,0.3-2.1l0.4-2.1c-0.5,0.5-1,1.1-1.4,1.7c-0.4,0.6-0.8,1.3-1.1,1.9c-0.3,0.7-0.6,1.4-0.9,2.1
	c-0.2,0.7-0.4,1.4-0.6,2.2c-0.3,1.5-0.4,3-0.4,4.5c0,0.9,0.1,1.7,0.3,2.6c-0.5,0.1-1.1,0.3-1.6,0.5c-1.2,0.4-2.3,1-3.3,1.6
	c-1,0.6-2,1.4-2.8,2.3c-0.8,0.9-1.6,1.8-2.1,2.9c1-0.6,2-1.1,3-1.5L56.7,92.9z"/>
<linearGradient id="SVGID_5_" gradientUnits="userSpaceOnUse" x1="100.3606" y1="136.3936" x2="119.7503" y2="155.7833">
	<stop  offset="3.505610e-03" style="stop-color:#DDCB7C"/>
	<stop  offset="1" style="stop-color:#716224"/>
</linearGradient>
<path class="st4" d="M106.4,134.8c0.8,0.7,1.4,1.6,1.9,2.4c1.1,1.8,1.9,3.7,2.7,5.7c0.8,2.1,1.6,4.2,2.9,6.3c0.5,0.8,1,1.5,1.6,2.2
	c-0.7,0.1-1.4,0.1-2.1,0.2c-2.3,0.2-4.6,0.6-6.9,1.1c2.3,0.5,4.6,0.9,6.8,1.2c1.1,0.2,2.3,0.2,3.4,0.3c1.1,0.1,2.3,0.2,3.4,0.2
	c0.6,0,1.2-0.3,1.5-0.9c0.4-0.8,0.2-1.8-0.6-2.3l-0.2-0.1c-1.6-0.9-2.8-2.3-3.9-4c-1.1-1.7-2-3.7-3-5.7c-1-2.1-2.3-4.1-4-5.8
	c-0.9-0.8-1.8-1.6-2.9-2.1c-0.5-0.3-1.1-0.4-1.7-0.6c-0.6-0.1-1.2-0.1-1.7-0.1c0.5,0.2,1,0.5,1.5,0.8
	C105.6,134.1,106,134.5,106.4,134.8z"/>
<linearGradient id="SVGID_6_" gradientUnits="userSpaceOnUse" x1="73.0716" y1="111.4854" x2="80.0908" y2="118.5045">
	<stop  offset="3.505610e-03" style="stop-color:#DDCB7C"/>
	<stop  offset="1" style="stop-color:#716224"/>
</linearGradient>
<path class="st5" d="M73.2,112.6c-0.7,0.3-1.4,0.8-2.1,1.2c-1.3,0.9-2.4,1.8-3.1,2.8c-0.4,0.5-0.7,0.9-1,1.4
	c-0.3,0.4-0.5,0.8-0.6,1.1c-0.3,0.6-0.4,1-0.4,1s0.4-0.2,1-0.6c0.6-0.4,1.4-0.8,2.4-1.3c2-1,4.6-2.1,7.3-3.1c2.7-1,5.6-1.9,7.7-2.9
	c2.2-0.9,3.6-1.7,3.6-1.7s-1.6-0.4-4-0.4c-2.4,0-5.5,0.4-8.6,1.5C74.7,112,73.9,112.3,73.2,112.6z"/>
<linearGradient id="SVGID_7_" gradientUnits="userSpaceOnUse" x1="106.6436" y1="35.9953" x2="121.5032" y2="50.8549">
	<stop  offset="3.505610e-03" style="stop-color:#DDCB7C"/>
	<stop  offset="1" style="stop-color:#716224"/>
</linearGradient>
<path class="st6" d="M102.6,51.8c1.1,2.3,2.7,3.8,3.8,4.7c0.6,0.5,1,0.7,1.4,0.9c0.3,0.2,0.5,0.3,0.5,0.3s-0.6-0.6-1.3-1.7
	c-0.8-1.1-1.7-2.8-2.3-5c-0.3-1.1-0.5-2.3-0.5-3.4c0-1.2,0.2-2.4,0.7-3.5c0.5-1.2,1.3-2.2,2.2-3.3c1-1.1,2-2,3.2-2.8
	c1.2-0.8,2.4-1.5,3.8-1.9c1.3-0.4,2.6-0.8,4-0.9c0.3,0,0.7,0,1,0c0.2,0,0.7,0,1,0c0.6,0,1.2,0.1,1.8,0.3c1.2,0.3,2.3,0.7,3.3,1.2
	c2,1,3.4,2.3,4.3,3.3c0.9,1,1.3,1.8,1.3,1.8s0-0.2-0.1-0.6c-0.1-0.4-0.2-0.9-0.5-1.6c-0.6-1.3-1.7-3.2-3.8-4.7c-1-0.8-2.2-1.5-3.6-2
	c-0.7-0.3-1.5-0.5-2.3-0.6c-0.4-0.1-0.6-0.1-1.2-0.2c-0.4,0-0.8-0.1-1.2-0.1c-1.7,0-3.4,0.2-5,0.7c-1.7,0.5-3.2,1.3-4.7,2.2
	c-1.4,1-2.7,2.2-3.9,3.5c-1.1,1.3-2,2.8-2.6,4.5c-0.6,1.6-0.7,3.4-0.4,4.9C101.6,49.3,102.1,50.6,102.6,51.8z"/>
<linearGradient id="SVGID_8_" gradientUnits="userSpaceOnUse" x1="12.3082" y1="130.9658" x2="27.2194" y2="145.877">
	<stop  offset="3.505610e-03" style="stop-color:#DDCB7C"/>
	<stop  offset="1" style="stop-color:#716224"/>
</linearGradient>
<path class="st7" d="M10.4,152.2c1.5,2,3.4,3.1,4.7,3.4c0.7,0.2,1.3,0.2,1.6,0.2c0.4,0,0.6,0,0.6,0s-0.2-0.1-0.5-0.2
	c-0.4-0.1-0.8-0.3-1.3-0.7c-1.1-0.7-2.3-2-3.2-3.9c-0.4-0.9-0.8-2-1-3.2c-0.1-0.6-0.2-1.2-0.2-1.7c0-0.3,0-0.7,0-1l0-0.9
	c0-1.3,0.3-2.6,0.6-3.9c0.3-1.3,0.8-2.6,1.5-3.8c0.6-1.2,1.4-2.4,2.2-3.4c0.9-1,1.8-1.9,2.9-2.7c2.1-1.6,4.3-2.6,6.4-3.3
	c1-0.3,2-0.5,2.9-0.7c0.9-0.1,1.7-0.2,2.3-0.2c0.6,0.1,1.1,0.3,1.3,0.5c0.2,0.2,0.3,0.4,0.3,0.4s0-0.2-0.2-0.5
	c-0.2-0.3-0.6-0.8-1.3-1.1c-0.7-0.3-1.5-0.4-2.5-0.6c-1-0.1-2.1-0.1-3.3,0c-2.4,0.2-5.2,1-7.9,2.6c-1.3,0.8-2.6,1.8-3.7,3.1
	c-1.1,1.2-2.1,2.6-2.9,4.1c-0.7,1.5-1.3,3.1-1.6,4.7c-0.4,1.6-0.5,3.2-0.4,4.8c0,0.4,0.1,0.8,0.1,1.2c0,0.4,0.1,0.7,0.2,1
	c0.2,0.8,0.3,1.5,0.6,2.2C9,150,9.6,151.2,10.4,152.2z"/>
<linearGradient id="SVGID_9_" gradientUnits="userSpaceOnUse" x1="269.5163" y1="74.3306" x2="335.0975" y2="139.9118">
	<stop  offset="3.505610e-03" style="stop-color:#DDCB7C"/>
	<stop  offset="1" style="stop-color:#716224"/>
</linearGradient>
<path class="st8" d="M283,65c8.1,1.4,12.6,11.4,11.2,19.4c-0.7,4.1-2.6,7.9-4.9,11.2c-6.2-0.1-12.4,1.6-17.7,5
	c-3.2,2.1-4.8,4.5-4.5,7.2c0.2,1.5,0.9,2.8,2.2,3.8c1.5,1.2,3.6,1.7,5.5,1.4c3-0.4,5.3-2.4,7.3-4.1c2.8-2.5,6.1-5.7,9-9.4
	c9.9,0.9,18.8,6.9,26.1,12.8c1.4,1.1,2.7,2.2,4.1,3.3c6.8,5.5,13.7,11.2,22.1,14.5c0.2,0.1,0.5,0.1,0.7,0.1c0.7,0,1.3-0.4,1.6-1
	c0.4-0.8,0.2-1.9-0.5-2.4c-4.7-3.4-7.9-7.6-11.3-12.1c-1.9-2.5-3.8-5.1-6.1-7.6c-5.3-5.9-12.5-12.9-21.8-15.7
	c2.2-6.8,1.2-14.6-2.9-20.5c-4.5-6.5-11.9-10-19.9-9.5c-0.9,0.1-1.7,0.8-1.7,1.8C281.4,64,282,64.8,283,65z M279.7,106.2
	c-1.7,1.5-3.4,2.9-5.4,3.2c-0.9,0.1-2-0.1-2.7-0.7c-0.3-0.2-0.7-0.7-0.8-1.2c-0.2-1.6,1.9-3.1,2.8-3.7c3.8-2.4,8.2-3.9,12.7-4.3
	C284.2,102.1,281.8,104.3,279.7,106.2z M300,73c3.8,5.4,4.5,12.9,1.8,18.9c-0.2,0.5-0.2,1.1,0,1.6c0.3,0.5,0.7,0.9,1.3,1
	c9.3,2.1,16.6,9.1,21.9,15.1c2.2,2.4,4.1,4.9,5.9,7.4c0.8,1.1,1.7,2.3,2.6,3.4c-3.4-2.4-6.6-5-9.8-7.6c-1.4-1.1-2.7-2.2-4.1-3.3
	c-7.3-5.8-16-11.8-26.1-13.3c2-3.3,3.6-6.9,4.3-11c1.1-6.1-0.7-13.2-4.8-18.1C295.8,68.3,298.2,70.4,300,73z"/>
<linearGradient id="SVGID_10_" gradientUnits="userSpaceOnUse" x1="311.8348" y1="77.1406" x2="329.8769" y2="95.1828">
	<stop  offset="3.505610e-03" style="stop-color:#DDCB7C"/>
	<stop  offset="1" style="stop-color:#716224"/>
</linearGradient>
<path class="st9" d="M316.8,77c0.1,0.7,0.1,1.4,0.2,2c0.1,0.7,0.1,1.3,0.1,2c0,0.7,0,1.3,0,2l-0.2,1.9c-0.1,0.6-0.2,1.3-0.3,1.9
	c-0.1,0.6-0.2,1.3-0.4,1.9l0,0.1c0,0.1,0,0.2,0,0.3c-0.1,1,0.7,1.9,1.6,1.9c1,0.1,2,0.2,3.1,0.4c0.5,0.1,1,0.2,1.5,0.4
	c0.5,0.1,1,0.3,1.5,0.5l1.5,0.5l1.5,0.6c1,0.5,2,1,3,1.5c-0.5-1.1-1.3-2-2.1-2.9c-0.8-0.9-1.8-1.6-2.8-2.3c-1-0.7-2.1-1.2-3.3-1.6
	c-0.5-0.2-1.1-0.3-1.6-0.5c0.2-0.9,0.2-1.7,0.3-2.6c0.1-1.5-0.1-3-0.4-4.5c-0.2-0.7-0.4-1.5-0.6-2.2c-0.2-0.7-0.5-1.4-0.9-2.1
	c-0.3-0.7-0.7-1.3-1.1-1.9c-0.4-0.6-0.9-1.2-1.4-1.7l0.4,2.1C316.6,75.7,316.7,76.4,316.8,77z"/>
<linearGradient id="SVGID_11_" gradientUnits="userSpaceOnUse" x1="266.9254" y1="140.9655" x2="277.1713" y2="151.2113">
	<stop  offset="3.505610e-03" style="stop-color:#DDCB7C"/>
	<stop  offset="1" style="stop-color:#716224"/>
</linearGradient>
<path class="st10" d="M275,133.8c-1.1,0.5-2.1,1.2-2.9,2.1c-1.7,1.7-3,3.7-4,5.8c-1,2-1.9,4-3,5.7c-1.1,1.7-2.3,3.1-3.9,4l-0.2,0.1
	c-0.5,0.3-0.9,0.9-0.9,1.5c0.1,0.9,0.8,1.6,1.8,1.6c1.1-0.1,2.3-0.1,3.4-0.2c1.1-0.1,2.3-0.2,3.4-0.3c2.3-0.3,4.6-0.6,6.8-1.2
	c-2.3-0.5-4.6-0.9-6.9-1.1c-0.7-0.1-1.4-0.2-2.1-0.2c0.6-0.7,1.1-1.4,1.6-2.2c1.3-2.1,2.1-4.2,2.9-6.3c0.8-2,1.6-4,2.7-5.7
	c0.6-0.9,1.2-1.7,1.9-2.4c0.4-0.3,0.8-0.7,1.2-1c0.4-0.3,0.9-0.6,1.5-0.8c-0.6,0-1.1,0-1.7,0.1C276.1,133.3,275.5,133.5,275,133.8z"
	/>
<linearGradient id="SVGID_12_" gradientUnits="userSpaceOnUse" x1="297.6108" y1="107.0832" x2="313.4344" y2="122.9068">
	<stop  offset="3.505610e-03" style="stop-color:#DDCB7C"/>
	<stop  offset="1" style="stop-color:#716224"/>
</linearGradient>
<path class="st11" d="M314.1,116.7c-0.8-1-1.9-1.9-3.1-2.8c-0.6-0.4-1.3-0.8-2.1-1.2c-0.7-0.4-1.5-0.7-2.2-1
	c-3.1-1.1-6.2-1.5-8.6-1.5c-2.4,0-4,0.4-4,0.4s1.4,0.9,3.6,1.7c2.2,0.9,5,1.9,7.7,2.9c2.7,1,5.4,2.1,7.3,3.1c1,0.5,1.8,1,2.4,1.3
	c0.6,0.4,1,0.6,1,0.6s-0.1-0.4-0.4-1c-0.1-0.3-0.3-0.7-0.6-1.1C314.8,117.6,314.5,117.1,314.1,116.7z"/>
<linearGradient id="SVGID_13_" gradientUnits="userSpaceOnUse" x1="257.6057" y1="33.0004" x2="278.4552" y2="53.8499">
	<stop  offset="3.505610e-03" style="stop-color:#DDCB7C"/>
	<stop  offset="1" style="stop-color:#716224"/>
</linearGradient>
<path class="st12" d="M257.1,36.7c1-0.5,2.1-0.9,3.3-1.2c0.6-0.1,1.2-0.2,1.8-0.3c0.3,0,0.8-0.1,1,0c0.3,0,0.6,0,1,0
	c1.3,0.1,2.6,0.4,4,0.9c1.3,0.4,2.6,1.1,3.8,1.9c1.2,0.8,2.3,1.7,3.2,2.8c0.9,1,1.7,2.1,2.2,3.3c0.5,1.2,0.7,2.3,0.7,3.5
	c0,1.2-0.2,2.4-0.5,3.4c-0.6,2.1-1.6,3.8-2.3,5c-0.8,1.1-1.3,1.7-1.3,1.7s0.2-0.1,0.5-0.3c0.3-0.2,0.8-0.5,1.4-0.9
	c1.1-0.9,2.6-2.4,3.8-4.7c0.6-1.1,1.1-2.5,1.3-4c0.2-1.5,0.2-3.3-0.4-4.9c-0.6-1.6-1.4-3.2-2.6-4.5c-1.1-1.3-2.4-2.5-3.9-3.5
	c-1.5-1-3.1-1.7-4.7-2.2c-1.6-0.6-3.4-0.7-5-0.7c-0.4,0-0.8,0-1.2,0.1c-0.5,0-0.8,0.1-1.2,0.2c-0.8,0.2-1.6,0.4-2.3,0.6
	c-1.4,0.5-2.6,1.2-3.6,2c-2.1,1.6-3.2,3.4-3.8,4.7c-0.3,0.7-0.4,1.2-0.5,1.6c-0.1,0.4-0.1,0.6-0.1,0.6s0.4-0.7,1.3-1.8
	C253.6,39,255.1,37.7,257.1,36.7z"/>
<linearGradient id="SVGID_14_" gradientUnits="userSpaceOnUse" x1="350.6965" y1="126.7779" x2="373.9836" y2="150.065">
	<stop  offset="3.505610e-03" style="stop-color:#DDCB7C"/>
	<stop  offset="1" style="stop-color:#716224"/>
</linearGradient>
<path class="st13" d="M374,139.4c-0.4-1.6-0.9-3.2-1.6-4.7c-0.8-1.5-1.7-2.8-2.9-4.1c-1.1-1.2-2.4-2.2-3.7-3.1
	c-2.6-1.7-5.5-2.5-7.9-2.6c-1.2-0.1-2.3-0.1-3.3,0c-0.9,0.1-1.8,0.2-2.5,0.6c-0.7,0.3-1.1,0.7-1.3,1.1c-0.2,0.4-0.2,0.5-0.2,0.5
	s0.1-0.2,0.3-0.4c0.2-0.2,0.7-0.4,1.3-0.5c0.6-0.1,1.4,0,2.3,0.2c0.9,0.1,1.9,0.4,2.9,0.7c2.1,0.6,4.3,1.7,6.4,3.3
	c1,0.8,1.9,1.7,2.9,2.7c0.9,1,1.6,2.2,2.2,3.4c0.6,1.2,1.1,2.5,1.5,3.8c0.3,1.3,0.6,2.6,0.6,3.9l0,0.9c0,0.3,0,0.7,0,1
	c0,0.5-0.1,1.2-0.2,1.7c-0.2,1.1-0.6,2.2-1,3.2c-0.9,1.9-2.1,3.2-3.2,3.9c-0.5,0.3-1,0.6-1.3,0.7c-0.3,0.1-0.5,0.2-0.5,0.2
	s0.2,0,0.6,0c0.3,0,0.9,0,1.6-0.2c1.4-0.3,3.3-1.4,4.7-3.4c0.7-1,1.4-2.2,1.9-3.5c0.2-0.7,0.4-1.4,0.6-2.2c0.1-0.3,0.1-0.7,0.2-1
	c0-0.4,0.1-0.8,0.1-1.2C374.5,142.7,374.4,141,374,139.4z"/>
<linearGradient id="SVGID_15_" gradientUnits="userSpaceOnUse" x1="174.8266" y1="13.5929" x2="188.0271" y2="26.7935">
	<stop  offset="3.505610e-03" style="stop-color:#DDCB7C"/>
	<stop  offset="1" style="stop-color:#716224"/>
</linearGradient>
<path class="st14" d="M165.6,28.5c0.7,0.3,1.4,0.5,2.2,0.6c0.7,0.1,1.5-0.1,2.2-0.3c1.5-0.5,2.7-1.3,3.8-2.2c0.5-0.5,1-0.9,1.5-1.4
	l1.4-1.3c1.8-1.7,3.6-2.6,5.7-2.4c1,0.1,2.1,0.3,3,0.8c0.9,0.5,1.7,1.2,2.3,1.9l0.1,0.2c0.5,0.7,1.5,0.9,2.3,0.4
	c0.8-0.5,1.1-1.6,0.5-2.4c-0.4-0.6-0.7-1.2-1-1.8c-0.3-0.6-0.5-1.3-0.6-2c-0.2-0.7-0.3-1.4-0.4-2.1c-0.1-0.7-0.1-1.4-0.1-2.1
	c0-0.7,0.1-1.4,0.2-2.2c0.2-0.7,0.3-1.4,0.6-2.1c0.3-0.7,0.5-1.4,0.9-2.1l0.6-1l0.7-1c-0.6,0.5-1.3,0.9-1.9,1.5l-0.8,0.9l-0.7,1
	c-0.4,0.7-0.8,1.4-1.2,2.2c-0.3,0.8-0.6,1.6-0.8,2.4c-0.2,0.8-0.3,1.7-0.3,2.5c0,0.6,0,1.3,0,1.9c-1.1-0.4-2.2-0.7-3.4-0.7
	c-1.6,0-3.2,0.2-4.7,1c-0.2,0.1-0.4,0.2-0.6,0.3l-0.5,0.3c-0.4,0.2-0.6,0.5-0.9,0.7c-0.6,0.5-1.1,1-1.6,1.5c-0.5,0.5-0.9,1-1.3,1.5
	c-0.4,0.5-0.8,1-1.2,1.5c-0.8,0.9-1.7,1.7-2.6,2.3c-0.5,0.3-1,0.5-1.6,0.6c-0.5,0.1-1.1,0.1-1.6,0c-1.1-0.2-2.3-0.9-2.7-2.2
	c0,0.7,0.2,1.4,0.6,2C164.3,27.6,164.9,28.1,165.6,28.5z"/>
<linearGradient id="SVGID_16_" gradientUnits="userSpaceOnUse" x1="190.7047" y1="7.9685" x2="215.1537" y2="32.4175">
	<stop  offset="3.505610e-03" style="stop-color:#DDCB7C"/>
	<stop  offset="1" style="stop-color:#716224"/>
</linearGradient>
<path class="st15" d="M194,7.9c0.3,0.7,0.6,1.4,0.9,2.1c0.2,0.7,0.4,1.4,0.6,2.1c0.1,0.7,0.2,1.4,0.2,2.2c0,0.7,0,1.4-0.1,2.1
	c-0.1,0.7-0.2,1.4-0.4,2.1c-0.2,0.7-0.4,1.3-0.6,2c-0.3,0.6-0.6,1.2-1,1.8c-0.5,0.8-0.3,1.8,0.4,2.3c0.8,0.6,1.9,0.4,2.4-0.3
	l0.1-0.1c0.6-0.8,1.4-1.5,2.3-1.9c0.9-0.5,2-0.7,3-0.8c2.1-0.1,3.9,0.7,5.7,2.4l1.4,1.3c0.5,0.5,1,0.9,1.5,1.4
	c1.1,0.9,2.3,1.8,3.8,2.2c0.7,0.2,1.5,0.4,2.2,0.3c0.9,0,1.5-0.3,2.2-0.6c0.7-0.3,1.2-0.8,1.7-1.4c0.4-0.6,0.6-1.3,0.6-2
	c-0.4,1.3-1.6,2-2.7,2.2c-0.5,0.1-1.2,0.1-1.6,0c-0.6-0.1-1.1-0.3-1.6-0.6c-1-0.6-1.8-1.4-2.6-2.3c-0.4-0.4-0.8-1-1.2-1.5
	c-0.4-0.5-0.8-1-1.3-1.5c-0.5-0.5-1-1-1.6-1.5c-0.3-0.2-0.6-0.5-0.9-0.7L207,19c-0.2-0.1-0.4-0.2-0.6-0.3c-1.5-0.7-3.1-1-4.7-1
	c-1.2,0-2.3,0.3-3.4,0.7c0-0.6,0.1-1.3,0-1.9c-0.1-0.9-0.1-1.7-0.3-2.5c-0.2-0.8-0.5-1.6-0.8-2.4c-0.3-0.8-0.7-1.5-1.2-2.2l-0.7-1
	l-0.8-0.9c-0.6-0.6-1.2-1.1-1.9-1.5l0.7,1L194,7.9z"/>
<linearGradient id="SVGID_17_" gradientUnits="userSpaceOnUse" x1="99.3162" y1="57.4291" x2="281.1943" y2="239.3071">
	<stop  offset="3.505610e-03" style="stop-color:#DDCB7C"/>
	<stop  offset="1" style="stop-color:#716224"/>
</linearGradient>
<path class="st16" d="M28,133.3c-1.9-0.3-3.8,0.2-5.5,1.4c-1.4,1-2.2,2.5-2.7,3.5l0,0c-0.3,0.6-0.6,1.3-0.7,2.2
	c-0.1,0.4-0.1,1-0.1,1.5c0,0.9,0.2,2,0.7,3.3c0.3,0.7,0.6,1.4,0.9,2c3,5.4,6.3,9.6,11,11.2H21.3c-1,0-1.9,0.8-1.9,1.9
	c0,1,0.8,1.9,1.9,1.9h128.1c0,0,0.1,0,0.1,0c0,0,0.1,0,0.1,0h29c1,0,1.9-0.8,1.9-1.9c0-1-0.8-1.9-1.9-1.9h-16
	c2.5-1.6,4.7-3.6,6.2-6.1c2.4-3.8,3.1-8.5,2-13c-0.2-0.7-0.4-1.4-0.6-2l9.7,5.8c3.1,1.9,6.7,2.8,10.2,2.8c3.3,0,6.7-0.8,9.7-2.5
	l12.6-7c-0.4,0.9-0.7,1.9-1,2.9c-1.1,4.5-0.3,9.2,2,13c1.5,2.4,3.7,4.5,6.2,6.1h-15.5c-1,0-1.9,0.8-1.9,1.9c0,1,0.8,1.9,1.9,1.9
	h28.5c0,0,0.1,0,0.1,0c0,0,0.1,0,0.1,0h124.9c1,0,1.9-0.8,1.9-1.9c0-1-0.8-1.9-1.9-1.9h-7.2c4.7-1.6,8.1-5.8,11-11.2
	c0.8-1.4,1.3-2.9,1.6-4.4c0.3-2-0.6-4.2-0.8-4.7c-0.6-1.4-1.5-2.7-2.7-3.5c-1.7-1.2-3.6-1.7-5.5-1.4c-2.4,0.4-4.5,2.5-4.9,5.1
	c-0.4,2.3,0.5,4.3,2.3,5.3c0.9,0.5,2,0.2,2.5-0.7c0.5-0.9,0.2-2-0.7-2.5c-0.6-0.3-0.6-1-0.5-1.5c0.2-0.9,0.9-1.9,1.9-2.1
	c0.9-0.1,1.9,0.1,2.7,0.7c1.1,0.8,1.8,2,2,3.1c0,0.2,0.1,0.4,0.1,0.7c0,0.5-0.1,1.3-0.4,2.2c-0.3,0.8-0.7,1.4-1,1.8
	c0,0.1-0.1,0.1-0.1,0.2c-1.8,2.2-4.8,3.8-7.7,4c-4.5,0.3-9.3-1.4-15.2-5.4c-2.3-1.6-4.6-3.4-6.9-5.1c-3.6-2.8-7.3-5.6-11.4-8
	c-3.5-2-9.7-4.8-16.4-4.8c-0.1,0-0.2,0-0.4,0c-3.7-4.2-9.4-7-15.5-7c-5.7-0.1-11.5,2-16.2,5.7c-1.6,0.9-2.9,2.1-4,3.5
	c-0.2,0.2-0.3,0.5-0.3,0.8c-0.1,0.1-0.2,0.2-0.3,0.4c1-6.7,0.3-13.1-2.1-18.8c-0.8-1.8-1.8-3.4-2.9-5.1c-1.9-3-4.1-6.4-5.2-11.5
	c0,0,0,0,0,0c-0.7-2.8-0.7-5.7-0.7-5.7s0,0,0,0c0,0,0-0.1,0-0.1c0,0,0-0.2,0-0.4c0.2-2.3,0.9-4.6,0.9-4.6c0.8-2.5,2-4.5,2.7-5.6
	c2,4.7,4.3,7.8,4.4,7.9c2.9,3.6,8.1,5.6,13,5c3.4-0.4,6.2-2.7,7.8-6.2c1.7-3.9,1.4-8.5-0.8-11.7c-4-5.7-12.8-7.4-19.7-3.9
	c-1.1,0.6-2.2,1.2-3.1,2c-1.1-4.3-1.4-9.3,0.1-14.2c4.7,0.8,9.1-0.3,12-3c2.7-2.6,2.8-4.7,2.4-6.1c-0.5-1.8-2.3-3.1-4.7-3.5
	c-2.9-0.5-6.9,0.4-9.2,3.5c-1.1,1.5-2.1,3.1-2.8,4.7c-2.6-0.8-5-2-7.2-3.6c-2-1.5-3.9-3.3-5.7-5c-1.4-1.4-2.9-2.9-3.8-4.5
	c-0.6-1-1-2.1-1.2-3.1c1,0.2,2.3,0.1,3.7-0.8c0,0,0,0,0,0c2-1.1,3.1-3.1,3-5.7c-0.1-3.5-2.7-7.5-6.7-7.9c-4.4-0.5-8.8,2.7-10,7.4
	c-1,3.7-0.4,7.4,1.6,10.9c4.9,8.2,17.1,13.6,25,16c-2,6.5-1.1,12.8,0.5,18c-4.9,5.6-7.1,13.8-5.4,21.6c1.6,7.3,2.8,14.9,4,22.2
	l0.8,5c1.1,6.9,1.4,16.9-3.8,24.9c-2.8,4.4-5.6,7.3-8.8,8.9c-0.5,0.2-1.1,0.4-1.7,0.6c-0.1,0-0.1,0-0.2,0.1
	c-6.3,2.3-12.3,0.6-12.3,0.6c-4.6-1.1-8.6-3.8-10.9-7.4c-1.8-2.9-2.4-6.6-1.6-10.2c0.8-3.3,2.7-6,5.4-7.7c3-1.8,7.8-2.2,10.2,0.4
	c1.1,1.2,1,3.1,0.4,4.4c-0.3,0.6-1.1,2.1-2.8,2c-1-0.1-1.9,0.7-1.9,1.8c-0.1,1,0.7,1.9,1.8,1.9c2.7,0.1,5.1-1.4,6.4-4.1
	c1.4-2.9,0.9-6.3-1-8.5c-1.4-1.5-3.2-2.4-5.1-2.8l3.6-2c6.2-3.4,10.1-10,10.2-17.1l0.6-36.7c0.1-7.1-3.6-13.7-9.7-17.4l-31.5-18.9
	c-6.1-3.6-13.7-3.8-19.9-0.3L149.5,53c-6.2,3.4-10.1,10-10.2,17.1l-0.6,36.7c-0.1,7.1,3.6,13.7,9.7,17.4l5.7,3.4
	c-2,0.4-3.8,1.3-5.2,2.8c-2,2.2-2.4,5.6-1,8.5c1.2,2.7,3.7,4.2,6.4,4.1c1-0.1,1.8-0.9,1.8-1.9c-0.1-1-0.9-1.8-1.9-1.8
	c-1.7,0.1-2.5-1.3-2.8-2c-0.6-1.3-0.7-3.2,0.4-4.4c2.4-2.6,7.2-2.2,10.2-0.4c2.7,1.6,4.6,4.3,5.4,7.7c0.8,3.5,0.3,7.2-1.6,10.2
	c-2.3,3.6-6.3,6.3-10.9,7.4c0,0,0,0,0,0s-6.1,1.8-12.3-0.6c0,0-0.1,0-0.1,0c-0.6-0.2-1.2-0.4-1.8-0.7c-3.2-1.6-6-4.5-8.8-8.9
	c-5.2-8-4.9-18-3.8-24.9l0.8-4.9c1.2-7.3,2.4-14.9,4-22.2c1.7-7.8-0.6-16-5.4-21.6c1.6-5.2,2.5-11.6,0.5-18c7.9-2.4,20.1-7.7,25-16
	c2.1-3.5,2.6-7.2,1.6-10.9c-1.2-4.7-5.6-7.9-10-7.4c-4,0.5-6.5,4.4-6.7,7.9c-0.1,2.5,1,4.6,3,5.7c0,0,0,0,0,0c1.4,0.9,2.7,1,3.7,0.8
	c-0.3,1.1-0.7,2.1-1.2,3.1c-0.9,1.7-2.4,3.1-3.8,4.5c-1.8,1.8-3.6,3.6-5.7,5c-2.2,1.6-4.6,2.8-7.2,3.6c-0.7-1.6-1.7-3.1-2.8-4.7
	c-2.3-3.1-6.3-4-9.2-3.5c-2.4,0.4-4.1,1.7-4.7,3.5c-0.4,1.4-0.3,3.5,2.4,6.1c2.9,2.8,7.3,3.8,12,3c1.5,4.9,1.2,9.9,0.1,14.2
	c-1-0.8-2-1.4-3.1-2c-6.9-3.5-15.7-1.7-19.7,3.9c-2.2,3.2-2.6,7.8-0.8,11.7c1.6,3.5,4.4,5.8,7.8,6.2c4.9,0.6,10.1-1.4,13-5
	c0.1-0.1,2.3-3.1,4.4-7.9c2.3,3.3,3.7,7.5,3.8,11.8c-0.1,0.2-0.2,0.5-0.2,0.7c-0.7,7.3-3.4,11.6-5.8,15.3c-1.1,1.7-2.1,3.3-2.9,5.1
	c-2.4,5.7-3.1,12.1-2.1,18.8c-0.1-0.1-0.2-0.2-0.3-0.4c-0.1-0.3-0.2-0.5-0.3-0.8c-1.1-1.4-2.5-2.5-4-3.5c-4.6-3.6-10.3-5.7-15.8-5.7
	c-0.1,0-0.2,0-0.3,0c-6.1,0.1-11.8,2.9-15.5,7c-0.1,0-0.2,0-0.4,0c-6.7,0-12.9,2.8-16.5,4.8c-4.1,2.3-7.8,5.2-11.4,8
	c-2.2,1.7-4.5,3.5-6.9,5.1c-5.9,4-10.7,5.7-15.2,5.4c-2.8-0.2-5.6-1.6-7.4-3.6c0,0,0,0,0,0c-0.1-0.1-0.1-0.2-0.2-0.3
	c0,0-0.1-0.1-0.1-0.1c0-0.1-0.1-0.1-0.1-0.2c0,0,0,0,0-0.1c-0.7-1.1-1.3-2.6-1.3-3.9c0,0,0,0,0,0c0-0.2,0-0.4,0.1-0.7
	c0.2-1.2,1-2.4,2-3.1c0.9-0.6,1.8-0.9,2.7-0.7c1,0.2,1.7,1.2,1.9,2.1c0.1,0.5,0.1,1.1-0.5,1.5c-0.9,0.5-1.2,1.6-0.7,2.5
	c0.5,0.9,1.6,1.2,2.5,0.7c1.8-1,2.7-3.1,2.3-5.3C32.5,135.8,30.5,133.7,28,133.3z M277.6,75.1c1.5,2.1,1.7,5.3,0.5,8.1
	c-1,2.3-2.8,3.7-4.8,4c-0.2,0-0.3,0-0.5,0c1.1-0.8,2-1.9,2.6-3.2c1.3-3,1-7-0.6-9.9c-0.5-0.9-1.2-1.8-2-2.5
	C274.6,72.1,276.4,73.3,277.6,75.1z M261.4,73.1c0.1,0,0.3,0,0.4-0.1c4.6-1.7,8.4,0.6,9.6,2.9c1.1,1.9,1.3,4.7,0.4,6.6
	c-0.5,1.2-1.3,1.9-2.5,2.2c-2.8,0.7-3.7,0.6-4,0.4c0,0,0,0,0,0c-0.7-0.5-1.3-1-1.8-1.6c-1.1-1.4-3.1-4.5-4.6-8.6
	C259.8,74.2,260.5,73.6,261.4,73.1z M261.4,49.9c1.4-1.8,3.8-2.4,5.6-2.1c1,0.2,1.7,0.6,1.8,1c0.1,0.4-0.3,1.2-1.4,2.3
	c-2.1,2-5.3,2.5-8,2.2C260,52.1,260.6,51,261.4,49.9z M232.5,38c-1.6-2.7-2-5.3-1.2-8.1c0.7-2.5,3.2-5,6-4.7
	c1.9,0.2,3.3,2.5,3.4,4.4c0.1,1.5-0.6,2.3-1.9,2.6c-0.1,0-0.3,0.1-0.4,0.1c-0.1,0-0.2,0-0.3-0.1c-0.6-0.2-1-0.8-1.2-1.1
	c-0.3-0.9-1.3-1.4-2.2-1.1c-0.9,0.2-1.5,1.1-1.4,2c0.3,3.3,0.7,6,2.4,8.9c0.5,0.9,1.1,1.6,1.7,2.4C235.4,41.7,233.7,39.9,232.5,38z
	 M325.9,142.1c2.3,1.7,4.6,3.5,7,5.2c4.2,2.8,10.5,6.6,17.6,6c0.7-0.1,1.4-0.2,2.1-0.3c-1,0.8-2.2,1.5-3.6,1.9
	c-3.8,1.3-8.7,0.4-13.3-2.3c-4-2.4-7.9-5.6-11.6-9.4c-2.4-2.5-5.6-5.7-9-8.6C318.9,136.7,322.5,139.5,325.9,142.1z M298.2,130.2
	c0.7,1.1,1.3,2.3,1.6,3.6c0.5,1.8,0.4,3.9-0.2,5.9c0-3.2-1-6.5-3-9.2C297.2,130.4,297.7,130.3,298.2,130.2z M295.2,127
	c-0.5,0.1-0.9,0.2-1.4,0.4c-2.2-1.9-4.9-3.3-8-4.2C289.4,123.5,292.7,124.9,295.2,127z M295,144.2c-0.7,1.5-2.5,4.6-6.5,3.7
	c-1-0.3-2-1.3-2.5-2.7c-1.2-2.8-0.4-5.4,0.3-7.1c1.3-2.8,3.7-5.1,6.6-6.5C296,135.3,296.9,140.4,295,144.2z M258,112.4
	c2.9,6.9,3,15.2,0.3,23.6c0.6-5.1,0.2-10-0.4-13.9l-0.8-4.9c-0.5-3-1-6-1.5-9.1C256.6,109.6,257.4,111,258,112.4z M253.9,152.2
	c1.1-1.2,2.1-2.5,3.1-3.9c1.6-2.4,3-5,4.2-7.5c1.6-3,3-5.9,5-8.5c1.2-1.6,2.6-3,4.1-4.2c2.3-1.3,5.2-2.1,8.5-2.1
	c4.2-0.1,8.1,1,11.1,3c-3,1.8-5.5,4.5-7,7.5c-1.6,3.4-1.7,7-0.4,10.1c1,2.5,2.9,4.2,5,4.8c0,0,0.1,0,0.1,0c0,0,0,0,0.1,0
	c1,0.3,2.1,0.3,3.4,0.1c4-0.6,7.7-3,10.2-6.7c2.5-3.7,3.3-8.2,2.2-12.1c-0.2-0.7-0.4-1.4-0.7-2.1c4.5,1.8,11.4,7.2,18.7,14.9
	c3.9,4.1,8.1,7.5,12.4,10.1c2,1.2,4,2,6,2.6h-92.6C249.7,156.8,251.9,154.7,253.9,152.2z M150.2,121c-4.9-3-8-8.4-7.9-14.1l0.6-36.7
	c0.1-5.8,3.3-11.1,8.3-13.9l32.1-17.8c5-2.8,11.2-2.7,16.2,0.3l31.5,18.9c4.9,3,8,8.4,7.9,14.1l-0.6,36.7
	c-0.1,5.8-3.3,11.1-8.3,13.9l-32.1,17.8c-5,2.8-11.2,2.7-16.2-0.3L150.2,121z M144,32.3c-0.1,0-0.2,0-0.3,0.1
	c-0.1-0.1-0.2-0.1-0.4-0.1c-1.3-0.3-2-1.1-1.9-2.6c0.1-1.9,1.5-4.2,3.4-4.4c2.8-0.3,5.3,2.1,6,4.7c0.7,2.8,0.3,5.4-1.2,8.1
	c-1.2,1.9-2.8,3.7-4.8,5.3c0.6-0.7,1.2-1.5,1.7-2.4c1.6-3,2-5.7,2.4-8.9c0.1-0.9-0.5-1.8-1.4-2c-0.9-0.2-1.8,0.3-2.2,1.1
	C145.1,31.5,144.6,32.1,144,32.3z M114.7,51.1c-1.1-1.1-1.5-1.9-1.4-2.3c0.1-0.3,0.7-0.8,1.8-1c0.3-0.1,0.6-0.1,0.9-0.1
	c1.6,0,3.5,0.6,4.6,2.2c0.8,1.1,1.5,2.2,2.1,3.3C120,53.5,116.8,53.1,114.7,51.1z M106.8,83.9c0.6,1.3,1.5,2.4,2.6,3.2
	c-0.2,0-0.3,0-0.5,0c-2.1-0.2-3.8-1.7-4.8-4c-1.2-2.7-1-5.9,0.5-8.1c1.2-1.8,3-2.9,5-3.6c-0.8,0.7-1.5,1.6-2,2.5
	C105.8,77,105.5,81,106.8,83.9z M118.5,83.5c-0.5,0.6-1.1,1.2-1.8,1.6c0,0,0,0,0,0c-0.3,0.2-1.2,0.3-4-0.4c-1.1-0.3-2-1-2.5-2.2
	c-0.8-1.9-0.6-4.7,0.4-6.6c1.2-2.2,5-4.6,9.6-2.9c0.1,0.1,0.3,0.1,0.4,0.1c0.8,0.5,1.6,1.1,2.4,1.8
	C121.6,78.9,119.6,82.1,118.5,83.5z M124.1,112.4c0.6-1.4,1.5-2.8,2.5-4.4c-0.5,3-1,6.1-1.5,9.1l-0.8,4.9c-0.7,4-1,8.9-0.4,13.9
	C121.1,127.6,121.1,119.3,124.1,112.4z M96.4,123.2c-3.1,0.8-5.9,2.3-8.1,4.2c-0.5-0.1-0.9-0.3-1.4-0.4
	C89.5,124.9,92.9,123.5,96.4,123.2z M89.2,131.7c2.8,1.4,5.3,3.7,6.6,6.5c0.8,1.7,1.5,4.4,0.3,7.1c-0.6,1.4-1.5,2.4-2.5,2.7
	c-3.5,0.6-5.7-2.2-6.5-3.7C85.2,140.4,86.1,135.3,89.2,131.7z M82.2,133.8c0.3-1.3,0.9-2.5,1.6-3.6c0.5,0.1,1,0.1,1.5,0.2
	c-2,2.8-3,6-3,9.2C81.8,137.7,81.7,135.7,82.2,133.8z M80.8,145c2.4,3.7,6.1,6.1,10.2,6.7c1.3,0.2,2.4,0.2,3.4-0.1c0,0,0,0,0.1,0
	c0,0,0.1,0,0.1,0c2.2-0.6,4-2.3,5-4.8c1.3-3.1,1.2-6.7-0.4-10.1c-1.4-3.1-4-5.8-7-7.5c3-2,6.9-3.1,11.1-3c3.2,0,6.2,0.8,8.5,2.1
	c1.5,1.2,2.9,2.6,4.1,4.2c2,2.6,3.5,5.5,5,8.5c1.3,2.5,2.6,5.1,4.2,7.5c0.9,1.4,2,2.7,3.1,3.9c2,2.5,4.2,4.6,6.6,6.2H42.2
	c2-0.6,4-1.4,6-2.6c4.3-2.6,8.5-6,12.4-10.1c7.4-7.7,14.2-13.1,18.7-14.9c-0.3,0.7-0.6,1.4-0.7,2.1C77.6,136.9,78.4,141.3,80.8,145z
	 M31.6,153.3c7.1,0.5,13.4-3.2,17.6-6c2.4-1.7,4.8-3.5,7-5.2c3.4-2.6,7-5.4,10.8-7.6c-3.4,2.9-6.6,6-9,8.6c-3.7,3.9-7.6,7-11.6,9.4
	c-4.6,2.7-9.5,3.6-13.3,2.3c-1.3-0.4-2.5-1.1-3.6-1.9C30.1,153.1,30.8,153.3,31.6,153.3z"/>
<linearGradient id="SVGID_18_" gradientUnits="userSpaceOnUse" x1="794.015" y1="278.7828" x2="881.3189" y2="278.7828">
	<stop  offset="3.505610e-03" style="stop-color:#E6D47C"/>
	<stop  offset="1" style="stop-color:#716224"/>
</linearGradient>
<path class="st17" d="M877.2,257l-34.4-17.9c-2.7-1.5-7.6-1.5-10.3,0L798.1,257c-2.5,1.3-4.4,4.9-4,7.8l6.5,37.8
	c0.4,3,3.4,6.3,6.3,7.4l25.5,8.7c0,0,4,1.5,7.8,0.6c1.1,0,2.1-0.2,3.2-0.6c0.2,0,0.4-0.2,0.6-0.2l24.3-8.4c3-1.1,5.9-4.4,6.3-7.4
	l6.5-37.8C881.7,261.9,880,258.3,877.2,257z"/>
<g>
	<linearGradient id="SVGID_19_" gradientUnits="userSpaceOnUse" x1="-497.7544" y1="223.5571" x2="-177.4287" y2="223.5571">
		<stop  offset="3.505610e-03" style="stop-color:#E6D47C"/>
		<stop  offset="1" style="stop-color:#716224"/>
	</linearGradient>
	<path class="st18" d="M-496,226.6c-1,0-1.7-0.4-1.8-0.8c0-0.5,0.8-0.8,1.7-0.8l316.8-1.4c0.9,0,1.8,0.4,1.8,0.8
		c0,0.5-0.8,0.8-1.7-3.9l-316.8,1.4C-496,226.6-496,226.6-496,226.6z"/>
</g>
<linearGradient id="SVGID_20_" gradientUnits="userSpaceOnUse" x1="-498.3995" y1="118.9132" x2="-346.1097" y2="118.9132">
	<stop  offset="3.505610e-03" style="stop-color:#E6D47C"/>
	<stop  offset="1" style="stop-color:#716224"/>
</linearGradient>
<path class="st19" d="M-347.9,168h-15.1c2.4-1.5,4.4-3.4,5.8-5.7c2.2-3.5,2.9-8,1.9-12.2c-1-4-3.3-7.4-6.7-9.4
	c-4.1-2.5-10.5-2.8-14,1c-1.9,2-2.3,5.2-1,8c1.2,2.5,3.5,4,6,3.9c1,0,1.7-0.9,1.7-1.8c0-1-0.9-1.7-1.8-1.7c-1.6,0.1-2.4-1.3-2.7-1.8
	c-0.6-1.2-0.7-3,0.4-4.1c2.3-2.4,6.8-2.1,9.6-0.4c2.5,1.5,4.4,4.1,5.1,7.2c0.8,3.3,0.3,6.8-1.5,9.6c-2.9,4.7-8.9,7.5-15.1,7.6h-0.4
	c-0.9,0-1.7-0.1-2.6-0.2c-5.3-0.8-10.4-3.6-14.4-7.9c-1.4-1.7-2.7-3.7-3.9-6c-5.3-10.1-6.3-20.8-2.7-29.2c0.5-1.2,1.2-2.3,2-3.5
	l0.1,0.1c4.2-4.5,6.4-10.6,6.3-16.4c0-0.1,0-0.3,0-0.4c0-0.3,0-0.5-0.1-0.7c-0.1-0.9-0.2-1.7-0.3-2.5c3.8-3.4,7.6-8.2,9.1-14.4
	c7.6,1.9,20,3.4,27.9-1c3.4-1.8,5.6-4.6,6.6-8.1c1.2-4.4-0.8-9.1-4.6-10.8c-3.5-1.5-7.4,0.4-9.2,3.2c-1.3,2-1.4,4.2-0.3,6
	c0,0,0,0,0,0c0.7,1.4,1.7,2.1,2.6,2.4c-0.7,0.7-1.5,1.4-2.5,1.9c-1.6,0.9-3.5,1.4-5.3,1.8c-2.3,0.6-4.7,1.2-7,1.4
	c-2.6,0.2-5.1,0.1-7.6-0.5c0.2-1.6,0.2-3.3,0-5.1c-0.4-3.6-3.2-6.3-5.7-7.3c-2.1-0.8-4.2-0.6-5.5,0.6c-1,0.9-2,2.7-1,6
	c1,3.6,4.1,6.6,8.3,8.2c-1.1,4.7-3.8,8.6-6.7,11.6c-0.4-1.1-1-2.1-1.6-3.1c-3.9-6.1-11.9-8.9-17.8-6.3c-3.3,1.5-5.8,5.1-6.3,9.1
	c-0.4,3.6,0.8,6.8,3.4,8.7c3.7,2.8,8.8,3.7,12.9,2.2c0.1,0,3.4-1.4,7.3-4.3c0,0.3,0,0.6,0,0.9c-0.7,6.5-3.2,10.4-5.4,13.8
	c-1,1.6-2,3.2-2.7,4.8c-2.3,5.3-2.9,11.4-2,17.7c-0.1-0.1-0.2-0.2-0.3-0.3c-0.1-0.3-0.2-0.5-0.3-0.7c-1-1.3-2.3-2.4-3.8-3.3
	c-4.4-3.4-9.7-5.4-14.9-5.4c-0.1,0-0.2,0-0.3,0c-5.7,0.1-11.2,2.7-14.6,6.6c-0.1,0-0.2,0-0.3,0c-6.4,0-12.2,2.6-15.5,4.5
	c-3.9,2.2-7.4,4.9-10.8,7.5c-2.1,1.6-4.3,3.3-6.5,4.8c-5.5,3.8-10.1,5.4-14.3,5.1c-2.8-0.2-5.6-1.7-7.3-3.8c0-0.1-0.1-0.1-0.1-0.2
	c-0.6-1.4-1-2.7-1.3-3.7c0-0.2,0-0.4,0.1-0.6c0.2-1.1,0.9-2.2,1.9-3c0.8-0.6,1.7-0.8,2.6-0.7c0.9,0.2,1.6,1.1,1.8,2
	c0.1,0.5,0.1,1.1-0.5,1.4c-0.8,0.5-1.1,1.5-0.7,2.4c0.5,0.8,1.5,1.1,2.4,0.7c1.7-1,2.6-2.9,2.2-5c-0.4-2.5-2.3-4.4-4.6-4.8
	c-1.8-0.3-3.6,0.2-5.2,1.3c-1.7,1.2-2.9,3.1-3.3,5.1c-0.3,0.4-0.4,0.9-0.2,1.4c0,0.1,0.1,0.3,0.1,0.4c0.1,1.7,0.6,3.4,1.7,4.9
	c2.3,5.3,6,9,10.4,10.5h-9.8c-1,0-1.8,0.8-1.8,1.8s0.8,1.8,1.8,1.8h120.6c0,0,0.1,0,0.1,0c0,0,0.1,0,0.1,0h27.3c1,0,1.8-0.8,1.8-1.8
	S-346.9,168-347.9,168z M-359.8,83.6c2.8-1.6,4.4-3.6,6.2-6.1c0.5-0.7,0.4-1.7-0.2-2.3c-0.6-0.6-1.6-0.7-2.3-0.1
	c-0.3,0.2-0.9,0.5-1.5,0.4c-0.1,0-0.2,0-0.3-0.1c-0.1-0.1-0.2-0.2-0.2-0.3c-1-0.9-1.1-1.9-0.3-3c1-1.5,3.2-2.7,4.9-1.9
	c2.4,1.1,3.3,4.3,2.6,6.6c-0.7,2.6-2.3,4.5-4.9,5.9c-1.8,1-4,1.6-6.4,2C-361.4,84.4-360.6,84-359.8,83.6z M-390.4,76.5
	c-0.4-1.4-0.3-2.3,0-2.5c0.2-0.2,1-0.3,1.9,0.1c0.3,0.1,0.5,0.2,0.8,0.4c1.3,0.8,2.5,2.2,2.7,4c0.1,1.3,0.1,2.5,0.1,3.7
	C-387.3,81.1-389.7,79.2-390.4,76.5z M-402.9,104.6c-2.9,1.1-6.9,0.4-9.5-1.7c-1.5-1.2-2.3-3.2-2-5.6c0.3-2.8,2-5.3,4.2-6.3
	c3-1.4,6.4-0.8,9.2,0.9c1.7,1,3.2,2.5,4.2,4.1c0.7,1.2,1.3,2.5,1.7,3.8C-398.2,102.5-401.3,104.1-402.9,104.6z M-425.2,134.8
	c-2.9,0.8-5.5,2.1-7.7,3.9c-0.4-0.1-0.9-0.3-1.3-0.4C-431.8,136.4-428.6,135.1-425.2,134.8z M-438.6,144.8c0.3-1.2,0.8-2.3,1.5-3.4
	c0.5,0,1,0.1,1.4,0.2c-1.8,2.6-2.8,5.7-2.8,8.7C-439,148.5-439.1,146.6-438.6,144.8z M-427.9,158.2c-1.6,0-5.4-2.1-6.1-3.5
	c-1.8-3.6-0.9-8.4,2-11.8c2.7,1.3,5,3.5,6.2,6.1c0.8,1.6,1.4,4.1,0.3,6.7C-426.1,156.9-426.9,157.9-427.9,158.2z M-469.8,157.5
	c2.3-1.6,4.5-3.3,6.6-4.9c3.2-2.5,6.6-5.1,10.2-7.1c-3.2,2.7-6.2,5.7-8.5,8.1c-3.5,3.6-7.2,6.6-11,8.9c-4.3,2.6-8.9,3.4-12.5,2.2
	c-1.3-0.4-2.4-1-3.4-1.8c0.7,0.2,1.3,0.3,2,0.3C-479.6,163.7-473.7,160.2-469.8,157.5z M-470.6,165.5c4.1-2.4,8-5.6,11.7-9.5
	c7-7.3,13.4-12.3,17.6-14c-0.3,0.6-0.5,1.3-0.7,2c-1,3.8-0.2,7.9,2.1,11.4c2.3,3.4,5.8,5.7,9.6,6.3c1.2,0.2,2.2,0.2,3.2-0.1
	c0,0,0,0,0.1,0c0,0,0,0,0.1,0c2-0.6,3.8-2.2,4.7-4.5c1.2-3,1.1-6.3-0.4-9.5c-1.3-2.9-3.7-5.4-6.6-7.1c2.9-1.9,6.5-2.9,10.4-2.9
	l10.5,4.4c0.5,0.5,0.9,1,1.3,1.6c1.9,2.4,3.3,5.1,4.7,8c1.2,2.3,2.4,4.8,4,7.1c0.9,1.3,1.8,2.5,2.9,3.6c1.9,2.4,4,4.3,6.2,5.9h-87.2
	C-474.4,167.4-472.5,166.6-470.6,165.5z"/>
<linearGradient id="SVGID_21_" gradientUnits="userSpaceOnUse" x1="-482.0121" y1="108.9263" x2="-407.7692" y2="108.9263">
	<stop  offset="3.505610e-03" style="stop-color:#E6D47C"/>
	<stop  offset="1" style="stop-color:#716224"/>
</linearGradient>
<path class="st20" d="M-480.3,141.4c0.2,0,0.4,0,0.6-0.1c7.8-3.1,14.4-8.4,20.8-13.6c1.3-1,2.6-2.1,3.8-3.1
	c6.9-5.5,15.2-11.2,24.6-12c2.7,3.6,5.8,6.5,8.4,8.9c1.9,1.7,4.1,3.5,6.9,3.9c1.8,0.3,3.8-0.2,5.2-1.4c1.2-0.9,1.9-2.2,2.1-3.6
	c0.3-2.5-1.2-4.8-4.3-6.7c-4.9-3.2-10.8-4.8-16.6-4.7c-2.2-3.1-3.9-6.7-4.6-10.6c-1.3-7.5,2.9-16.9,10.6-18.3
	c0.9-0.2,1.5-0.9,1.4-1.8c0-0.9-0.8-1.6-1.6-1.6c-7.5-0.5-14.5,2.9-18.7,9c-3.9,5.5-4.9,12.9-2.8,19.3c-8.8,2.6-15.5,9.2-20.6,14.7
	c-2.1,2.4-4,4.8-5.8,7.2c-3.2,4.2-6.2,8.2-10.6,11.4c-0.7,0.5-0.9,1.5-0.5,2.3C-481.5,141-480.9,141.4-480.3,141.4z M-413.9,116.5
	c0.9,0.5,2.8,2,2.7,3.4c-0.1,0.5-0.4,0.9-0.7,1.2c-0.7,0.5-1.7,0.8-2.6,0.7c-1.8-0.3-3.5-1.7-5.1-3c-2-1.7-4.2-3.8-6.3-6.3
	C-421.7,112.9-417.5,114.2-413.9,116.5z M-467.9,128.9c1.7-2.3,3.5-4.7,5.6-6.9c5-5.6,11.9-12.2,20.7-14.2c0.5-0.1,0.9-0.5,1.2-0.9
	c0.2-0.5,0.2-1,0-1.5c-2.5-5.7-1.9-12.7,1.7-17.8c1.7-2.4,3.9-4.4,6.5-5.6c-3.8,4.6-5.5,11.3-4.5,17.1c0.7,3.8,2.2,7.2,4.1,10.3
	c-9.5,1.4-17.7,7.1-24.5,12.5c-1.3,1-2.6,2.1-3.9,3.1c-3,2.4-6,4.9-9.2,7.2C-469.5,131-468.6,129.9-467.9,128.9z"/>
<linearGradient id="SVGID_22_" gradientUnits="userSpaceOnUse" x1="-466.9371" y1="97.8779" x2="-453.9032" y2="97.8779">
	<stop  offset="3.505610e-03" style="stop-color:#E6D47C"/>
	<stop  offset="1" style="stop-color:#716224"/>
</linearGradient>
<path class="st21" d="M-462.7,106.3l1.4-0.5c0.5-0.2,1-0.3,1.4-0.4c0.5-0.1,0.9-0.3,1.4-0.4c1-0.2,1.9-0.3,2.9-0.4
	c0.1,0,0.2,0,0.3,0c0.9-0.2,1.5-1.1,1.3-2l0-0.1c-0.1-0.6-0.2-1.2-0.4-1.8c-0.1-0.6-0.2-1.2-0.2-1.8l-0.1-1.8c0-0.6,0-1.2,0-1.9
	c0-0.6,0-1.3,0.1-1.9c0.1-0.6,0.1-1.3,0.2-1.9c0.1-0.6,0.2-1.3,0.3-1.9l0.3-2c-0.5,0.5-0.9,1-1.3,1.6c-0.4,0.6-0.7,1.2-1.1,1.8
	c-0.3,0.6-0.6,1.3-0.8,1.9c-0.2,0.7-0.4,1.4-0.6,2c-0.3,1.4-0.4,2.8-0.4,4.3c0,0.8,0.1,1.6,0.3,2.5c-0.5,0.1-1,0.3-1.5,0.5
	c-1.1,0.4-2.1,0.9-3.1,1.5c-1,0.6-1.9,1.3-2.6,2.2c-0.8,0.8-1.5,1.7-2,2.7c1-0.5,1.9-1,2.9-1.5L-462.7,106.3z"/>
<linearGradient id="SVGID_23_" gradientUnits="userSpaceOnUse" x1="-418.3791" y1="154.2299" x2="-401.1656" y2="154.2299">
	<stop  offset="3.505610e-03" style="stop-color:#E6D47C"/>
	<stop  offset="1" style="stop-color:#716224"/>
</linearGradient>
<path class="st22" d="M-402,161.4l-0.2-0.1c-1.5-0.8-2.7-2.1-3.7-3.8c-1-1.6-1.8-3.5-2.8-5.3c-1-2-2.2-3.9-3.8-5.5
	c-0.8-0.8-1.7-1.5-2.8-2c-0.5-0.3-1.1-0.4-1.6-0.5c-0.6-0.1-1.1-0.1-1.6-0.1c0.5,0.2,1,0.5,1.4,0.7c0.4,0.3,0.8,0.6,1.2,0.9
	c0.7,0.7,1.3,1.5,1.8,2.3c1,1.7,1.8,3.5,2.5,5.4c0.7,2,1.5,4,2.7,5.9c0.4,0.7,0.9,1.4,1.5,2.1c-0.7,0.1-1.3,0.1-2,0.2
	c-2.2,0.2-4.3,0.6-6.5,1c2.1,0.5,4.3,0.8,6.4,1.1c1.1,0.1,2.1,0.2,3.2,0.3c1.1,0.1,2.1,0.2,3.2,0.2c0.6,0,1.2-0.3,1.5-0.8
	C-400.9,162.8-401.2,161.8-402,161.4z"/>
<linearGradient id="SVGID_24_" gradientUnits="userSpaceOnUse" x1="-453.9032" y1="127.3099" x2="-433.1571" y2="127.3099">
	<stop  offset="3.505610e-03" style="stop-color:#E6D47C"/>
	<stop  offset="1" style="stop-color:#716224"/>
</linearGradient>
<path class="st23" d="M-447.1,124.9c-0.7,0.3-1.3,0.7-1.9,1.1c-1.2,0.8-2.2,1.7-3,2.7c-0.4,0.4-0.7,0.9-0.9,1.3
	c-0.3,0.4-0.5,0.8-0.6,1.1c-0.3,0.6-0.4,1-0.4,1s0.3-0.2,0.9-0.5c0.6-0.4,1.3-0.8,2.3-1.3c1.9-1,4.3-2,6.9-2.9
	c2.6-0.9,5.3-1.8,7.3-2.7c2-0.8,3.4-1.6,3.4-1.6s-1.5-0.4-3.8-0.3c-2.2,0-5.2,0.3-8.1,1.4C-445.7,124.3-446.4,124.5-447.1,124.9z"/>
<linearGradient id="SVGID_25_" gradientUnits="userSpaceOnUse" x1="-508.8173" y1="151.0098" x2="-486.5392" y2="151.0098">
	<stop  offset="3.505610e-03" style="stop-color:#E6D47C"/>
	<stop  offset="1" style="stop-color:#716224"/>
</linearGradient>
<path class="st24" d="M-505.1,150.9c0.3-1.2,0.8-2.4,1.4-3.6c0.6-1.1,1.3-2.2,2.1-3.2c0.9-1,1.7-1.8,2.7-2.6c1.9-1.5,4.1-2.5,6-3.1
	c1-0.3,1.9-0.5,2.7-0.6c0.8-0.1,1.6-0.2,2.1-0.1c0.6,0.1,1,0.2,1.2,0.5c0.2,0.2,0.3,0.4,0.3,0.4s0-0.2-0.1-0.5
	c-0.2-0.3-0.6-0.8-1.2-1c-0.6-0.3-1.4-0.4-2.3-0.5c-0.9-0.1-1.9-0.1-3.1,0c-2.3,0.2-4.9,0.9-7.4,2.5c-1.2,0.8-2.5,1.7-3.5,2.9
	c-1,1.1-2,2.4-2.7,3.8c-0.7,1.4-1.2,2.9-1.6,4.4c-0.4,1.5-0.4,3-0.4,4.5c0,0.4,0.1,0.8,0.1,1.1c0,0.3,0.1,0.7,0.1,1
	c0.2,0.8,0.3,1.4,0.6,2.1c0.4,1.3,1.1,2.4,1.8,3.3c1.4,1.9,3.2,2.9,4.5,3.2c0.6,0.2,1.2,0.2,1.5,0.2c0.3,0,0.5,0,0.5,0
	s-0.2-0.1-0.5-0.2c-0.3-0.1-0.8-0.3-1.3-0.6c-1-0.6-2.2-1.9-3-3.7c-0.4-0.9-0.7-1.9-1-3c-0.1-0.5-0.2-1.1-0.2-1.6c0-0.3,0-0.6,0-1
	l0-0.9C-505.7,153.4-505.4,152.1-505.1,150.9z"/>
<linearGradient id="SVGID_26_" gradientUnits="userSpaceOnUse" x1="-327.3563" y1="118.9132" x2="-175.0665" y2="118.9132" gradientTransform="matrix(-1 0 0 1 -526.3488 0)">
	<stop  offset="3.505610e-03" style="stop-color:#E6D47C"/>
	<stop  offset="1" style="stop-color:#716224"/>
</linearGradient>
<path class="st25" d="M-351.3,169.7c0,1,0.8,1.8,1.8,1.8h27.3c0,0,0.1,0,0.1,0c0,0,0.1,0,0.1,0h120.6c1,0,1.8-0.8,1.8-1.8
	s-0.8-1.8-1.8-1.8h-9.8c4.4-1.5,8.1-5.2,10.4-10.5c1-1.5,1.6-3.2,1.7-4.9c0-0.1,0.1-0.3,0.1-0.4c0.1-0.5,0-1-0.2-1.4
	c-0.4-2-1.6-3.9-3.3-5.1c-1.6-1.1-3.4-1.6-5.2-1.3c-2.3,0.4-4.2,2.4-4.6,4.8c-0.4,2.1,0.5,4.1,2.2,5c0.8,0.5,1.9,0.2,2.4-0.7
	c0.5-0.8,0.2-1.9-0.7-2.4c-0.5-0.3-0.6-0.9-0.5-1.4c0.1-0.8,0.8-1.8,1.8-2c0.8-0.1,1.7,0.1,2.6,0.7c1,0.7,1.7,1.8,1.9,3
	c0,0.2,0,0.4,0.1,0.6c-0.3,1-0.7,2.3-1.3,3.7c0,0.1-0.1,0.1-0.1,0.2c-1.7,2.1-4.5,3.6-7.3,3.8c-4.3,0.3-8.8-1.3-14.3-5.1
	c-2.2-1.5-4.4-3.2-6.5-4.8c-3.4-2.6-6.9-5.3-10.8-7.5c-3.3-1.9-9.1-4.5-15.5-4.5c-0.1,0-0.2,0-0.3,0c-3.5-3.9-8.9-6.6-14.6-6.6
	c-0.1,0-0.2,0-0.3,0c-5.2,0-10.6,2-14.9,5.4c-1.5,0.9-2.8,2-3.8,3.3c-0.2,0.2-0.3,0.5-0.3,0.7c-0.1,0.1-0.2,0.2-0.3,0.3
	c0.9-6.3,0.3-12.4-2-17.7c-0.7-1.7-1.7-3.2-2.7-4.8c-2.2-3.4-4.7-7.3-5.4-13.8c0-0.3,0-0.6,0-0.9c3.9,2.9,7.2,4.2,7.3,4.3
	c4.1,1.5,9.2,0.6,12.9-2.2c2.5-2,3.8-5.1,3.4-8.7c-0.5-4-2.9-7.6-6.3-9.1c-5.9-2.7-13.9,0.1-17.8,6.3c-0.6,1-1.2,2-1.6,3.1
	c-2.9-3-5.6-6.9-6.7-11.6c4.2-1.6,7.3-4.6,8.3-8.2c1-3.4,0-5.2-1-6c-1.3-1.2-3.4-1.4-5.5-0.6c-2.6,1-5.4,3.6-5.7,7.3
	c-0.2,1.8-0.2,3.5,0,5.1c-2.5,0.6-5,0.8-7.6,0.5c-2.3-0.2-4.7-0.8-7-1.4c-1.8-0.5-3.7-0.9-5.3-1.8c-1-0.6-1.8-1.2-2.5-1.9
	c0.9-0.3,1.9-1,2.6-2.4c0,0,0,0,0,0c1.1-1.8,1-4-0.3-6c-1.8-2.8-5.7-4.8-9.2-3.2c-3.8,1.7-5.8,6.4-4.6,10.8c1,3.5,3.2,6.2,6.6,8.1
	c7.9,4.3,20.4,2.9,27.9,1c1.5,6.2,5.2,11,9.1,14.4c-0.2,0.8-0.3,1.7-0.3,2.5c-0.1,0.2-0.1,0.5-0.1,0.7c0,0.1,0,0.3,0,0.4
	c-0.1,5.8,2.1,11.9,6.3,16.4l0.1-0.1c0.8,1.2,1.5,2.4,2,3.5c3.6,8.4,2.6,19.1-2.7,29.2c-1.2,2.3-2.5,4.3-3.9,6
	c-4,4.2-9.1,7.1-14.4,7.9c-0.9,0.1-1.7,0.2-2.6,0.2h-0.4c-6.2,0-12.2-2.9-15.1-7.6c-1.7-2.8-2.3-6.2-1.5-9.6
	c0.7-3.1,2.6-5.7,5.1-7.2c2.9-1.7,7.3-2.1,9.6,0.4c1.1,1.1,0.9,2.9,0.4,4.1c-0.3,0.6-1.1,1.9-2.7,1.8c-0.9-0.1-1.8,0.7-1.8,1.7
	c0,1,0.7,1.8,1.7,1.8c2.5,0.1,4.8-1.4,6-3.9c1.3-2.8,0.9-6-1-8c-3.5-3.8-9.9-3.5-14-1c-3.4,2-5.7,5.4-6.7,9.4
	c-1,4.2-0.3,8.7,1.9,12.2c1.4,2.3,3.4,4.2,5.8,5.7h-15.1C-350.5,168-351.3,168.7-351.3,169.7z M-335.2,84.7c-2.3-0.4-4.5-1-6.4-2
	c-2.5-1.4-4.1-3.3-4.9-5.9c-0.7-2.4,0.2-5.6,2.6-6.6c1.7-0.7,3.9,0.4,4.9,1.9c0.7,1.1,0.6,2.2-0.3,3c-0.1,0.1-0.2,0.2-0.2,0.3
	c-0.1,0-0.2,0.1-0.3,0.1c-0.6,0.1-1.2-0.1-1.5-0.4c-0.7-0.5-1.7-0.5-2.3,0.1c-0.6,0.6-0.7,1.6-0.2,2.3c1.8,2.5,3.5,4.5,6.2,6.1
	C-336.8,84-336,84.4-335.2,84.7z M-312.4,82.1c-0.1-1.2-0.1-2.4,0.1-3.7c0.2-1.8,1.4-3.2,2.7-4c0.3-0.2,0.5-0.3,0.8-0.4
	c0.9-0.3,1.6-0.3,1.9-0.1c0.3,0.3,0.4,1.1,0,2.5C-307.7,79.2-310.1,81.1-312.4,82.1z M-302.4,99.8c0.4-1.3,1-2.6,1.7-3.8
	c1-1.6,2.5-3,4.2-4.1c2.8-1.6,6.2-2.3,9.2-0.9c2.2,1,3.9,3.5,4.2,6.3c0.3,2.3-0.5,4.4-2,5.6c-2.7,2.1-6.6,2.8-9.5,1.7
	C-296.1,104.1-299.2,102.5-302.4,99.8z M-263.2,138.4c-0.4,0.1-0.9,0.2-1.3,0.4c-2.1-1.8-4.8-3.2-7.7-3.9
	C-268.8,135.1-265.6,136.4-263.2,138.4z M-259,150.4c0-3-1-6.1-2.8-8.7c0.5-0.1,1-0.2,1.4-0.2c0.7,1.1,1.2,2.2,1.5,3.4
	C-258.3,146.6-258.4,148.5-259,150.4z M-271.9,155.6c-1.1-2.6-0.4-5.1,0.3-6.7c1.2-2.6,3.5-4.8,6.2-6.1c2.9,3.4,3.7,8.3,2,11.8
	c-0.7,1.4-4.5,3.6-6.1,3.5C-270.4,157.9-271.3,156.9-271.9,155.6z M-211.1,163.2c0.7,0,1.3-0.2,2-0.3c-1,0.8-2.1,1.4-3.4,1.8
	c-3.6,1.2-8.2,0.4-12.5-2.2c-3.8-2.3-7.5-5.2-11-8.9c-2.3-2.4-5.3-5.4-8.5-8.1c3.6,2,6.9,4.6,10.2,7.1c2.1,1.6,4.3,3.3,6.6,4.9
	C-223.7,160.2-217.8,163.7-211.1,163.2z M-221.1,168h-87.2c2.3-1.5,4.3-3.5,6.2-5.9c1-1.1,2-2.3,2.9-3.6c1.5-2.3,2.8-4.7,4-7.1
	c1.5-2.9,2.9-5.6,4.7-8c0.4-0.5,0.9-1.1,1.3-1.6l10.5-4.4c3.9-0.1,7.6,1,10.4,2.9c-2.8,1.7-5.2,4.2-6.6,7.1
	c-1.5,3.2-1.6,6.6-0.4,9.5c1,2.3,2.7,4,4.7,4.5c0,0,0,0,0.1,0c0,0,0,0,0.1,0c0.9,0.2,1.9,0.3,3.2,0.1c3.8-0.6,7.3-2.9,9.6-6.3
	c2.3-3.5,3.1-7.7,2.1-11.4c-0.2-0.7-0.4-1.3-0.7-2c4.2,1.7,10.7,6.8,17.6,14c3.7,3.9,7.6,7.1,11.7,9.5
	C-224.9,166.6-223,167.4-221.1,168z"/>
<linearGradient id="SVGID_27_" gradientUnits="userSpaceOnUse" x1="-310.9689" y1="108.9263" x2="-236.726" y2="108.9263" gradientTransform="matrix(-1 0 0 1 -526.3488 0)">
	<stop  offset="3.505610e-03" style="stop-color:#E6D47C"/>
	<stop  offset="1" style="stop-color:#716224"/>
</linearGradient>
<path class="st26" d="M-215.6,140.4c0.4-0.8,0.2-1.7-0.5-2.3c-4.4-3.2-7.4-7.2-10.6-11.4c-1.8-2.4-3.6-4.8-5.8-7.2
	c-5-5.6-11.8-12.1-20.6-14.7c2.1-6.4,1.1-13.8-2.8-19.3c-4.2-6.1-11.2-9.4-18.7-9c-0.9,0.1-1.6,0.8-1.6,1.6
	c-0.1,0.9,0.6,1.7,1.4,1.8c7.6,1.4,11.9,10.8,10.6,18.3c-0.7,3.9-2.4,7.4-4.6,10.6c-5.9-0.1-11.7,1.5-16.6,4.7c-3,2-4.5,4.3-4.3,6.7
	c0.1,1.4,0.9,2.7,2.1,3.6c1.4,1.1,3.4,1.6,5.2,1.4c2.8-0.4,5-2.2,6.9-3.9c2.6-2.3,5.7-5.3,8.4-8.9c9.4,0.8,17.7,6.5,24.6,12
	c1.3,1,2.6,2.1,3.8,3.1c6.4,5.2,12.9,10.5,20.8,13.6c0.2,0.1,0.4,0.1,0.6,0.1C-216.5,141.4-215.9,141-215.6,140.4z M-271.5,112.5
	c-2.1,2.4-4.3,4.5-6.3,6.3c-1.6,1.4-3.2,2.8-5.1,3c-0.9,0.1-1.9-0.1-2.6-0.7c-0.3-0.2-0.7-0.6-0.7-1.2c-0.2-1.5,1.8-2.9,2.7-3.4
	C-279.9,114.2-275.7,112.9-271.5,112.5z M-227.1,132.1c-3.2-2.2-6.2-4.7-9.2-7.2c-1.3-1-2.6-2.1-3.9-3.1
	c-6.9-5.4-15.1-11.1-24.5-12.5c1.9-3.1,3.4-6.5,4.1-10.3c1-5.8-0.7-12.5-4.5-17.1c2.6,1.3,4.8,3.2,6.5,5.6
	c3.6,5.1,4.2,12.1,1.7,17.8c-0.2,0.5-0.2,1,0,1.5c0.2,0.5,0.7,0.8,1.2,0.9c8.8,2,15.6,8.6,20.7,14.2c2,2.3,3.8,4.6,5.6,6.9
	C-228.7,129.9-227.9,131-227.1,132.1z"/>
<linearGradient id="SVGID_28_" gradientUnits="userSpaceOnUse" x1="-295.8939" y1="97.8779" x2="-282.86" y2="97.8779" gradientTransform="matrix(-1 0 0 1 -526.3488 0)">
	<stop  offset="3.505610e-03" style="stop-color:#E6D47C"/>
	<stop  offset="1" style="stop-color:#716224"/>
</linearGradient>
<path class="st27" d="M-234.7,106.3l-1.4-0.5c-0.5-0.2-1-0.3-1.4-0.4c-0.5-0.1-0.9-0.3-1.4-0.4c-1-0.2-1.9-0.3-2.9-0.4
	c-0.1,0-0.2,0-0.3,0c-0.9-0.2-1.5-1.1-1.3-2l0-0.1c0.1-0.6,0.2-1.2,0.4-1.8c0.1-0.6,0.2-1.2,0.2-1.8l0.1-1.8c0-0.6,0-1.2,0-1.9
	c0-0.6,0-1.3-0.1-1.9c-0.1-0.6-0.1-1.3-0.2-1.9c-0.1-0.6-0.2-1.3-0.3-1.9l-0.3-2c0.5,0.5,0.9,1,1.3,1.6c0.4,0.6,0.7,1.2,1.1,1.8
	c0.3,0.6,0.6,1.3,0.8,1.9c0.2,0.7,0.4,1.4,0.6,2c0.3,1.4,0.4,2.8,0.4,4.3c0,0.8-0.1,1.6-0.3,2.5c0.5,0.1,1,0.3,1.5,0.5
	c1.1,0.4,2.1,0.9,3.1,1.5c1,0.6,1.9,1.3,2.6,2.2c0.8,0.8,1.5,1.7,2,2.7c-1-0.5-1.9-1-2.9-1.5L-234.7,106.3z"/>
<linearGradient id="SVGID_29_" gradientUnits="userSpaceOnUse" x1="-247.3359" y1="154.2299" x2="-230.1224" y2="154.2299" gradientTransform="matrix(-1 0 0 1 -526.3488 0)">
	<stop  offset="3.505610e-03" style="stop-color:#E6D47C"/>
	<stop  offset="1" style="stop-color:#716224"/>
</linearGradient>
<path class="st28" d="M-295.4,161.4l0.2-0.1c1.5-0.8,2.7-2.1,3.7-3.8c1-1.6,1.8-3.5,2.8-5.3c1-2,2.2-3.9,3.8-5.5
	c0.8-0.8,1.7-1.5,2.8-2c0.5-0.3,1.1-0.4,1.6-0.5c0.6-0.1,1.1-0.1,1.6-0.1c-0.5,0.2-1,0.5-1.4,0.7c-0.4,0.3-0.8,0.6-1.2,0.9
	c-0.7,0.7-1.3,1.5-1.8,2.3c-1,1.7-1.8,3.5-2.5,5.4c-0.7,2-1.5,4-2.7,5.9c-0.4,0.7-0.9,1.4-1.5,2.1c0.7,0.1,1.3,0.1,2,0.2
	c2.2,0.2,4.3,0.6,6.5,1c-2.1,0.5-4.3,0.8-6.4,1.1c-1.1,0.1-2.1,0.2-3.2,0.3c-1.1,0.1-2.1,0.2-3.2,0.2c-0.6,0-1.2-0.3-1.5-0.8
	C-296.4,162.8-296.2,161.8-295.4,161.4z"/>
<linearGradient id="SVGID_30_" gradientUnits="userSpaceOnUse" x1="-282.86" y1="127.3099" x2="-262.1139" y2="127.3099" gradientTransform="matrix(-1 0 0 1 -526.3488 0)">
	<stop  offset="3.505610e-03" style="stop-color:#E6D47C"/>
	<stop  offset="1" style="stop-color:#716224"/>
</linearGradient>
<path class="st29" d="M-250.3,124.9c0.7,0.3,1.3,0.7,1.9,1.1c1.2,0.8,2.2,1.7,3,2.7c0.4,0.4,0.7,0.9,0.9,1.3
	c0.3,0.4,0.5,0.8,0.6,1.1c0.3,0.6,0.4,1,0.4,1s-0.3-0.2-0.9-0.5c-0.6-0.4-1.3-0.8-2.3-1.3c-1.9-1-4.3-2-6.9-2.9
	c-2.6-0.9-5.3-1.8-7.3-2.7c-2-0.8-3.4-1.6-3.4-1.6s1.5-0.4,3.8-0.3c2.2,0,5.2,0.3,8.1,1.4C-251.7,124.3-250.9,124.5-250.3,124.9z"/>
<linearGradient id="SVGID_31_" gradientUnits="userSpaceOnUse" x1="-337.7741" y1="151.0098" x2="-315.496" y2="151.0098" gradientTransform="matrix(-1 0 0 1 -526.3488 0)">
	<stop  offset="3.505610e-03" style="stop-color:#E6D47C"/>
	<stop  offset="1" style="stop-color:#716224"/>
</linearGradient>
<path class="st30" d="M-192.3,150.9c-0.3-1.2-0.8-2.4-1.4-3.6c-0.6-1.1-1.3-2.2-2.1-3.2c-0.9-1-1.7-1.8-2.7-2.6
	c-1.9-1.5-4.1-2.5-6-3.1c-1-0.3-1.9-0.5-2.7-0.6c-0.8-0.1-1.6-0.2-2.1-0.1c-0.6,0.1-1,0.2-1.2,0.5c-0.2,0.2-0.3,0.4-0.3,0.4
	s0-0.2,0.1-0.5c0.2-0.3,0.6-0.8,1.2-1c0.6-0.3,1.4-0.4,2.3-0.5c0.9-0.1,1.9-0.1,3.1,0c2.3,0.2,4.9,0.9,7.4,2.5
	c1.2,0.8,2.5,1.7,3.5,2.9c1,1.1,2,2.4,2.7,3.8c0.7,1.4,1.2,2.9,1.6,4.4c0.4,1.5,0.4,3,0.4,4.5c0,0.4-0.1,0.8-0.1,1.1
	c0,0.3-0.1,0.7-0.1,1c-0.2,0.8-0.3,1.4-0.6,2.1c-0.4,1.3-1.1,2.4-1.8,3.3c-1.4,1.9-3.2,2.9-4.5,3.2c-0.6,0.2-1.2,0.2-1.5,0.2
	c-0.3,0-0.5,0-0.5,0s0.2-0.1,0.5-0.2c0.3-0.1,0.8-0.3,1.3-0.6c1-0.6,2.2-1.9,3-3.7c0.4-0.9,0.7-1.9,1-3c0.1-0.5,0.2-1.1,0.2-1.6
	c0-0.3,0-0.6,0-1l0-0.9C-191.7,153.4-191.9,152.1-192.3,150.9z"/>
<g>
	<linearGradient id="SVGID_32_" gradientUnits="userSpaceOnUse" x1="-377.3365" y1="53.2991" x2="-350.7689" y2="53.2991">
		<stop  offset="3.505610e-03" style="stop-color:#E6D47C"/>
		<stop  offset="1" style="stop-color:#716224"/>
	</linearGradient>
	<path class="st31" d="M-350.8,42.4l-0.6,0.9l-0.5,0.9c-0.3,0.7-0.6,1.3-0.8,2c-0.2,0.7-0.4,1.4-0.5,2c-0.1,0.7-0.2,1.4-0.2,2
		c0,0.7,0,1.4,0,2c0.1,0.7,0.2,1.3,0.3,2c0.2,0.6,0.4,1.3,0.6,1.9c0.3,0.6,0.6,1.2,0.9,1.7c0.5,0.8,0.3,1.8-0.5,2.3
		c-0.7,0.5-1.7,0.3-2.2-0.4l-0.1-0.1c-0.6-0.7-1.3-1.4-2.2-1.8c-0.9-0.4-1.8-0.7-2.8-0.7c-2-0.1-3.6,0.7-5.4,2.3l-1.3,1.3
		c-0.5,0.4-0.9,0.9-1.4,1.3c-1,0.9-2.2,1.7-3.5,2.1c-0.7,0.2-1.4,0.4-2.1,0.3c-0.8,0-1.5-0.2-2.1-0.6c-0.6-0.3-1.2-0.8-1.6-1.3
		c-0.4-0.6-0.6-1.2-0.6-1.9c0.4,1.2,1.5,1.9,2.5,2.1c0.5,0.1,1.1,0.1,1.5,0c0.5-0.1,1-0.3,1.5-0.5c0.9-0.5,1.7-1.3,2.5-2.1
		c0.4-0.4,0.8-0.9,1.1-1.4c0.4-0.5,0.8-1,1.2-1.4c0.4-0.5,0.9-1,1.5-1.4c0.3-0.2,0.5-0.4,0.9-0.7l0.4-0.3c0.2-0.1,0.3-0.2,0.5-0.3
		c1.4-0.7,2.9-1,4.4-0.9c1.5,0,3,0.5,4.3,1.2c1.3,0.7,2.5,1.8,3.3,3.1l-2.8,1.7c-0.4-0.7-0.7-1.5-1-2.3c-0.2-0.8-0.4-1.6-0.5-2.4
		c-0.1-0.8-0.1-1.6-0.1-2.4c0-0.8,0.1-1.6,0.3-2.4c0.2-0.8,0.4-1.5,0.7-2.3c0.3-0.7,0.7-1.4,1.1-2.1l0.7-0.9l0.8-0.9
		C-352,43.2-351.4,42.8-350.8,42.4z"/>
</g>
<g>
	<linearGradient id="SVGID_33_" gradientUnits="userSpaceOnUse" x1="-349.5704" y1="53.2991" x2="-323.0028" y2="53.2991">
		<stop  offset="3.505610e-03" style="stop-color:#E6D47C"/>
		<stop  offset="1" style="stop-color:#716224"/>
	</linearGradient>
	<path class="st32" d="M-349.6,42.4c0.6,0.4,1.2,0.9,1.7,1.4l0.8,0.9l0.7,0.9c0.4,0.7,0.8,1.3,1.1,2.1c0.3,0.7,0.5,1.5,0.7,2.3
		c0.2,0.8,0.3,1.6,0.3,2.4c0,0.8,0,1.6-0.1,2.4c-0.1,0.8-0.3,1.6-0.5,2.4c-0.3,0.8-0.6,1.6-1,2.3l-2.8-1.7c0.8-1.3,2-2.3,3.3-3.1
		c1.3-0.7,2.8-1.2,4.3-1.2c1.5,0,3,0.2,4.4,0.9c0.2,0.1,0.3,0.2,0.5,0.3l0.4,0.3c0.3,0.2,0.6,0.4,0.9,0.7c0.5,0.5,1,0.9,1.5,1.4
		c0.4,0.5,0.9,1,1.2,1.4c0.4,0.5,0.8,0.9,1.1,1.4c0.8,0.8,1.6,1.6,2.5,2.1c0.5,0.3,0.9,0.4,1.5,0.5c0.4,0.1,1,0.1,1.5,0
		c1-0.2,2.1-0.9,2.5-2.1c0,0.6-0.2,1.3-0.6,1.9c-0.4,0.6-0.9,1-1.6,1.3c-0.6,0.3-1.3,0.5-2.1,0.6c-0.7,0.1-1.4-0.1-2.1-0.3
		c-1.4-0.4-2.5-1.2-3.5-2.1c-0.5-0.4-1-0.9-1.4-1.3l-1.3-1.3c-1.7-1.6-3.4-2.4-5.4-2.3c-1,0.1-1.9,0.3-2.8,0.7
		c-0.9,0.4-1.6,1.1-2.2,1.8l-0.1,0.1c-0.6,0.7-1.6,0.9-2.3,0.3c-0.7-0.5-0.8-1.5-0.4-2.2c0.3-0.5,0.6-1.1,0.9-1.7
		c0.2-0.6,0.4-1.2,0.6-1.9c0.2-0.6,0.3-1.3,0.3-2c0.1-0.7,0.1-1.3,0-2c0-0.7-0.1-1.4-0.2-2c-0.1-0.7-0.3-1.4-0.5-2
		c-0.2-0.7-0.5-1.3-0.8-2l-0.5-0.9L-349.6,42.4z"/>
</g>
<g>
	<g>
		<text transform="matrix(1 0 0 1 802.7651 289.2293)" style="font-family:'MuseoCyrl-500'; font-size:52.4313px;">G</text>
	</g>
	<g>
		<text transform="matrix(1 0 0 1 828.8403 308.0144)" style="font-family:'MuseoCyrl-500'; font-size:52.4313px;">H</text>
	</g>
</g>
<linearGradient id="SVGID_34_" gradientUnits="userSpaceOnUse" x1="786.0074" y1="286.505" x2="888.9273" y2="286.505">
	<stop  offset="3.505610e-03" style="stop-color:#E6D47C"/>
	<stop  offset="1" style="stop-color:#716224"/>
</linearGradient>
<path class="st33" d="M882.7,251.5l-37.9-19.8c-2.1-1.2-4.7-1.6-7.2-1.6c-2.6,0-5.1,0.5-7.2,1.6l-37.9,19.5c-4.2,2.3-7,7.7-6.3,12.3
	l7.2,41.7c0.7,4.7,4.9,9.5,9.3,10.9l28.2,9.5c0.2,0,0.5,0.2,0.7,0.2c-0.2,0.5-0.2,0.9-0.5,1.4c-1.2,3.5-4,6.1-5.8,7.4
	c-1.4,1.4-3,2.3-3,2.3l1.2,3l1.6-0.9c0.2-0.2,4.2-2.6,7-6.5c1.4,5.1,4.4,8.6,4.7,8.8l1.4,1.4l1.2-1.4c0.2-0.2,3.5-4,4.7-8.8
	c2.8,4.2,6.7,6.3,7,6.5l1.6,0.9l1.2-3c0,0-1.4-1.2-3-2.3c-1.9-1.4-4.7-4-5.8-7.4c-0.2-0.5-0.5-0.9-0.5-1.4c0.5,0,0.7-0.2,1.2-0.2
	l26.8-9.3c4.4-1.6,8.6-6.3,9.3-10.9l7.2-41.7C889.7,259.2,886.9,253.8,882.7,251.5z M885.7,263.1l-7.2,41.7c-0.5,3.3-3.7,7-7,8.1
	l-26.8,9.3c-0.2,0-0.5,0.2-0.7,0.2c-1.2,0.5-2.3,0.7-3.5,0.7c0.2,0.7,0.2,1.2,0.5,1.9c0.2,1.2,0.2,2.3,0.2,3.5c0,3.7-1.9,7-3,8.8
	c-1.4-1.9-3-5.1-3-8.8c0-1.2,0-2.3,0.2-3.5c0-0.7,0.2-1.2,0.2-1.9c-1.4-0.2-2.6-0.5-3.5-0.7H832l-28.2-9.5c-3.3-1.2-6.5-4.9-7-8.1
	l-7.2-41.7c-0.5-3.3,1.6-7.2,4.4-8.6l37.9-19.8c3-1.6,8.4-1.6,11.4,0l37.9,19.8C884.3,255.9,886.2,259.9,885.7,263.1z"/>
<path class="st34" d="M-326.8,127.7"/>
</svg>
